<svg width="414" height="896" viewBox="0 0 414 896" fill="none" xmlns="http://www.w3.org/2000/svg">
<g clip-path="url(#clip0_123_1811)">
<rect width="414" height="896" fill="white"/>
<rect width="414" height="891" rx="10" fill="#5C0826"/>
<g filter="url(#filter0_bd_123_1811)">
<rect x="24" y="138" width="370" height="563" rx="6.48" fill="url(#paint0_linear_123_1811)" shape-rendering="crispEdges"/>
</g>
<path fill-rule="evenodd" clip-rule="evenodd" d="M323 20H324C324.552 20 325 20.4477 325 21V27C325 27.5523 324.552 28 324 28H323C322.448 28 322 27.5523 322 27V21C322 20.4477 322.448 20 323 20Z" fill="#D1D1D6"/>
<path fill-rule="evenodd" clip-rule="evenodd" d="M318.5 22H319.5C320.052 22 320.5 22.4477 320.5 23V27C320.5 27.5523 320.052 28 319.5 28H318.5C317.948 28 317.5 27.5523 317.5 27V23C317.5 22.4477 317.948 22 318.5 22Z" fill="#D1D1D6"/>
<path fill-rule="evenodd" clip-rule="evenodd" d="M314 23.5H315C315.552 23.5 316 23.9477 316 24.5V27C316 27.5523 315.552 28 315 28H314C313.448 28 313 27.5523 313 27V24.5C313 23.9477 313.448 23.5 314 23.5Z" fill="#D1D1D6"/>
<path fill-rule="evenodd" clip-rule="evenodd" d="M327.5 18H328.5C329.052 18 329.5 18.4477 329.5 19V27C329.5 27.5523 329.052 28 328.5 28H327.5C326.948 28 326.5 27.5523 326.5 27V19C326.5 18.4477 326.948 18 327.5 18Z" fill="#3C3C43" fill-opacity="0.18"/>
<path fill-rule="evenodd" clip-rule="evenodd" d="M323 20H324C324.552 20 325 20.4477 325 21V27C325 27.5523 324.552 28 324 28H323C322.448 28 322 27.5523 322 27V21C322 20.4477 322.448 20 323 20Z" fill="white"/>
<path fill-rule="evenodd" clip-rule="evenodd" d="M318.5 22H319.5C320.052 22 320.5 22.4477 320.5 23V27C320.5 27.5523 320.052 28 319.5 28H318.5C317.948 28 317.5 27.5523 317.5 27V23C317.5 22.4477 317.948 22 318.5 22Z" fill="white"/>
<path fill-rule="evenodd" clip-rule="evenodd" d="M314 23.5H315C315.552 23.5 316 23.9477 316 24.5V27C316 27.5523 315.552 28 315 28H314C313.448 28 313 27.5523 313 27V24.5C313 23.9477 313.448 23.5 314 23.5Z" fill="white"/>
<path d="M343.133 24.9396C343.772 24.9396 344.394 25.1076 344.941 25.428L345.163 25.5579C345.331 25.6563 345.361 25.8866 345.223 26.0242L343.329 27.913C343.212 28.029 343.024 28.029 342.907 27.913L341.026 26.0363C340.888 25.8994 340.917 25.6702 341.084 25.5711L341.303 25.4406C341.855 25.1121 342.485 24.9396 343.133 24.9396Z" fill="white"/>
<path d="M343.133 21.4698C344.724 21.4698 346.251 21.9976 347.495 22.9749L347.671 23.113C347.811 23.2232 347.824 23.4306 347.697 23.5565L346.567 24.6841C346.462 24.7884 346.297 24.8004 346.178 24.7123L346.04 24.6098C345.2 23.9852 344.186 23.6502 343.133 23.6502C342.073 23.6502 341.053 23.9894 340.21 24.6211L340.072 24.7245C339.953 24.8134 339.787 24.8017 339.682 24.6971L338.552 23.5699C338.426 23.4443 338.438 23.2373 338.578 23.127L338.753 22.9888C340 22.0027 341.534 21.4698 343.133 21.4698Z" fill="white"/>
<path d="M343.133 18C345.657 18 348.072 18.8906 349.983 20.5229L350.146 20.6623C350.278 20.7749 350.285 20.9756 350.163 21.098L349.036 22.2219C348.926 22.3308 348.752 22.3385 348.634 22.2395L348.494 22.1228C346.989 20.8647 345.104 20.1804 343.133 20.1804C341.155 20.1804 339.263 20.8694 337.756 22.1354L337.617 22.2527C337.498 22.3521 337.324 22.3447 337.214 22.2356L336.087 21.1118C335.965 20.9895 335.972 20.7892 336.104 20.6765L336.266 20.5371C338.18 18.8959 340.601 18 343.133 18Z" fill="white"/>
<path d="M379 21C379.552 21 380 21.4477 380 22V24C380 24.5523 379.552 25 379 25V21Z" fill="#3C3C43" fill-opacity="0.6"/>
<path fill-rule="evenodd" clip-rule="evenodd" d="M358 17H375C376.657 17 378 18.3431 378 20V26C378 27.6569 376.657 29 375 29H358C356.343 29 355 27.6569 355 26V20C355 18.3431 356.343 17 358 17ZM358 18C356.895 18 356 18.8954 356 20V26C356 27.1046 356.895 28 358 28H375C376.105 28 377 27.1046 377 26V20C377 18.8954 376.105 18 375 18H358Z" fill="#3C3C43" fill-opacity="0.6"/>
<rect x="357" y="19" width="19" height="8" rx="1" fill="white"/>
<path d="M56.8672 28.0889C59.5552 28.0889 61.1519 25.9868 61.1519 22.4272C61.1519 21.0869 60.8955 19.959 60.4048 19.0874C59.6943 17.7324 58.4712 17 56.9258 17C54.626 17 53 18.5454 53 20.7134C53 22.7495 54.4648 24.229 56.479 24.229C57.7168 24.229 58.7202 23.6504 59.2183 22.647H59.2402C59.2402 22.647 59.2695 22.647 59.2769 22.647C59.2915 22.647 59.3428 22.647 59.3428 22.647C59.3428 25.064 58.4272 26.5068 56.8818 26.5068C55.9736 26.5068 55.2705 26.0088 55.0288 25.2104H53.1465C53.4614 26.9463 54.9336 28.0889 56.8672 28.0889ZM56.9331 22.7275C55.7173 22.7275 54.853 21.8633 54.853 20.6548C54.853 19.4756 55.7612 18.5747 56.9404 18.5747C58.1196 18.5747 59.0278 19.4902 59.0278 20.6841C59.0278 21.8633 58.1416 22.7275 56.9331 22.7275Z" fill="white"/>
<path d="M64.243 27.9863C64.9388 27.9863 65.4148 27.4883 65.4148 26.8291C65.4148 26.1626 64.9388 25.6719 64.243 25.6719C63.5545 25.6719 63.0711 26.1626 63.0711 26.8291C63.0711 27.4883 63.5545 27.9863 64.243 27.9863ZM64.243 22.4932C64.9388 22.4932 65.4148 22.0024 65.4148 21.3433C65.4148 20.6768 64.9388 20.186 64.243 20.186C63.5545 20.186 63.0711 20.6768 63.0711 21.3433C63.0711 22.0024 63.5545 22.4932 64.243 22.4932Z" fill="white"/>
<path d="M72.2706 27.8325H74.0797V25.8623H75.5079V24.2656H74.0797V17.2637H71.4137C69.546 20.0762 68.0592 22.4272 67.107 24.1777V25.8623H72.2706V27.8325ZM68.8575 24.1997C70.088 22.0317 71.1866 20.2959 72.1974 18.8018H72.2999V24.3096H68.8575V24.1997Z" fill="white"/>
<path d="M79.5365 27.8325H81.4262V17.2637H79.5438L76.7826 19.1973V21.0137L79.412 19.168H79.5365V27.8325Z" fill="white"/>
<circle cx="187" cy="816" r="5" fill="black"/>
<circle cx="207" cy="816" r="5" fill="#C4C4C4"/>
<circle cx="227" cy="816" r="5" fill="#C4C4C4"/>
<g style="mix-blend-mode:multiply">
<rect width="375" height="34" transform="translate(12 837)" fill="white"/>
<rect x="133" y="858" width="134" height="5" rx="2.5" fill="#262F5F"/>
<g filter="url(#filter1_f_123_1811)">
<ellipse cx="264.5" cy="1121.5" rx="252.5" ry="240.5" fill="#5C0826"/>
</g>
</g>
<g clip-path="url(#clip1_123_1811)">
<path d="M82.9 261C70.8094 261 61 270.809 61 282.9V472.7C61 484.791 70.8094 494.6 82.9 494.6H126.7V458.1C126.7 446.009 136.509 436.2 148.6 436.2C160.691 436.2 170.5 446.009 170.5 458.1V494.6H211.517C208.643 489.946 207 484.471 207 478.586C207 457.187 218.771 438.527 236.2 428.763V385.009V282.9C236.2 270.809 226.391 261 214.3 261H82.9ZM90.2 370.5C90.2 366.485 93.485 363.2 97.5 363.2H112.1C116.115 363.2 119.4 366.485 119.4 370.5V385.1C119.4 389.115 116.115 392.4 112.1 392.4H97.5C93.485 392.4 90.2 389.115 90.2 385.1V370.5ZM141.3 363.2H155.9C159.915 363.2 163.2 366.485 163.2 370.5V385.1C163.2 389.115 159.915 392.4 155.9 392.4H141.3C137.285 392.4 134 389.115 134 385.1V370.5C134 366.485 137.285 363.2 141.3 363.2ZM177.8 370.5C177.8 366.485 181.085 363.2 185.1 363.2H199.7C203.715 363.2 207 366.485 207 370.5V385.1C207 389.115 203.715 392.4 199.7 392.4H185.1C181.085 392.4 177.8 389.115 177.8 385.1V370.5ZM97.5 304.8H112.1C116.115 304.8 119.4 308.085 119.4 312.1V326.7C119.4 330.715 116.115 334 112.1 334H97.5C93.485 334 90.2 330.715 90.2 326.7V312.1C90.2 308.085 93.485 304.8 97.5 304.8ZM134 312.1C134 308.085 137.285 304.8 141.3 304.8H155.9C159.915 304.8 163.2 308.085 163.2 312.1V326.7C163.2 330.715 159.915 334 155.9 334H141.3C137.285 334 134 330.715 134 326.7V312.1ZM185.1 304.8H199.7C203.715 304.8 207 308.085 207 312.1V326.7C207 330.715 203.715 334 199.7 334H185.1C181.085 334 177.8 330.715 177.8 326.7V312.1C177.8 308.085 181.085 304.8 185.1 304.8ZM323.8 385.1C323.8 375.42 319.954 366.136 313.109 359.291C306.264 352.446 296.98 348.6 287.3 348.6C277.62 348.6 268.336 352.446 261.491 359.291C254.646 366.136 250.8 375.42 250.8 385.1C250.8 394.78 254.646 404.064 261.491 410.909C268.336 417.754 277.62 421.6 287.3 421.6C296.98 421.6 306.264 417.754 313.109 410.909C319.954 404.064 323.8 394.78 323.8 385.1ZM221.6 478.677C221.6 487.482 228.717 494.6 237.523 494.6H337.077C345.883 494.6 353 487.482 353 478.677C353 455.226 333.974 436.2 310.523 436.2H264.077C240.626 436.2 221.6 455.226 221.6 478.677Z" fill="#D98E04"/>
</g>
<path d="M108.257 602.97L114.917 582H118.937L125.627 602.97H122.237L120.617 597.81H113.267L111.647 602.97H108.257ZM116.957 585.96L114.107 595.08H119.777L116.957 585.96ZM131.512 603H128.332V582H131.512V603ZM147.594 603H144.384V601.71C144.104 602.23 143.614 602.62 142.914 602.88C142.214 603.14 141.434 603.27 140.574 603.27C139.734 603.29 138.904 603.18 138.084 602.94C137.284 602.7 136.614 602.35 136.074 601.89C134.834 600.77 134.214 599.13 134.214 596.97V588H137.424V596.97C137.424 598.11 137.754 598.94 138.414 599.46C139.094 599.98 139.944 600.24 140.964 600.24C141.484 600.24 142.004 600.13 142.524 599.91C143.064 599.67 143.504 599.31 143.844 598.83C144.204 598.35 144.384 597.73 144.384 596.97V588H147.594V603ZM157.408 609.12C156.748 609.12 156.068 609.01 155.368 608.79C154.688 608.59 154.048 608.31 153.448 607.95C152.868 607.61 152.408 607.23 152.068 606.81L154.108 604.65C154.688 605.17 155.348 605.55 156.088 605.79C156.848 606.03 157.558 606.09 158.218 605.97C158.878 605.85 159.378 605.5 159.718 604.92C159.938 604.56 160.088 604.16 160.168 603.72C160.248 603.28 160.288 602.78 160.288 602.22C159.088 602.9 157.898 603.19 156.718 603.09C155.538 603.01 154.458 602.64 153.478 601.98C152.518 601.3 151.748 600.42 151.168 599.34C150.608 598.24 150.318 597.02 150.298 595.68C150.278 594.12 150.538 592.77 151.078 591.63C151.618 590.49 152.358 589.6 153.298 588.96C154.258 588.32 155.338 587.97 156.538 587.91C157.758 587.83 159.038 588.09 160.378 588.69V588H163.558V602.34C163.558 604.4 163.028 606.04 161.968 607.26C160.928 608.5 159.408 609.12 157.408 609.12ZM153.448 595.68C153.448 596.6 153.648 597.38 154.048 598.02C154.468 598.64 155.008 599.11 155.668 599.43C156.348 599.73 157.088 599.87 157.888 599.85C158.708 599.83 159.538 599.63 160.378 599.25V591.78C159.078 591.1 157.898 590.81 156.838 590.91C155.798 590.99 154.968 591.44 154.348 592.26C153.748 593.06 153.448 594.2 153.448 595.68ZM179.644 603H176.434V601.71C176.154 602.23 175.664 602.62 174.964 602.88C174.264 603.14 173.484 603.27 172.624 603.27C171.784 603.29 170.954 603.18 170.134 602.94C169.334 602.7 168.664 602.35 168.124 601.89C166.884 600.77 166.264 599.13 166.264 596.97V588H169.474V596.97C169.474 598.11 169.804 598.94 170.464 599.46C171.144 599.98 171.994 600.24 173.014 600.24C173.534 600.24 174.054 600.13 174.574 599.91C175.114 599.67 175.554 599.31 175.894 598.83C176.254 598.35 176.434 597.73 176.434 596.97V588H179.644V603ZM196.658 596.67H185.768C185.828 597.71 186.168 598.52 186.788 599.1C187.408 599.66 188.178 600 189.098 600.12C190.038 600.24 191.008 600.16 192.008 599.88C193.028 599.58 193.948 599.08 194.768 598.38L196.508 600.81C195.468 601.69 194.388 602.32 193.268 602.7C192.168 603.08 191.068 603.27 189.968 603.27C187.448 603.29 185.538 602.59 184.238 601.17C182.958 599.73 182.318 597.71 182.318 595.11C182.318 592.89 182.958 591.12 184.238 589.8C185.538 588.48 187.328 587.82 189.608 587.82C192.848 587.84 194.998 589.11 196.058 591.63C196.358 592.33 196.548 593.09 196.628 593.91C196.708 594.73 196.718 595.65 196.658 596.67ZM189.878 590.82C188.598 590.82 187.588 591.16 186.848 591.84C186.128 592.5 185.768 593.33 185.768 594.33H193.868C193.868 593.35 193.518 592.52 192.818 591.84C192.138 591.16 191.158 590.82 189.878 590.82ZM210.591 601.05L212.451 599.04C213.611 599.98 214.761 600.45 215.901 600.45C216.221 600.45 216.531 600.41 216.831 600.33C217.131 600.25 217.391 600.11 217.611 599.91C217.891 599.69 218.071 599.4 218.151 599.04C218.231 598.68 218.231 598.37 218.151 598.11C218.051 597.71 217.791 597.4 217.371 597.18C216.951 596.96 216.441 596.76 215.841 596.58C215.261 596.4 214.661 596.19 214.041 595.95C213.441 595.71 212.891 595.39 212.391 594.99C211.571 594.29 211.081 593.54 210.921 592.74C210.761 591.92 210.871 591.15 211.251 590.43C211.631 589.69 212.211 589.09 212.991 588.63C213.791 588.15 214.751 587.89 215.871 587.85C216.911 587.83 217.871 588 218.751 588.36C219.631 588.7 220.331 589.15 220.851 589.71L218.811 591.57C218.451 591.25 218.011 591.02 217.491 590.88C216.971 590.72 216.481 590.64 216.021 590.64C215.501 590.64 215.051 590.75 214.671 590.97C214.291 591.19 214.091 591.56 214.071 592.08C214.071 592.58 214.301 592.97 214.761 593.25C215.221 593.53 215.801 593.78 216.501 594C217.221 594.2 217.941 594.47 218.661 594.81C219.401 595.15 220.001 595.65 220.461 596.31C220.921 596.95 221.121 597.78 221.061 598.8C221.021 599.76 220.751 600.57 220.251 601.23C219.771 601.89 219.131 602.39 218.331 602.73C217.551 603.05 216.701 603.21 215.781 603.21C214.861 603.21 213.941 603.04 213.021 602.7C212.121 602.34 211.311 601.79 210.591 601.05ZM227.898 603.15C226.438 603.09 225.288 602.67 224.448 601.89C223.608 601.11 223.188 600.01 223.188 598.59C223.188 597.53 223.438 596.64 223.938 595.92C224.458 595.18 225.158 594.6 226.038 594.18C226.918 593.76 227.908 593.51 229.008 593.43C230.128 593.33 231.278 593.4 232.458 593.64V592.68C232.458 592.1 232.268 591.65 231.888 591.33C231.528 591.01 231.048 590.8 230.448 590.7C229.868 590.6 229.238 590.6 228.558 590.7C227.898 590.8 227.268 591 226.668 591.3C226.088 591.58 225.618 591.94 225.258 592.38L223.428 590.4C224.128 589.66 224.968 589.08 225.948 588.66C226.948 588.24 227.978 587.99 229.038 587.91C230.118 587.83 231.128 587.93 232.068 588.21C233.028 588.47 233.838 588.92 234.498 589.56C235.158 590.14 235.528 590.92 235.608 591.9C235.688 592.88 235.728 593.98 235.728 595.2V603H232.488V601.62C231.828 602.18 231.098 602.58 230.298 602.82C229.498 603.06 228.698 603.17 227.898 603.15ZM232.398 599.01V595.98C230.218 595.78 228.618 595.9 227.598 596.34C226.598 596.76 226.098 597.5 226.098 598.56C226.098 599.22 226.318 599.7 226.758 600C227.218 600.28 227.778 600.42 228.438 600.42C229.118 600.4 229.808 600.27 230.508 600.03C231.228 599.77 231.858 599.43 232.398 599.01ZM241.903 603H238.723V582H241.903V603ZM249.314 603.15C247.854 603.09 246.704 602.67 245.864 601.89C245.024 601.11 244.604 600.01 244.604 598.59C244.604 597.53 244.854 596.64 245.354 595.92C245.874 595.18 246.574 594.6 247.454 594.18C248.334 593.76 249.324 593.51 250.424 593.43C251.544 593.33 252.694 593.4 253.874 593.64V592.68C253.874 592.1 253.684 591.65 253.304 591.33C252.944 591.01 252.464 590.8 251.864 590.7C251.284 590.6 250.654 590.6 249.974 590.7C249.314 590.8 248.684 591 248.084 591.3C247.504 591.58 247.034 591.94 246.674 592.38L244.844 590.4C245.544 589.66 246.384 589.08 247.364 588.66C248.364 588.24 249.394 587.99 250.454 587.91C251.534 587.83 252.544 587.93 253.484 588.21C254.444 588.47 255.254 588.92 255.914 589.56C256.574 590.14 256.944 590.92 257.024 591.9C257.104 592.88 257.144 593.98 257.144 595.2V603H253.904V601.62C253.244 602.18 252.514 602.58 251.714 602.82C250.914 603.06 250.114 603.17 249.314 603.15ZM253.814 599.01V595.98C251.634 595.78 250.034 595.9 249.014 596.34C248.014 596.76 247.514 597.5 247.514 598.56C247.514 599.22 247.734 599.7 248.174 600C248.634 600.28 249.194 600.42 249.854 600.42C250.534 600.4 251.224 600.27 251.924 600.03C252.644 599.77 253.274 599.43 253.814 599.01ZM259.839 601.05L261.699 599.04C262.859 599.98 264.009 600.45 265.149 600.45C265.469 600.45 265.779 600.41 266.079 600.33C266.379 600.25 266.639 600.11 266.859 599.91C267.139 599.69 267.319 599.4 267.399 599.04C267.479 598.68 267.479 598.37 267.399 598.11C267.299 597.71 267.039 597.4 266.619 597.18C266.199 596.96 265.689 596.76 265.089 596.58C264.509 596.4 263.909 596.19 263.289 595.95C262.689 595.71 262.139 595.39 261.639 594.99C260.819 594.29 260.329 593.54 260.169 592.74C260.009 591.92 260.119 591.15 260.499 590.43C260.879 589.69 261.459 589.09 262.239 588.63C263.039 588.15 263.999 587.89 265.119 587.85C266.159 587.83 267.119 588 267.999 588.36C268.879 588.7 269.579 589.15 270.099 589.71L268.059 591.57C267.699 591.25 267.259 591.02 266.739 590.88C266.219 590.72 265.729 590.64 265.269 590.64C264.749 590.64 264.299 590.75 263.919 590.97C263.539 591.19 263.339 591.56 263.319 592.08C263.319 592.58 263.549 592.97 264.009 593.25C264.469 593.53 265.049 593.78 265.749 594C266.469 594.2 267.189 594.47 267.909 594.81C268.649 595.15 269.249 595.65 269.709 596.31C270.169 596.95 270.369 597.78 270.309 598.8C270.269 599.76 269.999 600.57 269.499 601.23C269.019 601.89 268.379 602.39 267.579 602.73C266.799 603.05 265.949 603.21 265.029 603.21C264.109 603.21 263.189 603.04 262.269 602.7C261.369 602.34 260.559 601.79 259.839 601.05ZM297.806 603H294.626V594.18C294.626 593.32 294.446 592.66 294.086 592.2C293.746 591.74 293.316 591.42 292.796 591.24C292.296 591.06 291.796 590.97 291.296 590.97C290.816 590.97 290.286 591.06 289.706 591.24C289.126 591.42 288.626 591.75 288.206 592.23C287.806 592.69 287.606 593.34 287.606 594.18V603H284.426V588H287.606V589.26C287.986 588.74 288.546 588.37 289.286 588.15C290.046 587.93 290.786 587.82 291.506 587.82C292.746 587.82 293.836 588.08 294.776 588.6C295.736 589.12 296.476 589.86 296.996 590.82C297.536 591.76 297.806 592.88 297.806 594.18V603ZM307.47 603.39C306.03 603.39 304.76 603.08 303.66 602.46C302.58 601.82 301.73 600.94 301.11 599.82C300.51 598.68 300.21 597.36 300.21 595.86C300.21 594.1 300.52 592.63 301.14 591.45C301.76 590.25 302.61 589.35 303.69 588.75C304.79 588.15 306.05 587.85 307.47 587.85C308.89 587.85 310.14 588.15 311.22 588.75C312.32 589.35 313.18 590.25 313.8 591.45C314.42 592.63 314.73 594.1 314.73 595.86C314.73 597.36 314.42 598.68 313.8 599.82C313.18 600.94 312.32 601.82 311.22 602.46C310.14 603.08 308.89 603.39 307.47 603.39ZM307.47 600.33C308.37 600.33 309.13 600.12 309.75 599.7C310.37 599.28 310.84 598.73 311.16 598.05C311.5 597.37 311.67 596.64 311.67 595.86C311.67 594.46 311.31 593.29 310.59 592.35C309.87 591.39 308.83 590.91 307.47 590.91C306.13 590.91 305.09 591.38 304.35 592.32C303.63 593.26 303.27 594.44 303.27 595.86C303.27 596.66 303.43 597.4 303.75 598.08C304.09 598.76 304.57 599.31 305.19 599.73C305.81 600.13 306.57 600.33 307.47 600.33ZM152.151 637.15C150.691 637.09 149.541 636.67 148.701 635.89C147.861 635.11 147.441 634.01 147.441 632.59C147.441 631.53 147.691 630.64 148.191 629.92C148.711 629.18 149.411 628.6 150.291 628.18C151.171 627.76 152.161 627.51 153.261 627.43C154.381 627.33 155.531 627.4 156.711 627.64V626.68C156.711 626.1 156.521 625.65 156.141 625.33C155.781 625.01 155.301 624.8 154.701 624.7C154.121 624.6 153.491 624.6 152.811 624.7C152.151 624.8 151.521 625 150.921 625.3C150.341 625.58 149.871 625.94 149.511 626.38L147.681 624.4C148.381 623.66 149.221 623.08 150.201 622.66C151.201 622.24 152.231 621.99 153.291 621.91C154.371 621.83 155.381 621.93 156.321 622.21C157.281 622.47 158.091 622.92 158.751 623.56C159.411 624.14 159.781 624.92 159.861 625.9C159.941 626.88 159.981 627.98 159.981 629.2V637H156.741V635.62C156.081 636.18 155.351 636.58 154.551 636.82C153.751 637.06 152.951 637.17 152.151 637.15ZM156.651 633.01V629.98C154.471 629.78 152.871 629.9 151.851 630.34C150.851 630.76 150.351 631.5 150.351 632.56C150.351 633.22 150.571 633.7 151.011 634C151.471 634.28 152.031 634.42 152.691 634.42C153.371 634.4 154.061 634.27 154.761 634.03C155.481 633.77 156.111 633.43 156.651 633.01ZM166.156 643H162.976V622H166.156V622.84C167.396 622.14 168.626 621.82 169.846 621.88C171.086 621.94 172.216 622.31 173.236 622.99C174.256 623.65 175.076 624.56 175.696 625.72C176.316 626.88 176.626 628.22 176.626 629.74C176.626 631.14 176.326 632.4 175.726 633.52C175.126 634.64 174.306 635.53 173.266 636.19C172.226 636.85 171.056 637.19 169.756 637.21C169.276 637.21 168.676 637.15 167.956 637.03C167.236 636.93 166.636 636.72 166.156 636.4V643ZM166.156 633.34C167.396 633.96 168.566 634.21 169.666 634.09C170.786 633.97 171.686 633.54 172.366 632.8C173.046 632.04 173.386 631.02 173.386 629.74C173.386 628.66 173.176 627.76 172.756 627.04C172.356 626.3 171.806 625.76 171.106 625.42C170.406 625.06 169.626 624.92 168.766 625C167.926 625.08 167.056 625.39 166.156 625.93V633.34ZM182.503 637H179.323V616H182.503V637ZM187.485 620.17C186.945 620.17 186.475 619.98 186.075 619.6C185.695 619.2 185.505 618.72 185.505 618.16C185.505 617.62 185.695 617.16 186.075 616.78C186.475 616.4 186.945 616.21 187.485 616.21C188.045 616.21 188.515 616.4 188.895 616.78C189.275 617.16 189.465 617.62 189.465 618.16C189.465 618.72 189.275 619.2 188.895 619.6C188.515 619.98 188.045 620.17 187.485 620.17ZM188.985 637H186.015V622H188.985V637ZM204.222 634.96C203.202 635.92 202.112 636.58 200.952 636.94C199.812 637.28 198.682 637.35 197.562 637.15C196.462 636.97 195.462 636.55 194.562 635.89C193.662 635.21 192.942 634.33 192.402 633.25C191.862 632.17 191.592 630.91 191.592 629.47C191.592 628.01 191.852 626.74 192.372 625.66C192.912 624.58 193.632 623.73 194.532 623.11C195.432 622.47 196.432 622.07 197.532 621.91C198.652 621.75 199.792 621.86 200.952 622.24C202.132 622.6 203.242 623.25 204.282 624.19L202.182 626.47C201.482 625.73 200.712 625.28 199.872 625.12C199.032 624.94 198.222 625 197.442 625.3C196.682 625.6 196.052 626.11 195.552 626.83C195.052 627.55 194.802 628.43 194.802 629.47C194.802 630.59 195.052 631.52 195.552 632.26C196.052 633 196.682 633.53 197.442 633.85C198.222 634.15 199.042 634.21 199.902 634.03C200.782 633.83 201.582 633.36 202.302 632.62L204.222 634.96ZM210.804 637.15C209.344 637.09 208.194 636.67 207.354 635.89C206.514 635.11 206.094 634.01 206.094 632.59C206.094 631.53 206.344 630.64 206.844 629.92C207.364 629.18 208.064 628.6 208.944 628.18C209.824 627.76 210.814 627.51 211.914 627.43C213.034 627.33 214.184 627.4 215.364 627.64V626.68C215.364 626.1 215.174 625.65 214.794 625.33C214.434 625.01 213.954 624.8 213.354 624.7C212.774 624.6 212.144 624.6 211.464 624.7C210.804 624.8 210.174 625 209.574 625.3C208.994 625.58 208.524 625.94 208.164 626.38L206.334 624.4C207.034 623.66 207.874 623.08 208.854 622.66C209.854 622.24 210.884 621.99 211.944 621.91C213.024 621.83 214.034 621.93 214.974 622.21C215.934 622.47 216.744 622.92 217.404 623.56C218.064 624.14 218.434 624.92 218.514 625.9C218.594 626.88 218.634 627.98 218.634 629.2V637H215.394V635.62C214.734 636.18 214.004 636.58 213.204 636.82C212.404 637.06 211.604 637.17 210.804 637.15ZM215.304 633.01V629.98C213.124 629.78 211.524 629.9 210.504 630.34C209.504 630.76 209.004 631.5 209.004 632.56C209.004 633.22 209.224 633.7 209.664 634C210.124 634.28 210.684 634.42 211.344 634.42C212.024 634.4 212.714 634.27 213.414 634.03C214.134 633.77 214.764 633.43 215.304 633.01ZM223.551 630.31V624.97H221.211V622H223.551V616H226.701V622H229.131V624.97H226.701V630.31C226.701 631.21 226.751 631.91 226.851 632.41C226.971 632.91 227.131 633.26 227.331 633.46C227.551 633.66 227.801 633.78 228.081 633.82C228.381 633.86 228.701 633.89 229.041 633.91H229.641V637.06H229.131C228.071 637.06 227.181 636.98 226.461 636.82C225.761 636.66 225.191 636.35 224.751 635.89C224.331 635.41 224.021 634.73 223.821 633.85C223.641 632.95 223.551 631.77 223.551 630.31ZM234.418 620.17C233.878 620.17 233.408 619.98 233.008 619.6C232.628 619.2 232.438 618.72 232.438 618.16C232.438 617.62 232.628 617.16 233.008 616.78C233.408 616.4 233.878 616.21 234.418 616.21C234.978 616.21 235.448 616.4 235.828 616.78C236.208 617.16 236.398 617.62 236.398 618.16C236.398 618.72 236.208 619.2 235.828 619.6C235.448 619.98 234.978 620.17 234.418 620.17ZM235.918 637H232.948V622H235.918V637ZM253.511 622L248.081 637H244.571L239.111 622H242.441L246.311 633.52L250.181 622H253.511ZM261.664 637.39C260.224 637.39 258.954 637.08 257.854 636.46C256.774 635.82 255.924 634.94 255.304 633.82C254.704 632.68 254.404 631.36 254.404 629.86C254.404 628.1 254.714 626.63 255.334 625.45C255.954 624.25 256.804 623.35 257.884 622.75C258.984 622.15 260.244 621.85 261.664 621.85C263.084 621.85 264.334 622.15 265.414 622.75C266.514 623.35 267.374 624.25 267.994 625.45C268.614 626.63 268.924 628.1 268.924 629.86C268.924 631.36 268.614 632.68 267.994 633.82C267.374 634.94 266.514 635.82 265.414 636.46C264.334 637.08 263.084 637.39 261.664 637.39ZM261.664 634.33C262.564 634.33 263.324 634.12 263.944 633.7C264.564 633.28 265.034 632.73 265.354 632.05C265.694 631.37 265.864 630.64 265.864 629.86C265.864 628.46 265.504 627.29 264.784 626.35C264.064 625.39 263.024 624.91 261.664 624.91C260.324 624.91 259.284 625.38 258.544 626.32C257.824 627.26 257.464 628.44 257.464 629.86C257.464 630.66 257.624 631.4 257.944 632.08C258.284 632.76 258.764 633.31 259.384 633.73C260.004 634.13 260.764 634.33 261.664 634.33ZM274.938 616L274.788 631.6H272.118L271.968 616H274.938ZM273.468 637.42C272.968 637.4 272.528 637.22 272.148 636.88C271.788 636.52 271.618 636.09 271.638 635.59C271.658 635.09 271.838 634.67 272.178 634.33C272.538 633.97 272.968 633.79 273.468 633.79C273.968 633.77 274.388 633.94 274.728 634.3C275.088 634.66 275.268 635.09 275.268 635.59C275.288 636.09 275.118 636.53 274.758 636.91C274.398 637.27 273.968 637.44 273.468 637.42Z" fill="#F5F5F5"/>
</g>
<defs>
<filter id="filter0_bd_123_1811" x="-16.96" y="97.04" width="451.92" height="644.92" filterUnits="userSpaceOnUse" color-interpolation-filters="sRGB">
<feFlood flood-opacity="0" result="BackgroundImageFix"/>
<feGaussianBlur in="BackgroundImageFix" stdDeviation="20.48"/>
<feComposite in2="SourceAlpha" operator="in" result="effect1_backgroundBlur_123_1811"/>
<feColorMatrix in="SourceAlpha" type="matrix" values="0 0 0 0 0 0 0 0 0 0 0 0 0 0 0 0 0 0 127 0" result="hardAlpha"/>
<feMorphology radius="1.02" operator="erode" in="SourceAlpha" result="effect2_dropShadow_123_1811"/>
<feOffset dy="4.1"/>
<feGaussianBlur stdDeviation="12.285"/>
<feComposite in2="hardAlpha" operator="out"/>
<feColorMatrix type="matrix" values="0 0 0 0 0.13 0 0 0 0 0.0151667 0 0 0 0 0.0561786 0 0 0 1 0"/>
<feBlend mode="normal" in2="effect1_backgroundBlur_123_1811" result="effect2_dropShadow_123_1811"/>
<feBlend mode="normal" in="SourceGraphic" in2="effect2_dropShadow_123_1811" result="shape"/>
</filter>
<filter id="filter1_f_123_1811" x="-188" y="681" width="905" height="881" filterUnits="userSpaceOnUse" color-interpolation-filters="sRGB">
<feFlood flood-opacity="0" result="BackgroundImageFix"/>
<feBlend mode="normal" in="SourceGraphic" in2="BackgroundImageFix" result="shape"/>
<feGaussianBlur stdDeviation="100" result="effect1_foregroundBlur_123_1811"/>
</filter>
<linearGradient id="paint0_linear_123_1811" x1="24" y1="138" x2="317" y2="604" gradientUnits="userSpaceOnUse">
<stop stop-color="#D9D9D9" stop-opacity="0.4"/>
<stop offset="1" stop-color="#D9D9D9" stop-opacity="0"/>
</linearGradient>
<clipPath id="clip0_123_1811">
<rect width="414" height="896" fill="white"/>
</clipPath>
<clipPath id="clip1_123_1811">
<rect width="292" height="233.6" fill="white" transform="translate(61 261)"/>
</clipPath>
</defs>
</svg>
