<svg width="414" height="896" viewBox="0 0 414 896" fill="none" xmlns="http://www.w3.org/2000/svg">
<g clip-path="url(#clip0_123_1861)">
<rect width="414" height="896" rx="10" fill="#5C0826"/>
<rect width="414" height="896" fill="#5C0826"/>
<path fill-rule="evenodd" clip-rule="evenodd" d="M323 20H324C324.552 20 325 20.4477 325 21V27C325 27.5523 324.552 28 324 28H323C322.448 28 322 27.5523 322 27V21C322 20.4477 322.448 20 323 20Z" fill="#D1D1D6"/>
<path fill-rule="evenodd" clip-rule="evenodd" d="M318.5 22H319.5C320.052 22 320.5 22.4477 320.5 23V27C320.5 27.5523 320.052 28 319.5 28H318.5C317.948 28 317.5 27.5523 317.5 27V23C317.5 22.4477 317.948 22 318.5 22Z" fill="#D1D1D6"/>
<path fill-rule="evenodd" clip-rule="evenodd" d="M314 23.5H315C315.552 23.5 316 23.9477 316 24.5V27C316 27.5523 315.552 28 315 28H314C313.448 28 313 27.5523 313 27V24.5C313 23.9477 313.448 23.5 314 23.5Z" fill="#D1D1D6"/>
<path fill-rule="evenodd" clip-rule="evenodd" d="M327.5 18H328.5C329.052 18 329.5 18.4477 329.5 19V27C329.5 27.5523 329.052 28 328.5 28H327.5C326.948 28 326.5 27.5523 326.5 27V19C326.5 18.4477 326.948 18 327.5 18Z" fill="#3C3C43" fill-opacity="0.18"/>
<path fill-rule="evenodd" clip-rule="evenodd" d="M323 20H324C324.552 20 325 20.4477 325 21V27C325 27.5523 324.552 28 324 28H323C322.448 28 322 27.5523 322 27V21C322 20.4477 322.448 20 323 20Z" fill="black"/>
<path fill-rule="evenodd" clip-rule="evenodd" d="M318.5 22H319.5C320.052 22 320.5 22.4477 320.5 23V27C320.5 27.5523 320.052 28 319.5 28H318.5C317.948 28 317.5 27.5523 317.5 27V23C317.5 22.4477 317.948 22 318.5 22Z" fill="black"/>
<path fill-rule="evenodd" clip-rule="evenodd" d="M314 23.5H315C315.552 23.5 316 23.9477 316 24.5V27C316 27.5523 315.552 28 315 28H314C313.448 28 313 27.5523 313 27V24.5C313 23.9477 313.448 23.5 314 23.5Z" fill="black"/>
<path d="M343.133 24.9396C343.772 24.9396 344.394 25.1076 344.941 25.428L345.163 25.5579C345.331 25.6563 345.361 25.8866 345.223 26.0242L343.329 27.913C343.212 28.029 343.024 28.029 342.907 27.913L341.026 26.0363C340.888 25.8994 340.917 25.6702 341.084 25.5711L341.303 25.4406C341.855 25.1121 342.485 24.9396 343.133 24.9396Z" fill="black"/>
<path d="M343.133 21.4698C344.724 21.4698 346.251 21.9976 347.495 22.9749L347.671 23.113C347.811 23.2232 347.824 23.4306 347.697 23.5565L346.567 24.6841C346.462 24.7884 346.297 24.8004 346.178 24.7123L346.04 24.6098C345.2 23.9852 344.186 23.6502 343.133 23.6502C342.073 23.6502 341.053 23.9894 340.21 24.6211L340.072 24.7245C339.953 24.8134 339.787 24.8017 339.682 24.6971L338.552 23.5699C338.426 23.4443 338.438 23.2373 338.578 23.127L338.753 22.9888C340 22.0027 341.534 21.4698 343.133 21.4698Z" fill="black"/>
<path d="M343.133 18C345.657 18 348.072 18.8906 349.983 20.5229L350.146 20.6623C350.278 20.7749 350.285 20.9756 350.163 21.098L349.036 22.2219C348.926 22.3308 348.752 22.3385 348.634 22.2395L348.494 22.1228C346.989 20.8647 345.104 20.1804 343.133 20.1804C341.155 20.1804 339.263 20.8694 337.756 22.1354L337.617 22.2527C337.498 22.3521 337.324 22.3447 337.214 22.2356L336.087 21.1118C335.965 20.9895 335.972 20.7892 336.104 20.6765L336.266 20.5371C338.18 18.8959 340.601 18 343.133 18Z" fill="black"/>
<path d="M379 21C379.552 21 380 21.4477 380 22V24C380 24.5523 379.552 25 379 25V21Z" fill="#3C3C43" fill-opacity="0.6"/>
<path fill-rule="evenodd" clip-rule="evenodd" d="M358 17H375C376.657 17 378 18.3431 378 20V26C378 27.6569 376.657 29 375 29H358C356.343 29 355 27.6569 355 26V20C355 18.3431 356.343 17 358 17ZM358 18C356.895 18 356 18.8954 356 20V26C356 27.1046 356.895 28 358 28H375C376.105 28 377 27.1046 377 26V20C377 18.8954 376.105 18 375 18H358Z" fill="#3C3C43" fill-opacity="0.6"/>
<rect x="357" y="19" width="19" height="8" rx="1" fill="black"/>
<path d="M56.8672 28.0889C59.5552 28.0889 61.1519 25.9868 61.1519 22.4272C61.1519 21.0869 60.8955 19.959 60.4048 19.0874C59.6943 17.7324 58.4712 17 56.9258 17C54.626 17 53 18.5454 53 20.7134C53 22.7495 54.4648 24.229 56.479 24.229C57.7168 24.229 58.7202 23.6504 59.2183 22.647H59.2402C59.2402 22.647 59.2695 22.647 59.2769 22.647C59.2915 22.647 59.3428 22.647 59.3428 22.647C59.3428 25.064 58.4272 26.5068 56.8818 26.5068C55.9736 26.5068 55.2705 26.0088 55.0288 25.2104H53.1465C53.4614 26.9463 54.9336 28.0889 56.8672 28.0889ZM56.9331 22.7275C55.7173 22.7275 54.853 21.8633 54.853 20.6548C54.853 19.4756 55.7612 18.5747 56.9404 18.5747C58.1196 18.5747 59.0278 19.4902 59.0278 20.6841C59.0278 21.8633 58.1416 22.7275 56.9331 22.7275Z" fill="black"/>
<path d="M64.243 27.9863C64.9388 27.9863 65.4148 27.4883 65.4148 26.8291C65.4148 26.1626 64.9388 25.6719 64.243 25.6719C63.5545 25.6719 63.0711 26.1626 63.0711 26.8291C63.0711 27.4883 63.5545 27.9863 64.243 27.9863ZM64.243 22.4932C64.9388 22.4932 65.4148 22.0024 65.4148 21.3433C65.4148 20.6768 64.9388 20.186 64.243 20.186C63.5545 20.186 63.0711 20.6768 63.0711 21.3433C63.0711 22.0024 63.5545 22.4932 64.243 22.4932Z" fill="black"/>
<path d="M72.2706 27.8325H74.0797V25.8623H75.5079V24.2656H74.0797V17.2637H71.4137C69.546 20.0762 68.0592 22.4272 67.107 24.1777V25.8623H72.2706V27.8325ZM68.8575 24.1997C70.088 22.0317 71.1866 20.2959 72.1974 18.8018H72.2999V24.3096H68.8575V24.1997Z" fill="black"/>
<path d="M79.5365 27.8325H81.4262V17.2637H79.5438L76.7826 19.1973V21.0137L79.412 19.168H79.5365V27.8325Z" fill="black"/>
<path fill-rule="evenodd" clip-rule="evenodd" d="M323 20H324C324.552 20 325 20.4477 325 21V27C325 27.5523 324.552 28 324 28H323C322.448 28 322 27.5523 322 27V21C322 20.4477 322.448 20 323 20Z" fill="#D1D1D6"/>
<path fill-rule="evenodd" clip-rule="evenodd" d="M318.5 22H319.5C320.052 22 320.5 22.4477 320.5 23V27C320.5 27.5523 320.052 28 319.5 28H318.5C317.948 28 317.5 27.5523 317.5 27V23C317.5 22.4477 317.948 22 318.5 22Z" fill="#D1D1D6"/>
<path fill-rule="evenodd" clip-rule="evenodd" d="M314 23.5H315C315.552 23.5 316 23.9477 316 24.5V27C316 27.5523 315.552 28 315 28H314C313.448 28 313 27.5523 313 27V24.5C313 23.9477 313.448 23.5 314 23.5Z" fill="#D1D1D6"/>
<path fill-rule="evenodd" clip-rule="evenodd" d="M327.5 18H328.5C329.052 18 329.5 18.4477 329.5 19V27C329.5 27.5523 329.052 28 328.5 28H327.5C326.948 28 326.5 27.5523 326.5 27V19C326.5 18.4477 326.948 18 327.5 18Z" fill="#3C3C43" fill-opacity="0.18"/>
<path fill-rule="evenodd" clip-rule="evenodd" d="M323 20H324C324.552 20 325 20.4477 325 21V27C325 27.5523 324.552 28 324 28H323C322.448 28 322 27.5523 322 27V21C322 20.4477 322.448 20 323 20Z" fill="white"/>
<path fill-rule="evenodd" clip-rule="evenodd" d="M318.5 22H319.5C320.052 22 320.5 22.4477 320.5 23V27C320.5 27.5523 320.052 28 319.5 28H318.5C317.948 28 317.5 27.5523 317.5 27V23C317.5 22.4477 317.948 22 318.5 22Z" fill="white"/>
<path fill-rule="evenodd" clip-rule="evenodd" d="M314 23.5H315C315.552 23.5 316 23.9477 316 24.5V27C316 27.5523 315.552 28 315 28H314C313.448 28 313 27.5523 313 27V24.5C313 23.9477 313.448 23.5 314 23.5Z" fill="white"/>
<path d="M343.133 24.9396C343.772 24.9396 344.394 25.1076 344.941 25.428L345.163 25.5579C345.331 25.6563 345.361 25.8866 345.223 26.0242L343.329 27.913C343.212 28.029 343.024 28.029 342.907 27.913L341.026 26.0363C340.888 25.8994 340.917 25.6702 341.084 25.5711L341.303 25.4406C341.855 25.1121 342.485 24.9396 343.133 24.9396Z" fill="white"/>
<path d="M343.133 21.4698C344.724 21.4698 346.251 21.9976 347.495 22.9749L347.671 23.113C347.811 23.2232 347.824 23.4306 347.697 23.5565L346.567 24.6841C346.462 24.7884 346.297 24.8004 346.178 24.7123L346.04 24.6098C345.2 23.9852 344.186 23.6502 343.133 23.6502C342.073 23.6502 341.053 23.9894 340.21 24.6211L340.072 24.7245C339.953 24.8134 339.787 24.8017 339.682 24.6971L338.552 23.5699C338.426 23.4443 338.438 23.2373 338.578 23.127L338.753 22.9888C340 22.0027 341.534 21.4698 343.133 21.4698Z" fill="white"/>
<path d="M343.133 18C345.657 18 348.072 18.8906 349.983 20.5229L350.146 20.6623C350.278 20.7749 350.285 20.9756 350.163 21.098L349.036 22.2219C348.926 22.3308 348.752 22.3385 348.634 22.2395L348.494 22.1228C346.989 20.8647 345.104 20.1804 343.133 20.1804C341.155 20.1804 339.263 20.8694 337.756 22.1354L337.617 22.2527C337.498 22.3521 337.324 22.3447 337.214 22.2356L336.087 21.1118C335.965 20.9895 335.972 20.7892 336.104 20.6765L336.266 20.5371C338.18 18.8959 340.601 18 343.133 18Z" fill="white"/>
<path d="M379 21C379.552 21 380 21.4477 380 22V24C380 24.5523 379.552 25 379 25V21Z" fill="#3C3C43" fill-opacity="0.6"/>
<path fill-rule="evenodd" clip-rule="evenodd" d="M358 17H375C376.657 17 378 18.3431 378 20V26C378 27.6569 376.657 29 375 29H358C356.343 29 355 27.6569 355 26V20C355 18.3431 356.343 17 358 17ZM358 18C356.895 18 356 18.8954 356 20V26C356 27.1046 356.895 28 358 28H375C376.105 28 377 27.1046 377 26V20C377 18.8954 376.105 18 375 18H358Z" fill="#3C3C43" fill-opacity="0.6"/>
<rect x="357" y="19" width="19" height="8" rx="1" fill="white"/>
<path d="M56.8672 28.0889C59.5552 28.0889 61.1519 25.9868 61.1519 22.4272C61.1519 21.0869 60.8955 19.959 60.4048 19.0874C59.6943 17.7324 58.4712 17 56.9258 17C54.626 17 53 18.5454 53 20.7134C53 22.7495 54.4648 24.229 56.479 24.229C57.7168 24.229 58.7202 23.6504 59.2183 22.647H59.2402C59.2402 22.647 59.2695 22.647 59.2769 22.647C59.2915 22.647 59.3428 22.647 59.3428 22.647C59.3428 25.064 58.4272 26.5068 56.8818 26.5068C55.9736 26.5068 55.2705 26.0088 55.0288 25.2104H53.1465C53.4614 26.9463 54.9336 28.0889 56.8672 28.0889ZM56.9331 22.7275C55.7173 22.7275 54.853 21.8633 54.853 20.6548C54.853 19.4756 55.7612 18.5747 56.9404 18.5747C58.1196 18.5747 59.0278 19.4902 59.0278 20.6841C59.0278 21.8633 58.1416 22.7275 56.9331 22.7275Z" fill="white"/>
<path d="M64.243 27.9863C64.9388 27.9863 65.4148 27.4883 65.4148 26.8291C65.4148 26.1626 64.9388 25.6719 64.243 25.6719C63.5545 25.6719 63.0711 26.1626 63.0711 26.8291C63.0711 27.4883 63.5545 27.9863 64.243 27.9863ZM64.243 22.4932C64.9388 22.4932 65.4148 22.0024 65.4148 21.3433C65.4148 20.6768 64.9388 20.186 64.243 20.186C63.5545 20.186 63.0711 20.6768 63.0711 21.3433C63.0711 22.0024 63.5545 22.4932 64.243 22.4932Z" fill="white"/>
<path d="M72.2706 27.8325H74.0797V25.8623H75.5079V24.2656H74.0797V17.2637H71.4137C69.546 20.0762 68.0592 22.4272 67.107 24.1777V25.8623H72.2706V27.8325ZM68.8575 24.1997C70.088 22.0317 71.1866 20.2959 72.1974 18.8018H72.2999V24.3096H68.8575V24.1997Z" fill="white"/>
<path d="M79.5365 27.8325H81.4262V17.2637H79.5438L76.7826 19.1973V21.0137L79.412 19.168H79.5365V27.8325Z" fill="white"/>
<g filter="url(#filter0_f_123_1861)">
<ellipse cx="186.5" cy="516" rx="0.5" ry="4" fill="black" fill-opacity="0.5"/>
</g>
<g filter="url(#filter1_f_123_1861)">
<ellipse cx="193.5" cy="516" rx="0.5" ry="4" fill="black" fill-opacity="0.5"/>
</g>
<circle cx="192" cy="802" r="5" fill="#C4C4C4"/>
<circle cx="212" cy="802" r="5" fill="black"/>
<circle cx="232" cy="802" r="5" fill="#C4C4C4"/>
<g style="mix-blend-mode:multiply">
<rect width="375" height="34" transform="translate(22 846)" fill="white"/>
<rect x="143" y="867" width="134" height="5" rx="2.5" fill="#262F5F"/>
<g filter="url(#filter2_f_123_1861)">
<ellipse cx="274.5" cy="1130.5" rx="252.5" ry="240.5" fill="#5C0826"/>
</g>
</g>
<g filter="url(#filter3_bd_123_1861)">
<rect x="19" y="139" width="370" height="563" rx="6.48" fill="url(#paint0_linear_123_1861)" shape-rendering="crispEdges"/>
</g>
<path d="M92.9233 612H81.6133V591H92.9233V593.97H84.7933V600.36H91.3933V603.06H84.7933V609.03H92.9233V612ZM108.997 612H105.817V603.18C105.817 602.32 105.637 601.66 105.277 601.2C104.937 600.74 104.507 600.42 103.987 600.24C103.487 600.06 102.987 599.97 102.487 599.97C102.007 599.97 101.477 600.06 100.897 600.24C100.317 600.42 99.8172 600.75 99.3972 601.23C98.9972 601.69 98.7972 602.34 98.7972 603.18V612H95.6172V597H98.7972V598.26C99.1772 597.74 99.7372 597.37 100.477 597.15C101.237 596.93 101.977 596.82 102.697 596.82C103.937 596.82 105.027 597.08 105.967 597.6C106.927 598.12 107.667 598.86 108.187 599.82C108.727 600.76 108.997 601.88 108.997 603.18V612ZM124.031 609.96C123.011 610.92 121.921 611.58 120.761 611.94C119.621 612.28 118.491 612.35 117.371 612.15C116.271 611.97 115.271 611.55 114.371 610.89C113.471 610.21 112.751 609.33 112.211 608.25C111.671 607.17 111.401 605.91 111.401 604.47C111.401 603.01 111.661 601.74 112.181 600.66C112.721 599.58 113.441 598.73 114.341 598.11C115.241 597.47 116.241 597.07 117.341 596.91C118.461 596.75 119.601 596.86 120.761 597.24C121.941 597.6 123.051 598.25 124.091 599.19L121.991 601.47C121.291 600.73 120.521 600.28 119.681 600.12C118.841 599.94 118.031 600 117.251 600.3C116.491 600.6 115.861 601.11 115.361 601.83C114.861 602.55 114.611 603.43 114.611 604.47C114.611 605.59 114.861 606.52 115.361 607.26C115.861 608 116.491 608.53 117.251 608.85C118.031 609.15 118.851 609.21 119.711 609.03C120.591 608.83 121.391 608.36 122.111 607.62L124.031 609.96ZM133.163 612.39C131.723 612.39 130.453 612.08 129.353 611.46C128.273 610.82 127.423 609.94 126.803 608.82C126.203 607.68 125.903 606.36 125.903 604.86C125.903 603.1 126.213 601.63 126.833 600.45C127.453 599.25 128.303 598.35 129.383 597.75C130.483 597.15 131.743 596.85 133.163 596.85C134.583 596.85 135.833 597.15 136.913 597.75C138.013 598.35 138.873 599.25 139.493 600.45C140.113 601.63 140.423 603.1 140.423 604.86C140.423 606.36 140.113 607.68 139.493 608.82C138.873 609.94 138.013 610.82 136.913 611.46C135.833 612.08 134.583 612.39 133.163 612.39ZM133.163 609.33C134.063 609.33 134.823 609.12 135.443 608.7C136.063 608.28 136.533 607.73 136.853 607.05C137.193 606.37 137.363 605.64 137.363 604.86C137.363 603.46 137.003 602.29 136.283 601.35C135.563 600.39 134.523 599.91 133.163 599.91C131.823 599.91 130.783 600.38 130.043 601.32C129.323 602.26 128.963 603.44 128.963 604.86C128.963 605.66 129.123 606.4 129.443 607.08C129.783 607.76 130.263 608.31 130.883 608.73C131.503 609.13 132.263 609.33 133.163 609.33ZM156.517 612H153.337V603.18C153.337 602.32 153.157 601.66 152.797 601.2C152.457 600.74 152.027 600.42 151.507 600.24C151.007 600.06 150.507 599.97 150.007 599.97C149.527 599.97 148.997 600.06 148.417 600.24C147.837 600.42 147.337 600.75 146.917 601.23C146.517 601.69 146.317 602.34 146.317 603.18V612H143.137V597H146.317V598.26C146.697 597.74 147.257 597.37 147.997 597.15C148.757 596.93 149.497 596.82 150.217 596.82C151.457 596.82 152.547 597.08 153.487 597.6C154.447 598.12 155.187 598.86 155.707 599.82C156.247 600.76 156.517 601.88 156.517 603.18V612ZM161.261 605.31V599.97H158.921V597H161.261V591H164.411V597H166.841V599.97H164.411V605.31C164.411 606.21 164.461 606.91 164.561 607.41C164.681 607.91 164.841 608.26 165.041 608.46C165.261 608.66 165.511 608.78 165.791 608.82C166.091 608.86 166.411 608.89 166.751 608.91H167.351V612.06H166.841C165.781 612.06 164.891 611.98 164.171 611.82C163.471 611.66 162.901 611.35 162.461 610.89C162.041 610.41 161.731 609.73 161.531 608.85C161.351 607.95 161.261 606.77 161.261 605.31ZM170.148 612V597.06H173.328V598.26C174.068 597.48 174.958 597.07 175.998 597.03C177.058 596.99 178.268 597.18 179.628 597.6L178.098 600.36C177.298 600.08 176.528 600.01 175.788 600.15C175.048 600.29 174.448 600.56 173.988 600.96C173.528 601.36 173.308 601.82 173.328 602.34V612H170.148ZM194.559 605.67H183.669C183.729 606.71 184.069 607.52 184.689 608.1C185.309 608.66 186.079 609 186.999 609.12C187.939 609.24 188.909 609.16 189.909 608.88C190.929 608.58 191.849 608.08 192.669 607.38L194.409 609.81C193.369 610.69 192.289 611.32 191.169 611.7C190.069 612.08 188.969 612.27 187.869 612.27C185.349 612.29 183.439 611.59 182.139 610.17C180.859 608.73 180.219 606.71 180.219 604.11C180.219 601.89 180.859 600.12 182.139 598.8C183.439 597.48 185.229 596.82 187.509 596.82C190.749 596.84 192.899 598.11 193.959 600.63C194.259 601.33 194.449 602.09 194.529 602.91C194.609 603.73 194.619 604.65 194.559 605.67ZM187.779 599.82C186.499 599.82 185.489 600.16 184.749 600.84C184.029 601.5 183.669 602.33 183.669 603.33H191.769C191.769 602.35 191.419 601.52 190.719 600.84C190.039 600.16 189.059 599.82 187.779 599.82ZM208.491 610.05L210.351 608.04C211.511 608.98 212.661 609.45 213.801 609.45C214.121 609.45 214.431 609.41 214.731 609.33C215.031 609.25 215.291 609.11 215.511 608.91C215.791 608.69 215.971 608.4 216.051 608.04C216.131 607.68 216.131 607.37 216.051 607.11C215.951 606.71 215.691 606.4 215.271 606.18C214.851 605.96 214.341 605.76 213.741 605.58C213.161 605.4 212.561 605.19 211.941 604.95C211.341 604.71 210.791 604.39 210.291 603.99C209.471 603.29 208.981 602.54 208.821 601.74C208.661 600.92 208.771 600.15 209.151 599.43C209.531 598.69 210.111 598.09 210.891 597.63C211.691 597.15 212.651 596.89 213.771 596.85C214.811 596.83 215.771 597 216.651 597.36C217.531 597.7 218.231 598.15 218.751 598.71L216.711 600.57C216.351 600.25 215.911 600.02 215.391 599.88C214.871 599.72 214.381 599.64 213.921 599.64C213.401 599.64 212.951 599.75 212.571 599.97C212.191 600.19 211.991 600.56 211.971 601.08C211.971 601.58 212.201 601.97 212.661 602.25C213.121 602.53 213.701 602.78 214.401 603C215.121 603.2 215.841 603.47 216.561 603.81C217.301 604.15 217.901 604.65 218.361 605.31C218.821 605.95 219.021 606.78 218.961 607.8C218.921 608.76 218.651 609.57 218.151 610.23C217.671 610.89 217.031 611.39 216.231 611.73C215.451 612.05 214.601 612.21 213.681 612.21C212.761 612.21 211.841 612.04 210.921 611.7C210.021 611.34 209.211 610.79 208.491 610.05ZM234.469 612H231.259V610.71C230.979 611.23 230.489 611.62 229.789 611.88C229.089 612.14 228.309 612.27 227.449 612.27C226.609 612.29 225.779 612.18 224.959 611.94C224.159 611.7 223.489 611.35 222.949 610.89C221.709 609.77 221.089 608.13 221.089 605.97V597H224.299V605.97C224.299 607.11 224.629 607.94 225.289 608.46C225.969 608.98 226.819 609.24 227.839 609.24C228.359 609.24 228.879 609.13 229.399 608.91C229.939 608.67 230.379 608.31 230.719 607.83C231.079 607.35 231.259 606.73 231.259 605.97V597H234.469V612ZM241.883 612.15C240.423 612.09 239.273 611.67 238.433 610.89C237.593 610.11 237.173 609.01 237.173 607.59C237.173 606.53 237.423 605.64 237.923 604.92C238.443 604.18 239.143 603.6 240.023 603.18C240.903 602.76 241.893 602.51 242.993 602.43C244.113 602.33 245.263 602.4 246.443 602.64V601.68C246.443 601.1 246.253 600.65 245.873 600.33C245.513 600.01 245.033 599.8 244.433 599.7C243.853 599.6 243.223 599.6 242.543 599.7C241.883 599.8 241.253 600 240.653 600.3C240.073 600.58 239.603 600.94 239.243 601.38L237.413 599.4C238.113 598.66 238.953 598.08 239.933 597.66C240.933 597.24 241.963 596.99 243.023 596.91C244.103 596.83 245.113 596.93 246.053 597.21C247.013 597.47 247.823 597.92 248.483 598.56C249.143 599.14 249.513 599.92 249.593 600.9C249.673 601.88 249.713 602.98 249.713 604.2V612H246.473V610.62C245.813 611.18 245.083 611.58 244.283 611.82C243.483 612.06 242.683 612.17 241.883 612.15ZM246.383 608.01V604.98C244.203 604.78 242.603 604.9 241.583 605.34C240.583 605.76 240.083 606.5 240.083 607.56C240.083 608.22 240.303 608.7 240.743 609C241.203 609.28 241.763 609.42 242.423 609.42C243.103 609.4 243.793 609.27 244.493 609.03C245.213 608.77 245.843 608.43 246.383 608.01ZM287.024 612H283.844V603.3C283.844 602.14 283.554 601.31 282.974 600.81C282.414 600.29 281.654 600.03 280.694 600.03C279.714 600.03 278.884 600.29 278.204 600.81C277.524 601.31 277.184 602.14 277.184 603.3V612H274.094V603.3C274.094 602.12 273.774 601.29 273.134 600.81C272.514 600.31 271.754 600.06 270.854 600.06C270.274 600.06 269.714 600.17 269.174 600.39C268.634 600.59 268.184 600.93 267.824 601.41C267.464 601.87 267.284 602.5 267.284 603.3V612H264.104V597H267.284V598.26C267.764 597.76 268.334 597.4 268.994 597.18C269.654 596.96 270.314 596.85 270.974 596.85C271.914 596.85 272.814 597.03 273.674 597.39C274.554 597.73 275.274 598.26 275.834 598.98C276.354 598.26 277.084 597.73 278.024 597.39C278.984 597.03 279.934 596.85 280.874 596.85C281.974 596.85 282.984 597.12 283.904 597.66C284.844 598.18 285.594 598.92 286.154 599.88C286.734 600.84 287.024 601.98 287.024 603.3V612ZM303.719 605.67H292.829C292.889 606.71 293.229 607.52 293.849 608.1C294.469 608.66 295.239 609 296.159 609.12C297.099 609.24 298.069 609.16 299.069 608.88C300.089 608.58 301.009 608.08 301.829 607.38L303.569 609.81C302.529 610.69 301.449 611.32 300.329 611.7C299.229 612.08 298.129 612.27 297.029 612.27C294.509 612.29 292.599 611.59 291.299 610.17C290.019 608.73 289.379 606.71 289.379 604.11C289.379 601.89 290.019 600.12 291.299 598.8C292.599 597.48 294.389 596.82 296.669 596.82C299.909 596.84 302.059 598.11 303.119 600.63C303.419 601.33 303.609 602.09 303.689 602.91C303.769 603.73 303.779 604.65 303.719 605.67ZM296.939 599.82C295.659 599.82 294.649 600.16 293.909 600.84C293.189 601.5 292.829 602.33 292.829 603.33H300.929C300.929 602.35 300.579 601.52 299.879 600.84C299.199 600.16 298.219 599.82 296.939 599.82ZM306.255 610.05L308.115 608.04C309.275 608.98 310.425 609.45 311.565 609.45C311.885 609.45 312.195 609.41 312.495 609.33C312.795 609.25 313.055 609.11 313.275 608.91C313.555 608.69 313.735 608.4 313.815 608.04C313.895 607.68 313.895 607.37 313.815 607.11C313.715 606.71 313.455 606.4 313.035 606.18C312.615 605.96 312.105 605.76 311.505 605.58C310.925 605.4 310.325 605.19 309.705 604.95C309.105 604.71 308.555 604.39 308.055 603.99C307.235 603.29 306.745 602.54 306.585 601.74C306.425 600.92 306.535 600.15 306.915 599.43C307.295 598.69 307.875 598.09 308.655 597.63C309.455 597.15 310.415 596.89 311.535 596.85C312.575 596.83 313.535 597 314.415 597.36C315.295 597.7 315.995 598.15 316.515 598.71L314.475 600.57C314.115 600.25 313.675 600.02 313.155 599.88C312.635 599.72 312.145 599.64 311.685 599.64C311.165 599.64 310.715 599.75 310.335 599.97C309.955 600.19 309.755 600.56 309.735 601.08C309.735 601.58 309.965 601.97 310.425 602.25C310.885 602.53 311.465 602.78 312.165 603C312.885 603.2 313.605 603.47 314.325 603.81C315.065 604.15 315.665 604.65 316.125 605.31C316.585 605.95 316.785 606.78 316.725 607.8C316.685 608.76 316.415 609.57 315.915 610.23C315.435 610.89 314.795 611.39 313.995 611.73C313.215 612.05 312.365 612.21 311.445 612.21C310.525 612.21 309.605 612.04 308.685 611.7C307.785 611.34 306.975 610.79 306.255 610.05ZM323.562 612.15C322.102 612.09 320.952 611.67 320.112 610.89C319.272 610.11 318.852 609.01 318.852 607.59C318.852 606.53 319.102 605.64 319.602 604.92C320.122 604.18 320.822 603.6 321.702 603.18C322.582 602.76 323.572 602.51 324.672 602.43C325.792 602.33 326.942 602.4 328.122 602.64V601.68C328.122 601.1 327.932 600.65 327.552 600.33C327.192 600.01 326.712 599.8 326.112 599.7C325.532 599.6 324.902 599.6 324.222 599.7C323.562 599.8 322.932 600 322.332 600.3C321.752 600.58 321.282 600.94 320.922 601.38L319.092 599.4C319.792 598.66 320.632 598.08 321.612 597.66C322.612 597.24 323.642 596.99 324.702 596.91C325.782 596.83 326.792 596.93 327.732 597.21C328.692 597.47 329.502 597.92 330.162 598.56C330.822 599.14 331.192 599.92 331.272 600.9C331.352 601.88 331.392 602.98 331.392 604.2V612H328.152V610.62C327.492 611.18 326.762 611.58 325.962 611.82C325.162 612.06 324.362 612.17 323.562 612.15ZM328.062 608.01V604.98C325.882 604.78 324.282 604.9 323.262 605.34C322.262 605.76 321.762 606.5 321.762 607.56C321.762 608.22 321.982 608.7 322.422 609C322.882 609.28 323.442 609.42 324.102 609.42C324.782 609.4 325.472 609.27 326.172 609.03C326.892 608.77 327.522 608.43 328.062 608.01ZM176.406 629.17C175.866 629.17 175.396 628.98 174.996 628.6C174.616 628.2 174.426 627.72 174.426 627.16C174.426 626.62 174.616 626.16 174.996 625.78C175.396 625.4 175.866 625.21 176.406 625.21C176.966 625.21 177.436 625.4 177.816 625.78C178.196 626.16 178.386 626.62 178.386 627.16C178.386 627.72 178.196 628.2 177.816 628.6C177.436 628.98 176.966 629.17 176.406 629.17ZM177.906 646H174.936V631H177.906V646ZM184.893 645.82C183.913 645.5 183.093 644.97 182.433 644.23C181.793 643.49 181.313 642.61 180.993 641.59C180.673 640.55 180.513 639.44 180.513 638.26C180.513 636.86 180.763 635.6 181.263 634.48C181.783 633.36 182.533 632.47 183.513 631.81C184.493 631.13 185.703 630.79 187.143 630.79C187.623 630.79 188.173 630.84 188.793 630.94C189.433 631.04 189.993 631.24 190.473 631.54V625H193.683V646H190.473V644.74C190.133 645.12 189.633 645.43 188.973 645.67C188.333 645.89 187.643 646.02 186.903 646.06C186.183 646.1 185.513 646.02 184.893 645.82ZM190.473 642.07V634.57C189.313 634.09 188.213 633.92 187.173 634.06C186.153 634.2 185.323 634.63 184.683 635.35C184.043 636.05 183.722 637.02 183.722 638.26C183.722 639.7 184.043 640.83 184.683 641.65C185.343 642.47 186.183 642.93 187.203 643.03C188.243 643.11 189.333 642.79 190.473 642.07ZM210.701 639.67H199.811C199.871 640.71 200.211 641.52 200.831 642.1C201.451 642.66 202.221 643 203.141 643.12C204.081 643.24 205.051 643.16 206.051 642.88C207.071 642.58 207.991 642.08 208.811 641.38L210.551 643.81C209.511 644.69 208.431 645.32 207.311 645.7C206.211 646.08 205.111 646.27 204.011 646.27C201.491 646.29 199.581 645.59 198.281 644.17C197.001 642.73 196.361 640.71 196.361 638.11C196.361 635.89 197.001 634.12 198.281 632.8C199.581 631.48 201.371 630.82 203.651 630.82C206.891 630.84 209.041 632.11 210.101 634.63C210.401 635.33 210.591 636.09 210.671 636.91C210.751 637.73 210.761 638.65 210.701 639.67ZM203.921 633.82C202.641 633.82 201.631 634.16 200.891 634.84C200.171 635.5 199.811 636.33 199.811 637.33H207.911C207.911 636.35 207.561 635.52 206.861 634.84C206.181 634.16 205.201 633.82 203.921 633.82ZM217.947 646.15C216.487 646.09 215.337 645.67 214.497 644.89C213.657 644.11 213.237 643.01 213.237 641.59C213.237 640.53 213.487 639.64 213.987 638.92C214.507 638.18 215.207 637.6 216.087 637.18C216.967 636.76 217.957 636.51 219.057 636.43C220.177 636.33 221.327 636.4 222.507 636.64V635.68C222.507 635.1 222.317 634.65 221.937 634.33C221.577 634.01 221.097 633.8 220.497 633.7C219.917 633.6 219.287 633.6 218.607 633.7C217.947 633.8 217.317 634 216.717 634.3C216.137 634.58 215.667 634.94 215.307 635.38L213.477 633.4C214.177 632.66 215.017 632.08 215.997 631.66C216.997 631.24 218.027 630.99 219.087 630.91C220.167 630.83 221.177 630.93 222.117 631.21C223.077 631.47 223.887 631.92 224.547 632.56C225.207 633.14 225.577 633.92 225.657 634.9C225.737 635.88 225.777 636.98 225.777 638.2V646H222.537V644.62C221.877 645.18 221.147 645.58 220.347 645.82C219.547 646.06 218.747 646.17 217.947 646.15ZM222.447 642.01V638.98C220.267 638.78 218.667 638.9 217.647 639.34C216.647 639.76 216.147 640.5 216.147 641.56C216.147 642.22 216.367 642.7 216.807 643C217.267 643.28 217.827 643.42 218.487 643.42C219.167 643.4 219.857 643.27 220.557 643.03C221.277 642.77 221.907 642.43 222.447 642.01ZM231.951 646H228.771V625H231.951V646ZM238.253 625L238.103 640.6H235.433L235.283 625H238.253ZM236.783 646.42C236.283 646.4 235.843 646.22 235.463 645.88C235.103 645.52 234.933 645.09 234.953 644.59C234.973 644.09 235.153 643.67 235.493 643.33C235.853 642.97 236.283 642.79 236.783 642.79C237.283 642.77 237.703 642.94 238.043 643.3C238.403 643.66 238.583 644.09 238.583 644.59C238.603 645.09 238.433 645.53 238.073 645.91C237.713 646.27 237.283 646.44 236.783 646.42Z" fill="#F5F5F5"/>
<g clip-path="url(#clip1_123_1861)">
<path d="M162.333 240.905C154.46 233.032 141.691 233.032 133.767 240.905L40.9048 333.767C33.0317 341.64 33.0317 354.409 40.9048 362.333L133.767 455.195C141.64 463.068 154.409 463.068 162.333 455.195L255.195 362.333C263.068 354.46 263.068 341.691 255.195 333.767L162.333 240.905ZM160.162 348.05C160.162 354.762 154.762 360.162 148.05 360.162C141.338 360.162 135.938 354.762 135.938 348.05C135.938 341.338 141.338 335.938 148.05 335.938C154.762 335.938 160.162 341.338 160.162 348.05ZM83.45 360.162C76.7377 360.162 71.3375 354.762 71.3375 348.05C71.3375 341.338 76.7377 335.938 83.45 335.938C90.1623 335.938 95.5625 341.338 95.5625 348.05C95.5625 354.762 90.1623 360.162 83.45 360.162ZM148.05 400.537C154.762 400.537 160.162 405.938 160.162 412.65C160.162 419.362 154.762 424.762 148.05 424.762C141.338 424.762 135.938 419.362 135.938 412.65C135.938 405.938 141.338 400.537 148.05 400.537ZM212.65 360.162C205.938 360.162 200.537 354.762 200.537 348.05C200.537 341.338 205.938 335.938 212.65 335.938C219.362 335.938 224.762 341.338 224.762 348.05C224.762 354.762 219.362 360.162 212.65 360.162ZM148.05 271.337C154.762 271.337 160.162 276.738 160.162 283.45C160.162 290.162 154.762 295.562 148.05 295.562C141.338 295.562 135.938 290.162 135.938 283.45C135.938 276.738 141.338 271.337 148.05 271.337ZM196.5 469.175C196.5 482.549 207.351 493.4 220.725 493.4H333.775C347.149 493.4 358 482.549 358 469.175V356.125C358 342.751 347.149 331.9 333.775 331.9H273.465C280.228 345.476 277.906 362.434 266.601 373.739L196.5 443.84V469.175ZM277.25 424.762C270.538 424.762 265.137 419.362 265.137 412.65C265.137 405.938 270.538 400.537 277.25 400.537C283.962 400.537 289.362 405.938 289.362 412.65C289.362 419.362 283.962 424.762 277.25 424.762Z" fill="#D98E04"/>
</g>
</g>
<defs>
<filter id="filter0_f_123_1861" x="183" y="509" width="7" height="14" filterUnits="userSpaceOnUse" color-interpolation-filters="sRGB">
<feFlood flood-opacity="0" result="BackgroundImageFix"/>
<feBlend mode="normal" in="SourceGraphic" in2="BackgroundImageFix" result="shape"/>
<feGaussianBlur stdDeviation="1.5" result="effect1_foregroundBlur_123_1861"/>
</filter>
<filter id="filter1_f_123_1861" x="190" y="509" width="7" height="14" filterUnits="userSpaceOnUse" color-interpolation-filters="sRGB">
<feFlood flood-opacity="0" result="BackgroundImageFix"/>
<feBlend mode="normal" in="SourceGraphic" in2="BackgroundImageFix" result="shape"/>
<feGaussianBlur stdDeviation="1.5" result="effect1_foregroundBlur_123_1861"/>
</filter>
<filter id="filter2_f_123_1861" x="-178" y="690" width="905" height="881" filterUnits="userSpaceOnUse" color-interpolation-filters="sRGB">
<feFlood flood-opacity="0" result="BackgroundImageFix"/>
<feBlend mode="normal" in="SourceGraphic" in2="BackgroundImageFix" result="shape"/>
<feGaussianBlur stdDeviation="100" result="effect1_foregroundBlur_123_1861"/>
</filter>
<filter id="filter3_bd_123_1861" x="-21.96" y="98.04" width="451.92" height="644.92" filterUnits="userSpaceOnUse" color-interpolation-filters="sRGB">
<feFlood flood-opacity="0" result="BackgroundImageFix"/>
<feGaussianBlur in="BackgroundImageFix" stdDeviation="20.48"/>
<feComposite in2="SourceAlpha" operator="in" result="effect1_backgroundBlur_123_1861"/>
<feColorMatrix in="SourceAlpha" type="matrix" values="0 0 0 0 0 0 0 0 0 0 0 0 0 0 0 0 0 0 127 0" result="hardAlpha"/>
<feMorphology radius="1.02" operator="erode" in="SourceAlpha" result="effect2_dropShadow_123_1861"/>
<feOffset dy="4.1"/>
<feGaussianBlur stdDeviation="12.285"/>
<feComposite in2="hardAlpha" operator="out"/>
<feColorMatrix type="matrix" values="0 0 0 0 0.13 0 0 0 0 0.0151667 0 0 0 0 0.0561786 0 0 0 1 0"/>
<feBlend mode="normal" in2="effect1_backgroundBlur_123_1861" result="effect2_dropShadow_123_1861"/>
<feBlend mode="normal" in="SourceGraphic" in2="effect2_dropShadow_123_1861" result="shape"/>
</filter>
<linearGradient id="paint0_linear_123_1861" x1="19" y1="139" x2="312" y2="605" gradientUnits="userSpaceOnUse">
<stop stop-color="#D9D9D9" stop-opacity="0.4"/>
<stop offset="1" stop-color="#D9D9D9" stop-opacity="0"/>
</linearGradient>
<clipPath id="clip0_123_1861">
<rect width="414" height="896" rx="10" fill="white"/>
</clipPath>
<clipPath id="clip1_123_1861">
<rect width="323" height="258.4" fill="white" transform="translate(35 235)"/>
</clipPath>
</defs>
</svg>
