<svg width="414" height="896" viewBox="0 0 414 896" fill="none" xmlns="http://www.w3.org/2000/svg">
<g clip-path="url(#clip0_224_1679)">
<rect width="414" height="896" rx="32" fill="white"/>
<path d="M-1 0H416V896H-1V0Z" fill="#520720"/>
<path d="M437.689 -184.708C491.32 -23.2803 403.932 151.059 242.504 204.689C81.0761 258.32 -93.2633 170.932 -146.894 9.50424C-200.524 -151.924 -113.137 -326.263 48.2916 -379.894C209.72 -433.524 384.059 -346.137 437.689 -184.708Z" fill="url(#paint0_linear_224_1679)"/>
<path d="M39.4716 143.562C39.4186 143.066 39.1951 142.68 38.8011 142.403C38.411 142.127 37.9034 141.989 37.2784 141.989C36.839 141.989 36.4621 142.055 36.1477 142.188C35.8333 142.32 35.5928 142.5 35.4261 142.727C35.2595 142.955 35.1742 143.214 35.1705 143.506C35.1705 143.748 35.2254 143.958 35.3352 144.136C35.4489 144.314 35.6023 144.466 35.7955 144.591C35.9886 144.712 36.2027 144.814 36.4375 144.898C36.6723 144.981 36.9091 145.051 37.1477 145.108L38.2386 145.381C38.678 145.483 39.1004 145.621 39.5057 145.795C39.9148 145.97 40.2803 146.189 40.6023 146.455C40.928 146.72 41.1856 147.04 41.375 147.415C41.5644 147.79 41.6591 148.229 41.6591 148.733C41.6591 149.415 41.4848 150.015 41.1364 150.534C40.7879 151.049 40.2841 151.453 39.625 151.744C38.9697 152.032 38.1761 152.176 37.2443 152.176C36.339 152.176 35.553 152.036 34.8864 151.756C34.2235 151.475 33.7045 151.066 33.3295 150.528C32.9583 149.991 32.7576 149.335 32.7273 148.562H34.8011C34.8314 148.968 34.9564 149.305 35.1761 149.574C35.3958 149.843 35.6818 150.044 36.0341 150.176C36.3902 150.309 36.7879 150.375 37.2273 150.375C37.6856 150.375 38.0871 150.307 38.4318 150.17C38.7803 150.03 39.053 149.837 39.25 149.591C39.447 149.341 39.5473 149.049 39.5511 148.716C39.5473 148.413 39.4583 148.163 39.2841 147.966C39.1098 147.765 38.8655 147.598 38.5511 147.466C38.2405 147.33 37.8769 147.208 37.4602 147.102L36.1364 146.761C35.178 146.515 34.4205 146.142 33.8636 145.642C33.3106 145.138 33.0341 144.47 33.0341 143.636C33.0341 142.951 33.2197 142.35 33.5909 141.835C33.9659 141.32 34.4754 140.92 35.1193 140.636C35.7633 140.348 36.4924 140.205 37.3068 140.205C38.1326 140.205 38.8561 140.348 39.4773 140.636C40.1023 140.92 40.5928 141.316 40.9489 141.824C41.3049 142.328 41.4886 142.907 41.5 143.562H39.4716ZM47.3111 152.17C46.4361 152.17 45.6804 151.989 45.044 151.625C44.4115 151.258 43.9247 150.739 43.5838 150.068C43.2429 149.394 43.0724 148.6 43.0724 147.688C43.0724 146.79 43.2429 146.002 43.5838 145.324C43.9285 144.642 44.4096 144.112 45.027 143.733C45.6444 143.35 46.3698 143.159 47.2031 143.159C47.741 143.159 48.2486 143.246 48.7259 143.42C49.2069 143.591 49.6312 143.856 49.9986 144.216C50.3698 144.576 50.6615 145.034 50.8736 145.591C51.0857 146.144 51.1918 146.803 51.1918 147.568V148.199H44.0384V146.812H49.2202C49.2164 146.419 49.1312 146.068 48.9645 145.761C48.7978 145.451 48.5649 145.206 48.2656 145.028C47.9702 144.85 47.6255 144.761 47.2315 144.761C46.8111 144.761 46.4418 144.864 46.1236 145.068C45.8054 145.269 45.5573 145.534 45.3793 145.864C45.205 146.189 45.116 146.547 45.1122 146.938V148.148C45.1122 148.655 45.205 149.091 45.3906 149.455C45.5762 149.814 45.8357 150.091 46.169 150.284C46.5024 150.473 46.8925 150.568 47.3395 150.568C47.6387 150.568 47.9096 150.527 48.152 150.443C48.3944 150.356 48.6046 150.229 48.7827 150.062C48.9607 149.896 49.0952 149.689 49.1861 149.443L51.1065 149.659C50.9853 150.167 50.7543 150.61 50.4134 150.989C50.0762 151.364 49.6444 151.655 49.1179 151.864C48.5914 152.068 47.9891 152.17 47.3111 152.17ZM54.9886 140.364V152H52.9318V140.364H54.9886ZM60.9673 152.17C60.0923 152.17 59.3366 151.989 58.7003 151.625C58.0677 151.258 57.581 150.739 57.2401 150.068C56.8991 149.394 56.7287 148.6 56.7287 147.688C56.7287 146.79 56.8991 146.002 57.2401 145.324C57.5848 144.642 58.0658 144.112 58.6832 143.733C59.3007 143.35 60.026 143.159 60.8594 143.159C61.3973 143.159 61.9048 143.246 62.3821 143.42C62.8632 143.591 63.2874 143.856 63.6548 144.216C64.026 144.576 64.3177 145.034 64.5298 145.591C64.742 146.144 64.848 146.803 64.848 147.568V148.199H57.6946V146.812H62.8764C62.8726 146.419 62.7874 146.068 62.6207 145.761C62.4541 145.451 62.2211 145.206 61.9219 145.028C61.6264 144.85 61.2817 144.761 60.8878 144.761C60.4673 144.761 60.098 144.864 59.7798 145.068C59.4616 145.269 59.2135 145.534 59.0355 145.864C58.8613 146.189 58.7723 146.547 58.7685 146.938V148.148C58.7685 148.655 58.8613 149.091 59.0469 149.455C59.2325 149.814 59.492 150.091 59.8253 150.284C60.1586 150.473 60.5488 150.568 60.9957 150.568C61.295 150.568 61.5658 150.527 61.8082 150.443C62.0507 150.356 62.2609 150.229 62.4389 150.062C62.617 149.896 62.7514 149.689 62.8423 149.443L64.7628 149.659C64.6416 150.167 64.4105 150.61 64.0696 150.989C63.7325 151.364 63.3007 151.655 62.7741 151.864C62.2476 152.068 61.6454 152.17 60.9673 152.17ZM70.3949 152.17C69.5237 152.17 68.7756 151.979 68.1506 151.597C67.5294 151.214 67.0502 150.686 66.7131 150.011C66.3797 149.333 66.2131 148.553 66.2131 147.67C66.2131 146.784 66.3835 146.002 66.7244 145.324C67.0653 144.642 67.5464 144.112 68.1676 143.733C68.7926 143.35 69.5313 143.159 70.3835 143.159C71.0919 143.159 71.7188 143.29 72.2642 143.551C72.8134 143.809 73.2509 144.174 73.5767 144.648C73.9025 145.117 74.0881 145.667 74.1335 146.295H72.1676C72.0881 145.875 71.8987 145.525 71.5994 145.244C71.304 144.96 70.9081 144.818 70.4119 144.818C69.9915 144.818 69.6222 144.932 69.304 145.159C68.9858 145.383 68.7377 145.705 68.5597 146.125C68.3854 146.545 68.2983 147.049 68.2983 147.636C68.2983 148.231 68.3854 148.742 68.5597 149.17C68.7339 149.595 68.9782 149.922 69.2926 150.153C69.6108 150.381 69.9839 150.494 70.4119 150.494C70.715 150.494 70.9858 150.437 71.2244 150.324C71.4669 150.206 71.6695 150.038 71.8324 149.818C71.9953 149.598 72.107 149.331 72.1676 149.017H74.1335C74.0843 149.634 73.9025 150.182 73.5881 150.659C73.2737 151.133 72.8456 151.504 72.304 151.773C71.7623 152.038 71.1259 152.17 70.3949 152.17ZM75.8224 152V143.273H77.8793V152H75.8224ZM76.8565 142.034C76.5308 142.034 76.2505 141.926 76.0156 141.71C75.7808 141.491 75.6634 141.227 75.6634 140.92C75.6634 140.61 75.7808 140.347 76.0156 140.131C76.2505 139.911 76.5308 139.801 76.8565 139.801C77.1861 139.801 77.4664 139.911 77.6974 140.131C77.9323 140.347 78.0497 140.61 78.0497 140.92C78.0497 141.227 77.9323 141.491 77.6974 141.71C77.4664 141.926 77.1861 142.034 76.8565 142.034ZM83.8011 152.17C82.9489 152.17 82.2102 151.983 81.5852 151.608C80.9602 151.233 80.4754 150.708 80.1307 150.034C79.7898 149.36 79.6193 148.572 79.6193 147.67C79.6193 146.769 79.7898 145.979 80.1307 145.301C80.4754 144.623 80.9602 144.097 81.5852 143.722C82.2102 143.347 82.9489 143.159 83.8011 143.159C84.6534 143.159 85.392 143.347 86.017 143.722C86.642 144.097 87.125 144.623 87.4659 145.301C87.8106 145.979 87.983 146.769 87.983 147.67C87.983 148.572 87.8106 149.36 87.4659 150.034C87.125 150.708 86.642 151.233 86.017 151.608C85.392 151.983 84.6534 152.17 83.8011 152.17ZM83.8125 150.523C84.2746 150.523 84.661 150.396 84.9716 150.142C85.2822 149.884 85.5133 149.54 85.6648 149.108C85.8201 148.676 85.8977 148.195 85.8977 147.665C85.8977 147.131 85.8201 146.648 85.6648 146.216C85.5133 145.78 85.2822 145.434 84.9716 145.176C84.661 144.919 84.2746 144.79 83.8125 144.79C83.339 144.79 82.9451 144.919 82.6307 145.176C82.3201 145.434 82.0871 145.78 81.9318 146.216C81.7803 146.648 81.7045 147.131 81.7045 147.665C81.7045 148.195 81.7803 148.676 81.9318 149.108C82.0871 149.54 82.3201 149.884 82.6307 150.142C82.9451 150.396 83.339 150.523 83.8125 150.523ZM91.7855 146.886V152H89.7287V143.273H91.6946V144.756H91.7969C91.9976 144.267 92.3177 143.879 92.7571 143.591C93.2003 143.303 93.7476 143.159 94.3991 143.159C95.0014 143.159 95.526 143.288 95.973 143.545C96.4238 143.803 96.7723 144.176 97.0185 144.665C97.2685 145.153 97.3916 145.746 97.3878 146.443V152H95.331V146.761C95.331 146.178 95.1795 145.722 94.8764 145.392C94.5772 145.062 94.1624 144.898 93.6321 144.898C93.2723 144.898 92.9522 144.977 92.6719 145.136C92.3954 145.292 92.1776 145.517 92.0185 145.812C91.8632 146.108 91.7855 146.466 91.7855 146.886ZM103.342 152.17C102.467 152.17 101.712 151.989 101.075 151.625C100.443 151.258 99.956 150.739 99.6151 150.068C99.2741 149.394 99.1037 148.6 99.1037 147.688C99.1037 146.79 99.2741 146.002 99.6151 145.324C99.9598 144.642 100.441 144.112 101.058 143.733C101.676 143.35 102.401 143.159 103.234 143.159C103.772 143.159 104.28 143.246 104.757 143.42C105.238 143.591 105.662 143.856 106.03 144.216C106.401 144.576 106.693 145.034 106.905 145.591C107.117 146.144 107.223 146.803 107.223 147.568V148.199H100.07V146.812H105.251C105.248 146.419 105.162 146.068 104.996 145.761C104.829 145.451 104.596 145.206 104.297 145.028C104.001 144.85 103.657 144.761 103.263 144.761C102.842 144.761 102.473 144.864 102.155 145.068C101.837 145.269 101.589 145.534 101.411 145.864C101.236 146.189 101.147 146.547 101.143 146.938V148.148C101.143 148.655 101.236 149.091 101.422 149.455C101.607 149.814 101.867 150.091 102.2 150.284C102.534 150.473 102.924 150.568 103.371 150.568C103.67 150.568 103.941 150.527 104.183 150.443C104.426 150.356 104.636 150.229 104.814 150.062C104.992 149.896 105.126 149.689 105.217 149.443L107.138 149.659C107.017 150.167 106.786 150.61 106.445 150.989C106.107 151.364 105.676 151.655 105.149 151.864C104.623 152.068 104.02 152.17 103.342 152.17ZM116.739 152.17C115.886 152.17 115.148 151.983 114.523 151.608C113.898 151.233 113.413 150.708 113.068 150.034C112.727 149.36 112.557 148.572 112.557 147.67C112.557 146.769 112.727 145.979 113.068 145.301C113.413 144.623 113.898 144.097 114.523 143.722C115.148 143.347 115.886 143.159 116.739 143.159C117.591 143.159 118.33 143.347 118.955 143.722C119.58 144.097 120.063 144.623 120.403 145.301C120.748 145.979 120.92 146.769 120.92 147.67C120.92 148.572 120.748 149.36 120.403 150.034C120.063 150.708 119.58 151.233 118.955 151.608C118.33 151.983 117.591 152.17 116.739 152.17ZM116.75 150.523C117.212 150.523 117.598 150.396 117.909 150.142C118.22 149.884 118.451 149.54 118.602 149.108C118.758 148.676 118.835 148.195 118.835 147.665C118.835 147.131 118.758 146.648 118.602 146.216C118.451 145.78 118.22 145.434 117.909 145.176C117.598 144.919 117.212 144.79 116.75 144.79C116.277 144.79 115.883 144.919 115.568 145.176C115.258 145.434 115.025 145.78 114.869 146.216C114.718 146.648 114.642 147.131 114.642 147.665C114.642 148.195 114.718 148.676 114.869 149.108C115.025 149.54 115.258 149.884 115.568 150.142C115.883 150.396 116.277 150.523 116.75 150.523ZM130.993 143.273V144.864H125.976V143.273H130.993ZM127.214 141.182H129.271V149.375C129.271 149.652 129.313 149.864 129.396 150.011C129.483 150.155 129.597 150.254 129.737 150.307C129.877 150.36 130.033 150.386 130.203 150.386C130.332 150.386 130.449 150.377 130.555 150.358C130.665 150.339 130.749 150.322 130.805 150.307L131.152 151.915C131.042 151.953 130.885 151.994 130.68 152.04C130.48 152.085 130.233 152.112 129.942 152.119C129.427 152.134 128.963 152.057 128.55 151.886C128.137 151.712 127.809 151.443 127.567 151.08C127.328 150.716 127.211 150.261 127.214 149.716V141.182ZM132.713 152V143.273H134.77V152H132.713ZM133.747 142.034C133.421 142.034 133.141 141.926 132.906 141.71C132.671 141.491 132.554 141.227 132.554 140.92C132.554 140.61 132.671 140.347 132.906 140.131C133.141 139.911 133.421 139.801 133.747 139.801C134.077 139.801 134.357 139.911 134.588 140.131C134.823 140.347 134.94 140.61 134.94 140.92C134.94 141.227 134.823 141.491 134.588 141.71C134.357 141.926 134.077 142.034 133.747 142.034ZM136.885 155.273V143.273H138.908V144.716H139.027C139.133 144.504 139.283 144.278 139.476 144.04C139.669 143.797 139.93 143.591 140.26 143.42C140.589 143.246 141.01 143.159 141.521 143.159C142.196 143.159 142.804 143.331 143.345 143.676C143.891 144.017 144.322 144.523 144.641 145.193C144.963 145.86 145.124 146.678 145.124 147.648C145.124 148.606 144.966 149.42 144.652 150.091C144.338 150.761 143.91 151.273 143.368 151.625C142.826 151.977 142.213 152.153 141.527 152.153C141.027 152.153 140.612 152.07 140.283 151.903C139.953 151.737 139.688 151.536 139.487 151.301C139.29 151.062 139.137 150.837 139.027 150.625H138.942V155.273H136.885ZM138.902 147.636C138.902 148.201 138.982 148.695 139.141 149.119C139.304 149.544 139.536 149.875 139.839 150.114C140.146 150.348 140.518 150.466 140.953 150.466C141.408 150.466 141.788 150.345 142.095 150.102C142.402 149.856 142.633 149.521 142.788 149.097C142.947 148.669 143.027 148.182 143.027 147.636C143.027 147.095 142.949 146.614 142.794 146.193C142.639 145.773 142.408 145.443 142.101 145.205C141.794 144.966 141.411 144.847 140.953 144.847C140.514 144.847 140.141 144.962 139.834 145.193C139.527 145.424 139.294 145.748 139.135 146.165C138.98 146.581 138.902 147.072 138.902 147.636ZM150.692 152.17C149.839 152.17 149.101 151.983 148.476 151.608C147.851 151.233 147.366 150.708 147.021 150.034C146.68 149.36 146.51 148.572 146.51 147.67C146.51 146.769 146.68 145.979 147.021 145.301C147.366 144.623 147.851 144.097 148.476 143.722C149.101 143.347 149.839 143.159 150.692 143.159C151.544 143.159 152.283 143.347 152.908 143.722C153.533 144.097 154.016 144.623 154.357 145.301C154.701 145.979 154.874 146.769 154.874 147.67C154.874 148.572 154.701 149.36 154.357 150.034C154.016 150.708 153.533 151.233 152.908 151.608C152.283 151.983 151.544 152.17 150.692 152.17ZM150.703 150.523C151.165 150.523 151.552 150.396 151.862 150.142C152.173 149.884 152.404 149.54 152.555 149.108C152.711 148.676 152.788 148.195 152.788 147.665C152.788 147.131 152.711 146.648 152.555 146.216C152.404 145.78 152.173 145.434 151.862 145.176C151.552 144.919 151.165 144.79 150.703 144.79C150.23 144.79 149.836 144.919 149.521 145.176C149.211 145.434 148.978 145.78 148.822 146.216C148.671 146.648 148.595 147.131 148.595 147.665C148.595 148.195 148.671 148.676 148.822 149.108C148.978 149.54 149.211 149.884 149.521 150.142C149.836 150.396 150.23 150.523 150.703 150.523ZM163.827 152.153C163.141 152.153 162.527 151.977 161.986 151.625C161.444 151.273 161.016 150.761 160.702 150.091C160.387 149.42 160.23 148.606 160.23 147.648C160.23 146.678 160.389 145.86 160.707 145.193C161.029 144.523 161.463 144.017 162.009 143.676C162.554 143.331 163.162 143.159 163.832 143.159C164.344 143.159 164.764 143.246 165.094 143.42C165.423 143.591 165.685 143.797 165.878 144.04C166.071 144.278 166.221 144.504 166.327 144.716H166.412V140.364H168.474V152H166.452V150.625H166.327C166.221 150.837 166.067 151.062 165.866 151.301C165.666 151.536 165.401 151.737 165.071 151.903C164.741 152.07 164.327 152.153 163.827 152.153ZM164.401 150.466C164.836 150.466 165.207 150.348 165.514 150.114C165.821 149.875 166.054 149.544 166.213 149.119C166.372 148.695 166.452 148.201 166.452 147.636C166.452 147.072 166.372 146.581 166.213 146.165C166.058 145.748 165.827 145.424 165.52 145.193C165.217 144.962 164.844 144.847 164.401 144.847C163.942 144.847 163.56 144.966 163.253 145.205C162.946 145.443 162.715 145.773 162.56 146.193C162.404 146.614 162.327 147.095 162.327 147.636C162.327 148.182 162.404 148.669 162.56 149.097C162.719 149.521 162.952 149.856 163.259 150.102C163.569 150.345 163.95 150.466 164.401 150.466ZM174.53 152.17C173.655 152.17 172.899 151.989 172.263 151.625C171.63 151.258 171.143 150.739 170.803 150.068C170.462 149.394 170.291 148.6 170.291 147.688C170.291 146.79 170.462 146.002 170.803 145.324C171.147 144.642 171.628 144.112 172.246 143.733C172.863 143.35 173.589 143.159 174.422 143.159C174.96 143.159 175.467 143.246 175.945 143.42C176.426 143.591 176.85 143.856 177.217 144.216C177.589 144.576 177.88 145.034 178.092 145.591C178.304 146.144 178.411 146.803 178.411 147.568V148.199H171.257V146.812H176.439C176.435 146.419 176.35 146.068 176.183 145.761C176.017 145.451 175.784 145.206 175.484 145.028C175.189 144.85 174.844 144.761 174.45 144.761C174.03 144.761 173.661 144.864 173.342 145.068C173.024 145.269 172.776 145.534 172.598 145.864C172.424 146.189 172.335 146.547 172.331 146.938V148.148C172.331 148.655 172.424 149.091 172.609 149.455C172.795 149.814 173.054 150.091 173.388 150.284C173.721 150.473 174.111 150.568 174.558 150.568C174.857 150.568 175.128 150.527 175.371 150.443C175.613 150.356 175.823 150.229 176.001 150.062C176.179 149.896 176.314 149.689 176.405 149.443L178.325 149.659C178.204 150.167 177.973 150.61 177.632 150.989C177.295 151.364 176.863 151.655 176.337 151.864C175.81 152.068 175.208 152.17 174.53 152.17ZM189.682 148.33V143.273H191.739V152H189.744V150.449H189.653C189.456 150.937 189.133 151.337 188.682 151.648C188.235 151.958 187.684 152.114 187.028 152.114C186.456 152.114 185.951 151.987 185.511 151.733C185.076 151.475 184.735 151.102 184.489 150.614C184.242 150.121 184.119 149.527 184.119 148.83V143.273H186.176V148.511C186.176 149.064 186.328 149.504 186.631 149.83C186.934 150.155 187.331 150.318 187.824 150.318C188.127 150.318 188.42 150.244 188.705 150.097C188.989 149.949 189.222 149.729 189.403 149.438C189.589 149.142 189.682 148.773 189.682 148.33ZM200.751 145.58L198.876 145.784C198.823 145.595 198.731 145.417 198.598 145.25C198.469 145.083 198.295 144.949 198.075 144.847C197.856 144.744 197.587 144.693 197.268 144.693C196.84 144.693 196.481 144.786 196.189 144.972C195.901 145.157 195.759 145.398 195.763 145.693C195.759 145.947 195.852 146.153 196.041 146.312C196.234 146.472 196.553 146.602 196.996 146.705L198.484 147.023C199.31 147.201 199.924 147.483 200.325 147.869C200.731 148.256 200.935 148.761 200.939 149.386C200.935 149.936 200.774 150.42 200.456 150.841C200.142 151.258 199.704 151.583 199.143 151.818C198.583 152.053 197.939 152.17 197.212 152.17C196.143 152.17 195.284 151.947 194.632 151.5C193.981 151.049 193.592 150.422 193.467 149.619L195.473 149.426C195.564 149.82 195.757 150.117 196.053 150.318C196.348 150.519 196.732 150.619 197.206 150.619C197.695 150.619 198.087 150.519 198.382 150.318C198.681 150.117 198.831 149.869 198.831 149.574C198.831 149.324 198.734 149.117 198.541 148.955C198.352 148.792 198.056 148.667 197.655 148.58L196.166 148.267C195.329 148.093 194.71 147.799 194.308 147.386C193.907 146.97 193.708 146.443 193.712 145.807C193.708 145.269 193.854 144.803 194.149 144.409C194.448 144.011 194.863 143.705 195.393 143.489C195.928 143.269 196.543 143.159 197.24 143.159C198.263 143.159 199.068 143.377 199.655 143.812C200.246 144.248 200.611 144.837 200.751 145.58ZM208.197 148.33V143.273H210.254V152H208.26V150.449H208.169C207.972 150.937 207.648 151.337 207.197 151.648C206.75 151.958 206.199 152.114 205.544 152.114C204.972 152.114 204.466 151.987 204.027 151.733C203.591 151.475 203.25 151.102 203.004 150.614C202.758 150.121 202.635 149.527 202.635 148.83V143.273H204.692V148.511C204.692 149.064 204.843 149.504 205.146 149.83C205.449 150.155 205.847 150.318 206.339 150.318C206.643 150.318 206.936 150.244 207.22 150.097C207.504 149.949 207.737 149.729 207.919 149.438C208.105 149.142 208.197 148.773 208.197 148.33ZM214.881 152.176C214.328 152.176 213.83 152.078 213.386 151.881C212.947 151.68 212.598 151.384 212.341 150.994C212.087 150.604 211.96 150.123 211.96 149.551C211.96 149.059 212.051 148.652 212.233 148.33C212.415 148.008 212.663 147.75 212.977 147.557C213.292 147.364 213.646 147.218 214.04 147.119C214.438 147.017 214.848 146.943 215.273 146.898C215.784 146.845 216.199 146.797 216.517 146.756C216.835 146.71 217.066 146.642 217.21 146.551C217.358 146.456 217.432 146.311 217.432 146.114V146.08C217.432 145.652 217.305 145.32 217.051 145.085C216.797 144.85 216.432 144.733 215.955 144.733C215.451 144.733 215.051 144.843 214.756 145.062C214.464 145.282 214.267 145.542 214.165 145.841L212.244 145.568C212.396 145.038 212.646 144.595 212.994 144.239C213.343 143.879 213.769 143.61 214.273 143.432C214.777 143.25 215.333 143.159 215.943 143.159C216.364 143.159 216.782 143.208 217.199 143.307C217.616 143.405 217.996 143.568 218.341 143.795C218.686 144.019 218.962 144.324 219.17 144.71C219.383 145.097 219.489 145.58 219.489 146.159V152H217.511V150.801H217.443C217.318 151.044 217.142 151.271 216.915 151.483C216.691 151.691 216.409 151.86 216.068 151.989C215.731 152.114 215.335 152.176 214.881 152.176ZM215.415 150.665C215.828 150.665 216.186 150.583 216.489 150.42C216.792 150.254 217.025 150.034 217.188 149.761C217.354 149.489 217.438 149.191 217.438 148.869V147.841C217.373 147.894 217.263 147.943 217.108 147.989C216.956 148.034 216.786 148.074 216.597 148.108C216.407 148.142 216.22 148.172 216.034 148.199C215.848 148.225 215.688 148.248 215.551 148.267C215.244 148.309 214.97 148.377 214.727 148.472C214.485 148.566 214.294 148.699 214.153 148.869C214.013 149.036 213.943 149.252 213.943 149.517C213.943 149.896 214.081 150.182 214.358 150.375C214.634 150.568 214.987 150.665 215.415 150.665ZM215.244 142.125L216.517 139.528H218.528L216.784 142.125H215.244ZM221.557 152V143.273H223.551V144.727H223.642C223.801 144.223 224.074 143.835 224.46 143.562C224.85 143.286 225.295 143.148 225.795 143.148C225.909 143.148 226.036 143.153 226.176 143.165C226.32 143.172 226.439 143.186 226.534 143.205V145.097C226.447 145.066 226.309 145.04 226.119 145.017C225.934 144.991 225.754 144.977 225.58 144.977C225.205 144.977 224.867 145.059 224.568 145.222C224.273 145.381 224.04 145.602 223.869 145.886C223.699 146.17 223.614 146.498 223.614 146.869V152H221.557ZM227.901 152V143.273H229.957V152H227.901ZM228.935 142.034C228.609 142.034 228.329 141.926 228.094 141.71C227.859 141.491 227.741 141.227 227.741 140.92C227.741 140.61 227.859 140.347 228.094 140.131C228.329 139.911 228.609 139.801 228.935 139.801C229.264 139.801 229.545 139.911 229.776 140.131C230.01 140.347 230.128 140.61 230.128 140.92C230.128 141.227 230.01 141.491 229.776 141.71C229.545 141.926 229.264 142.034 228.935 142.034ZM235.879 152.17C235.027 152.17 234.288 151.983 233.663 151.608C233.038 151.233 232.554 150.708 232.209 150.034C231.868 149.36 231.697 148.572 231.697 147.67C231.697 146.769 231.868 145.979 232.209 145.301C232.554 144.623 233.038 144.097 233.663 143.722C234.288 143.347 235.027 143.159 235.879 143.159C236.732 143.159 237.47 143.347 238.095 143.722C238.72 144.097 239.203 144.623 239.544 145.301C239.889 145.979 240.061 146.769 240.061 147.67C240.061 148.572 239.889 149.36 239.544 150.034C239.203 150.708 238.72 151.233 238.095 151.608C237.47 151.983 236.732 152.17 235.879 152.17ZM235.891 150.523C236.353 150.523 236.739 150.396 237.05 150.142C237.36 149.884 237.591 149.54 237.743 149.108C237.898 148.676 237.976 148.195 237.976 147.665C237.976 147.131 237.898 146.648 237.743 146.216C237.591 145.78 237.36 145.434 237.05 145.176C236.739 144.919 236.353 144.79 235.891 144.79C235.417 144.79 235.023 144.919 234.709 145.176C234.398 145.434 234.165 145.78 234.01 146.216C233.858 146.648 233.783 147.131 233.783 147.665C233.783 148.195 233.858 148.676 234.01 149.108C234.165 149.54 234.398 149.884 234.709 150.142C235.023 150.396 235.417 150.523 235.891 150.523Z" fill="white"/>
<path d="M34.3118 105V74.4545H46.9297C49.2166 74.4545 51.1903 74.902 52.8509 75.7969C54.5213 76.6818 55.809 77.9197 56.7138 79.5107C57.6186 81.0916 58.071 82.9311 58.071 85.0291C58.071 87.1371 57.6087 88.9815 56.6839 90.5625C55.7692 92.1335 54.4616 93.3516 52.7614 94.2166C51.0611 95.0817 49.0426 95.5142 46.706 95.5142H38.9205V89.6974H45.3338C46.4474 89.6974 47.3771 89.5036 48.1229 89.1158C48.8786 88.728 49.4503 88.1861 49.8381 87.4901C50.2259 86.7841 50.4197 85.9638 50.4197 85.0291C50.4197 84.0845 50.2259 83.2692 49.8381 82.5831C49.4503 81.8871 48.8786 81.3501 48.1229 80.9723C47.3672 80.5945 46.4375 80.4055 45.3338 80.4055H41.6946V105H34.3118ZM71.9679 105.433C69.5716 105.433 67.5034 104.96 65.7633 104.016C64.0332 103.061 62.7008 101.704 61.7662 99.9439C60.8414 98.174 60.3791 96.071 60.3791 93.6349C60.3791 91.2685 60.8464 89.2003 61.7811 87.4304C62.7157 85.6506 64.0332 84.2685 65.7335 83.2841C67.4338 82.2898 69.4373 81.7926 71.7441 81.7926C73.3748 81.7926 74.8663 82.0462 76.2186 82.5533C77.5708 83.0604 78.7392 83.8111 79.7235 84.8054C80.7079 85.7997 81.4735 87.0277 82.0204 88.4893C82.5673 89.9411 82.8407 91.6065 82.8407 93.4858V95.3054H62.9295V91.0696H76.0545C76.0446 90.294 75.8606 89.603 75.5027 88.9964C75.1447 88.3899 74.6525 87.9176 74.0261 87.5795C73.4096 87.2315 72.6987 87.0575 71.8933 87.0575C71.0779 87.0575 70.3471 87.2415 69.7008 87.6094C69.0545 87.9673 68.5424 88.4595 68.1646 89.0859C67.7868 89.7024 67.5879 90.4034 67.568 91.1889V95.4993C67.568 96.4339 67.752 97.2543 68.1199 97.9602C68.4877 98.6562 69.0098 99.1982 69.6859 99.5859C70.362 99.9737 71.1674 100.168 72.1021 100.168C72.7484 100.168 73.3351 100.078 73.862 99.8991C74.389 99.7202 74.8414 99.4567 75.2193 99.1087C75.5971 98.7607 75.8805 98.3331 76.0694 97.826L82.7662 98.0199C82.4877 99.5213 81.8762 100.829 80.9316 101.942C79.997 103.046 78.769 103.906 77.2477 104.523C75.7264 105.129 73.9664 105.433 71.9679 105.433ZM86.5657 105V82.0909H93.6502V86.267H93.8888C94.3065 84.7557 94.9876 83.6321 95.9322 82.8963C96.8768 82.1506 97.9755 81.7777 99.2283 81.7777C99.5664 81.7777 99.9144 81.8026 100.272 81.8523C100.63 81.892 100.963 81.9567 101.272 82.0462V88.3849C100.924 88.2656 100.466 88.1712 99.8995 88.1016C99.3427 88.032 98.8455 87.9972 98.408 87.9972C97.543 87.9972 96.7624 88.1911 96.0664 88.5788C95.3803 88.9567 94.8384 89.4886 94.4407 90.1747C94.0529 90.8509 93.859 91.6463 93.859 92.5611V105H86.5657ZM118.33 82.0909V87.4602H103.595V82.0909H118.33ZM106.667 105V80.9276C106.667 79.1577 107 77.6911 107.666 76.5277C108.333 75.3544 109.257 74.4794 110.441 73.9027C111.624 73.316 112.991 73.0227 114.542 73.0227C115.556 73.0227 116.511 73.1023 117.406 73.2614C118.311 73.4105 118.982 73.5447 119.419 73.6641L118.256 79.0036C117.987 78.9141 117.659 78.8395 117.271 78.7798C116.894 78.7202 116.536 78.6903 116.198 78.6903C115.343 78.6903 114.756 78.8793 114.438 79.2571C114.119 79.6349 113.96 80.152 113.96 80.8082V105H106.667ZM121.839 105V82.0909H129.132V105H121.839ZM125.493 79.4212C124.469 79.4212 123.589 79.0831 122.853 78.407C122.118 77.7209 121.75 76.8956 121.75 75.9311C121.75 74.9766 122.118 74.1612 122.853 73.4851C123.589 72.799 124.469 72.456 125.493 72.456C126.527 72.456 127.407 72.799 128.133 73.4851C128.869 74.1612 129.237 74.9766 129.237 75.9311C129.237 76.8956 128.869 77.7209 128.133 78.407C127.407 79.0831 126.527 79.4212 125.493 79.4212ZM141.068 74.4545V105H133.775V74.4545H141.068Z" fill="white"/>
<rect width="375" height="22.1074" transform="translate(13 868.691)" fill="#520720"/>
<rect x="134" y="877.691" width="134" height="5" rx="2.5" fill="black"/>
<path opacity="0.35" d="M369.386 25.7273C369.386 24.3675 370.489 23.2652 371.849 23.2652H390.788C392.148 23.2652 393.25 24.3675 393.25 25.7273V32.5455C393.25 33.9053 392.148 35.0076 390.788 35.0076H371.849C370.489 35.0076 369.386 33.9053 369.386 32.5455V25.7273Z" stroke="white" stroke-width="1.13636"/>
<path opacity="0.4" d="M394.955 26.8637V31.4091C395.869 31.0241 396.464 30.1286 396.464 29.1364C396.464 28.1442 395.869 27.2486 394.955 26.8637Z" fill="white"/>
<path d="M371.091 26.4849C371.091 25.6481 371.769 24.9697 372.606 24.9697H390.03C390.867 24.9697 391.545 25.6481 391.545 26.4849V31.7879C391.545 32.6247 390.867 33.3031 390.03 33.3031H372.606C371.769 33.3031 371.091 32.6247 371.091 31.7879V26.4849Z" fill="white"/>
<path fill-rule="evenodd" clip-rule="evenodd" d="M354.421 25.2818C356.939 25.282 359.361 26.2495 361.186 27.9845C361.323 28.1184 361.543 28.1168 361.678 27.9807L362.992 26.6549C363.06 26.5859 363.098 26.4925 363.098 26.3952C363.097 26.298 363.058 26.205 362.989 26.1368C358.199 21.5464 350.642 21.5464 345.852 26.1368C345.783 26.2049 345.744 26.2979 345.743 26.3951C345.742 26.4924 345.78 26.5859 345.849 26.6549L347.163 27.9807C347.298 28.117 347.518 28.1186 347.655 27.9845C349.48 26.2494 351.903 25.2818 354.421 25.2818ZM354.421 29.5951C355.804 29.595 357.139 30.1093 358.164 31.0379C358.303 31.1697 358.521 31.1668 358.656 31.0315L359.969 29.7057C360.038 29.6362 360.076 29.5418 360.075 29.4438C360.074 29.3458 360.034 29.2522 359.963 29.1841C356.84 26.2791 352.004 26.2791 348.881 29.1841C348.811 29.2522 348.77 29.3458 348.769 29.4439C348.768 29.5419 348.807 29.6363 348.876 29.7057L350.188 31.0315C350.323 31.1668 350.542 31.1697 350.68 31.0379C351.705 30.1099 353.038 29.5957 354.421 29.5951ZM357.049 32.4972C357.051 32.5955 357.013 32.6902 356.942 32.7591L354.673 35.0496C354.606 35.117 354.515 35.1548 354.421 35.1548C354.326 35.1548 354.235 35.117 354.169 35.0496L351.899 32.7591C351.829 32.6902 351.79 32.5954 351.792 32.4971C351.794 32.3988 351.837 32.3057 351.91 32.2398C353.359 31.0138 355.482 31.0138 356.932 32.2398C357.005 32.3057 357.047 32.3989 357.049 32.4972Z" fill="white"/>
<path fill-rule="evenodd" clip-rule="evenodd" d="M338.894 23.0757H337.758C337.13 23.0757 336.621 23.5845 336.621 24.212V34.0605C336.621 34.6881 337.13 35.1969 337.758 35.1969H338.894C339.522 35.1969 340.03 34.6881 340.03 34.0605V24.212C340.03 23.5845 339.522 23.0757 338.894 23.0757ZM332.455 25.7272H333.591C334.219 25.7272 334.727 26.236 334.727 26.8636V34.0605C334.727 34.6881 334.219 35.1969 333.591 35.1969H332.455C331.827 35.1969 331.318 34.6881 331.318 34.0605V26.8636C331.318 26.236 331.827 25.7272 332.455 25.7272ZM328.288 28.3787H327.152C326.524 28.3787 326.015 28.8875 326.015 29.5151V34.0605C326.015 34.6881 326.524 35.1969 327.152 35.1969H328.288C328.915 35.1969 329.424 34.6881 329.424 34.0605V29.5151C329.424 28.8875 328.915 28.3787 328.288 28.3787ZM322.985 30.6514H321.848C321.221 30.6514 320.712 31.1602 320.712 31.7878V34.0605C320.712 34.6881 321.221 35.1969 321.848 35.1969H322.985C323.612 35.1969 324.121 34.6881 324.121 34.0605V31.7878C324.121 31.1602 323.612 30.6514 322.985 30.6514Z" fill="white"/>
<path d="M41.4099 35.1095C44.4644 35.1095 46.2788 32.7208 46.2788 28.6758C46.2788 27.1527 45.9875 25.871 45.4299 24.8805C44.6226 23.3408 43.2326 22.5085 41.4765 22.5085C38.8631 22.5085 37.0154 24.2646 37.0154 26.7282C37.0154 29.042 38.6799 30.7233 40.9688 30.7233C42.3753 30.7233 43.5156 30.0658 44.0816 28.9255H44.1065C44.1065 28.9255 44.1398 28.9255 44.1481 28.9255C44.1648 28.9255 44.223 28.9255 44.223 28.9255C44.223 31.6721 43.1827 33.3117 41.4265 33.3117C40.3945 33.3117 39.5955 32.7458 39.3208 31.8386H37.1818C37.5397 33.8111 39.2126 35.1095 41.4099 35.1095ZM41.4848 29.0171C40.1032 29.0171 39.1211 28.035 39.1211 26.6617C39.1211 25.3217 40.1531 24.2979 41.4931 24.2979C42.8331 24.2979 43.8652 25.3383 43.8652 26.695C43.8652 28.035 42.8581 29.0171 41.4848 29.0171Z" fill="white"/>
<path d="M49.7914 34.993C50.5821 34.993 51.1231 34.427 51.1231 33.6779C51.1231 32.9205 50.5821 32.3629 49.7914 32.3629C49.0091 32.3629 48.4598 32.9205 48.4598 33.6779C48.4598 34.427 49.0091 34.993 49.7914 34.993ZM49.7914 28.7507C50.5821 28.7507 51.1231 28.1931 51.1231 27.444C51.1231 26.6866 50.5821 26.129 49.7914 26.129C49.0091 26.129 48.4598 26.6866 48.4598 27.444C48.4598 28.1931 49.0091 28.7507 49.7914 28.7507Z" fill="white"/>
<path d="M58.9138 34.8182H60.9695V32.5793H62.5925V30.7649H60.9695V22.8081H57.94C55.8176 26.0041 54.1281 28.6758 53.0461 30.665V32.5793H58.9138V34.8182ZM55.0353 30.69C56.4335 28.2264 57.682 26.2538 58.8305 24.556H58.9471V30.8148H55.0353V30.69Z" fill="white"/>
<path d="M67.1705 34.8182H69.3178V22.8081H67.1788L64.041 25.0054V27.0695L67.029 24.9721H67.1705V34.8182Z" fill="white"/>
<g filter="url(#filter0_d_224_1679)">
<rect x="48" y="341" width="318" height="302" rx="30" fill="#BC8D59"/>
</g>
<path d="M116.998 478.818H120.327L126.115 492.952H126.328L132.116 478.818H135.446V497H132.836V483.843H132.667L127.305 496.973H125.138L119.776 483.834H119.608V497H116.998V478.818ZM145.098 497.275C143.755 497.275 142.598 496.988 141.627 496.414C140.662 495.834 139.916 495.02 139.39 493.973C138.869 492.919 138.608 491.685 138.608 490.271C138.608 488.874 138.869 487.643 139.39 486.577C139.916 485.512 140.65 484.681 141.591 484.083C142.538 483.485 143.645 483.186 144.912 483.186C145.681 483.186 146.427 483.313 147.149 483.568C147.871 483.822 148.519 484.222 149.093 484.766C149.667 485.311 150.12 486.018 150.451 486.888C150.783 487.752 150.949 488.803 150.949 490.04V490.981H140.109V488.992H148.347C148.347 488.294 148.205 487.675 147.921 487.137C147.637 486.592 147.238 486.163 146.723 485.849C146.214 485.536 145.616 485.379 144.929 485.379C144.184 485.379 143.533 485.562 142.976 485.929C142.426 486.29 142 486.764 141.698 487.35C141.402 487.93 141.254 488.56 141.254 489.241V490.794C141.254 491.706 141.414 492.481 141.733 493.12C142.059 493.76 142.512 494.248 143.092 494.585C143.672 494.917 144.349 495.082 145.125 495.082C145.628 495.082 146.087 495.011 146.501 494.869C146.915 494.721 147.273 494.502 147.575 494.212C147.877 493.922 148.108 493.564 148.267 493.138L150.78 493.591C150.579 494.331 150.218 494.979 149.697 495.535C149.182 496.086 148.534 496.515 147.753 496.822C146.977 497.124 146.092 497.275 145.098 497.275ZM164.112 486.693L161.706 487.119C161.606 486.811 161.446 486.518 161.227 486.24C161.014 485.962 160.724 485.734 160.357 485.556C159.99 485.379 159.531 485.29 158.981 485.29C158.229 485.29 157.602 485.459 157.099 485.796C156.596 486.128 156.344 486.557 156.344 487.083C156.344 487.539 156.513 487.906 156.85 488.184C157.188 488.462 157.732 488.69 158.484 488.868L160.65 489.365C161.905 489.655 162.84 490.102 163.455 490.706C164.071 491.309 164.379 492.094 164.379 493.058C164.379 493.875 164.142 494.603 163.668 495.242C163.201 495.875 162.547 496.373 161.706 496.734C160.872 497.095 159.904 497.275 158.803 497.275C157.276 497.275 156.03 496.95 155.066 496.299C154.101 495.642 153.509 494.71 153.29 493.502L155.856 493.112C156.016 493.78 156.344 494.286 156.841 494.63C157.338 494.967 157.987 495.136 158.786 495.136C159.656 495.136 160.351 494.955 160.872 494.594C161.393 494.227 161.653 493.78 161.653 493.254C161.653 492.827 161.493 492.469 161.174 492.179C160.86 491.889 160.378 491.67 159.727 491.522L157.418 491.016C156.146 490.726 155.205 490.265 154.595 489.631C153.991 488.998 153.69 488.196 153.69 487.225C153.69 486.421 153.915 485.716 154.364 485.113C154.814 484.509 155.436 484.038 156.229 483.701C157.022 483.358 157.93 483.186 158.954 483.186C160.428 483.186 161.588 483.506 162.434 484.145C163.281 484.778 163.84 485.627 164.112 486.693ZM173.663 483.364V485.494H166.214V483.364H173.663ZM168.212 480.097H170.866V492.996C170.866 493.511 170.943 493.899 171.097 494.159C171.251 494.414 171.449 494.588 171.692 494.683C171.94 494.772 172.21 494.816 172.5 494.816C172.713 494.816 172.899 494.801 173.059 494.772C173.219 494.742 173.343 494.718 173.432 494.701L173.911 496.893C173.757 496.953 173.538 497.012 173.254 497.071C172.97 497.136 172.615 497.172 172.189 497.178C171.49 497.189 170.839 497.065 170.236 496.805C169.632 496.544 169.144 496.142 168.771 495.597C168.398 495.053 168.212 494.369 168.212 493.547V480.097ZM176.599 497V483.364H179.165V485.53H179.307C179.555 484.796 179.993 484.219 180.621 483.799C181.254 483.373 181.97 483.159 182.769 483.159C182.935 483.159 183.13 483.165 183.355 483.177C183.586 483.189 183.766 483.204 183.896 483.222V485.761C183.79 485.731 183.601 485.699 183.328 485.663C183.056 485.622 182.784 485.601 182.512 485.601C181.884 485.601 181.325 485.734 180.834 486C180.348 486.261 179.964 486.625 179.68 487.092C179.395 487.554 179.253 488.081 179.253 488.673V497H176.599ZM191.582 497.275C190.239 497.275 189.082 496.988 188.111 496.414C187.147 495.834 186.401 495.02 185.874 493.973C185.353 492.919 185.093 491.685 185.093 490.271C185.093 488.874 185.353 487.643 185.874 486.577C186.401 485.512 187.135 484.681 188.076 484.083C189.023 483.485 190.129 483.186 191.396 483.186C192.165 483.186 192.911 483.313 193.633 483.568C194.355 483.822 195.003 484.222 195.578 484.766C196.152 485.311 196.604 486.018 196.936 486.888C197.267 487.752 197.433 488.803 197.433 490.04V490.981H186.593V488.992H194.832C194.832 488.294 194.69 487.675 194.406 487.137C194.122 486.592 193.722 486.163 193.207 485.849C192.698 485.536 192.1 485.379 191.414 485.379C190.668 485.379 190.017 485.562 189.461 485.929C188.91 486.29 188.484 486.764 188.182 487.35C187.886 487.93 187.738 488.56 187.738 489.241V490.794C187.738 491.706 187.898 492.481 188.218 493.12C188.543 493.76 188.996 494.248 189.576 494.585C190.156 494.917 190.834 495.082 191.609 495.082C192.112 495.082 192.571 495.011 192.985 494.869C193.399 494.721 193.758 494.502 194.059 494.212C194.361 493.922 194.592 493.564 194.752 493.138L197.264 493.591C197.063 494.331 196.702 494.979 196.181 495.535C195.666 496.086 195.018 496.515 194.237 496.822C193.462 497.124 192.577 497.275 191.582 497.275Z" fill="black"/>
<rect x="72.2" y="475.2" width="25.6" height="25.6" rx="5.6" fill="#5C0826" stroke="black" stroke-width="1.6"/>
<path d="M124.064 532.818H126.799V545.709C126.799 546.875 126.568 547.872 126.106 548.701C125.65 549.529 125.008 550.163 124.18 550.6C123.351 551.033 122.38 551.249 121.268 551.249C120.244 551.249 119.324 551.062 118.507 550.689C117.696 550.316 117.054 549.775 116.58 549.065C116.113 548.348 115.879 547.478 115.879 546.455H118.604C118.604 546.958 118.72 547.393 118.951 547.76C119.187 548.127 119.51 548.414 119.918 548.621C120.333 548.822 120.806 548.923 121.339 548.923C121.919 548.923 122.41 548.801 122.812 548.559C123.221 548.31 123.532 547.946 123.745 547.467C123.958 546.987 124.064 546.401 124.064 545.709V532.818ZM136.322 551.275C135.044 551.275 133.928 550.982 132.975 550.396C132.023 549.81 131.283 548.991 130.756 547.937C130.229 546.884 129.966 545.653 129.966 544.244C129.966 542.829 130.229 541.592 130.756 540.533C131.283 539.474 132.023 538.651 132.975 538.065C133.928 537.479 135.044 537.186 136.322 537.186C137.601 537.186 138.716 537.479 139.669 538.065C140.622 538.651 141.362 539.474 141.889 540.533C142.416 541.592 142.679 542.829 142.679 544.244C142.679 545.653 142.416 546.884 141.889 547.937C141.362 548.991 140.622 549.81 139.669 550.396C138.716 550.982 137.601 551.275 136.322 551.275ZM136.331 549.047C137.16 549.047 137.846 548.828 138.391 548.39C138.935 547.952 139.338 547.369 139.598 546.641C139.865 545.913 139.998 545.111 139.998 544.235C139.998 543.365 139.865 542.566 139.598 541.838C139.338 541.104 138.935 540.515 138.391 540.071C137.846 539.627 137.16 539.406 136.331 539.406C135.497 539.406 134.804 539.627 134.254 540.071C133.709 540.515 133.304 541.104 133.038 541.838C132.777 542.566 132.647 543.365 132.647 544.235C132.647 545.111 132.777 545.913 133.038 546.641C133.304 547.369 133.709 547.952 134.254 548.39C134.804 548.828 135.497 549.047 136.331 549.047ZM151.359 556.398C150.276 556.398 149.344 556.256 148.563 555.972C147.787 555.688 147.154 555.312 146.663 554.844C146.172 554.377 145.805 553.865 145.562 553.308L147.844 552.367C148.003 552.628 148.216 552.903 148.483 553.193C148.755 553.489 149.122 553.74 149.584 553.947C150.051 554.155 150.652 554.258 151.386 554.258C152.392 554.258 153.224 554.013 153.881 553.521C154.537 553.036 154.866 552.261 154.866 551.195V548.514H154.697C154.537 548.804 154.307 549.127 154.005 549.482C153.709 549.837 153.3 550.145 152.78 550.405C152.259 550.666 151.581 550.796 150.747 550.796C149.669 550.796 148.699 550.544 147.835 550.041C146.977 549.532 146.296 548.783 145.793 547.795C145.296 546.801 145.047 545.579 145.047 544.129C145.047 542.679 145.293 541.436 145.784 540.4C146.281 539.364 146.962 538.571 147.826 538.021C148.69 537.464 149.669 537.186 150.764 537.186C151.611 537.186 152.294 537.328 152.815 537.612C153.336 537.89 153.741 538.216 154.031 538.589C154.327 538.962 154.555 539.29 154.715 539.574H154.91V537.364H157.512V551.302C157.512 552.474 157.239 553.435 156.695 554.187C156.15 554.939 155.413 555.495 154.484 555.856C153.561 556.217 152.519 556.398 151.359 556.398ZM151.333 548.594C152.096 548.594 152.741 548.417 153.268 548.061C153.801 547.7 154.203 547.185 154.475 546.517C154.753 545.842 154.893 545.034 154.893 544.093C154.893 543.176 154.756 542.368 154.484 541.669C154.212 540.971 153.812 540.426 153.286 540.036C152.759 539.639 152.108 539.441 151.333 539.441C150.534 539.441 149.868 539.648 149.335 540.062C148.802 540.471 148.4 541.027 148.128 541.732C147.861 542.436 147.728 543.223 147.728 544.093C147.728 544.987 147.864 545.771 148.137 546.446C148.409 547.12 148.811 547.647 149.344 548.026C149.883 548.405 150.545 548.594 151.333 548.594ZM165.04 551.302C164.176 551.302 163.395 551.142 162.696 550.822C161.998 550.497 161.444 550.026 161.036 549.411C160.634 548.795 160.432 548.041 160.432 547.147C160.432 546.378 160.58 545.744 160.876 545.247C161.172 544.75 161.572 544.356 162.075 544.066C162.578 543.776 163.14 543.557 163.762 543.409C164.383 543.261 165.016 543.149 165.661 543.072C166.478 542.977 167.141 542.9 167.65 542.841C168.159 542.776 168.529 542.673 168.76 542.531C168.991 542.388 169.106 542.158 169.106 541.838V541.776C169.106 541.001 168.887 540.4 168.449 539.974C168.017 539.548 167.372 539.335 166.514 539.335C165.62 539.335 164.916 539.533 164.401 539.929C163.892 540.32 163.54 540.755 163.344 541.234L160.85 540.666C161.146 539.838 161.578 539.169 162.146 538.66C162.72 538.145 163.38 537.772 164.126 537.541C164.871 537.304 165.655 537.186 166.478 537.186C167.023 537.186 167.6 537.251 168.209 537.381C168.825 537.506 169.399 537.737 169.932 538.074C170.47 538.411 170.911 538.894 171.254 539.521C171.598 540.142 171.769 540.95 171.769 541.945V551H169.177V549.136H169.07C168.899 549.479 168.641 549.816 168.298 550.148C167.955 550.479 167.514 550.754 166.975 550.973C166.437 551.192 165.792 551.302 165.04 551.302ZM165.617 549.171C166.351 549.171 166.978 549.026 167.499 548.736C168.026 548.446 168.425 548.067 168.698 547.6C168.976 547.126 169.115 546.62 169.115 546.082V544.324C169.02 544.419 168.837 544.507 168.564 544.59C168.298 544.667 167.993 544.735 167.65 544.794C167.307 544.848 166.972 544.898 166.647 544.945C166.321 544.987 166.049 545.022 165.83 545.052C165.315 545.117 164.845 545.226 164.419 545.38C163.998 545.534 163.661 545.756 163.406 546.046C163.158 546.33 163.034 546.709 163.034 547.183C163.034 547.839 163.276 548.337 163.762 548.674C164.247 549.005 164.865 549.171 165.617 549.171ZM180.41 551.266C179.309 551.266 178.326 550.985 177.462 550.423C176.604 549.855 175.929 549.047 175.438 547.999C174.953 546.946 174.71 545.682 174.71 544.208C174.71 542.735 174.956 541.474 175.447 540.426C175.944 539.379 176.625 538.577 177.489 538.021C178.353 537.464 179.333 537.186 180.427 537.186C181.274 537.186 181.954 537.328 182.469 537.612C182.99 537.89 183.393 538.216 183.677 538.589C183.967 538.962 184.192 539.29 184.351 539.574H184.511V532.818H187.166V551H184.573V548.878H184.351C184.192 549.168 183.961 549.5 183.659 549.873C183.363 550.245 182.955 550.571 182.434 550.849C181.913 551.127 181.238 551.266 180.41 551.266ZM180.996 549.002C181.759 549.002 182.404 548.801 182.931 548.399C183.464 547.99 183.866 547.425 184.138 546.703C184.417 545.981 184.556 545.141 184.556 544.182C184.556 543.235 184.42 542.406 184.147 541.696C183.875 540.986 183.476 540.432 182.949 540.036C182.422 539.639 181.771 539.441 180.996 539.441C180.197 539.441 179.531 539.648 178.998 540.062C178.465 540.477 178.063 541.042 177.791 541.758C177.524 542.474 177.391 543.282 177.391 544.182C177.391 545.093 177.527 545.913 177.8 546.641C178.072 547.369 178.474 547.946 179.007 548.372C179.546 548.792 180.208 549.002 180.996 549.002ZM196.698 551.275C195.42 551.275 194.304 550.982 193.351 550.396C192.398 549.81 191.659 548.991 191.132 547.937C190.605 546.884 190.342 545.653 190.342 544.244C190.342 542.829 190.605 541.592 191.132 540.533C191.659 539.474 192.398 538.651 193.351 538.065C194.304 537.479 195.42 537.186 196.698 537.186C197.977 537.186 199.092 537.479 200.045 538.065C200.998 538.651 201.738 539.474 202.265 540.533C202.791 541.592 203.055 542.829 203.055 544.244C203.055 545.653 202.791 546.884 202.265 547.937C201.738 548.991 200.998 549.81 200.045 550.396C199.092 550.982 197.977 551.275 196.698 551.275ZM196.707 549.047C197.536 549.047 198.222 548.828 198.767 548.39C199.311 547.952 199.714 547.369 199.974 546.641C200.241 545.913 200.374 545.111 200.374 544.235C200.374 543.365 200.241 542.566 199.974 541.838C199.714 541.104 199.311 540.515 198.767 540.071C198.222 539.627 197.536 539.406 196.707 539.406C195.873 539.406 195.18 539.627 194.63 540.071C194.085 540.515 193.68 541.104 193.414 541.838C193.153 542.566 193.023 543.365 193.023 544.235C193.023 545.111 193.153 545.913 193.414 546.641C193.68 547.369 194.085 547.952 194.63 548.39C195.18 548.828 195.873 549.047 196.707 549.047ZM206.018 551V537.364H208.584V539.53H208.726C208.974 538.796 209.412 538.219 210.04 537.799C210.673 537.373 211.389 537.159 212.188 537.159C212.354 537.159 212.549 537.165 212.774 537.177C213.005 537.189 213.185 537.204 213.315 537.222V539.761C213.209 539.731 213.02 539.699 212.747 539.663C212.475 539.622 212.203 539.601 211.93 539.601C211.303 539.601 210.744 539.734 210.253 540C209.767 540.261 209.383 540.625 209.098 541.092C208.814 541.554 208.672 542.081 208.672 542.673V551H206.018Z" fill="black"/>
<rect x="72.2" y="529.2" width="25.6" height="25.6" rx="5.6" stroke="black" stroke-width="1.6"/>
<path d="M125.429 397H119.268V378.818H125.553C127.359 378.818 128.909 379.182 130.205 379.91C131.508 380.632 132.508 381.671 133.206 383.026C133.905 384.382 134.254 386.003 134.254 387.891C134.254 389.785 133.902 391.413 133.197 392.774C132.499 394.135 131.49 395.18 130.17 395.908C128.856 396.636 127.276 397 125.429 397ZM122.562 394.15H125.269C126.536 394.15 127.592 393.919 128.439 393.458C129.285 392.99 129.921 392.295 130.347 391.371C130.774 390.442 130.987 389.282 130.987 387.891C130.987 386.5 130.774 385.346 130.347 384.429C129.921 383.506 129.291 382.816 128.456 382.36C127.628 381.899 126.598 381.668 125.367 381.668H122.562V394.15ZM143.278 397.266C141.911 397.266 140.73 396.982 139.736 396.414C138.747 395.84 137.987 395.029 137.454 393.982C136.922 392.928 136.655 391.688 136.655 390.262C136.655 388.859 136.922 387.628 137.454 386.569C137.993 385.503 138.744 384.675 139.709 384.083C140.674 383.485 141.807 383.186 143.109 383.186C143.95 383.186 144.743 383.322 145.489 383.594C146.24 383.861 146.903 384.275 147.477 384.837C148.057 385.4 148.513 386.116 148.844 386.986C149.176 387.85 149.342 388.88 149.342 390.075V391.061H138.164V388.895H146.261C146.255 388.279 146.122 387.732 145.862 387.252C145.601 386.767 145.237 386.385 144.77 386.107C144.308 385.829 143.769 385.69 143.154 385.69C142.497 385.69 141.92 385.849 141.423 386.169C140.925 386.483 140.538 386.897 140.26 387.412C139.987 387.921 139.848 388.48 139.842 389.09V390.981C139.842 391.774 139.987 392.455 140.277 393.023C140.567 393.585 140.973 394.017 141.494 394.319C142.014 394.615 142.624 394.763 143.322 394.763C143.79 394.763 144.213 394.698 144.592 394.567C144.971 394.431 145.299 394.233 145.577 393.973C145.856 393.712 146.066 393.39 146.208 393.005L149.208 393.342C149.019 394.135 148.658 394.828 148.125 395.42C147.599 396.006 146.924 396.461 146.101 396.787C145.279 397.107 144.337 397.266 143.278 397.266ZM162.838 386.968L159.908 387.288C159.826 386.992 159.681 386.714 159.473 386.453C159.272 386.193 159 385.983 158.657 385.823C158.313 385.663 157.893 385.583 157.396 385.583C156.727 385.583 156.165 385.728 155.709 386.018C155.259 386.308 155.037 386.684 155.043 387.146C155.037 387.542 155.182 387.865 155.478 388.113C155.78 388.362 156.277 388.566 156.97 388.726L159.296 389.223C160.586 389.501 161.545 389.942 162.172 390.546C162.806 391.15 163.125 391.94 163.131 392.916C163.125 393.774 162.874 394.532 162.377 395.189C161.885 395.84 161.202 396.349 160.326 396.716C159.45 397.083 158.444 397.266 157.307 397.266C155.638 397.266 154.295 396.917 153.277 396.219C152.259 395.514 151.652 394.535 151.457 393.28L154.591 392.978C154.733 393.594 155.035 394.058 155.496 394.372C155.958 394.686 156.559 394.843 157.298 394.843C158.062 394.843 158.674 394.686 159.136 394.372C159.604 394.058 159.837 393.671 159.837 393.209C159.837 392.819 159.687 392.496 159.385 392.241C159.089 391.987 158.627 391.792 158 391.656L155.674 391.167C154.366 390.895 153.398 390.436 152.771 389.791C152.143 389.14 151.833 388.317 151.839 387.323C151.833 386.483 152.06 385.755 152.522 385.139C152.99 384.518 153.638 384.038 154.466 383.701C155.301 383.358 156.263 383.186 157.352 383.186C158.95 383.186 160.207 383.526 161.125 384.207C162.048 384.888 162.619 385.808 162.838 386.968ZM171.818 397.266C170.451 397.266 169.27 396.982 168.276 396.414C167.287 395.84 166.527 395.029 165.994 393.982C165.462 392.928 165.195 391.688 165.195 390.262C165.195 388.859 165.462 387.628 165.994 386.569C166.533 385.503 167.284 384.675 168.249 384.083C169.214 383.485 170.347 383.186 171.649 383.186C172.49 383.186 173.283 383.322 174.029 383.594C174.78 383.861 175.443 384.275 176.017 384.837C176.597 385.4 177.053 386.116 177.384 386.986C177.716 387.85 177.882 388.88 177.882 390.075V391.061H166.704V388.895H174.801C174.795 388.279 174.662 387.732 174.402 387.252C174.141 386.767 173.777 386.385 173.31 386.107C172.848 385.829 172.309 385.69 171.694 385.69C171.037 385.69 170.46 385.849 169.963 386.169C169.465 386.483 169.078 386.897 168.8 387.412C168.527 387.921 168.388 388.48 168.382 389.09V390.981C168.382 391.774 168.527 392.455 168.817 393.023C169.107 393.585 169.513 394.017 170.034 394.319C170.554 394.615 171.164 394.763 171.862 394.763C172.33 394.763 172.753 394.698 173.132 394.567C173.511 394.431 173.839 394.233 174.117 393.973C174.396 393.712 174.606 393.39 174.748 393.005L177.748 393.342C177.559 394.135 177.198 394.828 176.665 395.42C176.139 396.006 175.464 396.461 174.641 396.787C173.819 397.107 172.878 397.266 171.818 397.266ZM180.6 383.364H183.814V397.781C183.814 398.764 183.628 399.575 183.255 400.214C182.882 400.853 182.344 401.329 181.639 401.643C180.935 401.957 180.08 402.114 179.074 402.114C178.955 402.114 178.846 402.111 178.745 402.105C178.644 402.105 178.535 402.102 178.417 402.096V399.477C178.505 399.483 178.585 399.486 178.656 399.486C178.727 399.492 178.801 399.495 178.878 399.495C179.494 399.495 179.935 399.344 180.201 399.042C180.467 398.746 180.6 398.311 180.6 397.737V383.364ZM182.199 381.428C181.684 381.428 181.243 381.26 180.876 380.922C180.515 380.579 180.334 380.168 180.334 379.688C180.334 379.203 180.515 378.792 180.876 378.454C181.243 378.111 181.684 377.939 182.199 377.939C182.708 377.939 183.143 378.111 183.504 378.454C183.871 378.792 184.054 379.203 184.054 379.688C184.054 380.168 183.871 380.579 183.504 380.922C183.143 381.26 182.708 381.428 182.199 381.428ZM191.043 397.275C190.179 397.275 189.401 397.121 188.708 396.814C188.022 396.5 187.477 396.038 187.075 395.429C186.678 394.819 186.48 394.067 186.48 393.174C186.48 392.404 186.622 391.768 186.906 391.265C187.19 390.762 187.578 390.359 188.069 390.058C188.56 389.756 189.114 389.528 189.729 389.374C190.351 389.214 190.993 389.099 191.656 389.028C192.455 388.945 193.103 388.871 193.6 388.806C194.097 388.735 194.458 388.628 194.683 388.486C194.914 388.338 195.029 388.11 195.029 387.803V387.749C195.029 387.08 194.831 386.563 194.434 386.196C194.038 385.829 193.467 385.645 192.721 385.645C191.934 385.645 191.309 385.817 190.848 386.16C190.392 386.503 190.084 386.909 189.924 387.376L186.924 386.95C187.16 386.122 187.551 385.429 188.096 384.873C188.64 384.311 189.306 383.89 190.093 383.612C190.88 383.328 191.75 383.186 192.703 383.186C193.36 383.186 194.014 383.263 194.665 383.417C195.316 383.571 195.911 383.825 196.45 384.18C196.988 384.53 197.42 385.006 197.746 385.61C198.077 386.213 198.243 386.968 198.243 387.874V397H195.153V395.127H195.047C194.852 395.506 194.576 395.861 194.221 396.192C193.872 396.518 193.431 396.781 192.899 396.982C192.372 397.178 191.753 397.275 191.043 397.275ZM191.878 394.914C192.523 394.914 193.082 394.786 193.555 394.532C194.029 394.272 194.393 393.928 194.647 393.502C194.908 393.076 195.038 392.611 195.038 392.108V390.501C194.937 390.584 194.766 390.661 194.523 390.732C194.286 390.803 194.02 390.865 193.724 390.919C193.428 390.972 193.135 391.019 192.845 391.061C192.555 391.102 192.304 391.138 192.091 391.167C191.611 391.232 191.182 391.339 190.803 391.487C190.425 391.635 190.126 391.842 189.907 392.108C189.688 392.369 189.578 392.706 189.578 393.12C189.578 393.712 189.794 394.159 190.226 394.461C190.658 394.763 191.209 394.914 191.878 394.914ZM218.453 386.968L215.524 387.288C215.441 386.992 215.296 386.714 215.089 386.453C214.887 386.193 214.615 385.983 214.272 385.823C213.929 385.663 213.508 385.583 213.011 385.583C212.342 385.583 211.78 385.728 211.324 386.018C210.875 386.308 210.653 386.684 210.659 387.146C210.653 387.542 210.798 387.865 211.094 388.113C211.396 388.362 211.893 388.566 212.585 388.726L214.911 389.223C216.201 389.501 217.16 389.942 217.788 390.546C218.421 391.15 218.74 391.94 218.746 392.916C218.74 393.774 218.489 394.532 217.992 395.189C217.501 395.84 216.817 396.349 215.941 396.716C215.065 397.083 214.059 397.266 212.922 397.266C211.253 397.266 209.91 396.917 208.892 396.219C207.874 395.514 207.267 394.535 207.072 393.28L210.206 392.978C210.348 393.594 210.65 394.058 211.111 394.372C211.573 394.686 212.174 394.843 212.914 394.843C213.677 394.843 214.29 394.686 214.751 394.372C215.219 394.058 215.453 393.671 215.453 393.209C215.453 392.819 215.302 392.496 215 392.241C214.704 391.987 214.242 391.792 213.615 391.656L211.289 391.167C209.981 390.895 209.013 390.436 208.386 389.791C207.759 389.14 207.448 388.317 207.454 387.323C207.448 386.483 207.676 385.755 208.137 385.139C208.605 384.518 209.253 384.038 210.082 383.701C210.916 383.358 211.878 383.186 212.967 383.186C214.565 383.186 215.823 383.526 216.74 384.207C217.663 384.888 218.234 385.808 218.453 386.968ZM227.433 397.266C226.066 397.266 224.885 396.982 223.891 396.414C222.903 395.84 222.142 395.029 221.609 393.982C221.077 392.928 220.81 391.688 220.81 390.262C220.81 388.859 221.077 387.628 221.609 386.569C222.148 385.503 222.9 384.675 223.864 384.083C224.829 383.485 225.963 383.186 227.265 383.186C228.105 383.186 228.898 383.322 229.644 383.594C230.396 383.861 231.058 384.275 231.633 384.837C232.213 385.4 232.668 386.116 233 386.986C233.331 387.85 233.497 388.88 233.497 390.075V391.061H222.32V388.895H230.416C230.41 388.279 230.277 387.732 230.017 387.252C229.756 386.767 229.392 386.385 228.925 386.107C228.463 385.829 227.925 385.69 227.309 385.69C226.652 385.69 226.075 385.849 225.578 386.169C225.081 386.483 224.693 386.897 224.415 387.412C224.143 387.921 224.004 388.48 223.998 389.09V390.981C223.998 391.774 224.143 392.455 224.433 393.023C224.723 393.585 225.128 394.017 225.649 394.319C226.17 394.615 226.779 394.763 227.478 394.763C227.945 394.763 228.368 394.698 228.747 394.567C229.126 394.431 229.455 394.233 229.733 393.973C230.011 393.712 230.221 393.39 230.363 393.005L233.364 393.342C233.174 394.135 232.813 394.828 232.281 395.42C231.754 396.006 231.079 396.461 230.256 396.787C229.434 397.107 228.493 397.266 227.433 397.266ZM236.216 397V383.364H239.332V385.636H239.474C239.722 384.849 240.149 384.243 240.752 383.816C241.362 383.384 242.057 383.168 242.839 383.168C243.016 383.168 243.214 383.177 243.433 383.195C243.658 383.207 243.845 383.228 243.993 383.257V386.213C243.857 386.166 243.641 386.125 243.345 386.089C243.055 386.048 242.773 386.027 242.501 386.027C241.915 386.027 241.389 386.154 240.921 386.409C240.459 386.657 240.095 387.004 239.829 387.447C239.563 387.891 239.43 388.403 239.43 388.983V397H236.216ZM261.02 391.265V383.364H264.234V397H261.118V394.576H260.976C260.668 395.34 260.162 395.964 259.458 396.45C258.76 396.935 257.898 397.178 256.874 397.178C255.981 397.178 255.191 396.979 254.504 396.583C253.823 396.18 253.291 395.597 252.906 394.834C252.521 394.064 252.329 393.135 252.329 392.046V383.364H255.543V391.549C255.543 392.413 255.78 393.1 256.253 393.609C256.727 394.118 257.348 394.372 258.117 394.372C258.591 394.372 259.05 394.257 259.493 394.026C259.937 393.795 260.301 393.452 260.585 392.996C260.875 392.534 261.02 391.957 261.02 391.265ZM267.539 397V383.364H270.611V385.681H270.771C271.055 384.9 271.525 384.29 272.182 383.852C272.839 383.408 273.623 383.186 274.535 383.186C275.458 383.186 276.236 383.411 276.87 383.861C277.509 384.305 277.959 384.911 278.219 385.681H278.361C278.663 384.923 279.172 384.319 279.888 383.87C280.61 383.414 281.465 383.186 282.454 383.186C283.708 383.186 284.732 383.583 285.525 384.376C286.319 385.169 286.715 386.326 286.715 387.847V397H283.492V388.344C283.492 387.498 283.268 386.879 282.818 386.489C282.368 386.092 281.818 385.894 281.166 385.894C280.391 385.894 279.784 386.136 279.347 386.622C278.914 387.101 278.698 387.726 278.698 388.495V397H275.547V388.211C275.547 387.507 275.334 386.944 274.908 386.524C274.487 386.104 273.937 385.894 273.256 385.894C272.795 385.894 272.374 386.012 271.996 386.249C271.617 386.48 271.315 386.808 271.09 387.234C270.865 387.655 270.753 388.146 270.753 388.708V397H267.539ZM65.1908 408.818H69.2213L74.6191 421.993H74.8321L80.2298 408.818H84.2604V427H81.0999V414.509H80.9312L75.9063 426.947H73.5448L68.52 414.482H68.3513V427H65.1908V408.818ZM93.7419 427.266C92.3747 427.266 91.194 426.982 90.1997 426.414C89.2113 425.84 88.4507 425.029 87.9181 423.982C87.3854 422.928 87.1191 421.688 87.1191 420.262C87.1191 418.859 87.3854 417.628 87.9181 416.569C88.4566 415.503 89.2083 414.675 90.173 414.083C91.1378 413.485 92.2712 413.186 93.5732 413.186C94.4137 413.186 95.2068 413.322 95.9525 413.594C96.7042 413.861 97.367 414.275 97.9411 414.837C98.5212 415.4 98.9769 416.116 99.3083 416.986C99.6398 417.85 99.8055 418.88 99.8055 420.075V421.061H88.6283V418.895H96.7249C96.719 418.279 96.5858 417.732 96.3254 417.252C96.065 416.767 95.701 416.385 95.2334 416.107C94.7718 415.829 94.2332 415.69 93.6176 415.69C92.9607 415.69 92.3836 415.849 91.8865 416.169C91.3893 416.483 91.0016 416.897 90.7235 417.412C90.4512 417.921 90.3121 418.48 90.3062 419.09V420.981C90.3062 421.774 90.4512 422.455 90.7412 423.023C91.0312 423.585 91.4366 424.017 91.9575 424.319C92.4783 424.615 93.0879 424.763 93.7863 424.763C94.2539 424.763 94.6771 424.698 95.0558 424.567C95.4346 424.431 95.7631 424.233 96.0413 423.973C96.3195 423.712 96.5296 423.39 96.6716 423.005L99.6723 423.342C99.4829 424.135 99.1219 424.828 98.5892 425.42C98.0625 426.006 97.3878 426.461 96.5651 426.787C95.7424 427.107 94.8013 427.266 93.7419 427.266ZM113.302 416.968L110.372 417.288C110.289 416.992 110.144 416.714 109.937 416.453C109.736 416.193 109.464 415.983 109.121 415.823C108.777 415.663 108.357 415.583 107.86 415.583C107.191 415.583 106.629 415.728 106.173 416.018C105.723 416.308 105.501 416.684 105.507 417.146C105.501 417.542 105.646 417.865 105.942 418.113C106.244 418.362 106.741 418.566 107.434 418.726L109.76 419.223C111.05 419.501 112.009 419.942 112.636 420.546C113.269 421.15 113.589 421.94 113.595 422.916C113.589 423.774 113.338 424.532 112.84 425.189C112.349 425.84 111.666 426.349 110.79 426.716C109.914 427.083 108.907 427.266 107.771 427.266C106.102 427.266 104.759 426.917 103.741 426.219C102.723 425.514 102.116 424.535 101.921 423.28L105.055 422.978C105.197 423.594 105.498 424.058 105.96 424.372C106.422 424.686 107.022 424.843 107.762 424.843C108.526 424.843 109.138 424.686 109.6 424.372C110.068 424.058 110.301 423.671 110.301 423.209C110.301 422.819 110.15 422.496 109.849 422.241C109.553 421.987 109.091 421.792 108.464 421.656L106.138 421.167C104.83 420.895 103.862 420.436 103.235 419.791C102.607 419.14 102.296 418.317 102.302 417.323C102.296 416.483 102.524 415.755 102.986 415.139C103.454 414.518 104.102 414.038 104.93 413.701C105.765 413.358 106.727 413.186 107.816 413.186C109.414 413.186 110.671 413.526 111.589 414.207C112.512 414.888 113.083 415.808 113.302 416.968ZM123.054 413.364V415.849H115.215V413.364H123.054ZM117.151 410.097H120.364V422.898C120.364 423.33 120.429 423.662 120.56 423.893C120.696 424.118 120.873 424.272 121.092 424.354C121.311 424.437 121.554 424.479 121.82 424.479C122.022 424.479 122.205 424.464 122.371 424.434C122.542 424.405 122.673 424.378 122.761 424.354L123.303 426.867C123.131 426.926 122.886 426.991 122.566 427.062C122.252 427.133 121.868 427.175 121.412 427.186C120.607 427.21 119.882 427.089 119.237 426.822C118.592 426.55 118.08 426.13 117.701 425.562C117.328 424.994 117.145 424.283 117.151 423.431V410.097ZM125.742 427V413.364H128.858V415.636H129C129.249 414.849 129.675 414.243 130.279 413.816C130.888 413.384 131.584 413.168 132.365 413.168C132.543 413.168 132.741 413.177 132.96 413.195C133.185 413.207 133.371 413.228 133.519 413.257V416.213C133.383 416.166 133.167 416.125 132.871 416.089C132.581 416.048 132.3 416.027 132.028 416.027C131.442 416.027 130.915 416.154 130.447 416.409C129.986 416.657 129.622 417.004 129.355 417.447C129.089 417.891 128.956 418.403 128.956 418.983V427H125.742ZM141.13 427.266C139.762 427.266 138.582 426.982 137.587 426.414C136.599 425.84 135.838 425.029 135.306 423.982C134.773 422.928 134.507 421.688 134.507 420.262C134.507 418.859 134.773 417.628 135.306 416.569C135.844 415.503 136.596 414.675 137.561 414.083C138.525 413.485 139.659 413.186 140.961 413.186C141.801 413.186 142.594 413.322 143.34 413.594C144.092 413.861 144.755 414.275 145.329 414.837C145.909 415.4 146.365 416.116 146.696 416.986C147.027 417.85 147.193 418.88 147.193 420.075V421.061H136.016V418.895H144.113C144.107 418.279 143.973 417.732 143.713 417.252C143.453 416.767 143.089 416.385 142.621 416.107C142.159 415.829 141.621 415.69 141.005 415.69C140.348 415.69 139.771 415.849 139.274 416.169C138.777 416.483 138.389 416.897 138.111 417.412C137.839 417.921 137.7 418.48 137.694 419.09V420.981C137.694 421.774 137.839 422.455 138.129 423.023C138.419 423.585 138.824 424.017 139.345 424.319C139.866 424.615 140.476 424.763 141.174 424.763C141.642 424.763 142.065 424.698 142.444 424.567C142.822 424.431 143.151 424.233 143.429 423.973C143.707 423.712 143.917 423.39 144.059 423.005L147.06 423.342C146.871 424.135 146.51 424.828 145.977 425.42C145.45 426.006 144.775 426.461 143.953 426.787C143.13 427.107 142.189 427.266 141.13 427.266ZM162.061 427.266C160.73 427.266 159.576 426.973 158.599 426.387C157.622 425.801 156.865 424.982 156.326 423.928C155.794 422.875 155.527 421.644 155.527 420.235C155.527 418.826 155.794 417.592 156.326 416.533C156.865 415.474 157.622 414.651 158.599 414.065C159.576 413.479 160.73 413.186 162.061 413.186C163.393 413.186 164.547 413.479 165.524 414.065C166.5 414.651 167.255 415.474 167.788 416.533C168.326 417.592 168.595 418.826 168.595 420.235C168.595 421.644 168.326 422.875 167.788 423.928C167.255 424.982 166.5 425.801 165.524 426.387C164.547 426.973 163.393 427.266 162.061 427.266ZM162.079 424.692C162.801 424.692 163.405 424.493 163.89 424.097C164.376 423.694 164.737 423.156 164.973 422.481C165.216 421.806 165.337 421.055 165.337 420.226C165.337 419.392 165.216 418.637 164.973 417.962C164.737 417.282 164.376 416.74 163.89 416.338C163.405 415.935 162.801 415.734 162.079 415.734C161.339 415.734 160.724 415.935 160.233 416.338C159.747 416.74 159.383 417.282 159.141 417.962C158.904 418.637 158.785 419.392 158.785 420.226C158.785 421.055 158.904 421.806 159.141 422.481C159.383 423.156 159.747 423.694 160.233 424.097C160.724 424.493 161.339 424.692 162.079 424.692ZM180.015 421.265V413.364H183.228V427H180.112V424.576H179.97C179.662 425.34 179.156 425.964 178.452 426.45C177.754 426.935 176.893 427.178 175.869 427.178C174.975 427.178 174.185 426.979 173.498 426.583C172.818 426.18 172.285 425.597 171.9 424.834C171.516 424.064 171.323 423.135 171.323 422.046V413.364H174.537V421.549C174.537 422.413 174.774 423.1 175.247 423.609C175.721 424.118 176.342 424.372 177.112 424.372C177.585 424.372 178.044 424.257 178.488 424.026C178.931 423.795 179.295 423.452 179.58 422.996C179.87 422.534 180.015 421.957 180.015 421.265ZM201.426 421.265V413.364H204.639V427H201.523V424.576H201.381C201.074 425.34 200.568 425.964 199.863 426.45C199.165 426.935 198.304 427.178 197.28 427.178C196.386 427.178 195.596 426.979 194.909 426.583C194.229 426.18 193.696 425.597 193.311 424.834C192.927 424.064 192.734 423.135 192.734 422.046V413.364H195.948V421.549C195.948 422.413 196.185 423.1 196.658 423.609C197.132 424.118 197.753 424.372 198.523 424.372C198.996 424.372 199.455 424.257 199.899 424.026C200.343 423.795 200.707 423.452 200.991 422.996C201.281 422.534 201.426 421.957 201.426 421.265ZM207.944 427V413.364H211.016V415.681H211.176C211.46 414.9 211.93 414.29 212.587 413.852C213.244 413.408 214.029 413.186 214.94 413.186C215.863 413.186 216.642 413.411 217.275 413.861C217.914 414.305 218.364 414.911 218.624 415.681H218.766C219.068 414.923 219.577 414.319 220.293 413.87C221.015 413.414 221.871 413.186 222.859 413.186C224.114 413.186 225.138 413.583 225.931 414.376C226.724 415.169 227.12 416.326 227.12 417.847V427H223.898V418.344C223.898 417.498 223.673 416.879 223.223 416.489C222.773 416.092 222.223 415.894 221.572 415.894C220.796 415.894 220.19 416.136 219.752 416.622C219.32 417.101 219.104 417.726 219.104 418.495V427H215.952V418.211C215.952 417.507 215.739 416.944 215.313 416.524C214.893 416.104 214.342 415.894 213.662 415.894C213.2 415.894 212.78 416.012 212.401 416.249C212.022 416.48 211.72 416.808 211.495 417.234C211.27 417.655 211.158 418.146 211.158 418.708V427H207.944ZM243.897 408.818H247.164V421.602C247.158 422.774 246.91 423.783 246.419 424.63C245.927 425.47 245.241 426.118 244.359 426.574C243.483 427.024 242.462 427.249 241.296 427.249C240.231 427.249 239.272 427.059 238.42 426.68C237.573 426.296 236.902 425.728 236.404 424.976C235.907 424.224 235.659 423.289 235.659 422.17H238.935C238.94 422.662 239.047 423.085 239.254 423.44C239.467 423.795 239.76 424.067 240.133 424.257C240.506 424.446 240.935 424.541 241.42 424.541C241.947 424.541 242.394 424.431 242.761 424.212C243.128 423.987 243.406 423.656 243.595 423.218C243.791 422.78 243.891 422.241 243.897 421.602V408.818ZM256.544 427.266C255.212 427.266 254.058 426.973 253.081 426.387C252.105 425.801 251.347 424.982 250.809 423.928C250.276 422.875 250.01 421.644 250.01 420.235C250.01 418.826 250.276 417.592 250.809 416.533C251.347 415.474 252.105 414.651 253.081 414.065C254.058 413.479 255.212 413.186 256.544 413.186C257.875 413.186 259.03 413.479 260.006 414.065C260.983 414.651 261.737 415.474 262.27 416.533C262.809 417.592 263.078 418.826 263.078 420.235C263.078 421.644 262.809 422.875 262.27 423.928C261.737 424.982 260.983 425.801 260.006 426.387C259.03 426.973 257.875 427.266 256.544 427.266ZM256.562 424.692C257.284 424.692 257.887 424.493 258.373 424.097C258.858 423.694 259.219 423.156 259.456 422.481C259.698 421.806 259.82 421.055 259.82 420.226C259.82 419.392 259.698 418.637 259.456 417.962C259.219 417.282 258.858 416.74 258.373 416.338C257.887 415.935 257.284 415.734 256.562 415.734C255.822 415.734 255.206 415.935 254.715 416.338C254.23 416.74 253.866 417.282 253.623 417.962C253.386 418.637 253.268 419.392 253.268 420.226C253.268 421.055 253.386 421.806 253.623 422.481C253.866 423.156 254.23 423.694 254.715 424.097C255.206 424.493 255.822 424.692 256.562 424.692ZM271.736 432.398C270.582 432.398 269.59 432.241 268.762 431.927C267.933 431.619 267.267 431.205 266.764 430.684C266.261 430.163 265.912 429.586 265.717 428.953L268.611 428.252C268.741 428.518 268.931 428.781 269.179 429.042C269.428 429.308 269.762 429.527 270.182 429.699C270.608 429.876 271.144 429.965 271.789 429.965C272.701 429.965 273.455 429.743 274.053 429.299C274.651 428.861 274.95 428.139 274.95 427.133V424.55H274.79C274.624 424.881 274.382 425.221 274.062 425.571C273.748 425.92 273.331 426.213 272.81 426.45C272.295 426.686 271.647 426.805 270.866 426.805C269.818 426.805 268.868 426.559 268.016 426.068C267.17 425.571 266.495 424.831 265.992 423.848C265.495 422.86 265.246 421.623 265.246 420.137C265.246 418.64 265.495 417.376 265.992 416.347C266.495 415.311 267.173 414.527 268.025 413.994C268.877 413.455 269.827 413.186 270.875 413.186C271.674 413.186 272.331 413.322 272.846 413.594C273.367 413.861 273.781 414.183 274.089 414.562C274.396 414.935 274.63 415.287 274.79 415.619H274.968V413.364H278.137V427.222C278.137 428.388 277.859 429.353 277.302 430.116C276.746 430.88 275.985 431.451 275.021 431.83C274.056 432.208 272.961 432.398 271.736 432.398ZM271.763 424.283C272.443 424.283 273.023 424.118 273.503 423.786C273.982 423.455 274.346 422.978 274.595 422.357C274.843 421.735 274.968 420.99 274.968 420.12C274.968 419.261 274.843 418.51 274.595 417.865C274.352 417.22 273.991 416.719 273.512 416.364C273.038 416.003 272.455 415.823 271.763 415.823C271.046 415.823 270.449 416.009 269.969 416.382C269.49 416.755 269.129 417.267 268.886 417.918C268.644 418.563 268.522 419.297 268.522 420.12C268.522 420.954 268.644 421.685 268.886 422.312C269.135 422.934 269.499 423.419 269.978 423.768C270.463 424.112 271.058 424.283 271.763 424.283ZM285.355 427.275C284.49 427.275 283.712 427.121 283.02 426.814C282.333 426.5 281.789 426.038 281.386 425.429C280.99 424.819 280.791 424.067 280.791 423.174C280.791 422.404 280.933 421.768 281.218 421.265C281.502 420.762 281.889 420.359 282.381 420.058C282.872 419.756 283.425 419.528 284.041 419.374C284.662 419.214 285.304 419.099 285.967 419.028C286.766 418.945 287.414 418.871 287.911 418.806C288.409 418.735 288.77 418.628 288.994 418.486C289.225 418.338 289.341 418.11 289.341 417.803V417.749C289.341 417.08 289.142 416.563 288.746 416.196C288.349 415.829 287.778 415.645 287.032 415.645C286.245 415.645 285.621 415.817 285.159 416.16C284.704 416.503 284.396 416.909 284.236 417.376L281.235 416.95C281.472 416.122 281.863 415.429 282.407 414.873C282.952 414.311 283.617 413.89 284.405 413.612C285.192 413.328 286.062 413.186 287.015 413.186C287.672 413.186 288.326 413.263 288.977 413.417C289.628 413.571 290.223 413.825 290.761 414.18C291.3 414.53 291.732 415.006 292.057 415.61C292.389 416.213 292.555 416.968 292.555 417.874V427H289.465V425.127H289.358C289.163 425.506 288.888 425.861 288.533 426.192C288.184 426.518 287.743 426.781 287.21 426.982C286.683 427.178 286.065 427.275 285.355 427.275ZM286.189 424.914C286.834 424.914 287.394 424.786 287.867 424.532C288.34 424.272 288.704 423.928 288.959 423.502C289.219 423.076 289.35 422.611 289.35 422.108V420.501C289.249 420.584 289.077 420.661 288.835 420.732C288.598 420.803 288.332 420.865 288.036 420.919C287.74 420.972 287.447 421.019 287.157 421.061C286.867 421.102 286.615 421.138 286.402 421.167C285.923 421.232 285.494 421.339 285.115 421.487C284.736 421.635 284.437 421.842 284.218 422.108C283.999 422.369 283.89 422.706 283.89 423.12C283.89 423.712 284.106 424.159 284.538 424.461C284.97 424.763 285.52 424.914 286.189 424.914ZM300.846 427.24C299.775 427.24 298.816 426.964 297.97 426.414C297.124 425.864 296.455 425.065 295.964 424.017C295.472 422.969 295.227 421.697 295.227 420.2C295.227 418.684 295.475 417.406 295.972 416.364C296.476 415.317 297.153 414.527 298.006 413.994C298.858 413.455 299.808 413.186 300.855 413.186C301.654 413.186 302.311 413.322 302.826 413.594C303.341 413.861 303.749 414.183 304.051 414.562C304.353 414.935 304.587 415.287 304.753 415.619H304.886V408.818H308.108V427H304.948V424.852H304.753C304.587 425.183 304.347 425.535 304.034 425.908C303.72 426.275 303.306 426.589 302.791 426.849C302.276 427.109 301.628 427.24 300.846 427.24ZM301.743 424.603C302.424 424.603 303.004 424.42 303.483 424.053C303.963 423.68 304.327 423.162 304.575 422.499C304.824 421.836 304.948 421.064 304.948 420.182C304.948 419.3 304.824 418.533 304.575 417.882C304.332 417.231 303.971 416.725 303.492 416.364C303.019 416.003 302.436 415.823 301.743 415.823C301.027 415.823 300.429 416.009 299.95 416.382C299.47 416.755 299.109 417.27 298.867 417.927C298.624 418.584 298.503 419.335 298.503 420.182C298.503 421.034 298.624 421.795 298.867 422.463C299.115 423.126 299.479 423.65 299.959 424.035C300.444 424.414 301.039 424.603 301.743 424.603ZM317.481 427.266C316.15 427.266 314.995 426.973 314.019 426.387C313.042 425.801 312.285 424.982 311.746 423.928C311.214 422.875 310.947 421.644 310.947 420.235C310.947 418.826 311.214 417.592 311.746 416.533C312.285 415.474 313.042 414.651 314.019 414.065C314.995 413.479 316.15 413.186 317.481 413.186C318.813 413.186 319.967 413.479 320.944 414.065C321.92 414.651 322.675 415.474 323.207 416.533C323.746 417.592 324.015 418.826 324.015 420.235C324.015 421.644 323.746 422.875 323.207 423.928C322.675 424.982 321.92 425.801 320.944 426.387C319.967 426.973 318.813 427.266 317.481 427.266ZM317.499 424.692C318.221 424.692 318.825 424.493 319.31 424.097C319.795 423.694 320.156 423.156 320.393 422.481C320.636 421.806 320.757 421.055 320.757 420.226C320.757 419.392 320.636 418.637 320.393 417.962C320.156 417.282 319.795 416.74 319.31 416.338C318.825 415.935 318.221 415.734 317.499 415.734C316.759 415.734 316.144 415.935 315.652 416.338C315.167 416.74 314.803 417.282 314.56 417.962C314.324 418.637 314.205 419.392 314.205 420.226C314.205 421.055 314.324 421.806 314.56 422.481C314.803 423.156 315.167 423.694 315.652 424.097C316.144 424.493 316.759 424.692 317.499 424.692ZM326.743 427V413.364H329.859V415.636H330.001C330.25 414.849 330.676 414.243 331.28 413.816C331.889 413.384 332.585 413.168 333.366 413.168C333.544 413.168 333.742 413.177 333.961 413.195C334.186 413.207 334.372 413.228 334.52 413.257V416.213C334.384 416.166 334.168 416.125 333.872 416.089C333.582 416.048 333.301 416.027 333.029 416.027C332.443 416.027 331.916 416.154 331.448 416.409C330.987 416.657 330.623 417.004 330.356 417.447C330.09 417.891 329.957 418.403 329.957 418.983V427H326.743ZM339.727 421.656V421.425C339.733 420.353 339.833 419.501 340.029 418.868C340.23 418.235 340.514 417.726 340.881 417.341C341.248 416.95 341.695 416.592 342.222 416.267C342.583 416.042 342.905 415.796 343.189 415.53C343.479 415.258 343.707 414.956 343.873 414.624C344.039 414.287 344.121 413.911 344.121 413.497C344.121 413.029 344.012 412.624 343.793 412.281C343.574 411.937 343.278 411.671 342.905 411.482C342.538 411.292 342.127 411.197 341.671 411.197C341.251 411.197 340.851 411.289 340.473 411.473C340.1 411.65 339.789 411.922 339.54 412.289C339.298 412.65 339.162 413.109 339.132 413.665H335.972C336.001 412.541 336.273 411.6 336.788 410.842C337.309 410.085 337.996 409.517 338.848 409.138C339.706 408.759 340.653 408.57 341.689 408.57C342.819 408.57 343.814 408.768 344.672 409.164C345.536 409.561 346.208 410.126 346.687 410.86C347.172 411.588 347.415 412.452 347.415 413.452C347.415 414.127 347.306 414.731 347.087 415.263C346.874 415.796 346.569 416.27 346.172 416.684C345.776 417.098 345.305 417.468 344.761 417.794C344.281 418.09 343.888 418.397 343.58 418.717C343.278 419.037 343.053 419.412 342.905 419.844C342.763 420.271 342.689 420.797 342.683 421.425V421.656H339.727ZM341.272 427.195C340.739 427.195 340.28 427.006 339.896 426.627C339.511 426.248 339.319 425.787 339.319 425.242C339.319 424.71 339.511 424.254 339.896 423.875C340.28 423.496 340.739 423.307 341.272 423.307C341.798 423.307 342.254 423.496 342.639 423.875C343.029 424.254 343.225 424.71 343.225 425.242C343.225 425.603 343.133 425.932 342.95 426.228C342.772 426.524 342.535 426.76 342.239 426.938C341.949 427.109 341.627 427.195 341.272 427.195Z" fill="black"/>
<rect x="29" y="798" width="354" height="52" rx="15" fill="#AA1945"/>
<path d="M176.278 829.5V817.864H180.426C181.331 817.864 182.081 818.028 182.676 818.358C183.271 818.687 183.716 819.138 184.011 819.71C184.307 820.278 184.455 820.919 184.455 821.631C184.455 822.347 184.305 822.991 184.006 823.562C183.71 824.131 183.263 824.581 182.665 824.915C182.07 825.244 181.322 825.409 180.42 825.409H177.568V823.92H180.261C180.833 823.92 181.297 823.822 181.653 823.625C182.009 823.424 182.271 823.152 182.438 822.807C182.604 822.462 182.688 822.07 182.688 821.631C182.688 821.191 182.604 820.801 182.438 820.46C182.271 820.119 182.008 819.852 181.648 819.659C181.292 819.466 180.822 819.369 180.239 819.369H178.034V829.5H176.278ZM186.376 829.5V820.773H188.018V822.159H188.109C188.268 821.689 188.549 821.32 188.95 821.051C189.356 820.778 189.814 820.642 190.325 820.642C190.431 820.642 190.556 820.646 190.7 820.653C190.848 820.661 190.964 820.67 191.047 820.682V822.307C190.979 822.288 190.857 822.267 190.683 822.244C190.509 822.218 190.335 822.205 190.161 822.205C189.759 822.205 189.401 822.29 189.087 822.46C188.776 822.627 188.53 822.86 188.348 823.159C188.166 823.455 188.075 823.792 188.075 824.17V829.5H186.376ZM195.881 829.676C195.063 829.676 194.348 829.489 193.739 829.114C193.129 828.739 192.655 828.214 192.318 827.54C191.981 826.866 191.812 826.078 191.812 825.176C191.812 824.271 191.981 823.479 192.318 822.801C192.655 822.123 193.129 821.597 193.739 821.222C194.348 820.847 195.063 820.659 195.881 820.659C196.699 820.659 197.413 820.847 198.023 821.222C198.633 821.597 199.106 822.123 199.443 822.801C199.78 823.479 199.949 824.271 199.949 825.176C199.949 826.078 199.78 826.866 199.443 827.54C199.106 828.214 198.633 828.739 198.023 829.114C197.413 829.489 196.699 829.676 195.881 829.676ZM195.886 828.25C196.417 828.25 196.856 828.11 197.205 827.83C197.553 827.549 197.811 827.176 197.977 826.71C198.148 826.244 198.233 825.731 198.233 825.17C198.233 824.614 198.148 824.102 197.977 823.636C197.811 823.167 197.553 822.79 197.205 822.506C196.856 822.222 196.417 822.08 195.886 822.08C195.352 822.08 194.909 822.222 194.557 822.506C194.208 822.79 193.949 823.167 193.778 823.636C193.612 824.102 193.528 824.614 193.528 825.17C193.528 825.731 193.612 826.244 193.778 826.71C193.949 827.176 194.208 827.549 194.557 827.83C194.909 828.11 195.352 828.25 195.886 828.25ZM195.182 819.608L196.511 816.989H198.301L196.54 819.608H195.182ZM202.842 820.773L204.768 824.17L206.712 820.773H208.57L205.848 825.136L208.592 829.5H206.734L204.768 826.239L202.808 829.5H200.945L203.661 825.136L200.979 820.773H202.842ZM210.314 829.5V820.773H212.013V829.5H210.314ZM211.172 819.426C210.876 819.426 210.623 819.328 210.411 819.131C210.202 818.93 210.098 818.691 210.098 818.415C210.098 818.134 210.202 817.896 210.411 817.699C210.623 817.498 210.876 817.398 211.172 817.398C211.467 817.398 211.719 817.498 211.928 817.699C212.14 817.896 212.246 818.134 212.246 818.415C212.246 818.691 212.14 818.93 211.928 819.131C211.719 819.328 211.467 819.426 211.172 819.426ZM214.298 829.5V820.773H215.929V822.193H216.037C216.219 821.712 216.516 821.337 216.929 821.068C217.342 820.795 217.836 820.659 218.412 820.659C218.995 820.659 219.484 820.795 219.878 821.068C220.276 821.341 220.569 821.716 220.759 822.193H220.849C221.058 821.727 221.389 821.356 221.844 821.08C222.298 820.799 222.84 820.659 223.469 820.659C224.26 820.659 224.906 820.907 225.406 821.403C225.91 821.9 226.162 822.648 226.162 823.648V829.5H224.463V823.807C224.463 823.216 224.302 822.788 223.98 822.523C223.658 822.258 223.274 822.125 222.827 822.125C222.274 822.125 221.844 822.295 221.537 822.636C221.23 822.973 221.077 823.407 221.077 823.938V829.5H219.384V823.699C219.384 823.225 219.236 822.845 218.94 822.557C218.645 822.269 218.26 822.125 217.787 822.125C217.465 822.125 217.168 822.21 216.895 822.381C216.626 822.547 216.408 822.78 216.241 823.08C216.079 823.379 215.997 823.725 215.997 824.119V829.5H214.298ZM230.979 829.693C230.426 829.693 229.926 829.591 229.479 829.386C229.032 829.178 228.678 828.877 228.416 828.483C228.159 828.089 228.03 827.606 228.03 827.034C228.03 826.542 228.125 826.136 228.314 825.818C228.503 825.5 228.759 825.248 229.081 825.062C229.403 824.877 229.763 824.737 230.161 824.642C230.558 824.547 230.964 824.475 231.376 824.426C231.899 824.366 232.323 824.316 232.649 824.278C232.975 824.237 233.212 824.17 233.359 824.08C233.507 823.989 233.581 823.841 233.581 823.636V823.597C233.581 823.1 233.441 822.716 233.161 822.443C232.884 822.17 232.471 822.034 231.922 822.034C231.35 822.034 230.899 822.161 230.57 822.415C230.244 822.665 230.018 822.943 229.893 823.25L228.297 822.886C228.486 822.356 228.763 821.928 229.126 821.602C229.494 821.273 229.916 821.034 230.393 820.886C230.871 820.735 231.373 820.659 231.899 820.659C232.248 820.659 232.617 820.701 233.007 820.784C233.401 820.864 233.768 821.011 234.109 821.227C234.454 821.443 234.736 821.752 234.956 822.153C235.176 822.551 235.286 823.068 235.286 823.705V829.5H233.626V828.307H233.558C233.448 828.527 233.284 828.742 233.064 828.955C232.844 829.167 232.562 829.343 232.217 829.483C231.873 829.623 231.46 829.693 230.979 829.693ZM231.348 828.33C231.818 828.33 232.219 828.237 232.553 828.051C232.89 827.866 233.145 827.623 233.32 827.324C233.498 827.021 233.587 826.697 233.587 826.352V825.227C233.526 825.288 233.409 825.345 233.234 825.398C233.064 825.447 232.869 825.491 232.649 825.528C232.429 825.562 232.215 825.595 232.007 825.625C231.799 825.652 231.625 825.674 231.484 825.693C231.155 825.735 230.854 825.805 230.581 825.903C230.312 826.002 230.096 826.144 229.933 826.33C229.774 826.511 229.695 826.754 229.695 827.057C229.695 827.477 229.85 827.795 230.161 828.011C230.471 828.223 230.867 828.33 231.348 828.33Z" fill="white"/>
</g>
<defs>
<filter id="filter0_d_224_1679" x="34" y="331" width="346" height="330" filterUnits="userSpaceOnUse" color-interpolation-filters="sRGB">
<feFlood flood-opacity="0" result="BackgroundImageFix"/>
<feColorMatrix in="SourceAlpha" type="matrix" values="0 0 0 0 0 0 0 0 0 0 0 0 0 0 0 0 0 0 127 0" result="hardAlpha"/>
<feMorphology radius="1" operator="erode" in="SourceAlpha" result="effect1_dropShadow_224_1679"/>
<feOffset dy="4"/>
<feGaussianBlur stdDeviation="7.5"/>
<feComposite in2="hardAlpha" operator="out"/>
<feColorMatrix type="matrix" values="0 0 0 0 0 0 0 0 0 0 0 0 0 0 0 0 0 0 0.25 0"/>
<feBlend mode="normal" in2="BackgroundImageFix" result="effect1_dropShadow_224_1679"/>
<feBlend mode="normal" in="SourceGraphic" in2="effect1_dropShadow_224_1679" result="shape"/>
</filter>
<linearGradient id="paint0_linear_224_1679" x1="48.2915" y1="-379.894" x2="242.504" y2="204.689" gradientUnits="userSpaceOnUse">
<stop stop-color="#D98E04" stop-opacity="0.17"/>
<stop offset="1" stop-color="#D98E04"/>
</linearGradient>
<clipPath id="clip0_224_1679">
<rect width="414" height="896" rx="32" fill="white"/>
</clipPath>
</defs>
</svg>
