<svg width="414" height="896" viewBox="0 0 414 896" fill="none" xmlns="http://www.w3.org/2000/svg">
<rect width="414" height="896" fill="white"/>
<rect x="1" width="413" height="896" rx="10" fill="#5C0826"/>
<path fill-rule="evenodd" clip-rule="evenodd" d="M323 20H324C324.552 20 325 20.4477 325 21V27C325 27.5523 324.552 28 324 28H323C322.448 28 322 27.5523 322 27V21C322 20.4477 322.448 20 323 20Z" fill="#D1D1D6"/>
<path fill-rule="evenodd" clip-rule="evenodd" d="M318.5 22H319.5C320.052 22 320.5 22.4477 320.5 23V27C320.5 27.5523 320.052 28 319.5 28H318.5C317.948 28 317.5 27.5523 317.5 27V23C317.5 22.4477 317.948 22 318.5 22Z" fill="#D1D1D6"/>
<path fill-rule="evenodd" clip-rule="evenodd" d="M314 23.5H315C315.552 23.5 316 23.9477 316 24.5V27C316 27.5523 315.552 28 315 28H314C313.448 28 313 27.5523 313 27V24.5C313 23.9477 313.448 23.5 314 23.5Z" fill="#D1D1D6"/>
<path fill-rule="evenodd" clip-rule="evenodd" d="M327.5 18H328.5C329.052 18 329.5 18.4477 329.5 19V27C329.5 27.5523 329.052 28 328.5 28H327.5C326.948 28 326.5 27.5523 326.5 27V19C326.5 18.4477 326.948 18 327.5 18Z" fill="#3C3C43" fill-opacity="0.18"/>
<path fill-rule="evenodd" clip-rule="evenodd" d="M323 20H324C324.552 20 325 20.4477 325 21V27C325 27.5523 324.552 28 324 28H323C322.448 28 322 27.5523 322 27V21C322 20.4477 322.448 20 323 20Z" fill="black"/>
<path fill-rule="evenodd" clip-rule="evenodd" d="M318.5 22H319.5C320.052 22 320.5 22.4477 320.5 23V27C320.5 27.5523 320.052 28 319.5 28H318.5C317.948 28 317.5 27.5523 317.5 27V23C317.5 22.4477 317.948 22 318.5 22Z" fill="black"/>
<path fill-rule="evenodd" clip-rule="evenodd" d="M314 23.5H315C315.552 23.5 316 23.9477 316 24.5V27C316 27.5523 315.552 28 315 28H314C313.448 28 313 27.5523 313 27V24.5C313 23.9477 313.448 23.5 314 23.5Z" fill="black"/>
<path d="M343.133 24.9396C343.772 24.9396 344.394 25.1076 344.941 25.428L345.163 25.5579C345.331 25.6563 345.361 25.8866 345.223 26.0242L343.329 27.913C343.212 28.029 343.024 28.029 342.907 27.913L341.026 26.0363C340.888 25.8994 340.917 25.6702 341.084 25.5711L341.303 25.4406C341.855 25.1121 342.485 24.9396 343.133 24.9396Z" fill="black"/>
<path d="M343.133 21.4698C344.724 21.4698 346.251 21.9976 347.495 22.9749L347.671 23.113C347.811 23.2232 347.824 23.4306 347.697 23.5565L346.567 24.6841C346.462 24.7884 346.297 24.8004 346.178 24.7123L346.04 24.6098C345.2 23.9852 344.186 23.6502 343.133 23.6502C342.073 23.6502 341.053 23.9894 340.21 24.6211L340.072 24.7245C339.953 24.8134 339.787 24.8017 339.682 24.6971L338.552 23.5699C338.426 23.4443 338.438 23.2373 338.578 23.127L338.753 22.9888C340 22.0027 341.534 21.4698 343.133 21.4698Z" fill="black"/>
<path d="M343.133 18C345.657 18 348.072 18.8906 349.983 20.5229L350.146 20.6623C350.278 20.7749 350.285 20.9756 350.163 21.098L349.036 22.2219C348.926 22.3308 348.752 22.3385 348.634 22.2395L348.494 22.1228C346.989 20.8647 345.104 20.1804 343.133 20.1804C341.155 20.1804 339.263 20.8694 337.756 22.1354L337.617 22.2527C337.498 22.3521 337.324 22.3447 337.214 22.2356L336.087 21.1118C335.965 20.9895 335.972 20.7892 336.104 20.6765L336.266 20.5371C338.18 18.8959 340.601 18 343.133 18Z" fill="black"/>
<path d="M379 21C379.552 21 380 21.4477 380 22V24C380 24.5523 379.552 25 379 25V21Z" fill="#3C3C43" fill-opacity="0.6"/>
<path fill-rule="evenodd" clip-rule="evenodd" d="M358 17H375C376.657 17 378 18.3431 378 20V26C378 27.6569 376.657 29 375 29H358C356.343 29 355 27.6569 355 26V20C355 18.3431 356.343 17 358 17ZM358 18C356.895 18 356 18.8954 356 20V26C356 27.1046 356.895 28 358 28H375C376.105 28 377 27.1046 377 26V20C377 18.8954 376.105 18 375 18H358Z" fill="#3C3C43" fill-opacity="0.6"/>
<rect x="357" y="19" width="19" height="8" rx="1" fill="black"/>
<path d="M56.8672 28.0889C59.5552 28.0889 61.1519 25.9868 61.1519 22.4272C61.1519 21.0869 60.8955 19.959 60.4048 19.0874C59.6943 17.7324 58.4712 17 56.9258 17C54.626 17 53 18.5454 53 20.7134C53 22.7495 54.4648 24.229 56.479 24.229C57.7168 24.229 58.7202 23.6504 59.2183 22.647H59.2402C59.2402 22.647 59.2695 22.647 59.2769 22.647C59.2915 22.647 59.3428 22.647 59.3428 22.647C59.3428 25.064 58.4272 26.5068 56.8818 26.5068C55.9736 26.5068 55.2705 26.0088 55.0288 25.2104H53.1465C53.4614 26.9463 54.9336 28.0889 56.8672 28.0889ZM56.9331 22.7275C55.7173 22.7275 54.853 21.8633 54.853 20.6548C54.853 19.4756 55.7612 18.5747 56.9404 18.5747C58.1196 18.5747 59.0278 19.4902 59.0278 20.6841C59.0278 21.8633 58.1416 22.7275 56.9331 22.7275Z" fill="black"/>
<path d="M64.243 27.9863C64.9388 27.9863 65.4148 27.4883 65.4148 26.8291C65.4148 26.1626 64.9388 25.6719 64.243 25.6719C63.5545 25.6719 63.0711 26.1626 63.0711 26.8291C63.0711 27.4883 63.5545 27.9863 64.243 27.9863ZM64.243 22.4932C64.9388 22.4932 65.4148 22.0024 65.4148 21.3433C65.4148 20.6768 64.9388 20.186 64.243 20.186C63.5545 20.186 63.0711 20.6768 63.0711 21.3433C63.0711 22.0024 63.5545 22.4932 64.243 22.4932Z" fill="black"/>
<path d="M72.2706 27.8325H74.0797V25.8623H75.5079V24.2656H74.0797V17.2637H71.4137C69.546 20.0762 68.0592 22.4272 67.107 24.1777V25.8623H72.2706V27.8325ZM68.8575 24.1997C70.088 22.0317 71.1866 20.2959 72.1974 18.8018H72.2999V24.3096H68.8575V24.1997Z" fill="black"/>
<path d="M79.5365 27.8325H81.4262V17.2637H79.5438L76.7826 19.1973V21.0137L79.412 19.168H79.5365V27.8325Z" fill="black"/>
<g filter="url(#filter0_d_123_2036)">
<rect x="48" y="297" width="318" height="302" rx="30" fill="#DDABBE" fill-opacity="0.54" shape-rendering="crispEdges"/>
</g>
<g filter="url(#filter1_d_123_2036)">
<path d="M91 395C91 384.507 99.5066 376 110 376H304C314.493 376 323 384.507 323 395C323 405.493 314.493 414 304 414H110C99.5066 414 91 405.493 91 395Z" fill="#EFEFEF" fill-opacity="0.7" shape-rendering="crispEdges"/>
</g>
<g filter="url(#filter2_d_123_2036)">
<path d="M91 448C91 437.507 99.5066 429 110 429H304C314.493 429 323 437.507 323 448C323 458.493 314.493 467 304 467H110C99.5066 467 91 458.493 91 448Z" fill="#EFEFEF" fill-opacity="0.7" shape-rendering="crispEdges"/>
</g>
<path d="M107.626 443.76L106.131 445.125L105.611 444.215L107.496 443.565L105.611 442.915L106.131 442.005L107.626 443.37L107.236 441.42H108.276L107.886 443.37L109.381 442.005L109.901 442.915L108.016 443.565L109.901 444.215L109.381 445.125L107.886 443.76L108.276 445.71H107.236L107.626 443.76ZM113.136 443.76L111.641 445.125L111.121 444.215L113.006 443.565L111.121 442.915L111.641 442.005L113.136 443.37L112.746 441.42H113.786L113.396 443.37L114.891 442.005L115.411 442.915L113.526 443.565L115.411 444.215L114.891 445.125L113.396 443.76L113.786 445.71H112.746L113.136 443.76ZM118.646 443.76L117.151 445.125L116.631 444.215L118.516 443.565L116.631 442.915L117.151 442.005L118.646 443.37L118.256 441.42H119.296L118.906 443.37L120.401 442.005L120.921 442.915L119.036 443.565L120.921 444.215L120.401 445.125L118.906 443.76L119.296 445.71H118.256L118.646 443.76ZM124.155 443.76L122.66 445.125L122.14 444.215L124.025 443.565L122.14 442.915L122.66 442.005L124.155 443.37L123.765 441.42H124.805L124.415 443.37L125.91 442.005L126.43 442.915L124.545 443.565L126.43 444.215L125.91 445.125L124.415 443.76L124.805 445.71H123.765L124.155 443.76ZM129.665 443.76L128.17 445.125L127.65 444.215L129.535 443.565L127.65 442.915L128.17 442.005L129.665 443.37L129.275 441.42H130.315L129.925 443.37L131.42 442.005L131.94 442.915L130.055 443.565L131.94 444.215L131.42 445.125L129.925 443.76L130.315 445.71H129.275L129.665 443.76Z" fill="black"/>
<g filter="url(#filter3_d_123_2036)">
<path d="M91 523C91 512.507 99.5066 504 110 504H304C314.493 504 323 512.507 323 523C323 533.493 314.493 542 304 542H110C99.5066 542 91 533.493 91 523Z" fill="#AF7424"/>
</g>
<path d="M63.8438 350V316.391H82.7578V319.273H66.8672V331.766H79.7344V334.648H66.8672V347.117H82.7578V350H63.8438ZM100.734 350V332.422C100.734 331.844 100.625 331.305 100.406 330.805C100.188 330.289 99.8906 329.844 99.5156 329.469C99.1406 329.094 98.6953 328.797 98.1797 328.578C97.6797 328.359 97.1406 328.25 96.5625 328.25H94.6406C94.0625 328.25 93.5156 328.359 93 328.578C92.5 328.797 92.0625 329.094 91.6875 329.469C91.3125 329.844 91.0156 330.289 90.7969 330.805C90.5781 331.305 90.4688 331.844 90.4688 332.422V350H87.5859V326H88.5469L90.1172 328.438C90.7734 327.547 91.5938 326.844 92.5781 326.328C93.5781 325.797 94.6641 325.531 95.8359 325.531H96.5625C97.5312 325.531 98.4453 325.719 99.3047 326.094C100.164 326.453 100.914 326.953 101.555 327.594C102.195 328.234 102.695 328.984 103.055 329.844C103.43 330.703 103.617 331.617 103.617 332.586V350H100.734ZM118.125 350C117.25 350 116.422 349.836 115.641 349.508C114.875 349.18 114.203 348.727 113.625 348.148C113.062 347.57 112.609 346.898 112.266 346.133C111.938 345.367 111.773 344.547 111.773 343.672V328.742H107.461V326H111.773V320.234L114.656 319.766V326H120.75V328.742H114.656V343.812C114.656 344.297 114.742 344.75 114.914 345.172C115.102 345.578 115.352 345.938 115.664 346.25C115.977 346.562 116.344 346.812 116.766 347C117.188 347.172 117.641 347.258 118.125 347.258H120.75V350H118.125ZM133.125 328.742C132.547 328.742 132 328.852 131.484 329.07C130.984 329.289 130.547 329.586 130.172 329.961C129.797 330.336 129.5 330.781 129.281 331.297C129.062 331.797 128.953 332.336 128.953 332.914V350H126.07V326H127.031L128.602 328.438C129.258 327.547 130.078 326.844 131.062 326.328C132.062 325.797 133.148 325.531 134.32 325.531H136.008V328.742H133.125ZM154.922 350L153.328 347.609C152.672 348.469 151.852 349.164 150.867 349.695C149.883 350.211 148.805 350.469 147.633 350.469H146.906C145.938 350.469 145.023 350.289 144.164 349.93C143.305 349.555 142.555 349.047 141.914 348.406C141.273 347.766 140.766 347.016 140.391 346.156C140.031 345.297 139.852 344.383 139.852 343.414V343.18C139.852 342.211 140.031 341.297 140.391 340.438C140.766 339.578 141.273 338.828 141.914 338.188C142.555 337.547 143.305 337.047 144.164 336.688C145.023 336.312 145.938 336.125 146.906 336.125H153V332.422C153 331.844 152.891 331.305 152.672 330.805C152.453 330.289 152.156 329.844 151.781 329.469C151.406 329.094 150.961 328.797 150.445 328.578C149.945 328.359 149.406 328.25 148.828 328.25H147.141C146.562 328.25 146.016 328.359 145.5 328.578C145 328.797 144.562 329.094 144.188 329.469C143.812 329.844 143.516 330.289 143.297 330.805C143.078 331.305 142.969 331.844 142.969 332.422V333.289L140.086 332.82V332.586C140.086 331.617 140.266 330.703 140.625 329.844C141 328.984 141.508 328.234 142.148 327.594C142.789 326.953 143.539 326.453 144.398 326.094C145.258 325.719 146.172 325.531 147.141 325.531H148.828C149.797 325.531 150.711 325.719 151.57 326.094C152.43 326.453 153.18 326.953 153.82 327.594C154.461 328.234 154.961 328.984 155.32 329.844C155.695 330.703 155.883 331.617 155.883 332.586V350H154.922ZM153 338.375H146.906C146.328 338.375 145.781 338.484 145.266 338.703C144.766 338.922 144.328 339.227 143.953 339.617C143.578 339.992 143.281 340.438 143.062 340.953C142.844 341.453 142.734 341.992 142.734 342.57V343.578C142.734 344.156 142.844 344.703 143.062 345.219C143.281 345.719 143.578 346.156 143.953 346.531C144.328 346.906 144.766 347.203 145.266 347.422C145.781 347.641 146.328 347.75 146.906 347.75H148.828C149.406 347.75 149.945 347.641 150.445 347.422C150.961 347.203 151.406 346.906 151.781 346.531C152.156 346.156 152.453 345.719 152.672 345.219C152.891 344.703 153 344.156 153 343.578V338.375ZM168.703 328.742C168.125 328.742 167.578 328.852 167.062 329.07C166.562 329.289 166.125 329.586 165.75 329.961C165.375 330.336 165.078 330.781 164.859 331.297C164.641 331.797 164.531 332.336 164.531 332.914V350H161.648V326H162.609L164.18 328.438C164.836 327.547 165.656 326.844 166.641 326.328C167.641 325.797 168.727 325.531 169.898 325.531H171.586V328.742H168.703Z" fill="black"/>
<path d="M63.8438 350H62.8438V351H63.8438V350ZM63.8438 316.391V315.391H62.8438V316.391H63.8438ZM82.7578 316.391H83.7578V315.391H82.7578V316.391ZM82.7578 319.273V320.273H83.7578V319.273H82.7578ZM66.8672 319.273V318.273H65.8672V319.273H66.8672ZM66.8672 331.766H65.8672V332.766H66.8672V331.766ZM79.7344 331.766H80.7344V330.766H79.7344V331.766ZM79.7344 334.648V335.648H80.7344V334.648H79.7344ZM66.8672 334.648V333.648H65.8672V334.648H66.8672ZM66.8672 347.117H65.8672V348.117H66.8672V347.117ZM82.7578 347.117H83.7578V346.117H82.7578V347.117ZM82.7578 350V351H83.7578V350H82.7578ZM64.8438 350V316.391H62.8438V350H64.8438ZM63.8438 317.391H82.7578V315.391H63.8438V317.391ZM81.7578 316.391V319.273H83.7578V316.391H81.7578ZM82.7578 318.273H66.8672V320.273H82.7578V318.273ZM65.8672 319.273V331.766H67.8672V319.273H65.8672ZM66.8672 332.766H79.7344V330.766H66.8672V332.766ZM78.7344 331.766V334.648H80.7344V331.766H78.7344ZM79.7344 333.648H66.8672V335.648H79.7344V333.648ZM65.8672 334.648V347.117H67.8672V334.648H65.8672ZM66.8672 348.117H82.7578V346.117H66.8672V348.117ZM81.7578 347.117V350H83.7578V347.117H81.7578ZM82.7578 349H63.8438V351H82.7578V349ZM100.734 350H99.7344V351H100.734V350ZM100.406 330.805L99.4856 331.195L99.4901 331.206L100.406 330.805ZM98.1797 328.578L97.7788 329.494L97.7891 329.499L98.1797 328.578ZM93 328.578L92.6094 327.657L92.5992 327.662L93 328.578ZM90.7969 330.805L91.7131 331.206L91.7175 331.195L90.7969 330.805ZM90.4688 350V351H91.4688V350H90.4688ZM87.5859 350H86.5859V351H87.5859V350ZM87.5859 326V325H86.5859V326H87.5859ZM88.5469 326L89.3875 325.458L89.0922 325H88.5469V326ZM90.1172 328.438L89.2765 328.979L90.062 330.198L90.9222 329.031L90.1172 328.438ZM92.5781 326.328L93.0421 327.214L93.0473 327.211L92.5781 326.328ZM99.3047 326.094L98.9047 327.01L98.9118 327.013L98.9189 327.016L99.3047 326.094ZM103.055 329.844L102.132 330.23L102.135 330.237L102.138 330.244L103.055 329.844ZM103.617 350V351H104.617V350H103.617ZM101.734 350V332.422H99.7344V350H101.734ZM101.734 332.422C101.734 331.714 101.6 331.038 101.322 330.404L99.4901 331.206C99.6503 331.572 99.7344 331.973 99.7344 332.422H101.734ZM101.327 330.414C101.061 329.787 100.694 329.233 100.223 328.762L98.8085 330.176C99.0877 330.455 99.3142 330.791 99.4857 331.195L101.327 330.414ZM100.223 328.762C99.7519 328.291 99.1974 327.924 98.5702 327.658L97.7891 329.499C98.1932 329.67 98.5294 329.897 98.8085 330.176L100.223 328.762ZM98.5805 327.662C97.9467 327.385 97.2703 327.25 96.5625 327.25V329.25C97.011 329.25 97.4127 329.334 97.7789 329.494L98.5805 327.662ZM96.5625 327.25H94.6406V329.25H96.5625V327.25ZM94.6406 327.25C93.9327 327.25 93.2526 327.385 92.6095 327.658L93.3905 329.499C93.7786 329.334 94.1923 329.25 94.6406 329.25V327.25ZM92.5992 327.662C91.9883 327.929 91.4461 328.296 90.9804 328.762L92.3946 330.176C92.6789 329.892 93.0117 329.665 93.4008 329.494L92.5992 327.662ZM90.9804 328.762C90.5095 329.233 90.1424 329.787 89.8763 330.414L91.7175 331.195C91.8889 330.791 92.1155 330.455 92.3946 330.176L90.9804 328.762ZM89.8807 330.404C89.6034 331.038 89.4688 331.714 89.4688 332.422H91.4688C91.4688 331.973 91.5528 331.572 91.713 331.206L89.8807 330.404ZM89.4688 332.422V350H91.4688V332.422H89.4688ZM90.4688 349H87.5859V351H90.4688V349ZM88.5859 350V326H86.5859V350H88.5859ZM87.5859 327H88.5469V325H87.5859V327ZM87.7062 326.542L89.2765 328.979L90.9578 327.896L89.3875 325.458L87.7062 326.542ZM90.9222 329.031C91.4881 328.263 92.1915 327.66 93.0421 327.214L92.1141 325.442C90.996 326.028 90.0588 326.831 89.3121 327.844L90.9222 329.031ZM93.0473 327.211C93.8977 326.759 94.8217 326.531 95.8359 326.531V324.531C94.5064 324.531 93.2586 324.834 92.109 325.445L93.0473 327.211ZM95.8359 326.531H96.5625V324.531H95.8359V326.531ZM96.5625 326.531C97.3983 326.531 98.1757 326.692 98.9047 327.01L99.7046 325.177C98.7149 324.745 97.6642 324.531 96.5625 324.531V326.531ZM98.9189 327.016C99.6616 327.327 100.302 327.755 100.848 328.301L102.262 326.887C101.527 326.151 100.667 325.579 99.6905 325.171L98.9189 327.016ZM100.848 328.301C101.394 328.847 101.822 329.487 102.132 330.23L103.977 329.458C103.569 328.482 102.997 327.622 102.262 326.887L100.848 328.301ZM102.138 330.244C102.456 330.973 102.617 331.75 102.617 332.586H104.617C104.617 331.484 104.403 330.434 103.971 329.444L102.138 330.244ZM102.617 332.586V350H104.617V332.586H102.617ZM103.617 349H100.734V351H103.617V349ZM115.641 349.508L115.247 350.427L115.253 350.43L115.641 349.508ZM113.625 348.148L112.908 348.846L112.918 348.856L113.625 348.148ZM112.266 346.133L111.346 346.527L111.35 346.535L111.353 346.542L112.266 346.133ZM111.773 328.742H112.773V327.742H111.773V328.742ZM107.461 328.742H106.461V329.742H107.461V328.742ZM107.461 326V325H106.461V326H107.461ZM111.773 326V327H112.773V326H111.773ZM111.773 320.234L111.613 319.247L110.773 319.384V320.234H111.773ZM114.656 319.766H115.656V318.59L114.496 318.779L114.656 319.766ZM114.656 326H113.656V327H114.656V326ZM120.75 326H121.75V325H120.75V326ZM120.75 328.742V329.742H121.75V328.742H120.75ZM114.656 328.742V327.742H113.656V328.742H114.656ZM114.914 345.172L113.988 345.549L113.997 345.57L114.006 345.591L114.914 345.172ZM116.766 347L116.359 347.914L116.374 347.92L116.388 347.926L116.766 347ZM120.75 347.258H121.75V346.258H120.75V347.258ZM120.75 350V351H121.75V350H120.75ZM118.125 349C117.379 349 116.682 348.861 116.028 348.586L115.253 350.43C116.161 350.811 117.121 351 118.125 351V349ZM116.035 348.589C115.384 348.31 114.819 347.928 114.332 347.441L112.918 348.856C113.588 349.525 114.366 350.05 115.247 350.427L116.035 348.589ZM114.342 347.451C113.864 346.96 113.476 346.387 113.178 345.723L111.353 346.542C111.743 347.41 112.261 348.181 112.908 348.846L114.342 347.451ZM113.185 345.739C112.913 345.104 112.773 344.418 112.773 343.672H110.773C110.773 344.675 110.962 345.63 111.346 346.527L113.185 345.739ZM112.773 343.672V328.742H110.773V343.672H112.773ZM111.773 327.742H107.461V329.742H111.773V327.742ZM108.461 328.742V326H106.461V328.742H108.461ZM107.461 327H111.773V325H107.461V327ZM112.773 326V320.234H110.773V326H112.773ZM111.934 321.221L114.817 320.753L114.496 318.779L111.613 319.247L111.934 321.221ZM113.656 319.766V326H115.656V319.766H113.656ZM114.656 327H120.75V325H114.656V327ZM119.75 326V328.742H121.75V326H119.75ZM120.75 327.742H114.656V329.742H120.75V327.742ZM113.656 328.742V343.812H115.656V328.742H113.656ZM113.656 343.812C113.656 344.418 113.764 345 113.988 345.549L115.84 344.795C115.72 344.5 115.656 344.176 115.656 343.812H113.656ZM114.006 345.591C114.242 346.103 114.56 346.56 114.957 346.957L116.371 345.543C116.143 345.315 115.961 345.053 115.822 344.753L114.006 345.591ZM114.957 346.957C115.36 347.36 115.831 347.679 116.359 347.914L117.172 346.086C116.857 345.946 116.593 345.765 116.371 345.543L114.957 346.957ZM116.388 347.926C116.937 348.15 117.52 348.258 118.125 348.258V346.258C117.762 346.258 117.438 346.194 117.143 346.074L116.388 347.926ZM118.125 348.258H120.75V346.258H118.125V348.258ZM119.75 347.258V350H121.75V347.258H119.75ZM120.75 349H118.125V351H120.75V349ZM131.484 329.07L131.094 328.15L131.084 328.154L131.484 329.07ZM129.281 331.297L130.197 331.698L130.202 331.687L129.281 331.297ZM128.953 350V351H129.953V350H128.953ZM126.07 350H125.07V351H126.07V350ZM126.07 326V325H125.07V326H126.07ZM127.031 326L127.872 325.458L127.577 325H127.031V326ZM128.602 328.438L127.761 328.979L128.546 330.198L129.407 329.031L128.602 328.438ZM131.062 326.328L131.527 327.214L131.532 327.211L131.062 326.328ZM136.008 325.531H137.008V324.531H136.008V325.531ZM136.008 328.742V329.742H137.008V328.742H136.008ZM133.125 327.742C132.417 327.742 131.737 327.877 131.094 328.15L131.875 329.991C132.263 329.826 132.677 329.742 133.125 329.742V327.742ZM131.084 328.154C130.473 328.421 129.931 328.788 129.465 329.254L130.879 330.668C131.163 330.384 131.496 330.157 131.885 329.986L131.084 328.154ZM129.465 329.254C128.994 329.725 128.627 330.279 128.361 330.906L130.202 331.687C130.373 331.283 130.6 330.947 130.879 330.668L129.465 329.254ZM128.365 330.896C128.088 331.53 127.953 332.206 127.953 332.914H129.953C129.953 332.466 130.037 332.064 130.197 331.698L128.365 330.896ZM127.953 332.914V350H129.953V332.914H127.953ZM128.953 349H126.07V351H128.953V349ZM127.07 350V326H125.07V350H127.07ZM126.07 327H127.031V325H126.07V327ZM126.191 326.542L127.761 328.979L129.442 327.896L127.872 325.458L126.191 326.542ZM129.407 329.031C129.972 328.263 130.676 327.66 131.527 327.214L130.598 325.442C129.48 326.028 128.543 326.831 127.797 327.844L129.407 329.031ZM131.532 327.211C132.382 326.759 133.306 326.531 134.32 326.531V324.531C132.991 324.531 131.743 324.834 130.593 325.445L131.532 327.211ZM134.32 326.531H136.008V324.531H134.32V326.531ZM135.008 325.531V328.742H137.008V325.531H135.008ZM136.008 327.742H133.125V329.742H136.008V327.742ZM154.922 350L154.09 350.555L154.387 351H154.922V350ZM153.328 347.609L154.16 347.055L153.383 345.889L152.533 347.002L153.328 347.609ZM150.867 349.695L151.331 350.581L151.342 350.575L150.867 349.695ZM144.164 349.93L143.764 350.846L143.771 350.849L143.778 350.852L144.164 349.93ZM140.391 346.156L139.468 346.542L139.471 346.549L139.474 346.556L140.391 346.156ZM140.391 340.438L139.474 340.038L139.471 340.045L139.468 340.052L140.391 340.438ZM144.164 336.688L144.55 337.61L144.557 337.607L144.564 337.604L144.164 336.688ZM153 336.125V337.125H154V336.125H153ZM152.672 330.805L151.751 331.195L151.756 331.206L152.672 330.805ZM150.445 328.578L150.044 329.494L150.055 329.499L150.445 328.578ZM145.5 328.578L145.109 327.657L145.099 327.662L145.5 328.578ZM143.297 330.805L144.213 331.206L144.217 331.195L143.297 330.805ZM142.969 333.289L142.808 334.276L143.969 334.465V333.289H142.969ZM140.086 332.82H139.086V333.671L139.925 333.807L140.086 332.82ZM140.625 329.844L139.708 329.444L139.705 329.451L139.702 329.458L140.625 329.844ZM144.398 326.094L144.784 327.016L144.791 327.013L144.798 327.01L144.398 326.094ZM151.57 326.094L151.17 327.01L151.177 327.013L151.185 327.016L151.57 326.094ZM155.32 329.844L154.398 330.23L154.401 330.237L154.404 330.244L155.32 329.844ZM155.883 350V351H156.883V350H155.883ZM153 338.375H154V337.375H153V338.375ZM145.266 338.703L144.875 337.782L144.865 337.787L145.266 338.703ZM143.953 339.617L144.66 340.324L144.667 340.317L144.675 340.31L143.953 339.617ZM143.062 340.953L143.979 341.354L143.983 341.344L143.062 340.953ZM143.062 345.219L142.142 345.609L142.146 345.62L143.062 345.219ZM145.266 347.422L144.865 348.338L144.875 348.342L145.266 347.422ZM150.445 347.422L150.055 346.501L150.044 346.506L150.445 347.422ZM152.672 345.219L153.588 345.62L153.592 345.609L152.672 345.219ZM155.754 349.445L154.16 347.055L152.496 348.164L154.09 350.555L155.754 349.445ZM152.533 347.002C151.966 347.745 151.256 348.349 150.392 348.815L151.342 350.575C152.447 349.979 153.378 349.192 154.123 348.216L152.533 347.002ZM150.403 348.809C149.57 349.246 148.652 349.469 147.633 349.469V351.469C148.957 351.469 150.196 351.176 151.331 350.581L150.403 348.809ZM147.633 349.469H146.906V351.469H147.633V349.469ZM146.906 349.469C146.065 349.469 145.282 349.313 144.55 349.007L143.778 350.852C144.765 351.265 145.81 351.469 146.906 351.469V349.469ZM144.564 349.013C143.815 348.686 143.17 348.248 142.621 347.699L141.207 349.113C141.939 349.845 142.794 350.423 143.764 350.846L144.564 349.013ZM142.621 347.699C142.072 347.15 141.634 346.505 141.307 345.756L139.474 346.556C139.897 347.526 140.475 348.381 141.207 349.113L142.621 347.699ZM141.313 345.77C141.007 345.038 140.852 344.256 140.852 343.414H138.852C138.852 344.51 139.056 345.556 139.468 346.542L141.313 345.77ZM140.852 343.414V343.18H138.852V343.414H140.852ZM140.852 343.18C140.852 342.338 141.007 341.556 141.313 340.823L139.468 340.052C139.056 341.038 138.852 342.084 138.852 343.18H140.852ZM141.307 340.837C141.634 340.089 142.072 339.444 142.621 338.895L141.207 337.48C140.475 338.213 139.897 339.068 139.474 340.038L141.307 340.837ZM142.621 338.895C143.167 338.349 143.807 337.921 144.55 337.61L143.778 335.765C142.802 336.173 141.942 336.745 141.207 337.48L142.621 338.895ZM144.564 337.604C145.293 337.286 146.07 337.125 146.906 337.125V335.125C145.805 335.125 144.754 335.339 143.764 335.771L144.564 337.604ZM146.906 337.125H153V335.125H146.906V337.125ZM154 336.125V332.422H152V336.125H154ZM154 332.422C154 331.714 153.865 331.038 153.588 330.404L151.756 331.206C151.916 331.572 152 331.973 152 332.422H154ZM153.592 330.414C153.326 329.787 152.959 329.233 152.488 328.762L151.074 330.176C151.353 330.455 151.58 330.791 151.751 331.195L153.592 330.414ZM152.488 328.762C152.017 328.291 151.463 327.924 150.836 327.658L150.055 329.499C150.459 329.67 150.795 329.897 151.074 330.176L152.488 328.762ZM150.846 327.662C150.212 327.385 149.536 327.25 148.828 327.25V329.25C149.277 329.25 149.678 329.334 150.044 329.494L150.846 327.662ZM148.828 327.25H147.141V329.25H148.828V327.25ZM147.141 327.25C146.433 327.25 145.753 327.385 145.109 327.658L145.891 329.499C146.279 329.334 146.692 329.25 147.141 329.25V327.25ZM145.099 327.662C144.488 327.929 143.946 328.296 143.48 328.762L144.895 330.176C145.179 329.892 145.512 329.665 145.901 329.494L145.099 327.662ZM143.48 328.762C143.01 329.233 142.642 329.787 142.376 330.414L144.217 331.195C144.389 330.791 144.615 330.455 144.895 330.176L143.48 328.762ZM142.381 330.404C142.103 331.038 141.969 331.714 141.969 332.422H143.969C143.969 331.973 144.053 331.572 144.213 331.206L142.381 330.404ZM141.969 332.422V333.289H143.969V332.422H141.969ZM143.129 332.302L140.246 331.833L139.925 333.807L142.808 334.276L143.129 332.302ZM141.086 332.82V332.586H139.086V332.82H141.086ZM141.086 332.586C141.086 331.744 141.241 330.962 141.548 330.23L139.702 329.458C139.29 330.444 139.086 331.49 139.086 332.586H141.086ZM141.542 330.244C141.868 329.495 142.306 328.85 142.856 328.301L141.441 326.887C140.709 327.619 140.132 328.474 139.708 329.444L141.542 330.244ZM142.856 328.301C143.402 327.755 144.042 327.327 144.784 327.016L144.013 325.171C143.037 325.579 142.177 326.151 141.441 326.887L142.856 328.301ZM144.798 327.01C145.527 326.692 146.305 326.531 147.141 326.531V324.531C146.039 324.531 144.988 324.745 143.998 325.177L144.798 327.01ZM147.141 326.531H148.828V324.531H147.141V326.531ZM148.828 326.531C149.664 326.531 150.441 326.692 151.17 327.01L151.97 325.177C150.981 324.745 149.93 324.531 148.828 324.531V326.531ZM151.185 327.016C151.927 327.327 152.567 327.755 153.113 328.301L154.527 326.887C153.792 326.151 152.932 325.579 151.956 325.171L151.185 327.016ZM153.113 328.301C153.659 328.847 154.087 329.487 154.398 330.23L156.243 329.458C155.835 328.482 155.263 327.622 154.527 326.887L153.113 328.301ZM154.404 330.244C154.722 330.973 154.883 331.75 154.883 332.586H156.883C156.883 331.484 156.669 330.434 156.237 329.444L154.404 330.244ZM154.883 332.586V350H156.883V332.586H154.883ZM155.883 349H154.922V351H155.883V349ZM153 337.375H146.906V339.375H153V337.375ZM146.906 337.375C146.198 337.375 145.518 337.51 144.875 337.783L145.656 339.624C146.044 339.459 146.458 339.375 146.906 339.375V337.375ZM144.865 337.787C144.245 338.058 143.699 338.438 143.232 338.925L144.675 340.31C144.958 340.015 145.286 339.786 145.666 339.619L144.865 337.787ZM143.246 338.91C142.775 339.381 142.408 339.935 142.142 340.563L143.983 341.344C144.155 340.94 144.381 340.603 144.66 340.324L143.246 338.91ZM142.146 340.552C141.869 341.186 141.734 341.863 141.734 342.57H143.734C143.734 342.122 143.818 341.72 143.979 341.354L142.146 340.552ZM141.734 342.57V343.578H143.734V342.57H141.734ZM141.734 343.578C141.734 344.286 141.869 344.966 142.142 345.609L143.983 344.828C143.818 344.44 143.734 344.026 143.734 343.578H141.734ZM142.146 345.62C142.414 346.23 142.78 346.773 143.246 347.238L144.66 345.824C144.376 345.54 144.149 345.207 143.979 344.818L142.146 345.62ZM143.246 347.238C143.712 347.704 144.254 348.071 144.865 348.338L145.666 346.506C145.277 346.335 144.944 346.108 144.66 345.824L143.246 347.238ZM144.875 348.342C145.518 348.615 146.198 348.75 146.906 348.75V346.75C146.458 346.75 146.044 346.666 145.656 346.501L144.875 348.342ZM146.906 348.75H148.828V346.75H146.906V348.75ZM148.828 348.75C149.536 348.75 150.212 348.615 150.846 348.338L150.044 346.506C149.678 346.666 149.277 346.75 148.828 346.75V348.75ZM150.836 348.342C151.463 348.076 152.017 347.709 152.488 347.238L151.074 345.824C150.795 346.103 150.459 346.33 150.055 346.501L150.836 348.342ZM152.488 347.238C152.954 346.773 153.321 346.23 153.588 345.62L151.756 344.818C151.585 345.207 151.358 345.54 151.074 345.824L152.488 347.238ZM153.592 345.609C153.865 344.966 154 344.286 154 343.578H152C152 344.026 151.916 344.44 151.751 344.828L153.592 345.609ZM154 343.578V338.375H152V343.578H154ZM167.062 329.07L166.672 328.15L166.662 328.154L167.062 329.07ZM164.859 331.297L165.776 331.698L165.78 331.687L164.859 331.297ZM164.531 350V351H165.531V350H164.531ZM161.648 350H160.648V351H161.648V350ZM161.648 326V325H160.648V326H161.648ZM162.609 326L163.45 325.458L163.155 325H162.609V326ZM164.18 328.438L163.339 328.979L164.124 330.198L164.985 329.031L164.18 328.438ZM166.641 326.328L167.105 327.214L167.11 327.211L166.641 326.328ZM171.586 325.531H172.586V324.531H171.586V325.531ZM171.586 328.742V329.742H172.586V328.742H171.586ZM168.703 327.742C167.995 327.742 167.315 327.877 166.672 328.15L167.453 329.991C167.841 329.826 168.255 329.742 168.703 329.742V327.742ZM166.662 328.154C166.051 328.421 165.509 328.788 165.043 329.254L166.457 330.668C166.741 330.384 167.074 330.157 167.463 329.986L166.662 328.154ZM165.043 329.254C164.572 329.725 164.205 330.279 163.939 330.906L165.78 331.687C165.951 331.283 166.178 330.947 166.457 330.668L165.043 329.254ZM163.943 330.896C163.666 331.53 163.531 332.206 163.531 332.914H165.531C165.531 332.466 165.615 332.064 165.776 331.698L163.943 330.896ZM163.531 332.914V350H165.531V332.914H163.531ZM164.531 349H161.648V351H164.531V349ZM162.648 350V326H160.648V350H162.648ZM161.648 327H162.609V325H161.648V327ZM161.769 326.542L163.339 328.979L165.02 327.896L163.45 325.458L161.769 326.542ZM164.985 329.031C165.551 328.263 166.254 327.66 167.105 327.214L166.177 325.442C165.058 326.028 164.121 326.831 163.375 327.844L164.985 329.031ZM167.11 327.211C167.96 326.759 168.884 326.531 169.898 326.531V324.531C168.569 324.531 167.321 324.834 166.171 325.445L167.11 327.211ZM169.898 326.531H171.586V324.531H169.898V326.531ZM170.586 325.531V328.742H172.586V325.531H170.586ZM171.586 327.742H168.703V329.742H171.586V327.742Z" fill="black"/>
<path d="M109.342 398.156C108.293 398.156 107.47 397.844 106.872 397.22C106.274 396.596 105.975 395.703 105.975 394.542V388.9H107.21V394.347C107.21 395.214 107.388 395.885 107.743 396.362C108.098 396.839 108.631 397.077 109.342 397.077C110.079 397.077 110.629 396.847 110.993 396.388C111.357 395.92 111.539 395.24 111.539 394.347V388.9H112.735V394.49C112.735 395.253 112.592 395.911 112.306 396.466C112.029 397.012 111.634 397.432 111.123 397.727C110.62 398.013 110.027 398.156 109.342 398.156ZM116.569 398.156C116.058 398.156 115.594 398.091 115.178 397.961C114.771 397.831 114.433 397.662 114.164 397.454L114.658 396.479C114.883 396.67 115.165 396.83 115.503 396.96C115.85 397.081 116.218 397.142 116.608 397.142C117.093 397.142 117.457 397.064 117.7 396.908C117.951 396.743 118.077 396.535 118.077 396.284C118.077 396.102 118.029 395.942 117.934 395.803C117.847 395.664 117.683 395.53 117.44 395.4C117.197 395.261 116.846 395.114 116.387 394.958C115.754 394.741 115.278 394.486 114.957 394.191C114.645 393.888 114.489 393.472 114.489 392.943C114.489 392.423 114.714 391.985 115.165 391.63C115.624 391.266 116.257 391.084 117.063 391.084C117.496 391.084 117.882 391.132 118.22 391.227C118.558 391.314 118.861 391.426 119.13 391.565L118.805 392.527C118.571 392.388 118.302 392.276 117.999 392.189C117.704 392.102 117.375 392.059 117.011 392.059C116.56 392.059 116.218 392.15 115.984 392.332C115.75 392.514 115.633 392.713 115.633 392.93C115.633 393.138 115.724 393.316 115.906 393.463C116.088 393.61 116.443 393.771 116.972 393.944C117.83 394.23 118.428 394.546 118.766 394.893C119.104 395.24 119.273 395.673 119.273 396.193C119.273 396.8 119.026 397.281 118.532 397.636C118.047 397.983 117.392 398.156 116.569 398.156ZM123.04 398.156C122.65 398.156 122.282 398.074 121.935 397.909C121.588 397.744 121.307 397.48 121.09 397.116C120.873 396.743 120.765 396.249 120.765 395.634V391.24H121.935V395.478C121.935 396.007 122.048 396.414 122.273 396.7C122.498 396.977 122.828 397.116 123.261 397.116C123.616 397.116 123.959 397.047 124.288 396.908C124.626 396.761 124.925 396.566 125.185 396.323V391.24H126.355V396.245C126.355 396.618 126.433 396.865 126.589 396.986C126.754 397.099 126.931 397.155 127.122 397.155L126.875 398.065C126.069 398.065 125.571 397.744 125.38 397.103C125.077 397.415 124.726 397.671 124.327 397.87C123.928 398.061 123.499 398.156 123.04 398.156ZM131.136 398.156C130.572 398.156 130.061 398.013 129.602 397.727C129.142 397.441 128.774 397.038 128.497 396.518C128.228 395.989 128.094 395.37 128.094 394.659C128.094 393.983 128.228 393.376 128.497 392.839C128.774 392.302 129.151 391.877 129.628 391.565C130.113 391.244 130.668 391.084 131.292 391.084C131.682 391.084 132.033 391.153 132.345 391.292C132.665 391.422 132.943 391.587 133.177 391.786V391.24H134.243V396.362C134.243 396.691 134.321 396.908 134.477 397.012C134.641 397.107 134.819 397.155 135.01 397.155L134.763 398.065C133.931 398.065 133.428 397.727 133.255 397.051C133.055 397.328 132.782 397.584 132.436 397.818C132.098 398.043 131.664 398.156 131.136 398.156ZM131.396 397.116C131.725 397.116 132.037 397.038 132.332 396.882C132.626 396.717 132.873 396.514 133.073 396.271V392.644C132.839 392.479 132.579 392.349 132.293 392.254C132.015 392.15 131.721 392.098 131.409 392.098C130.993 392.098 130.624 392.206 130.304 392.423C129.992 392.631 129.745 392.926 129.563 393.307C129.381 393.68 129.29 394.117 129.29 394.62C129.29 395.105 129.381 395.539 129.563 395.92C129.745 396.293 129.996 396.587 130.317 396.804C130.637 397.012 130.997 397.116 131.396 397.116ZM130.421 390.525L130.018 389.732L132.475 388.107L133.021 389.199L130.421 390.525ZM136.572 398V391.24H137.703V392.709C137.816 392.423 137.968 392.159 138.158 391.916C138.349 391.665 138.587 391.465 138.873 391.318C139.159 391.162 139.493 391.084 139.874 391.084C140.004 391.084 140.134 391.093 140.264 391.11C140.394 391.119 140.503 391.136 140.589 391.162L140.238 392.371C140.074 392.302 139.879 392.267 139.653 392.267C139.333 392.267 139.025 392.358 138.73 392.54C138.444 392.722 138.206 393.004 138.015 393.385C137.833 393.766 137.742 394.252 137.742 394.841V398H136.572ZM141.765 398V391.24H142.935V398H141.765ZM142.35 390.083C142.124 390.083 141.929 390.001 141.765 389.836C141.609 389.671 141.531 389.481 141.531 389.264C141.531 389.013 141.604 388.813 141.752 388.666C141.899 388.519 142.098 388.445 142.35 388.445C142.575 388.445 142.766 388.527 142.922 388.692C143.086 388.848 143.169 389.039 143.169 389.264C143.169 389.507 143.095 389.706 142.948 389.862C142.8 390.009 142.601 390.083 142.35 390.083ZM147.862 398.156C147.22 398.156 146.644 398.009 146.133 397.714C145.621 397.411 145.218 396.995 144.924 396.466C144.638 395.929 144.495 395.313 144.495 394.62C144.495 393.892 144.642 393.264 144.937 392.735C145.231 392.206 145.634 391.799 146.146 391.513C146.657 391.227 147.229 391.084 147.862 391.084C148.494 391.084 149.062 391.227 149.565 391.513C150.076 391.799 150.479 392.206 150.774 392.735C151.077 393.255 151.229 393.875 151.229 394.594C151.229 395.313 151.081 395.942 150.787 396.479C150.492 397.008 150.089 397.419 149.578 397.714C149.075 398.009 148.503 398.156 147.862 398.156ZM147.862 397.116C148.546 397.116 149.079 396.886 149.461 396.427C149.842 395.959 150.033 395.357 150.033 394.62C150.033 394.169 149.937 393.758 149.747 393.385C149.556 393.004 149.296 392.7 148.967 392.475C148.646 392.241 148.278 392.124 147.862 392.124C147.177 392.124 146.644 392.349 146.263 392.8C145.881 393.251 145.691 393.849 145.691 394.594C145.691 395.045 145.786 395.465 145.977 395.855C146.167 396.236 146.423 396.544 146.744 396.778C147.073 397.003 147.446 397.116 147.862 397.116Z" fill="black"/>
<path d="M189.17 527V517.9H194.63V518.966H190.405V521.735H194.045V522.775H190.405V525.934H194.63V527H189.17ZM196.124 527V520.24H197.255V521.371C197.498 521.007 197.805 520.704 198.178 520.461C198.559 520.21 199.01 520.084 199.53 520.084C200.293 520.084 200.86 520.314 201.233 520.773C201.614 521.232 201.805 521.839 201.805 522.593V527H200.635V522.723C200.635 522.238 200.518 521.848 200.284 521.553C200.059 521.258 199.742 521.111 199.335 521.111C198.936 521.111 198.559 521.254 198.204 521.54C197.849 521.817 197.545 522.147 197.294 522.528V527H196.124ZM206.183 527.156C205.533 527.156 205.018 526.944 204.636 526.519C204.264 526.086 204.077 525.47 204.077 524.673V521.501H202.907V520.487H204.103L204.35 518.355H205.247V520.487H207.119V521.501H205.247V524.764C205.247 525.267 205.351 525.618 205.559 525.817C205.776 526.016 206.032 526.116 206.326 526.116C206.543 526.116 206.747 526.081 206.937 526.012C207.137 525.943 207.319 525.86 207.483 525.765L207.808 526.701C207.635 526.805 207.401 526.905 207.106 527C206.812 527.104 206.504 527.156 206.183 527.156ZM208.984 527V520.24H210.115V521.709C210.228 521.423 210.38 521.159 210.57 520.916C210.761 520.665 210.999 520.465 211.285 520.318C211.571 520.162 211.905 520.084 212.286 520.084C212.416 520.084 212.546 520.093 212.676 520.11C212.806 520.119 212.915 520.136 213.001 520.162L212.65 521.371C212.486 521.302 212.291 521.267 212.065 521.267C211.745 521.267 211.437 521.358 211.142 521.54C210.856 521.722 210.618 522.004 210.427 522.385C210.245 522.766 210.154 523.252 210.154 523.841V527H208.984ZM216.37 527.156C215.807 527.156 215.295 527.013 214.836 526.727C214.377 526.441 214.008 526.038 213.731 525.518C213.462 524.989 213.328 524.37 213.328 523.659C213.328 522.983 213.462 522.376 213.731 521.839C214.008 521.302 214.385 520.877 214.862 520.565C215.347 520.244 215.902 520.084 216.526 520.084C216.916 520.084 217.267 520.153 217.579 520.292C217.9 520.422 218.177 520.587 218.411 520.786V520.24H219.477V525.362C219.477 525.691 219.555 525.908 219.711 526.012C219.876 526.107 220.053 526.155 220.244 526.155L219.997 527.065C219.165 527.065 218.662 526.727 218.489 526.051C218.29 526.328 218.017 526.584 217.67 526.818C217.332 527.043 216.899 527.156 216.37 527.156ZM216.63 526.116C216.959 526.116 217.271 526.038 217.566 525.882C217.861 525.717 218.108 525.514 218.307 525.271V521.644C218.073 521.479 217.813 521.349 217.527 521.254C217.25 521.15 216.955 521.098 216.643 521.098C216.227 521.098 215.859 521.206 215.538 521.423C215.226 521.631 214.979 521.926 214.797 522.307C214.615 522.68 214.524 523.117 214.524 523.62C214.524 524.105 214.615 524.539 214.797 524.92C214.979 525.293 215.23 525.587 215.551 525.804C215.872 526.012 216.231 526.116 216.63 526.116ZM221.807 527V520.24H222.938V521.709C223.05 521.423 223.202 521.159 223.393 520.916C223.583 520.665 223.822 520.465 224.108 520.318C224.394 520.162 224.727 520.084 225.109 520.084C225.239 520.084 225.369 520.093 225.499 520.11C225.629 520.119 225.737 520.136 225.824 520.162L225.473 521.371C225.308 521.302 225.113 521.267 224.888 521.267C224.567 521.267 224.259 521.358 223.965 521.54C223.679 521.722 223.44 522.004 223.25 522.385C223.068 522.766 222.977 523.252 222.977 523.841V527H221.807Z" fill="white"/>
<line x1="91" y1="553.5" x2="324" y2="553.5" stroke="black" stroke-opacity="0.3"/>
<path d="M110.17 575V565.9H111.808L115.825 573.466V565.9H116.995V575H115.383L111.34 567.486V575H110.17ZM121.793 575.156C121.23 575.156 120.718 575.013 120.259 574.727C119.8 574.441 119.431 574.038 119.154 573.518C118.885 572.989 118.751 572.37 118.751 571.659C118.751 570.983 118.885 570.376 119.154 569.839C119.431 569.302 119.808 568.877 120.285 568.565C120.77 568.244 121.325 568.084 121.949 568.084C122.339 568.084 122.69 568.153 123.002 568.292C123.323 568.422 123.6 568.587 123.834 568.786V568.24H124.9V573.362C124.9 573.691 124.978 573.908 125.134 574.012C125.299 574.107 125.476 574.155 125.667 574.155L125.42 575.065C124.588 575.065 124.085 574.727 123.912 574.051C123.713 574.328 123.44 574.584 123.093 574.818C122.755 575.043 122.322 575.156 121.793 575.156ZM122.053 574.116C122.382 574.116 122.694 574.038 122.989 573.882C123.284 573.717 123.531 573.514 123.73 573.271V569.644C123.496 569.479 123.236 569.349 122.95 569.254C122.673 569.15 122.378 569.098 122.066 569.098C121.65 569.098 121.282 569.206 120.961 569.423C120.649 569.631 120.402 569.926 120.22 570.307C120.038 570.68 119.947 571.117 119.947 571.62C119.947 572.105 120.038 572.539 120.22 572.92C120.402 573.293 120.653 573.587 120.974 573.804C121.295 574.012 121.654 574.116 122.053 574.116ZM120.532 567.096L120.077 566.29C120.233 566.117 120.432 565.961 120.675 565.822C120.918 565.683 121.169 565.614 121.429 565.614C121.646 565.614 121.832 565.653 121.988 565.731C122.144 565.8 122.291 565.874 122.43 565.952C122.577 566.021 122.742 566.056 122.924 566.056C123.115 566.056 123.284 566.017 123.431 565.939C123.578 565.852 123.708 565.757 123.821 565.653L124.276 566.472C124.12 566.619 123.938 566.758 123.73 566.888C123.531 567.009 123.297 567.07 123.028 567.07C122.803 567.07 122.612 567.035 122.456 566.966C122.3 566.888 122.148 566.814 122.001 566.745C121.854 566.667 121.68 566.628 121.481 566.628C121.29 566.628 121.117 566.676 120.961 566.771C120.805 566.866 120.662 566.975 120.532 567.096ZM129.95 575.156C129.308 575.156 128.732 575.009 128.221 574.714C127.709 574.411 127.306 573.995 127.012 573.466C126.726 572.929 126.583 572.313 126.583 571.62C126.583 570.892 126.73 570.264 127.025 569.735C127.319 569.206 127.722 568.799 128.234 568.513C128.745 568.227 129.317 568.084 129.95 568.084C130.582 568.084 131.15 568.227 131.653 568.513C132.164 568.799 132.567 569.206 132.862 569.735C133.165 570.255 133.317 570.875 133.317 571.594C133.317 572.313 133.169 572.942 132.875 573.479C132.58 574.008 132.177 574.419 131.666 574.714C131.163 575.009 130.591 575.156 129.95 575.156ZM129.95 574.116C130.634 574.116 131.167 573.886 131.549 573.427C131.93 572.959 132.121 572.357 132.121 571.62C132.121 571.169 132.025 570.758 131.835 570.385C131.644 570.004 131.384 569.7 131.055 569.475C130.734 569.241 130.366 569.124 129.95 569.124C129.265 569.124 128.732 569.349 128.351 569.8C127.969 570.251 127.778 570.849 127.778 571.594C127.778 572.045 127.874 572.465 128.065 572.855C128.255 573.236 128.511 573.544 128.832 573.778C129.161 574.003 129.534 574.116 129.95 574.116ZM141.135 575.156C140.485 575.156 139.97 574.944 139.588 574.519C139.216 574.086 139.029 573.47 139.029 572.673V569.501H137.859V568.487H139.055L139.302 566.355H140.199V568.487H142.071V569.501H140.199V572.764C140.199 573.267 140.303 573.618 140.511 573.817C140.728 574.016 140.984 574.116 141.278 574.116C141.495 574.116 141.699 574.081 141.889 574.012C142.089 573.943 142.271 573.86 142.435 573.765L142.76 574.701C142.587 574.805 142.353 574.905 142.058 575C141.764 575.104 141.456 575.156 141.135 575.156ZM146.387 575.156C145.416 575.156 144.645 574.848 144.073 574.233C143.509 573.609 143.228 572.738 143.228 571.62C143.228 570.944 143.353 570.342 143.605 569.813C143.865 569.276 144.224 568.855 144.684 568.552C145.143 568.24 145.676 568.084 146.283 568.084C146.933 568.084 147.47 568.227 147.895 568.513C148.328 568.79 148.653 569.167 148.87 569.644C149.086 570.121 149.195 570.645 149.195 571.217C149.195 571.52 149.182 571.815 149.156 572.101H144.424C144.502 572.734 144.723 573.228 145.087 573.583C145.451 573.938 145.932 574.116 146.53 574.116C146.92 574.116 147.271 574.077 147.583 573.999C147.895 573.912 148.194 573.804 148.48 573.674L148.753 574.675C148.441 574.814 148.09 574.926 147.7 575.013C147.31 575.108 146.872 575.156 146.387 575.156ZM144.411 571.152H148.116C148.116 570.493 147.951 569.986 147.622 569.631C147.292 569.276 146.837 569.098 146.257 569.098C145.754 569.098 145.338 569.276 145.009 569.631C144.679 569.978 144.48 570.485 144.411 571.152ZM150.754 575V568.24H151.885V569.371C152.128 569.007 152.435 568.704 152.808 568.461C153.181 568.21 153.605 568.084 154.082 568.084C154.619 568.084 155.057 568.214 155.395 568.474C155.742 568.734 155.984 569.081 156.123 569.514C156.392 569.115 156.708 568.777 157.072 568.5C157.445 568.223 157.904 568.084 158.45 568.084C159.187 568.084 159.733 568.318 160.088 568.786C160.452 569.245 160.634 569.848 160.634 570.593V575H159.464V570.684C159.464 570.216 159.356 569.839 159.139 569.553C158.922 569.258 158.623 569.111 158.242 569.111C157.852 569.111 157.488 569.258 157.15 569.553C156.821 569.839 156.53 570.177 156.279 570.567V575H155.109V570.684C155.109 570.216 155.001 569.839 154.784 569.553C154.567 569.258 154.268 569.111 153.887 569.111C153.506 569.111 153.146 569.254 152.808 569.54C152.47 569.817 152.175 570.147 151.924 570.528V575H150.754ZM168.757 575.156C168.367 575.156 167.999 575.074 167.652 574.909C167.305 574.744 167.024 574.48 166.807 574.116C166.59 573.743 166.482 573.249 166.482 572.634V568.24H167.652V572.478C167.652 573.007 167.765 573.414 167.99 573.7C168.215 573.977 168.545 574.116 168.978 574.116C169.333 574.116 169.676 574.047 170.005 573.908C170.343 573.761 170.642 573.566 170.902 573.323V568.24H172.072V573.245C172.072 573.618 172.15 573.865 172.306 573.986C172.471 574.099 172.648 574.155 172.839 574.155L172.592 575.065C171.786 575.065 171.288 574.744 171.097 574.103C170.794 574.415 170.443 574.671 170.044 574.87C169.645 575.061 169.216 575.156 168.757 575.156ZM174.393 575V568.24H175.524V569.371C175.766 569.007 176.074 568.704 176.447 568.461C176.819 568.21 177.244 568.084 177.721 568.084C178.258 568.084 178.696 568.214 179.034 568.474C179.38 568.734 179.623 569.081 179.762 569.514C180.03 569.115 180.347 568.777 180.711 568.5C181.083 568.223 181.543 568.084 182.089 568.084C182.825 568.084 183.371 568.318 183.727 568.786C184.091 569.245 184.273 569.848 184.273 570.593V575H183.103V570.684C183.103 570.216 182.994 569.839 182.778 569.553C182.561 569.258 182.262 569.111 181.881 569.111C181.491 569.111 181.127 569.258 180.789 569.553C180.459 569.839 180.169 570.177 179.918 570.567V575H178.748V570.684C178.748 570.216 178.639 569.839 178.423 569.553C178.206 569.258 177.907 569.111 177.526 569.111C177.144 569.111 176.785 569.254 176.447 569.54C176.109 569.817 175.814 570.147 175.563 570.528V575H174.393ZM188.875 575.156C188.312 575.156 187.8 575.013 187.341 574.727C186.882 574.441 186.513 574.038 186.236 573.518C185.967 572.989 185.833 572.37 185.833 571.659C185.833 570.983 185.967 570.376 186.236 569.839C186.513 569.302 186.89 568.877 187.367 568.565C187.852 568.244 188.407 568.084 189.031 568.084C189.421 568.084 189.772 568.153 190.084 568.292C190.405 568.422 190.682 568.587 190.916 568.786V568.24H191.982V573.362C191.982 573.691 192.06 573.908 192.216 574.012C192.381 574.107 192.558 574.155 192.749 574.155L192.502 575.065C191.67 575.065 191.167 574.727 190.994 574.051C190.795 574.328 190.522 574.584 190.175 574.818C189.837 575.043 189.404 575.156 188.875 575.156ZM189.135 574.116C189.464 574.116 189.776 574.038 190.071 573.882C190.366 573.717 190.613 573.514 190.812 573.271V569.644C190.578 569.479 190.318 569.349 190.032 569.254C189.755 569.15 189.46 569.098 189.148 569.098C188.732 569.098 188.364 569.206 188.043 569.423C187.731 569.631 187.484 569.926 187.302 570.307C187.12 570.68 187.029 571.117 187.029 571.62C187.029 572.105 187.12 572.539 187.302 572.92C187.484 573.293 187.735 573.587 188.056 573.804C188.377 574.012 188.736 574.116 189.135 574.116ZM200.939 575.156C200.298 575.156 199.734 575.009 199.249 574.714C198.772 574.411 198.404 573.995 198.144 573.466C197.884 572.929 197.754 572.313 197.754 571.62C197.754 570.97 197.884 570.376 198.144 569.839C198.413 569.302 198.794 568.877 199.288 568.565C199.782 568.244 200.363 568.084 201.03 568.084C201.411 568.084 201.745 568.119 202.031 568.188C202.326 568.257 202.607 568.357 202.876 568.487L202.525 569.475C202.282 569.354 202.048 569.267 201.823 569.215C201.606 569.154 201.364 569.124 201.095 569.124C200.488 569.124 199.977 569.345 199.561 569.787C199.154 570.22 198.95 570.823 198.95 571.594C198.95 572.062 199.037 572.487 199.21 572.868C199.383 573.249 199.622 573.553 199.925 573.778C200.237 574.003 200.601 574.116 201.017 574.116C201.346 574.116 201.628 574.081 201.862 574.012C202.096 573.934 202.347 573.826 202.616 573.687L202.98 574.675C202.711 574.822 202.408 574.939 202.07 575.026C201.741 575.113 201.364 575.156 200.939 575.156ZM207.061 575.156C206.419 575.156 205.843 575.009 205.332 574.714C204.82 574.411 204.417 573.995 204.123 573.466C203.837 572.929 203.694 572.313 203.694 571.62C203.694 570.892 203.841 570.264 204.136 569.735C204.43 569.206 204.833 568.799 205.345 568.513C205.856 568.227 206.428 568.084 207.061 568.084C207.693 568.084 208.261 568.227 208.764 568.513C209.275 568.799 209.678 569.206 209.973 569.735C210.276 570.255 210.428 570.875 210.428 571.594C210.428 572.313 210.28 572.942 209.986 573.479C209.691 574.008 209.288 574.419 208.777 574.714C208.274 575.009 207.702 575.156 207.061 575.156ZM207.061 574.116C207.745 574.116 208.278 573.886 208.66 573.427C209.041 572.959 209.232 572.357 209.232 571.62C209.232 571.169 209.136 570.758 208.946 570.385C208.755 570.004 208.495 569.7 208.166 569.475C207.845 569.241 207.477 569.124 207.061 569.124C206.376 569.124 205.843 569.349 205.462 569.8C205.08 570.251 204.89 570.849 204.89 571.594C204.89 572.045 204.985 572.465 205.176 572.855C205.366 573.236 205.622 573.544 205.943 573.778C206.272 574.003 206.645 574.116 207.061 574.116ZM211.983 575V568.24H213.114V569.371C213.357 569.007 213.665 568.704 214.037 568.461C214.419 568.21 214.869 568.084 215.389 568.084C216.152 568.084 216.72 568.314 217.092 568.773C217.474 569.232 217.664 569.839 217.664 570.593V575H216.494V570.723C216.494 570.238 216.377 569.848 216.143 569.553C215.918 569.258 215.602 569.111 215.194 569.111C214.796 569.111 214.419 569.254 214.063 569.54C213.708 569.817 213.405 570.147 213.153 570.528V575H211.983ZM222.043 575.156C221.393 575.156 220.877 574.944 220.496 574.519C220.123 574.086 219.937 573.47 219.937 572.673V569.501H218.767V568.487H219.963L220.21 566.355H221.107V568.487H222.979V569.501H221.107V572.764C221.107 573.267 221.211 573.618 221.419 573.817C221.635 574.016 221.891 574.116 222.186 574.116C222.402 574.116 222.606 574.081 222.797 574.012C222.996 573.943 223.178 573.86 223.343 573.765L223.668 574.701C223.494 574.805 223.26 574.905 222.966 575C222.671 575.104 222.363 575.156 222.043 575.156ZM227.177 575.156C226.613 575.156 226.102 575.013 225.643 574.727C225.183 574.441 224.815 574.038 224.538 573.518C224.269 572.989 224.135 572.37 224.135 571.659C224.135 570.983 224.269 570.376 224.538 569.839C224.815 569.302 225.192 568.877 225.669 568.565C226.154 568.244 226.709 568.084 227.333 568.084C227.723 568.084 228.074 568.153 228.386 568.292C228.706 568.422 228.984 568.587 229.218 568.786V568.24H230.284V573.362C230.284 573.691 230.362 573.908 230.518 574.012C230.682 574.107 230.86 574.155 231.051 574.155L230.804 575.065C229.972 575.065 229.469 574.727 229.296 574.051C229.096 574.328 228.823 574.584 228.477 574.818C228.139 575.043 227.705 575.156 227.177 575.156ZM227.437 574.116C227.766 574.116 228.078 574.038 228.373 573.882C228.667 573.717 228.914 573.514 229.114 573.271V569.644C228.88 569.479 228.62 569.349 228.334 569.254C228.056 569.15 227.762 569.098 227.45 569.098C227.034 569.098 226.665 569.206 226.345 569.423C226.033 569.631 225.786 569.926 225.604 570.307C225.422 570.68 225.331 571.117 225.331 571.62C225.331 572.105 225.422 572.539 225.604 572.92C225.786 573.293 226.037 573.587 226.358 573.804C226.678 574.012 227.038 574.116 227.437 574.116ZM233.731 572.309C233.688 572.162 233.653 572.001 233.627 571.828C233.61 571.655 233.601 571.494 233.601 571.347C233.601 570.905 233.684 570.537 233.848 570.242C234.013 569.939 234.217 569.679 234.459 569.462C234.702 569.237 234.945 569.029 235.187 568.838C235.43 568.647 235.634 568.444 235.798 568.227C235.963 568.002 236.045 567.737 236.045 567.434C236.045 567.131 235.928 566.866 235.694 566.641C235.46 566.407 235.144 566.29 234.745 566.29C234.39 566.29 234.069 566.377 233.783 566.55C233.497 566.723 233.237 566.962 233.003 567.265L232.158 566.589C232.505 566.164 232.891 565.831 233.315 565.588C233.74 565.345 234.251 565.224 234.849 565.224C235.335 565.224 235.759 565.319 236.123 565.51C236.496 565.701 236.786 565.956 236.994 566.277C237.202 566.598 237.306 566.953 237.306 567.343C237.306 567.785 237.22 568.153 237.046 568.448C236.873 568.743 236.661 569.003 236.409 569.228C236.158 569.445 235.902 569.661 235.642 569.878C235.391 570.086 235.179 570.324 235.005 570.593C234.832 570.853 234.745 571.182 234.745 571.581V572.309H233.731ZM234.303 575.156C234.069 575.156 233.866 575.069 233.692 574.896C233.519 574.723 233.432 574.519 233.432 574.285C233.432 574.016 233.51 573.804 233.666 573.648C233.822 573.492 234.035 573.414 234.303 573.414C234.529 573.414 234.728 573.501 234.901 573.674C235.083 573.847 235.174 574.051 235.174 574.285C235.174 574.545 235.092 574.757 234.927 574.922C234.763 575.078 234.555 575.156 234.303 575.156ZM250.421 575.156C249.632 575.156 248.935 574.97 248.328 574.597C247.721 574.216 247.249 573.678 246.911 572.985C246.573 572.283 246.404 571.451 246.404 570.489C246.404 569.562 246.573 568.743 246.911 568.032C247.258 567.313 247.743 566.754 248.367 566.355C249 565.948 249.736 565.744 250.577 565.744C251.01 565.744 251.405 565.787 251.76 565.874C252.115 565.952 252.449 566.065 252.761 566.212L252.384 567.252C252.115 567.122 251.838 567.018 251.552 566.94C251.275 566.862 250.945 566.823 250.564 566.823C250.009 566.823 249.511 566.966 249.069 567.252C248.636 567.538 248.293 567.95 248.042 568.487C247.791 569.024 247.665 569.674 247.665 570.437C247.665 571.165 247.786 571.802 248.029 572.348C248.28 572.894 248.623 573.319 249.056 573.622C249.498 573.925 250.001 574.077 250.564 574.077C250.989 574.077 251.357 574.025 251.669 573.921C251.981 573.817 252.284 573.683 252.579 573.518L252.956 574.545C252.635 574.718 252.267 574.866 251.851 574.987C251.444 575.1 250.967 575.156 250.421 575.156ZM256.706 575.156C256.143 575.156 255.631 575.013 255.172 574.727C254.713 574.441 254.344 574.038 254.067 573.518C253.798 572.989 253.664 572.37 253.664 571.659C253.664 570.983 253.798 570.376 254.067 569.839C254.344 569.302 254.721 568.877 255.198 568.565C255.683 568.244 256.238 568.084 256.862 568.084C257.252 568.084 257.603 568.153 257.915 568.292C258.236 568.422 258.513 568.587 258.747 568.786V568.24H259.813V573.362C259.813 573.691 259.891 573.908 260.047 574.012C260.212 574.107 260.389 574.155 260.58 574.155L260.333 575.065C259.501 575.065 258.998 574.727 258.825 574.051C258.626 574.328 258.353 574.584 258.006 574.818C257.668 575.043 257.235 575.156 256.706 575.156ZM256.966 574.116C257.295 574.116 257.607 574.038 257.902 573.882C258.197 573.717 258.444 573.514 258.643 573.271V569.644C258.409 569.479 258.149 569.349 257.863 569.254C257.586 569.15 257.291 569.098 256.979 569.098C256.563 569.098 256.195 569.206 255.874 569.423C255.562 569.631 255.315 569.926 255.133 570.307C254.951 570.68 254.86 571.117 254.86 571.62C254.86 572.105 254.951 572.539 255.133 572.92C255.315 573.293 255.566 573.587 255.887 573.804C256.208 574.012 256.567 574.116 256.966 574.116ZM264.577 575.156C264.022 575.156 263.515 575.013 263.056 574.727C262.596 574.441 262.232 574.038 261.964 573.518C261.695 572.989 261.561 572.37 261.561 571.659C261.561 570.974 261.695 570.363 261.964 569.826C262.241 569.289 262.605 568.864 263.056 568.552C263.515 568.24 264.018 568.084 264.564 568.084C265.014 568.084 265.4 568.175 265.721 568.357C266.05 568.539 266.306 568.725 266.488 568.916V565.38H267.658V573.362C267.658 573.691 267.736 573.908 267.892 574.012C268.056 574.107 268.234 574.155 268.425 574.155L268.178 575.065C267.354 575.065 266.852 574.736 266.67 574.077C266.479 574.346 266.21 574.593 265.864 574.818C265.526 575.043 265.097 575.156 264.577 575.156ZM264.837 574.116C265.157 574.116 265.461 574.042 265.747 573.895C266.041 573.739 266.288 573.54 266.488 573.297V569.943C266.323 569.735 266.093 569.544 265.799 569.371C265.504 569.189 265.179 569.098 264.824 569.098C264.408 569.098 264.044 569.211 263.732 569.436C263.42 569.661 263.177 569.965 263.004 570.346C262.839 570.719 262.757 571.143 262.757 571.62C262.757 572.097 262.848 572.526 263.03 572.907C263.212 573.28 263.459 573.574 263.771 573.791C264.091 574.008 264.447 574.116 264.837 574.116ZM272.448 575.156C271.885 575.156 271.374 575.013 270.914 574.727C270.455 574.441 270.087 574.038 269.809 573.518C269.541 572.989 269.406 572.37 269.406 571.659C269.406 570.983 269.541 570.376 269.809 569.839C270.087 569.302 270.464 568.877 270.94 568.565C271.426 568.244 271.98 568.084 272.604 568.084C272.994 568.084 273.345 568.153 273.657 568.292C273.978 568.422 274.255 568.587 274.489 568.786V568.24H275.555V573.362C275.555 573.691 275.633 573.908 275.789 574.012C275.954 574.107 276.132 574.155 276.322 574.155L276.075 575.065C275.243 575.065 274.741 574.727 274.567 574.051C274.368 574.328 274.095 574.584 273.748 574.818C273.41 575.043 272.977 575.156 272.448 575.156ZM272.708 574.116C273.038 574.116 273.35 574.038 273.644 573.882C273.939 573.717 274.186 573.514 274.385 573.271V569.644C274.151 569.479 273.891 569.349 273.605 569.254C273.328 569.15 273.033 569.098 272.721 569.098C272.305 569.098 271.937 569.206 271.616 569.423C271.304 569.631 271.057 569.926 270.875 570.307C270.693 570.68 270.602 571.117 270.602 571.62C270.602 572.105 270.693 572.539 270.875 572.92C271.057 573.293 271.309 573.587 271.629 573.804C271.95 574.012 272.31 574.116 272.708 574.116ZM279.705 575.156C279.193 575.156 278.73 575.091 278.314 574.961C277.906 574.831 277.568 574.662 277.3 574.454L277.794 573.479C278.019 573.67 278.301 573.83 278.639 573.96C278.985 574.081 279.354 574.142 279.744 574.142C280.229 574.142 280.593 574.064 280.836 573.908C281.087 573.743 281.213 573.535 281.213 573.284C281.213 573.102 281.165 572.942 281.07 572.803C280.983 572.664 280.818 572.53 280.576 572.4C280.333 572.261 279.982 572.114 279.523 571.958C278.89 571.741 278.413 571.486 278.093 571.191C277.781 570.888 277.625 570.472 277.625 569.943C277.625 569.423 277.85 568.985 278.301 568.63C278.76 568.266 279.393 568.084 280.199 568.084C280.632 568.084 281.018 568.132 281.356 568.227C281.694 568.314 281.997 568.426 282.266 568.565L281.941 569.527C281.707 569.388 281.438 569.276 281.135 569.189C280.84 569.102 280.511 569.059 280.147 569.059C279.696 569.059 279.354 569.15 279.12 569.332C278.886 569.514 278.769 569.713 278.769 569.93C278.769 570.138 278.86 570.316 279.042 570.463C279.224 570.61 279.579 570.771 280.108 570.944C280.966 571.23 281.564 571.546 281.902 571.893C282.24 572.24 282.409 572.673 282.409 573.193C282.409 573.8 282.162 574.281 281.668 574.636C281.182 574.983 280.528 575.156 279.705 575.156ZM286.332 575.156C285.682 575.156 285.166 574.944 284.785 574.519C284.412 574.086 284.226 573.47 284.226 572.673V569.501H283.056V568.487H284.252L284.499 566.355H285.396V568.487H287.268V569.501H285.396V572.764C285.396 573.267 285.5 573.618 285.708 573.817C285.924 574.016 286.18 574.116 286.475 574.116C286.691 574.116 286.895 574.081 287.086 574.012C287.285 573.943 287.467 573.86 287.632 573.765L287.957 574.701C287.783 574.805 287.549 574.905 287.255 575C286.96 575.104 286.652 575.156 286.332 575.156ZM289.133 575V568.24H290.264V569.709C290.376 569.423 290.528 569.159 290.719 568.916C290.909 568.665 291.148 568.465 291.434 568.318C291.72 568.162 292.053 568.084 292.435 568.084C292.565 568.084 292.695 568.093 292.825 568.11C292.955 568.119 293.063 568.136 293.15 568.162L292.799 569.371C292.634 569.302 292.439 569.267 292.214 569.267C291.893 569.267 291.585 569.358 291.291 569.54C291.005 569.722 290.766 570.004 290.576 570.385C290.394 570.766 290.303 571.252 290.303 571.841V575H289.133ZM296.779 575.156C296.137 575.156 295.561 575.009 295.05 574.714C294.538 574.411 294.135 573.995 293.841 573.466C293.555 572.929 293.412 572.313 293.412 571.62C293.412 570.892 293.559 570.264 293.854 569.735C294.148 569.206 294.551 568.799 295.063 568.513C295.574 568.227 296.146 568.084 296.779 568.084C297.411 568.084 297.979 568.227 298.482 568.513C298.993 568.799 299.396 569.206 299.691 569.735C299.994 570.255 300.146 570.875 300.146 571.594C300.146 572.313 299.998 572.942 299.704 573.479C299.409 574.008 299.006 574.419 298.495 574.714C297.992 575.009 297.42 575.156 296.779 575.156ZM296.779 574.116C297.463 574.116 297.996 573.886 298.378 573.427C298.759 572.959 298.95 572.357 298.95 571.62C298.95 571.169 298.854 570.758 298.664 570.385C298.473 570.004 298.213 569.7 297.884 569.475C297.563 569.241 297.195 569.124 296.779 569.124C296.094 569.124 295.561 569.349 295.18 569.8C294.798 570.251 294.608 570.849 294.608 571.594C294.608 572.045 294.703 572.465 294.894 572.855C295.084 573.236 295.34 573.544 295.661 573.778C295.99 574.003 296.363 574.116 296.779 574.116Z" fill="black"/>
<g style="mix-blend-mode:multiply">
<rect width="375" height="34" transform="translate(17 842)" fill="white"/>
<rect x="138" y="863" width="134" height="5" rx="2.5" fill="#262F5F"/>
</g>
<circle cx="185" cy="814" r="5" fill="#C4C4C4"/>
<circle cx="205" cy="814" r="5" fill="#C4C4C4"/>
<circle cx="225" cy="814" r="5" fill="black"/>
<path fill-rule="evenodd" clip-rule="evenodd" d="M323 20H324C324.552 20 325 20.4477 325 21V27C325 27.5523 324.552 28 324 28H323C322.448 28 322 27.5523 322 27V21C322 20.4477 322.448 20 323 20Z" fill="#D1D1D6"/>
<path fill-rule="evenodd" clip-rule="evenodd" d="M318.5 22H319.5C320.052 22 320.5 22.4477 320.5 23V27C320.5 27.5523 320.052 28 319.5 28H318.5C317.948 28 317.5 27.5523 317.5 27V23C317.5 22.4477 317.948 22 318.5 22Z" fill="#D1D1D6"/>
<path fill-rule="evenodd" clip-rule="evenodd" d="M314 23.5H315C315.552 23.5 316 23.9477 316 24.5V27C316 27.5523 315.552 28 315 28H314C313.448 28 313 27.5523 313 27V24.5C313 23.9477 313.448 23.5 314 23.5Z" fill="#D1D1D6"/>
<path fill-rule="evenodd" clip-rule="evenodd" d="M327.5 18H328.5C329.052 18 329.5 18.4477 329.5 19V27C329.5 27.5523 329.052 28 328.5 28H327.5C326.948 28 326.5 27.5523 326.5 27V19C326.5 18.4477 326.948 18 327.5 18Z" fill="#3C3C43" fill-opacity="0.18"/>
<path fill-rule="evenodd" clip-rule="evenodd" d="M323 20H324C324.552 20 325 20.4477 325 21V27C325 27.5523 324.552 28 324 28H323C322.448 28 322 27.5523 322 27V21C322 20.4477 322.448 20 323 20Z" fill="white"/>
<path fill-rule="evenodd" clip-rule="evenodd" d="M318.5 22H319.5C320.052 22 320.5 22.4477 320.5 23V27C320.5 27.5523 320.052 28 319.5 28H318.5C317.948 28 317.5 27.5523 317.5 27V23C317.5 22.4477 317.948 22 318.5 22Z" fill="white"/>
<path fill-rule="evenodd" clip-rule="evenodd" d="M314 23.5H315C315.552 23.5 316 23.9477 316 24.5V27C316 27.5523 315.552 28 315 28H314C313.448 28 313 27.5523 313 27V24.5C313 23.9477 313.448 23.5 314 23.5Z" fill="white"/>
<path d="M343.133 24.9396C343.772 24.9396 344.394 25.1076 344.941 25.428L345.163 25.5579C345.331 25.6563 345.361 25.8866 345.223 26.0242L343.329 27.913C343.212 28.029 343.024 28.029 342.907 27.913L341.026 26.0363C340.888 25.8994 340.917 25.6702 341.084 25.5711L341.303 25.4406C341.855 25.1121 342.485 24.9396 343.133 24.9396Z" fill="white"/>
<path d="M343.133 21.4698C344.724 21.4698 346.251 21.9976 347.495 22.9749L347.671 23.113C347.811 23.2232 347.824 23.4306 347.697 23.5565L346.567 24.6841C346.462 24.7884 346.297 24.8004 346.178 24.7123L346.04 24.6098C345.2 23.9852 344.186 23.6502 343.133 23.6502C342.073 23.6502 341.053 23.9894 340.21 24.6211L340.072 24.7245C339.953 24.8134 339.787 24.8017 339.682 24.6971L338.552 23.5699C338.426 23.4443 338.438 23.2373 338.578 23.127L338.753 22.9888C340 22.0027 341.534 21.4698 343.133 21.4698Z" fill="white"/>
<path d="M343.133 18C345.657 18 348.072 18.8906 349.983 20.5229L350.146 20.6623C350.278 20.7749 350.285 20.9756 350.163 21.098L349.036 22.2219C348.926 22.3308 348.752 22.3385 348.634 22.2395L348.494 22.1228C346.989 20.8647 345.104 20.1804 343.133 20.1804C341.155 20.1804 339.263 20.8694 337.756 22.1354L337.617 22.2527C337.498 22.3521 337.324 22.3447 337.214 22.2356L336.087 21.1118C335.965 20.9895 335.972 20.7892 336.104 20.6765L336.266 20.5371C338.18 18.8959 340.601 18 343.133 18Z" fill="white"/>
<path d="M379 21C379.552 21 380 21.4477 380 22V24C380 24.5523 379.552 25 379 25V21Z" fill="#3C3C43" fill-opacity="0.6"/>
<path fill-rule="evenodd" clip-rule="evenodd" d="M358 17H375C376.657 17 378 18.3431 378 20V26C378 27.6569 376.657 29 375 29H358C356.343 29 355 27.6569 355 26V20C355 18.3431 356.343 17 358 17ZM358 18C356.895 18 356 18.8954 356 20V26C356 27.1046 356.895 28 358 28H375C376.105 28 377 27.1046 377 26V20C377 18.8954 376.105 18 375 18H358Z" fill="#3C3C43" fill-opacity="0.6"/>
<rect x="357" y="19" width="19" height="8" rx="1" fill="white"/>
<path d="M56.8672 28.0889C59.5552 28.0889 61.1519 25.9868 61.1519 22.4272C61.1519 21.0869 60.8955 19.959 60.4048 19.0874C59.6943 17.7324 58.4712 17 56.9258 17C54.626 17 53 18.5454 53 20.7134C53 22.7495 54.4648 24.229 56.479 24.229C57.7168 24.229 58.7202 23.6504 59.2183 22.647H59.2402C59.2402 22.647 59.2695 22.647 59.2769 22.647C59.2915 22.647 59.3428 22.647 59.3428 22.647C59.3428 25.064 58.4272 26.5068 56.8818 26.5068C55.9736 26.5068 55.2705 26.0088 55.0288 25.2104H53.1465C53.4614 26.9463 54.9336 28.0889 56.8672 28.0889ZM56.9331 22.7275C55.7173 22.7275 54.853 21.8633 54.853 20.6548C54.853 19.4756 55.7612 18.5747 56.9404 18.5747C58.1196 18.5747 59.0278 19.4902 59.0278 20.6841C59.0278 21.8633 58.1416 22.7275 56.9331 22.7275Z" fill="white"/>
<path d="M64.243 27.9863C64.9388 27.9863 65.4148 27.4883 65.4148 26.8291C65.4148 26.1626 64.9388 25.6719 64.243 25.6719C63.5545 25.6719 63.0711 26.1626 63.0711 26.8291C63.0711 27.4883 63.5545 27.9863 64.243 27.9863ZM64.243 22.4932C64.9388 22.4932 65.4148 22.0024 65.4148 21.3433C65.4148 20.6768 64.9388 20.186 64.243 20.186C63.5545 20.186 63.0711 20.6768 63.0711 21.3433C63.0711 22.0024 63.5545 22.4932 64.243 22.4932Z" fill="white"/>
<path d="M72.2706 27.8325H74.0797V25.8623H75.5079V24.2656H74.0797V17.2637H71.4137C69.546 20.0762 68.0592 22.4272 67.107 24.1777V25.8623H72.2706V27.8325ZM68.8575 24.1997C70.088 22.0317 71.1866 20.2959 72.1974 18.8018H72.2999V24.3096H68.8575V24.1997Z" fill="white"/>
<path d="M79.5365 27.8325H81.4262V17.2637H79.5438L76.7826 19.1973V21.0137L79.412 19.168H79.5365V27.8325Z" fill="white"/>
<defs>
<filter id="filter0_d_123_2036" x="34" y="287" width="346" height="330" filterUnits="userSpaceOnUse" color-interpolation-filters="sRGB">
<feFlood flood-opacity="0" result="BackgroundImageFix"/>
<feColorMatrix in="SourceAlpha" type="matrix" values="0 0 0 0 0 0 0 0 0 0 0 0 0 0 0 0 0 0 127 0" result="hardAlpha"/>
<feMorphology radius="1" operator="erode" in="SourceAlpha" result="effect1_dropShadow_123_2036"/>
<feOffset dy="4"/>
<feGaussianBlur stdDeviation="7.5"/>
<feComposite in2="hardAlpha" operator="out"/>
<feColorMatrix type="matrix" values="0 0 0 0 0 0 0 0 0 0 0 0 0 0 0 0 0 0 0.25 0"/>
<feBlend mode="normal" in2="BackgroundImageFix" result="effect1_dropShadow_123_2036"/>
<feBlend mode="normal" in="SourceGraphic" in2="effect1_dropShadow_123_2036" result="shape"/>
</filter>
<filter id="filter1_d_123_2036" x="82" y="371" width="250" height="56" filterUnits="userSpaceOnUse" color-interpolation-filters="sRGB">
<feFlood flood-opacity="0" result="BackgroundImageFix"/>
<feColorMatrix in="SourceAlpha" type="matrix" values="0 0 0 0 0 0 0 0 0 0 0 0 0 0 0 0 0 0 127 0" result="hardAlpha"/>
<feOffset dy="4"/>
<feGaussianBlur stdDeviation="4.5"/>
<feComposite in2="hardAlpha" operator="out"/>
<feColorMatrix type="matrix" values="0 0 0 0 0 0 0 0 0 0 0 0 0 0 0 0 0 0 0.25 0"/>
<feBlend mode="normal" in2="BackgroundImageFix" result="effect1_dropShadow_123_2036"/>
<feBlend mode="normal" in="SourceGraphic" in2="effect1_dropShadow_123_2036" result="shape"/>
</filter>
<filter id="filter2_d_123_2036" x="82" y="424" width="250" height="56" filterUnits="userSpaceOnUse" color-interpolation-filters="sRGB">
<feFlood flood-opacity="0" result="BackgroundImageFix"/>
<feColorMatrix in="SourceAlpha" type="matrix" values="0 0 0 0 0 0 0 0 0 0 0 0 0 0 0 0 0 0 127 0" result="hardAlpha"/>
<feOffset dy="4"/>
<feGaussianBlur stdDeviation="4.5"/>
<feComposite in2="hardAlpha" operator="out"/>
<feColorMatrix type="matrix" values="0 0 0 0 0 0 0 0 0 0 0 0 0 0 0 0 0 0 0.25 0"/>
<feBlend mode="normal" in2="BackgroundImageFix" result="effect1_dropShadow_123_2036"/>
<feBlend mode="normal" in="SourceGraphic" in2="effect1_dropShadow_123_2036" result="shape"/>
</filter>
<filter id="filter3_d_123_2036" x="82" y="499" width="250" height="56" filterUnits="userSpaceOnUse" color-interpolation-filters="sRGB">
<feFlood flood-opacity="0" result="BackgroundImageFix"/>
<feColorMatrix in="SourceAlpha" type="matrix" values="0 0 0 0 0 0 0 0 0 0 0 0 0 0 0 0 0 0 127 0" result="hardAlpha"/>
<feOffset dy="4"/>
<feGaussianBlur stdDeviation="4.5"/>
<feComposite in2="hardAlpha" operator="out"/>
<feColorMatrix type="matrix" values="0 0 0 0 0 0 0 0 0 0 0 0 0 0 0 0 0 0 0.25 0"/>
<feBlend mode="normal" in2="BackgroundImageFix" result="effect1_dropShadow_123_2036"/>
<feBlend mode="normal" in="SourceGraphic" in2="effect1_dropShadow_123_2036" result="shape"/>
</filter>
</defs>
</svg>
