<svg width="900" height="500" viewBox="0 0 900 500" fill="none" xmlns="http://www.w3.org/2000/svg">
<rect width="900" height="500" fill="#5C0826" style="mix-blend-mode:multiply"/>
<path d="M390.519 185.869L344.449 253.911C343.105 256.094 344.493 258.931 347.037 259.21L437.938 268.843L390.519 185.869ZM347.16 229.678L380.022 176.275L346.57 156.206C345.405 155.508 343.925 156.346 343.925 157.703V228.766C343.925 230.525 346.234 231.18 347.16 229.678ZM351.891 276.892L436.742 315.154C439.056 316.223 441.696 314.53 441.696 311.985V283.321L352.851 273.588C350.909 273.37 350.132 276.028 351.891 276.892ZM387.342 164.377L422.23 101.987C424.124 98.9051 420.663 95.3303 417.524 97.1243L351.699 140.165C350.621 140.872 350.656 142.461 351.756 143.125L387.342 164.377ZM448.68 168.82H496.348L454.629 95.326C453.263 93.1087 450.972 92 448.68 92C446.389 92 444.097 93.1087 442.731 95.326L401.012 168.82H448.68ZM550.79 156.206L517.338 176.28L550.2 229.683C551.121 231.184 553.435 230.529 553.435 228.766V157.703C553.435 156.346 551.955 155.508 550.79 156.206ZM510.018 164.377L545.604 143.12C546.709 142.457 546.739 140.868 545.661 140.161L479.836 97.1243C476.698 95.3303 473.236 98.9051 475.131 101.987L510.018 164.377ZM544.509 273.588L455.664 283.317V311.98C455.664 314.53 458.304 316.219 460.618 315.149L545.469 276.888C547.228 276.028 546.451 273.37 544.509 273.588ZM506.841 185.869L459.426 268.843L550.327 259.21C552.872 258.927 554.26 256.094 552.915 253.911L506.841 185.869ZM448.68 182.787H404.845L448.68 259.498L492.516 182.787H448.68Z" fill="#D98E04"/>
<path d="M285.811 374.801C285.811 373.477 286.753 372.806 288.636 372.787H307.35C309.066 372.787 310.735 373.188 312.358 373.99C315.285 375.463 316.759 377.859 316.777 381.179C316.777 383.715 315.658 385.869 313.42 387.64C312.432 388.405 311.35 389.011 310.176 389.459C311.761 390.41 313.159 391.92 314.372 393.99C316.684 398 318.409 400.797 319.547 402.382C320.703 403.967 321.85 404.928 322.987 405.263V406.746C319.966 407.026 317.616 406.448 315.938 405.012C314.278 403.576 312.6 401.17 310.903 397.795C309.206 394.401 308.124 392.321 307.658 391.557C307.192 390.792 306.744 390.41 306.315 390.41C305.905 390.391 305.56 390.718 305.28 391.389C305.019 392.06 304.805 392.48 304.637 392.648C304.357 392.909 303.91 393.049 303.294 393.067C302.698 393.067 302.222 392.797 301.868 392.256C301.532 391.715 301.364 391.202 301.364 390.718C301.364 389.132 302.716 388.34 305.42 388.34C305.98 388.34 306.446 388.358 306.819 388.396C309.206 388.284 310.866 387.109 311.798 384.871C312.208 383.845 312.413 382.736 312.413 381.542C312.413 378.67 311.369 376.647 309.281 375.472C308.162 374.857 306.866 374.549 305.392 374.549H300.497V401.851C300.497 403.063 300.6 403.79 300.805 404.033C301.01 404.256 301.411 404.424 302.008 404.536L303.91 404.928V406.075H293.028V404.984L294.651 404.648C295.639 404.443 296.226 404.061 296.413 403.501C296.618 402.942 296.721 401.869 296.721 400.284V378.13C296.348 375.687 295.359 374.428 293.756 374.353C293.196 374.353 292.459 374.717 291.546 375.444C290.296 376.451 289.215 376.964 288.301 376.983C287.387 376.983 286.744 376.74 286.371 376.256C285.998 375.752 285.811 375.267 285.811 374.801ZM326.54 395.361C326.54 391.967 327.51 389.095 329.449 386.745C331.388 384.377 333.747 383.193 336.526 383.193C339.342 383.193 341.804 384.293 343.911 386.494C346.018 388.694 347.072 391.463 347.072 394.802C347.072 398.14 346.158 400.918 344.331 403.137C342.223 405.692 339.799 406.97 337.058 406.97C334.13 406.988 331.65 405.897 329.617 403.697C327.584 401.478 326.558 398.699 326.54 395.361ZM336.107 385.291C334.13 385.291 332.61 386.186 331.547 387.976C330.484 389.766 329.952 391.995 329.952 394.662C329.952 397.31 330.624 399.678 331.967 401.767C333.328 403.837 335.118 404.881 337.337 404.9C339.407 404.9 340.955 403.995 341.981 402.186C343.025 400.359 343.547 398.214 343.547 395.753C343.547 393.123 342.913 390.727 341.645 388.564C340.377 386.4 338.531 385.309 336.107 385.291ZM357.114 367.5V399.725C357.114 401.403 357.17 402.438 357.282 402.83C357.487 403.576 358.037 404.135 358.932 404.508C359.417 404.695 360.042 404.872 360.807 405.04V406.075H350.261V405.04C350.373 405.002 350.774 404.918 351.464 404.788C353.012 404.471 353.785 403.352 353.785 401.431V373.206C353.785 372.069 353.711 371.36 353.562 371.081C353.245 370.484 352.238 370.185 350.541 370.185L350.401 369.29L357.114 367.5ZM370.597 367.5V399.725C370.597 401.403 370.653 402.438 370.765 402.83C370.97 403.576 371.52 404.135 372.415 404.508C372.9 404.695 373.525 404.872 374.29 405.04V406.075H363.744V405.04C363.856 405.002 364.257 404.918 364.947 404.788C366.494 404.471 367.268 403.352 367.268 401.431V373.206C367.268 372.069 367.194 371.36 367.045 371.081C366.728 370.484 365.721 370.185 364.024 370.185L363.884 369.29L370.597 367.5ZM395.969 374.241C394.868 374.241 394.309 374.577 394.29 375.248C394.309 375.733 394.467 376.209 394.766 376.675L403.13 389.487L404.305 387.557C409.153 379.631 411.578 375.454 411.578 375.025C411.596 374.596 411.335 374.335 410.794 374.241C410.253 374.13 409.246 374.055 407.773 374.018V372.787H418.599V374.018C418.561 374.036 418.45 374.046 418.263 374.046C416.417 374.139 415.111 374.652 414.347 375.584C412.724 377.561 409.88 382.037 405.815 389.011C404.995 390.428 404.463 391.361 404.221 391.808V401.823C404.221 403.035 404.323 403.762 404.528 404.005C404.733 404.247 405.144 404.434 405.759 404.564L407.633 404.928V406.075H396.752V404.984L398.374 404.648C399.363 404.443 399.95 404.051 400.137 403.473C400.342 402.895 400.444 401.832 400.444 400.284V391.808C395.726 383.79 392.575 378.857 390.989 377.011C389.236 374.997 387.661 373.999 386.262 374.018V372.787H400.808C402.673 372.787 403.615 373.43 403.633 374.717C403.633 375.687 403.148 376.358 402.179 376.731C401.843 376.843 401.517 376.899 401.2 376.899C400.248 376.899 399.316 376.517 398.402 375.752C397.507 374.969 396.929 374.521 396.668 374.409C396.426 374.297 396.192 374.241 395.969 374.241ZM416.78 395.361C416.78 391.967 417.75 389.095 419.69 386.745C421.629 384.377 423.988 383.193 426.767 383.193C429.583 383.193 432.044 384.293 434.152 386.494C436.259 388.694 437.313 391.463 437.313 394.802C437.313 398.14 436.399 400.918 434.571 403.137C432.464 405.692 430.04 406.97 427.298 406.97C424.37 406.988 421.89 405.897 419.857 403.697C417.825 401.478 416.799 398.699 416.78 395.361ZM426.347 385.291C424.37 385.291 422.851 386.186 421.788 387.976C420.725 389.766 420.193 391.995 420.193 394.662C420.193 397.31 420.865 399.678 422.207 401.767C423.569 403.837 425.359 404.881 427.578 404.9C429.648 404.9 431.196 403.995 432.222 402.186C433.266 400.359 433.788 398.214 433.788 395.753C433.788 393.123 433.154 390.727 431.886 388.564C430.618 386.4 428.772 385.309 426.347 385.291ZM439.83 384.703V383.584H446.236V395.277C446.236 395.538 446.208 396.433 446.152 397.962C446.003 402.308 447.523 404.499 450.712 404.536C452.483 404.536 454.022 403.827 455.327 402.41C456.633 400.993 457.285 399.389 457.285 397.599V390.801C457.285 388.321 457.173 386.745 456.95 386.074C456.651 385.179 455.588 384.731 453.761 384.731V383.584H460.754V400.005C460.754 402.037 461.174 403.249 462.013 403.641C462.404 403.809 463.15 403.865 464.251 403.809L464.39 404.788L458.292 406.886L457.285 403.193L456.362 404.089C454.18 405.972 451.886 406.923 449.481 406.942C446.497 406.942 444.53 405.804 443.579 403.529C443.019 402.186 442.739 400.359 442.739 398.046V389.291C442.739 386.997 442.264 385.543 441.313 384.927C440.884 384.666 440.39 384.591 439.83 384.703ZM482.545 387.249L479.496 386.885C477.967 386.904 476.717 387.678 475.747 389.207C475.412 389.766 475.244 390.615 475.244 391.753V401.711C475.244 403.091 475.85 404.014 477.062 404.48C477.081 404.499 477.416 404.601 478.069 404.788C478.722 404.956 479.076 405.049 479.132 405.068V406.075H468.53V405.068C468.586 405.03 468.773 404.974 469.09 404.9C470.433 404.583 471.29 404.089 471.663 403.417C471.85 403.044 471.952 402.634 471.971 402.186V388.424C471.971 387.529 471.496 386.988 470.544 386.801C470.265 386.745 469.659 386.699 468.726 386.661L468.586 385.682L475.468 383.053L475.524 387.473L476.503 386.438C478.61 384.48 480.671 383.5 482.685 383.5C483.878 383.5 484.484 384.079 484.503 385.235C484.503 386.167 484.121 386.792 483.356 387.109C483.095 387.202 482.825 387.249 482.545 387.249ZM500.112 381.179C500.112 384.983 500.96 386.895 502.657 386.913C502.956 386.913 503.422 386.633 504.056 386.074C505.119 385.291 506.014 384.871 506.741 384.815C507.935 384.815 508.588 385.384 508.7 386.522C508.755 387.286 508.401 387.883 507.637 388.312C507.245 388.517 506.835 388.62 506.406 388.62C504.28 388.62 502.741 388.461 501.79 388.144C499.459 387.379 497.855 385.813 496.979 383.445C496.587 382.344 496.391 381.179 496.391 379.948C496.391 376.405 498.051 374.167 501.371 373.234C502.396 372.936 503.515 372.787 504.727 372.787H525.931C527.982 372.787 529.306 372.358 529.903 371.5C530.295 370.903 530.49 370.008 530.49 368.815H531.665C532.393 371.258 532.383 372.871 531.637 373.654C530.891 374.419 529.651 374.857 527.917 374.969H517.343V400.228C517.343 401.944 517.464 403.063 517.707 403.585C517.949 404.089 518.518 404.434 519.413 404.62L521.036 404.928V406.075H510.182V404.9L512.112 404.48C512.802 404.331 513.231 404.117 513.399 403.837C513.548 403.52 513.623 402.839 513.623 401.795V374.969H504.392C502.228 374.969 500.876 376.256 500.336 378.829C500.186 379.556 500.112 380.34 500.112 381.179ZM550.491 403.697C550.454 403.79 550.314 404.014 550.071 404.368C549.848 404.723 549.549 405.096 549.176 405.487C548.822 405.879 548.412 406.224 547.946 406.522C547.479 406.839 546.994 406.998 546.491 406.998C545.764 406.998 545.176 406.83 544.729 406.494C544.281 406.159 543.927 405.739 543.666 405.235C543.405 404.732 543.218 404.2 543.106 403.641C542.994 403.063 542.92 402.55 542.882 402.102C542.752 402.214 542.509 402.531 542.155 403.054C541.801 403.576 541.325 404.135 540.729 404.732C540.132 405.31 539.395 405.832 538.519 406.298C537.661 406.765 536.663 406.998 535.526 406.998C534.966 406.998 534.379 406.923 533.763 406.774C533.167 406.625 532.626 406.373 532.141 406.019C531.656 405.646 531.255 405.152 530.938 404.536C530.621 403.902 530.462 403.119 530.462 402.186C530.462 400.862 530.901 399.762 531.777 398.886C532.654 398.009 533.745 397.319 535.05 396.816C536.355 396.312 537.549 395.948 538.631 395.725C539.731 395.482 541.036 395.212 542.547 394.913V390.242C542.547 389.832 542.528 389.319 542.491 388.703C542.472 388.069 542.36 387.463 542.155 386.885C541.969 386.288 541.652 385.785 541.204 385.375C540.775 384.946 540.15 384.731 539.33 384.731C538.323 384.731 537.493 384.927 536.84 385.319C536.206 385.71 535.74 386.065 535.442 386.382C535.143 386.699 534.733 387.165 534.211 387.78C533.577 387.855 533.073 387.846 532.7 387.752C532.346 387.64 532.048 387.482 531.805 387.277C531.581 387.053 531.469 386.755 531.469 386.382C531.469 385.841 531.88 385.328 532.7 384.843C533.521 384.358 534.584 383.929 535.889 383.556C537.213 383.165 538.463 382.969 539.638 382.969C540.701 382.969 541.596 383.128 542.323 383.445C543.05 383.743 543.647 384.163 544.113 384.703C544.579 385.225 544.934 385.841 545.176 386.55C545.419 387.24 545.586 387.976 545.68 388.759C545.792 389.543 545.848 390.345 545.848 391.165C545.866 391.986 545.876 392.778 545.876 393.543C545.876 394.96 545.857 396.34 545.82 397.683C545.782 399.025 545.792 400.228 545.848 401.291C545.904 402.336 546.043 403.184 546.267 403.837C546.51 404.471 546.901 404.788 547.442 404.788C548.132 404.788 548.831 404.154 549.54 402.886L550.491 403.697ZM542.547 396.76C541.036 396.983 539.74 397.235 538.659 397.515C537.596 397.795 536.747 398.149 536.113 398.578C535.498 399.007 535.022 399.492 534.686 400.032C534.369 400.555 534.211 401.198 534.211 401.963C534.211 403.827 535.031 404.76 536.672 404.76C537.269 404.76 537.885 404.545 538.519 404.117C539.153 403.688 539.74 403.175 540.281 402.578C540.822 401.963 541.297 401.329 541.708 400.676C542.118 400.023 542.398 399.482 542.547 399.053V396.76ZM559.918 367.5V385.095C561.783 383.734 563.993 383.053 566.548 383.053C569.121 383.053 571.35 384.041 573.233 386.018C575.135 387.976 576.086 390.801 576.086 394.494C576.086 398.168 575.014 401.133 572.869 403.389C570.576 405.795 567.881 406.998 564.785 406.998C563.48 406.998 562.128 406.83 560.729 406.494C559.349 406.159 558.296 405.823 557.568 405.487L556.477 404.984V373.514C556.477 372.227 556.421 371.444 556.309 371.164C556.048 370.512 555.004 370.185 553.176 370.185L553.037 369.234L559.918 367.5ZM559.918 403.473C561.428 404.387 563.023 404.844 564.701 404.844C566.659 404.844 568.478 404.126 570.156 402.69C571.834 401.254 572.674 398.904 572.674 395.641C572.674 391.389 571.322 388.442 568.618 386.801C567.368 386.055 566.035 385.682 564.617 385.682C562.976 385.664 561.41 386.26 559.918 387.473V403.473ZM586.157 367.5V399.725C586.157 401.403 586.213 402.438 586.324 402.83C586.53 403.576 587.08 404.135 587.975 404.508C588.46 404.695 589.084 404.872 589.849 405.04V406.075H579.303V405.04C579.415 405.002 579.816 404.918 580.506 404.788C582.054 404.471 582.828 403.352 582.828 401.431V373.206C582.828 372.069 582.753 371.36 582.604 371.081C582.287 370.484 581.28 370.185 579.583 370.185L579.443 369.29L586.157 367.5ZM602.717 382.969C606.297 382.969 608.544 384.368 609.458 387.165C609.868 388.433 609.98 389.673 609.794 390.885H596.395C596.152 392.228 596.031 393.478 596.031 394.634C596.031 398.569 597.206 401.254 599.556 402.69C600.805 403.455 602.306 403.837 604.059 403.837C605.887 403.837 607.724 403.165 609.57 401.823L610.381 402.662L609.598 403.585C607.472 405.804 604.954 406.923 602.045 406.942C600.311 406.942 598.707 406.42 597.234 405.375C594.269 403.268 592.786 400.079 592.786 395.809C592.786 391.296 594.045 387.874 596.562 385.543C598.465 383.883 600.516 383.025 602.717 382.969ZM596.674 389.067H606.185C606.185 387.594 605.849 386.503 605.178 385.794C604.507 385.067 603.649 384.703 602.605 384.703C600.982 384.703 599.658 385.188 598.632 386.158C597.607 387.109 596.954 388.079 596.674 389.067Z" fill="#F5F5F5"/>
<path d="M288.636 372.787V371.805L288.627 371.805L288.636 372.787ZM312.358 373.99L312.799 373.112L312.793 373.109L312.358 373.99ZM316.777 381.179H317.759L317.759 381.173L316.777 381.179ZM313.42 387.64L314.021 388.417L314.03 388.41L313.42 387.64ZM310.176 389.459L309.826 388.541L307.937 389.261L309.67 390.301L310.176 389.459ZM314.372 393.99L315.222 393.5L315.219 393.494L314.372 393.99ZM319.547 402.382L318.749 402.955L318.753 402.961L319.547 402.382ZM322.987 405.263H323.969V404.529L323.265 404.321L322.987 405.263ZM322.987 406.746L323.078 407.724L323.969 407.641V406.746H322.987ZM315.938 405.012L315.295 405.754L315.3 405.758L315.938 405.012ZM310.903 397.795L310.025 398.234L310.025 398.236L310.903 397.795ZM307.658 391.557L306.82 392.068L307.658 391.557ZM306.315 390.41L306.271 391.391L306.293 391.392H306.315V390.41ZM305.28 391.389L304.374 391.011L304.369 391.022L304.365 391.033L305.28 391.389ZM304.637 392.648L305.307 393.366L305.319 393.354L305.331 393.342L304.637 392.648ZM303.294 393.067V394.049H303.309L303.324 394.049L303.294 393.067ZM301.868 392.256L301.033 392.774L301.04 392.784L301.046 392.794L301.868 392.256ZM306.819 388.396L306.721 389.373L306.793 389.38L306.865 389.377L306.819 388.396ZM311.798 384.871L312.705 385.249L312.71 385.236L311.798 384.871ZM309.281 375.472L309.762 374.616L309.754 374.612L309.281 375.472ZM300.497 374.549V373.567H299.515V374.549H300.497ZM300.805 404.033L300.055 404.667L300.068 404.682L300.081 404.696L300.805 404.033ZM302.008 404.536L302.206 403.574L302.197 403.572L302.189 403.571L302.008 404.536ZM303.91 404.928H304.892V404.127L304.108 403.966L303.91 404.928ZM303.91 406.075V407.057H304.892V406.075H303.91ZM293.028 406.075H292.046V407.057H293.028V406.075ZM293.028 404.984L292.829 404.022L292.046 404.184V404.984H293.028ZM294.651 404.648L294.85 405.61L294.85 405.61L294.651 404.648ZM296.413 403.501L295.491 403.163L295.486 403.177L295.481 403.191L296.413 403.501ZM296.721 378.13H297.703V378.055L297.691 377.981L296.721 378.13ZM293.756 374.353L293.801 373.372L293.778 373.371H293.756V374.353ZM291.546 375.444L290.934 374.676L290.929 374.68L291.546 375.444ZM288.301 376.983V377.965H288.311L288.321 377.965L288.301 376.983ZM286.371 376.256L285.582 376.84L285.587 376.847L285.592 376.854L286.371 376.256ZM286.793 374.801C286.793 374.403 286.916 374.227 287.088 374.104C287.321 373.938 287.79 373.777 288.646 373.769L288.627 371.805C287.599 371.815 286.656 372 285.947 372.505C285.178 373.053 284.829 373.874 284.829 374.801H286.793ZM288.636 373.769H307.35V371.805H288.636V373.769ZM307.35 373.769C308.907 373.769 310.428 374.131 311.922 374.87L312.793 373.109C311.043 372.244 309.225 371.805 307.35 371.805V373.769ZM311.916 374.867C313.244 375.535 314.195 376.388 314.822 377.406C315.448 378.426 315.787 379.672 315.795 381.184L317.759 381.173C317.749 379.366 317.341 377.754 316.495 376.378C315.648 375 314.398 373.917 312.799 373.112L311.916 374.867ZM315.795 381.179C315.795 383.375 314.847 385.259 312.811 386.87L314.03 388.41C316.47 386.479 317.759 384.055 317.759 381.179H315.795ZM312.82 386.864C311.908 387.569 310.911 388.128 309.826 388.541L310.525 390.376C311.79 389.895 312.956 389.241 314.021 388.417L312.82 386.864ZM309.67 390.301C311.078 391.146 312.371 392.518 313.524 394.487L315.219 393.494C313.948 391.323 312.443 389.674 310.681 388.617L309.67 390.301ZM313.521 394.481C315.834 398.491 317.58 401.326 318.749 402.955L320.344 401.81C319.238 400.268 317.534 397.509 315.222 393.5L313.521 394.481ZM318.753 402.961C319.96 404.616 321.268 405.78 322.709 406.205L323.265 404.321C322.432 404.075 321.445 403.319 320.34 401.803L318.753 402.961ZM322.005 405.263V406.746H323.969V405.263H322.005ZM322.897 405.768C320.039 406.033 317.987 405.472 316.577 404.265L315.3 405.758C317.246 407.423 319.894 408.019 323.078 407.724L322.897 405.768ZM316.581 404.269C315.064 402.957 313.455 400.685 311.78 397.354L310.025 398.236C311.745 401.655 313.492 404.194 315.295 405.754L316.581 404.269ZM311.781 397.355C310.092 393.977 308.989 391.854 308.497 391.045L306.82 392.068C307.259 392.789 308.32 394.825 310.025 398.234L311.781 397.355ZM308.497 391.045C308.235 390.616 307.943 390.234 307.611 389.95C307.275 389.663 306.838 389.428 306.315 389.428V391.392C306.222 391.392 306.223 391.348 306.335 391.443C306.45 391.542 306.615 391.733 306.82 392.068L308.497 391.045ZM306.36 389.429C305.274 389.379 304.679 390.28 304.374 391.011L306.187 391.767C306.299 391.497 306.39 391.386 306.424 391.354C306.436 391.343 306.426 391.356 306.39 391.37C306.352 391.386 306.309 391.393 306.271 391.391L306.36 389.429ZM304.365 391.033C304.241 391.352 304.136 391.591 304.049 391.76C303.952 391.95 303.913 391.983 303.943 391.953L305.331 393.342C305.529 393.145 305.681 392.884 305.798 392.654C305.926 392.403 306.059 392.097 306.196 391.745L304.365 391.033ZM303.967 391.93C303.941 391.954 303.778 392.07 303.265 392.086L303.324 394.049C304.041 394.027 304.774 393.863 305.307 393.366L303.967 391.93ZM303.294 392.085C303.06 392.085 302.88 392.009 302.689 391.718L301.046 392.794C301.564 393.585 302.335 394.049 303.294 394.049V392.085ZM302.702 391.738C302.433 391.305 302.346 390.97 302.346 390.718H300.382C300.382 391.434 300.631 392.125 301.033 392.774L302.702 391.738ZM302.346 390.718C302.346 390.269 302.504 389.999 302.875 389.781C303.327 389.516 304.132 389.322 305.42 389.322V387.358C304.004 387.358 302.781 387.56 301.882 388.087C300.901 388.662 300.382 389.581 300.382 390.718H302.346ZM305.42 389.322C305.961 389.322 306.392 389.34 306.721 389.373L306.917 387.419C306.5 387.377 305.998 387.358 305.42 387.358V389.322ZM306.865 389.377C308.212 389.314 309.413 388.946 310.421 388.232C311.429 387.519 312.181 386.505 312.705 385.249L310.892 384.493C310.482 385.475 309.939 386.167 309.287 386.629C308.635 387.09 307.812 387.366 306.773 387.415L306.865 389.377ZM312.71 385.236C313.17 384.085 313.396 382.851 313.396 381.542H311.431C311.431 382.621 311.246 383.606 310.886 384.506L312.71 385.236ZM313.396 381.542C313.396 378.399 312.226 376.003 309.762 374.616L308.799 376.328C310.512 377.292 311.431 378.942 311.431 381.542H313.396ZM309.754 374.612C308.469 373.905 307.005 373.567 305.392 373.567V375.531C306.726 375.531 307.854 375.809 308.807 376.333L309.754 374.612ZM305.392 373.567H300.497V375.531H305.392V373.567ZM299.515 374.549V401.851H301.479V374.549H299.515ZM299.515 401.851C299.515 402.477 299.541 403.014 299.601 403.442C299.632 403.657 299.673 403.866 299.734 404.057C299.791 404.236 299.885 404.466 300.055 404.667L301.554 403.398C301.622 403.478 301.626 403.526 301.606 403.463C301.59 403.411 301.567 403.317 301.546 403.168C301.504 402.87 301.479 402.436 301.479 401.851H299.515ZM300.081 404.696C300.515 405.17 301.196 405.383 301.827 405.501L302.189 403.571C301.934 403.523 301.756 403.469 301.638 403.42C301.517 403.369 301.503 403.341 301.529 403.369L300.081 404.696ZM301.809 405.498L303.712 405.89L304.108 403.966L302.206 403.574L301.809 405.498ZM302.928 404.928V406.075H304.892V404.928H302.928ZM303.91 405.093H293.028V407.057H303.91V405.093ZM294.01 406.075V404.984H292.046V406.075H294.01ZM293.227 405.945L294.85 405.61L294.452 403.686L292.829 404.022L293.227 405.945ZM294.85 405.61C295.931 405.385 296.985 404.889 297.345 403.812L295.481 403.191C295.467 403.232 295.347 403.501 294.451 403.686L294.85 405.61ZM297.335 403.839C297.608 403.094 297.703 401.854 297.703 400.284H295.739C295.739 401.885 295.628 402.789 295.491 403.163L297.335 403.839ZM297.703 400.284V378.13H295.739V400.284H297.703ZM297.691 377.981C297.492 376.676 297.113 375.563 296.472 374.747C295.801 373.892 294.887 373.423 293.801 373.372L293.71 375.334C294.228 375.358 294.61 375.556 294.927 375.96C295.275 376.403 295.576 377.141 295.75 378.278L297.691 377.981ZM293.756 373.371C292.834 373.371 291.866 373.934 290.934 374.676L292.157 376.213C293.053 375.5 293.558 375.335 293.756 375.335V373.371ZM290.929 374.68C289.735 375.642 288.866 375.989 288.281 376.001L288.321 377.965C289.563 377.939 290.857 377.26 292.162 376.209L290.929 374.68ZM288.301 376.001C287.536 376.001 287.258 375.799 287.149 375.657L285.592 376.854C286.229 377.682 287.238 377.965 288.301 377.965V376.001ZM287.16 375.671C286.87 375.279 286.793 374.995 286.793 374.801H284.829C284.829 375.539 285.126 376.225 285.582 376.84L287.16 375.671ZM326.54 395.361H325.558L325.558 395.367L326.54 395.361ZM329.449 386.745L330.206 387.371L330.209 387.368L329.449 386.745ZM344.331 403.137L345.088 403.762L345.089 403.762L344.331 403.137ZM337.058 406.97V405.988L337.051 405.988L337.058 406.97ZM329.617 403.697L328.893 404.36L328.895 404.363L329.617 403.697ZM336.107 385.291L336.114 384.309H336.107V385.291ZM331.967 401.767L331.14 402.298L331.146 402.306L331.967 401.767ZM337.337 404.9L337.329 405.882H337.337V404.9ZM341.981 402.186L341.128 401.699L341.127 401.702L341.981 402.186ZM341.645 388.564L340.798 389.06L341.645 388.564ZM327.522 395.361C327.522 392.167 328.429 389.524 330.206 387.371L328.692 386.12C326.59 388.666 325.558 391.766 325.558 395.361H327.522ZM330.209 387.368C331.983 385.201 334.074 384.175 336.526 384.175V382.211C333.421 382.211 330.794 383.553 328.689 386.123L330.209 387.368ZM336.526 384.175C339.051 384.175 341.263 385.148 343.202 387.173L344.62 385.814C342.345 383.438 339.633 382.211 336.526 382.211V384.175ZM343.202 387.173C345.116 389.172 346.09 391.69 346.09 394.802H348.054C348.054 391.237 346.92 388.216 344.62 385.814L343.202 387.173ZM346.09 394.802C346.09 397.95 345.232 400.497 343.572 402.513L345.089 403.762C347.084 401.339 348.054 398.329 348.054 394.802H346.09ZM343.573 402.513C341.609 404.893 339.445 405.988 337.058 405.988V407.952C340.153 407.952 342.837 406.492 345.088 403.762L343.573 402.513ZM337.051 405.988C334.407 406.005 332.188 405.034 330.338 403.031L328.895 404.363C331.111 406.761 333.853 407.972 337.064 407.952L337.051 405.988ZM330.341 403.034C328.491 401.014 327.539 398.479 327.522 395.356L325.558 395.367C325.578 398.92 326.677 401.941 328.893 404.36L330.341 403.034ZM336.107 384.309C333.761 384.309 331.931 385.406 330.702 387.475L332.391 388.478C333.289 386.966 334.498 386.273 336.107 386.273V384.309ZM330.702 387.475C329.527 389.454 328.97 391.867 328.97 394.662H330.935C330.935 392.123 331.441 390.079 332.391 388.478L330.702 387.475ZM328.97 394.662C328.97 397.485 329.689 400.04 331.14 402.298L332.793 401.236C331.559 399.316 330.935 397.135 330.935 394.662H328.97ZM331.146 402.306C332.663 404.613 334.74 405.86 337.329 405.882L337.346 403.918C335.496 403.902 333.993 403.061 332.787 401.227L331.146 402.306ZM337.337 405.882C339.763 405.882 341.636 404.786 342.835 402.671L341.127 401.702C340.274 403.205 339.052 403.918 337.337 403.918V405.882ZM342.834 402.674C343.976 400.674 344.529 398.356 344.529 395.753H342.565C342.565 398.073 342.074 400.043 341.128 401.699L342.834 402.674ZM344.529 395.753C344.529 392.957 343.853 390.388 342.492 388.067L340.798 389.06C341.973 391.065 342.565 393.289 342.565 395.753H344.529ZM342.492 388.067C341.057 385.618 338.899 384.33 336.114 384.309L336.099 386.273C338.163 386.289 339.697 387.183 340.798 389.06L342.492 388.067ZM357.114 367.5H358.096V366.222L356.861 366.551L357.114 367.5ZM357.282 402.83L358.229 402.569L358.226 402.56L357.282 402.83ZM358.932 404.508L358.555 405.415L358.567 405.42L358.58 405.425L358.932 404.508ZM360.807 405.04H361.789V404.25L361.017 404.08L360.807 405.04ZM360.807 406.075V407.057H361.789V406.075H360.807ZM350.261 406.075H349.279V407.057H350.261V406.075ZM350.261 405.04L349.95 404.108L349.279 404.332V405.04H350.261ZM351.464 404.788L351.646 405.753L351.654 405.751L351.661 405.75L351.464 404.788ZM353.562 371.081L352.694 371.541L352.695 371.543L353.562 371.081ZM350.541 370.185L349.57 370.337L349.7 371.167H350.541V370.185ZM350.401 369.29L350.148 368.341L349.294 368.569L349.43 369.442L350.401 369.29ZM356.132 367.5V399.725H358.096V367.5H356.132ZM356.132 399.725C356.132 400.572 356.146 401.27 356.176 401.813C356.203 402.325 356.248 402.785 356.338 403.1L358.226 402.56C358.204 402.483 358.165 402.229 358.137 401.707C358.11 401.214 358.096 400.556 358.096 399.725H356.132ZM356.335 403.09C356.64 404.2 357.458 404.958 358.555 405.415L359.31 403.602C358.616 403.313 358.334 402.951 358.229 402.569L356.335 403.09ZM358.58 405.425C359.128 405.636 359.805 405.825 360.596 405.999L361.017 404.08C360.279 403.918 359.707 403.754 359.285 403.592L358.58 405.425ZM359.825 405.04V406.075H361.789V405.04H359.825ZM360.807 405.093H350.261V407.057H360.807V405.093ZM351.243 406.075V405.04H349.279V406.075H351.243ZM350.571 405.971C350.563 405.974 350.631 405.955 350.847 405.91C351.038 405.87 351.304 405.818 351.646 405.753L351.281 403.823C350.632 403.946 350.143 404.044 349.95 404.108L350.571 405.971ZM351.661 405.75C352.64 405.55 353.459 405.071 354.013 404.27C354.551 403.491 354.768 402.512 354.768 401.431H352.803C352.803 402.271 352.633 402.812 352.397 403.152C352.177 403.47 351.836 403.709 351.267 403.826L351.661 405.75ZM354.768 401.431V373.206H352.803V401.431H354.768ZM354.768 373.206C354.768 372.621 354.749 372.121 354.706 371.719C354.668 371.357 354.6 370.941 354.428 370.618L352.695 371.543C352.672 371.5 352.716 371.578 352.753 371.925C352.785 372.231 352.803 372.654 352.803 373.206H354.768ZM354.429 370.62C354.093 369.987 353.467 369.651 352.848 369.468C352.215 369.28 351.433 369.203 350.541 369.203V371.167C351.345 371.167 351.915 371.24 352.29 371.351C352.677 371.466 352.713 371.577 352.694 371.541L354.429 370.62ZM351.511 370.034L351.371 369.139L349.43 369.442L349.57 370.337L351.511 370.034ZM350.654 370.239L357.367 368.449L356.861 366.551L350.148 368.341L350.654 370.239ZM370.597 367.5H371.579V366.222L370.344 366.551L370.597 367.5ZM370.765 402.83L371.712 402.569L371.709 402.56L370.765 402.83ZM372.415 404.508L372.038 405.415L372.05 405.42L372.063 405.425L372.415 404.508ZM374.29 405.04H375.272V404.25L374.5 404.08L374.29 405.04ZM374.29 406.075V407.057H375.272V406.075H374.29ZM363.744 406.075H362.762V407.057H363.744V406.075ZM363.744 405.04L363.433 404.108L362.762 404.332V405.04H363.744ZM364.947 404.788L365.129 405.753L365.136 405.751L365.144 405.75L364.947 404.788ZM367.045 371.081L366.177 371.541L366.178 371.543L367.045 371.081ZM364.024 370.185L363.053 370.337L363.183 371.167H364.024V370.185ZM363.884 369.29L363.631 368.341L362.777 368.569L362.913 369.442L363.884 369.29ZM369.615 367.5V399.725H371.579V367.5H369.615ZM369.615 399.725C369.615 400.572 369.629 401.27 369.658 401.813C369.686 402.325 369.731 402.785 369.821 403.1L371.709 402.56C371.687 402.483 371.648 402.229 371.62 401.707C371.593 401.214 371.579 400.556 371.579 399.725H369.615ZM369.818 403.09C370.123 404.2 370.941 404.958 372.038 405.415L372.793 403.602C372.099 403.313 371.817 402.951 371.712 402.569L369.818 403.09ZM372.063 405.425C372.611 405.636 373.288 405.825 374.079 405.999L374.5 404.08C373.762 403.918 373.19 403.754 372.768 403.592L372.063 405.425ZM373.307 405.04V406.075H375.272V405.04H373.307ZM374.29 405.093H363.744V407.057H374.29V405.093ZM364.726 406.075V405.04H362.762V406.075H364.726ZM364.054 405.971C364.046 405.974 364.114 405.955 364.33 405.91C364.521 405.87 364.787 405.818 365.129 405.753L364.764 403.823C364.115 403.946 363.625 404.044 363.433 404.108L364.054 405.971ZM365.144 405.75C366.123 405.55 366.942 405.071 367.496 404.27C368.034 403.491 368.25 402.512 368.25 401.431H366.286C366.286 402.271 366.116 402.812 365.88 403.152C365.66 403.47 365.319 403.709 364.75 403.826L365.144 405.75ZM368.25 401.431V373.206H366.286V401.431H368.25ZM368.25 373.206C368.25 372.621 368.231 372.121 368.189 371.719C368.151 371.357 368.083 370.941 367.911 370.618L366.178 371.543C366.155 371.5 366.199 371.578 366.236 371.925C366.268 372.231 366.286 372.654 366.286 373.206H368.25ZM367.912 370.62C367.576 369.987 366.95 369.651 366.331 369.468C365.698 369.28 364.916 369.203 364.024 369.203V371.167C364.828 371.167 365.398 371.24 365.773 371.351C366.16 371.466 366.196 371.577 366.177 371.541L367.912 370.62ZM364.994 370.034L364.854 369.139L362.913 369.442L363.053 370.337L364.994 370.034ZM364.137 370.239L370.85 368.449L370.344 366.551L363.631 368.341L364.137 370.239ZM394.29 375.248L393.309 375.221L393.308 375.254L393.309 375.286L394.29 375.248ZM394.766 376.675L393.939 377.205L393.943 377.212L394.766 376.675ZM403.13 389.487L402.307 390.024L403.159 391.328L403.969 389.997L403.13 389.487ZM404.305 387.557L403.467 387.044L403.466 387.046L404.305 387.557ZM411.578 375.025L410.596 374.982L410.595 375.003V375.025H411.578ZM410.794 374.241L410.595 375.203L410.611 375.206L410.627 375.209L410.794 374.241ZM407.773 374.018H406.791V374.975L407.748 374.999L407.773 374.018ZM407.773 372.787V371.805H406.791V372.787H407.773ZM418.599 372.787H419.581V371.805H418.599V372.787ZM418.599 374.018L419.038 374.896L419.581 374.625V374.018H418.599ZM418.263 374.046V373.064H418.238L418.213 373.065L418.263 374.046ZM414.347 375.584L415.106 376.207L415.106 376.207L414.347 375.584ZM405.815 389.011L404.967 388.517L404.965 388.519L405.815 389.011ZM404.221 391.808L403.357 391.341L403.239 391.56V391.808H404.221ZM404.528 404.005L403.779 404.639L404.528 404.005ZM405.759 404.564L405.555 405.525L405.564 405.527L405.572 405.528L405.759 404.564ZM407.633 404.928H408.615V404.118L407.82 403.964L407.633 404.928ZM407.633 406.075V407.057H408.615V406.075H407.633ZM396.752 406.075H395.77V407.057H396.752V406.075ZM396.752 404.984L396.553 404.022L395.77 404.184V404.984H396.752ZM398.374 404.648L398.573 405.61L398.574 405.61L398.374 404.648ZM400.137 403.473L399.211 403.145L399.206 403.158L399.202 403.172L400.137 403.473ZM400.444 391.808H401.426V391.541L401.291 391.31L400.444 391.808ZM390.989 377.011L391.735 376.371L391.73 376.366L390.989 377.011ZM386.262 374.018H385.28V375.013L386.275 375L386.262 374.018ZM386.262 372.787V371.805H385.28V372.787H386.262ZM403.633 374.717H404.615V374.71L404.615 374.703L403.633 374.717ZM402.179 376.731L402.489 377.663L402.51 377.656L402.531 377.648L402.179 376.731ZM398.402 375.752L397.756 376.491L397.764 376.498L397.772 376.505L398.402 375.752ZM396.668 374.409L396.256 375.301L396.269 375.307L396.281 375.312L396.668 374.409ZM395.969 373.259C395.349 373.259 394.723 373.349 394.219 373.651C393.641 373.997 393.327 374.562 393.309 375.221L395.272 375.276C395.273 375.245 395.278 375.261 395.257 375.297C395.236 375.334 395.215 375.344 395.229 375.335C395.249 375.323 395.311 375.293 395.439 375.267C395.567 375.241 395.741 375.224 395.969 375.224V373.259ZM393.309 375.286C393.335 375.969 393.559 376.612 393.939 377.204L395.593 376.146C395.375 375.806 395.283 375.497 395.272 375.211L393.309 375.286ZM393.943 377.212L402.307 390.024L403.952 388.95L395.588 376.138L393.943 377.212ZM403.969 389.997L405.143 388.067L403.466 387.046L402.291 388.976L403.969 389.997ZM405.142 388.069C407.568 384.105 409.391 381.071 410.609 378.972C411.217 377.924 411.679 377.1 411.992 376.507C412.147 376.211 412.273 375.96 412.362 375.76C412.406 375.66 412.447 375.559 412.48 375.463C412.502 375.398 412.56 375.225 412.56 375.025H410.595C410.595 374.878 410.635 374.788 410.619 374.835C410.613 374.851 410.598 374.891 410.566 374.963C410.503 375.104 410.401 375.311 410.254 375.592C409.96 376.149 409.514 376.946 408.91 377.986C407.704 380.065 405.89 383.083 403.467 387.044L405.142 388.069ZM412.559 375.067C412.578 374.627 412.448 374.17 412.09 373.813C411.762 373.484 411.339 373.339 410.961 373.274L410.627 375.209C410.702 375.222 410.74 375.236 410.75 375.241C410.76 375.245 410.736 375.237 410.701 375.202C410.664 375.164 410.631 375.114 410.612 375.06C410.595 375.009 410.596 374.978 410.596 374.982L412.559 375.067ZM410.993 373.28C410.355 373.148 409.264 373.073 407.798 373.036L407.748 374.999C409.229 375.037 410.152 375.112 410.595 375.203L410.993 373.28ZM408.755 374.018V372.787H406.791V374.018H408.755ZM407.773 373.769H418.599V371.805H407.773V373.769ZM417.617 372.787V374.018H419.581V372.787H417.617ZM418.16 373.139C418.224 373.107 418.277 373.09 418.306 373.081C418.338 373.072 418.362 373.067 418.376 373.065C418.402 373.06 418.414 373.059 418.405 373.06C418.399 373.061 418.384 373.061 418.358 373.062C418.333 373.063 418.302 373.064 418.263 373.064V375.028C418.368 375.028 418.473 375.025 418.568 375.017C418.616 375.013 418.675 375.007 418.738 374.995C418.786 374.986 418.906 374.962 419.038 374.896L418.16 373.139ZM418.213 373.065C416.237 373.165 414.603 373.723 413.587 374.961L415.106 376.207C415.62 375.58 416.596 375.113 418.313 375.026L418.213 373.065ZM413.588 374.961C411.907 377.009 409.024 381.556 404.967 388.517L406.664 389.506C410.737 382.517 413.542 378.112 415.106 376.207L413.588 374.961ZM404.965 388.519C404.146 389.934 403.607 390.879 403.357 391.341L405.084 392.276C405.319 391.843 405.843 390.923 406.665 389.503L404.965 388.519ZM403.239 391.808V401.823H405.203V391.808H403.239ZM403.239 401.823C403.239 402.449 403.265 402.986 403.325 403.414C403.355 403.629 403.397 403.838 403.458 404.029C403.514 404.208 403.608 404.438 403.779 404.639L405.278 403.37C405.346 403.45 405.35 403.498 405.33 403.435C405.313 403.383 405.291 403.289 405.27 403.14C405.228 402.842 405.203 402.408 405.203 401.823H403.239ZM403.779 404.639C404.208 405.147 404.903 405.386 405.555 405.525L405.963 403.603C405.7 403.548 405.517 403.487 405.396 403.432C405.272 403.376 405.256 403.344 405.278 403.37L403.779 404.639ZM405.572 405.528L407.446 405.892L407.82 403.964L405.946 403.6L405.572 405.528ZM406.651 404.928V406.075H408.615V404.928H406.651ZM407.633 405.093H396.752V407.057H407.633V405.093ZM397.734 406.075V404.984H395.77V406.075H397.734ZM396.951 405.945L398.573 405.61L398.175 403.686L396.553 404.022L396.951 405.945ZM398.574 405.61C399.669 405.382 400.718 404.87 401.071 403.775L399.202 403.172C399.182 403.233 399.056 403.504 398.175 403.686L398.574 405.61ZM401.062 403.802C401.331 403.045 401.426 401.824 401.426 400.284H399.462C399.462 401.84 399.353 402.745 399.211 403.145L401.062 403.802ZM401.426 400.284V391.808H399.462V400.284H401.426ZM401.291 391.31C396.588 383.318 393.389 378.298 391.735 376.371L390.244 377.651C391.76 379.416 394.864 384.261 399.598 392.306L401.291 391.31ZM391.73 376.366C389.945 374.314 388.111 373.011 386.249 373.036L386.275 375C387.21 374.987 388.528 375.679 390.249 377.656L391.73 376.366ZM387.244 374.018V372.787H385.28V374.018H387.244ZM386.262 373.769H400.808V371.805H386.262V373.769ZM400.808 373.769C401.657 373.769 402.125 373.921 402.359 374.08C402.529 374.197 402.646 374.36 402.651 374.731L404.615 374.703C404.602 373.788 404.238 372.986 403.467 372.458C402.759 371.975 401.824 371.805 400.808 371.805V373.769ZM402.651 374.717C402.651 375.032 402.575 375.232 402.473 375.373C402.368 375.519 402.178 375.679 401.826 375.814L402.531 377.648C403.149 377.41 403.686 377.048 404.066 376.523C404.449 375.992 404.615 375.372 404.615 374.717H402.651ZM401.868 375.799C401.621 375.882 401.4 375.917 401.2 375.917V377.881C401.634 377.881 402.065 377.804 402.489 377.663L401.868 375.799ZM401.2 375.917C400.532 375.917 399.815 375.654 399.032 374.999L397.772 376.505C398.817 377.379 399.965 377.881 401.2 377.881V375.917ZM399.049 375.013C398.595 374.615 398.21 374.293 397.899 374.052C397.615 373.833 397.315 373.618 397.055 373.507L396.281 375.312C396.265 375.305 396.291 375.315 396.378 375.373C396.458 375.426 396.563 375.502 396.696 375.605C396.963 375.812 397.315 376.105 397.756 376.491L399.049 375.013ZM397.079 373.518C396.733 373.357 396.359 373.259 395.969 373.259V375.224C396.025 375.224 396.118 375.237 396.256 375.301L397.079 373.518ZM416.78 395.361H415.798L415.798 395.367L416.78 395.361ZM419.69 386.745L420.447 387.371L420.449 387.368L419.69 386.745ZM434.571 403.137L435.329 403.762L435.329 403.762L434.571 403.137ZM427.298 406.97V405.988L427.292 405.988L427.298 406.97ZM419.857 403.697L419.133 404.36L419.136 404.363L419.857 403.697ZM426.347 385.291L426.355 384.309H426.347V385.291ZM422.207 401.767L421.381 402.298L421.387 402.306L422.207 401.767ZM427.578 404.9L427.57 405.882H427.578V404.9ZM432.222 402.186L431.369 401.699L431.367 401.702L432.222 402.186ZM431.886 388.564L431.039 389.06L431.886 388.564ZM417.763 395.361C417.763 392.167 418.67 389.524 420.447 387.371L418.932 386.12C416.831 388.666 415.798 391.766 415.798 395.361H417.763ZM420.449 387.368C422.224 385.201 424.315 384.175 426.767 384.175V382.211C423.661 382.211 421.034 383.553 418.93 386.123L420.449 387.368ZM426.767 384.175C429.291 384.175 431.503 385.148 433.442 387.173L434.861 385.814C432.585 383.438 429.874 382.211 426.767 382.211V384.175ZM433.442 387.173C435.357 389.172 436.331 391.69 436.331 394.802H438.295C438.295 391.237 437.161 388.216 434.861 385.814L433.442 387.173ZM436.331 394.802C436.331 397.95 435.473 400.497 433.813 402.513L435.329 403.762C437.325 401.339 438.295 398.329 438.295 394.802H436.331ZM433.814 402.513C431.85 404.893 429.685 405.988 427.298 405.988V407.952C430.394 407.952 433.078 406.492 435.329 403.762L433.814 402.513ZM427.292 405.988C424.648 406.005 422.429 405.034 420.579 403.031L419.136 404.363C421.351 406.761 424.093 407.972 427.305 407.952L427.292 405.988ZM420.582 403.034C418.732 401.014 417.78 398.479 417.763 395.356L415.798 395.367C415.818 398.92 416.918 401.941 419.133 404.36L420.582 403.034ZM426.347 384.309C424.002 384.309 422.172 385.406 420.943 387.475L422.632 388.478C423.53 386.966 424.739 386.273 426.347 386.273V384.309ZM420.943 387.475C419.768 389.454 419.211 391.867 419.211 394.662H421.175C421.175 392.123 421.681 390.079 422.632 388.478L420.943 387.475ZM419.211 394.662C419.211 397.485 419.93 400.04 421.381 402.298L423.033 401.236C421.799 399.316 421.175 397.135 421.175 394.662H419.211ZM421.387 402.306C422.903 404.613 424.981 405.86 427.57 405.882L427.586 403.918C425.737 403.902 424.234 403.061 423.028 401.227L421.387 402.306ZM427.578 405.882C430.004 405.882 431.877 404.786 433.076 402.671L431.367 401.702C430.515 403.205 429.292 403.918 427.578 403.918V405.882ZM433.074 402.674C434.217 400.674 434.77 398.356 434.77 395.753H432.806C432.806 398.073 432.315 400.043 431.369 401.699L433.074 402.674ZM434.77 395.753C434.77 392.957 434.094 390.388 432.733 388.067L431.039 389.06C432.214 391.065 432.806 393.289 432.806 395.753H434.77ZM432.733 388.067C431.297 385.618 429.139 384.33 426.355 384.309L426.34 386.273C428.404 386.289 429.938 387.183 431.039 389.06L432.733 388.067ZM439.83 384.703H438.848V385.901L440.023 385.666L439.83 384.703ZM439.83 383.584V382.602H438.848V383.584H439.83ZM446.236 383.584H447.218V382.602H446.236V383.584ZM446.152 397.962L445.171 397.927L445.171 397.929L446.152 397.962ZM450.712 404.536L450.7 405.518H450.712V404.536ZM456.95 386.074L456.018 386.385L456.95 386.074ZM453.761 384.731H452.779V385.713H453.761V384.731ZM453.761 383.584V382.602H452.779V383.584H453.761ZM460.754 383.584H461.736V382.602H460.754V383.584ZM462.013 403.641L461.597 404.531L461.612 404.538L461.626 404.544L462.013 403.641ZM464.251 403.809L465.223 403.67L465.096 402.782L464.201 402.828L464.251 403.809ZM464.39 404.788L464.71 405.717L465.477 405.453L465.363 404.649L464.39 404.788ZM458.292 406.886L457.345 407.144L457.621 408.156L458.612 407.815L458.292 406.886ZM457.285 403.193L458.233 402.935L457.795 401.331L456.602 402.488L457.285 403.193ZM456.362 404.089L457.004 404.832L457.025 404.813L457.046 404.794L456.362 404.089ZM449.481 406.942V407.924L449.488 407.924L449.481 406.942ZM443.579 403.529L442.672 403.907L442.672 403.908L443.579 403.529ZM441.313 384.927L441.846 384.103L441.835 384.095L441.823 384.088L441.313 384.927ZM440.812 384.703V383.584H438.848V384.703H440.812ZM439.83 384.567H446.236V382.602H439.83V384.567ZM445.254 383.584V395.277H447.218V383.584H445.254ZM445.254 395.277C445.254 395.515 445.227 396.386 445.171 397.927L447.133 397.998C447.189 396.48 447.218 395.561 447.218 395.277H445.254ZM445.171 397.929C445.093 400.19 445.438 402.076 446.373 403.424C447.351 404.834 448.859 405.497 450.7 405.518L450.723 403.554C449.376 403.538 448.529 403.086 447.987 402.305C447.403 401.462 447.062 400.08 447.134 397.996L445.171 397.929ZM450.712 405.518C452.783 405.518 454.576 404.675 456.05 403.076L454.605 401.745C453.467 402.98 452.183 403.554 450.712 403.554V405.518ZM456.05 403.076C457.508 401.492 458.267 399.655 458.267 397.599H456.303C456.303 399.123 455.757 400.494 454.605 401.745L456.05 403.076ZM458.267 397.599V390.801H456.303V397.599H458.267ZM458.267 390.801C458.267 389.55 458.239 388.51 458.181 387.69C458.125 386.895 458.035 386.226 457.881 385.763L456.018 386.385C456.088 386.594 456.166 387.048 456.222 387.829C456.275 388.585 456.303 389.573 456.303 390.801H458.267ZM457.881 385.763C457.623 384.989 457.039 384.469 456.31 384.162C455.608 383.866 454.738 383.749 453.761 383.749V385.713C454.611 385.713 455.186 385.82 455.547 385.972C455.881 386.113 455.978 386.264 456.018 386.385L457.881 385.763ZM454.743 384.731V383.584H452.779V384.731H454.743ZM453.761 384.567H460.754V382.602H453.761V384.567ZM459.772 383.584V400.005H461.736V383.584H459.772ZM459.772 400.005C459.772 401.074 459.88 402.008 460.141 402.759C460.403 403.518 460.856 404.185 461.597 404.531L462.428 402.751C462.33 402.705 462.154 402.571 461.997 402.117C461.837 401.656 461.736 400.968 461.736 400.005H459.772ZM461.626 404.544C461.969 404.691 462.38 404.757 462.792 404.788C463.221 404.82 463.726 404.819 464.3 404.79L464.201 402.828C463.674 402.855 463.257 402.853 462.939 402.829C462.606 402.804 462.448 402.759 462.4 402.738L461.626 404.544ZM463.278 403.948L463.418 404.927L465.363 404.649L465.223 403.67L463.278 403.948ZM464.071 403.859L457.973 405.957L458.612 407.815L464.71 405.717L464.071 403.859ZM459.24 406.627L458.233 402.935L456.338 403.452L457.345 407.144L459.24 406.627ZM456.602 402.488L455.678 403.384L457.046 404.794L457.969 403.898L456.602 402.488ZM455.72 403.345C453.678 405.108 451.602 405.943 449.473 405.96L449.488 407.924C452.171 407.903 454.682 406.836 457.004 404.832L455.72 403.345ZM449.481 405.96C448.109 405.96 447.054 405.698 446.259 405.238C445.477 404.787 444.885 404.108 444.485 403.15L442.672 403.908C443.223 405.226 444.09 406.253 445.276 406.939C446.449 407.617 447.869 407.924 449.481 407.924V405.96ZM444.485 403.151C443.996 401.978 443.721 400.297 443.721 398.046H441.757C441.757 400.421 442.042 402.395 442.672 403.907L444.485 403.151ZM443.721 398.046V389.291H441.757V398.046H443.721ZM443.721 389.291C443.721 388.087 443.598 387.036 443.316 386.174C443.033 385.308 442.568 384.569 441.846 384.103L440.779 385.752C441.009 385.9 441.257 386.196 441.449 386.785C441.643 387.377 441.757 388.201 441.757 389.291H443.721ZM441.823 384.088C441.155 383.681 440.403 383.587 439.638 383.74L440.023 385.666C440.376 385.596 440.613 385.651 440.802 385.766L441.823 384.088ZM482.545 387.249L482.429 388.224L482.486 388.231H482.545V387.249ZM479.496 386.885L479.612 385.91L479.548 385.902L479.484 385.903L479.496 386.885ZM475.747 389.207L474.918 388.681L474.912 388.691L474.905 388.702L475.747 389.207ZM477.062 404.48L477.757 403.786L477.609 403.638L477.415 403.564L477.062 404.48ZM478.069 404.788L477.799 405.732L477.812 405.736L477.825 405.739L478.069 404.788ZM479.132 405.068H480.114V404.36L479.443 404.136L479.132 405.068ZM479.132 406.075V407.057H480.114V406.075H479.132ZM468.53 406.075H467.548V407.057H468.53V406.075ZM468.53 405.068L467.986 404.25L467.548 404.542V405.068H468.53ZM469.09 404.9L469.315 405.856L469.316 405.856L469.09 404.9ZM471.663 403.417L472.522 403.894L472.532 403.876L472.542 403.856L471.663 403.417ZM471.971 402.186L472.952 402.227L472.953 402.207V402.186H471.971ZM470.544 386.801L470.352 387.764L470.355 387.765L470.544 386.801ZM468.726 386.661L467.754 386.8L467.87 387.61L468.687 387.643L468.726 386.661ZM468.586 385.682L468.236 384.765L467.503 385.045L467.614 385.821L468.586 385.682ZM475.468 383.053L476.45 383.04L476.432 381.633L475.117 382.136L475.468 383.053ZM475.524 387.473L474.542 387.485L474.572 389.907L476.237 388.148L475.524 387.473ZM476.503 386.438L475.834 385.718L475.811 385.74L475.789 385.763L476.503 386.438ZM484.503 385.235H485.485V385.227L485.485 385.219L484.503 385.235ZM483.356 387.109L483.686 388.034L483.71 388.026L483.732 388.016L483.356 387.109ZM482.661 386.274L479.612 385.91L479.379 387.86L482.429 388.224L482.661 386.274ZM479.484 385.903C477.557 385.927 476.028 386.931 474.918 388.681L476.577 389.733C477.407 388.424 478.376 387.881 479.508 387.867L479.484 385.903ZM474.905 388.702C474.433 389.489 474.262 390.552 474.262 391.753H476.226C476.226 390.677 476.391 390.044 476.59 389.712L474.905 388.702ZM474.262 391.753V401.711H476.226V391.753H474.262ZM474.262 401.711C474.262 402.545 474.446 403.32 474.878 403.977C475.312 404.639 475.946 405.103 476.71 405.397L477.415 403.564C476.966 403.391 476.691 403.16 476.519 402.899C476.345 402.634 476.226 402.257 476.226 401.711H474.262ZM476.368 405.175C476.446 405.253 476.52 405.3 476.547 405.316C476.582 405.338 476.612 405.354 476.63 405.363C476.667 405.381 476.698 405.394 476.716 405.401C476.752 405.416 476.789 405.429 476.818 405.439C476.878 405.46 476.954 405.484 477.041 405.51C477.218 405.564 477.472 405.639 477.799 405.732L478.339 403.844C478.014 403.751 477.774 403.68 477.615 403.632C477.534 403.607 477.482 403.591 477.453 403.581C477.438 403.575 477.44 403.576 477.452 403.581C477.458 403.583 477.479 403.592 477.509 403.606C477.523 403.614 477.55 403.628 477.583 403.648C477.607 403.663 477.679 403.709 477.757 403.786L476.368 405.175ZM477.825 405.739C478.15 405.823 478.4 405.888 478.574 405.933C478.771 405.985 478.832 406.003 478.822 405.999L479.443 404.136C479.344 404.103 478.936 403.997 478.314 403.837L477.825 405.739ZM478.15 405.068V406.075H480.114V405.068H478.15ZM479.132 405.093H468.53V407.057H479.132V405.093ZM469.512 406.075V405.068H467.548V406.075H469.512ZM469.075 405.885C469.029 405.916 468.992 405.933 468.978 405.94C468.961 405.948 468.95 405.952 468.949 405.953C468.948 405.953 468.961 405.948 468.994 405.938C469.06 405.919 469.165 405.891 469.315 405.856L468.865 403.944C468.698 403.983 468.551 404.021 468.43 404.057C468.358 404.079 468.155 404.138 467.986 404.25L469.075 405.885ZM469.316 405.856C470.729 405.522 471.94 404.941 472.522 403.894L470.805 402.94C470.641 403.236 470.137 403.644 468.864 403.944L469.316 405.856ZM472.542 403.856C472.795 403.35 472.928 402.803 472.952 402.227L470.99 402.146C470.977 402.465 470.905 402.738 470.785 402.978L472.542 403.856ZM472.953 402.186V388.424H470.989V402.186H472.953ZM472.953 388.424C472.953 387.798 472.783 387.189 472.352 386.698C471.929 386.217 471.349 385.958 470.733 385.838L470.355 387.765C470.691 387.831 470.825 387.936 470.877 387.995C470.921 388.046 470.989 388.155 470.989 388.424H472.953ZM470.737 385.838C470.367 385.764 469.68 385.717 468.765 385.68L468.687 387.643C469.637 387.681 470.162 387.726 470.352 387.764L470.737 385.838ZM469.698 386.523L469.559 385.543L467.614 385.821L467.754 386.8L469.698 386.523ZM468.937 386.6L475.818 383.97L475.117 382.136L468.236 384.765L468.937 386.6ZM474.486 383.065L474.542 387.485L476.506 387.46L476.45 383.04L474.486 383.065ZM476.237 388.148L477.216 387.113L475.789 385.763L474.81 386.798L476.237 388.148ZM477.171 387.157C479.174 385.296 481.007 384.483 482.685 384.483V382.518C480.334 382.518 478.046 383.663 475.834 385.718L477.171 387.157ZM482.685 384.483C483.136 384.483 483.301 384.592 483.357 384.645C483.406 384.692 483.514 384.833 483.521 385.251L485.485 385.219C485.473 384.48 485.269 383.754 484.712 383.223C484.161 382.698 483.427 382.518 482.685 382.518V384.483ZM483.521 385.235C483.521 385.569 483.453 385.769 483.379 385.89C483.31 386.003 483.197 386.112 482.98 386.202L483.732 388.016C484.28 387.789 484.741 387.427 485.054 386.915C485.362 386.412 485.485 385.833 485.485 385.235H483.521ZM483.026 386.184C482.872 386.239 482.713 386.267 482.545 386.267V388.231C482.936 388.231 483.318 388.165 483.686 388.034L483.026 386.184ZM502.657 386.913L502.647 387.895H502.657V386.913ZM504.056 386.074L503.473 385.283L503.439 385.309L503.406 385.338L504.056 386.074ZM506.741 384.815V383.833H506.704L506.666 383.836L506.741 384.815ZM508.7 386.522L509.679 386.45L509.678 386.438L509.677 386.425L508.7 386.522ZM507.637 388.312L508.092 389.182L508.105 389.175L508.117 389.168L507.637 388.312ZM501.79 388.144L502.101 387.212L502.096 387.211L501.79 388.144ZM496.979 383.445L496.054 383.774L496.058 383.785L496.979 383.445ZM501.371 373.234L501.636 374.18L501.645 374.177L501.371 373.234ZM529.903 371.5L530.709 372.061L530.717 372.05L530.724 372.039L529.903 371.5ZM530.49 368.815V367.833H529.508V368.815H530.49ZM531.665 368.815L532.607 368.534L532.398 367.833H531.665V368.815ZM531.637 373.654L532.34 374.34L532.348 374.331L531.637 373.654ZM527.917 374.969V375.951H527.949L527.98 375.949L527.917 374.969ZM517.343 374.969V373.987H516.361V374.969H517.343ZM517.707 403.585L516.816 403.999L516.822 404.011L517.707 403.585ZM519.413 404.62L519.213 405.582L519.221 405.583L519.23 405.585L519.413 404.62ZM521.036 404.928H522.018V404.114L521.219 403.963L521.036 404.928ZM521.036 406.075V407.057H522.018V406.075H521.036ZM510.182 406.075H509.2V407.057H510.182V406.075ZM510.182 404.9L509.973 403.94L509.2 404.108V404.9H510.182ZM512.112 404.48L511.905 403.52L511.904 403.521L512.112 404.48ZM513.399 403.837L514.241 404.342L514.267 404.3L514.288 404.255L513.399 403.837ZM513.623 374.969H514.605V373.987H513.623V374.969ZM500.336 378.829L499.375 378.627L499.374 378.632L500.336 378.829ZM499.13 381.179C499.13 383.124 499.342 384.719 499.851 385.864C500.11 386.448 500.465 386.959 500.95 387.327C501.447 387.704 502.026 387.888 502.647 387.895L502.668 385.931C502.44 385.929 502.277 385.868 502.137 385.762C501.986 385.647 501.811 385.439 501.646 385.067C501.306 384.301 501.094 383.038 501.094 381.179H499.13ZM502.657 387.895C503.078 387.895 503.458 387.713 503.736 387.546C504.04 387.363 504.366 387.111 504.706 386.81L503.406 385.338C503.112 385.597 502.887 385.764 502.726 385.861C502.646 385.909 502.597 385.931 502.575 385.938C502.551 385.947 502.583 385.931 502.657 385.931V387.895ZM504.639 386.865C505.657 386.114 506.369 385.829 506.817 385.794L506.666 383.836C505.66 383.913 504.581 384.467 503.473 385.283L504.639 386.865ZM506.741 385.797C507.191 385.797 507.391 385.904 507.481 385.982C507.564 386.055 507.683 386.216 507.722 386.618L509.677 386.425C509.605 385.689 509.341 384.998 508.771 384.501C508.208 384.011 507.486 383.833 506.741 383.833V385.797ZM507.72 386.593C507.735 386.797 507.695 386.934 507.631 387.041C507.562 387.157 507.427 387.303 507.156 387.455L508.117 389.168C508.611 388.891 509.035 388.525 509.32 388.044C509.611 387.555 509.72 387.011 509.679 386.45L507.72 386.593ZM507.181 387.442C506.925 387.576 506.671 387.637 506.406 387.637V389.602C506.998 389.602 507.564 389.458 508.092 389.182L507.181 387.442ZM506.406 387.637C504.294 387.637 502.892 387.476 502.101 387.212L501.48 389.076C502.591 389.446 504.265 389.602 506.406 389.602V387.637ZM502.096 387.211C500.059 386.543 498.676 385.201 497.9 383.104L496.058 383.785C497.035 386.425 498.859 388.216 501.484 389.077L502.096 387.211ZM497.904 383.115C497.552 382.126 497.374 381.073 497.374 379.948H495.409C495.409 381.285 495.622 382.562 496.054 383.774L497.904 383.115ZM497.374 379.948C497.374 378.329 497.751 377.106 498.425 376.197C499.097 375.291 500.135 374.602 501.636 374.18L501.105 372.289C499.287 372.8 497.835 373.695 496.847 375.027C495.862 376.356 495.409 378.023 495.409 379.948H497.374ZM501.645 374.177C502.57 373.908 503.596 373.769 504.727 373.769V371.805C503.435 371.805 502.222 371.964 501.096 372.291L501.645 374.177ZM504.727 373.769H525.931V371.805H504.727V373.769ZM525.931 373.769C528.016 373.769 529.81 373.353 530.709 372.061L529.097 370.939C528.802 371.363 527.948 371.805 525.931 371.805V373.769ZM530.724 372.039C531.27 371.207 531.473 370.084 531.473 368.815H529.508C529.508 369.932 529.319 370.599 529.082 370.961L530.724 372.039ZM530.49 369.797H531.665V367.833H530.49V369.797ZM530.724 369.095C531.074 370.271 531.226 371.181 531.222 371.851C531.218 372.528 531.058 372.838 530.926 372.977L532.348 374.331C532.962 373.687 533.18 372.799 533.186 371.862C533.191 370.92 532.984 369.802 532.607 368.534L530.724 369.095ZM530.934 372.968C530.437 373.478 529.489 373.883 527.854 373.989L527.98 375.949C529.814 375.831 531.346 375.359 532.34 374.34L530.934 372.968ZM527.917 373.987H517.343V375.951H527.917V373.987ZM516.361 374.969V400.228H518.325V374.969H516.361ZM516.361 400.228C516.361 401.105 516.392 401.852 516.458 402.46C516.521 403.045 516.625 403.587 516.816 403.999L518.598 403.171C518.546 403.061 518.468 402.783 518.41 402.248C518.355 401.737 518.325 401.067 518.325 400.228H516.361ZM516.822 404.011C517.263 404.927 518.208 405.372 519.213 405.582L519.613 403.659C518.828 403.495 518.636 403.25 518.592 403.159L516.822 404.011ZM519.23 405.585L520.853 405.893L521.219 403.963L519.596 403.655L519.23 405.585ZM520.053 404.928V406.075H522.018V404.928H520.053ZM521.036 405.093H510.182V407.057H521.036V405.093ZM511.164 406.075V404.9H509.2V406.075H511.164ZM510.391 405.859L512.321 405.44L511.904 403.521L509.973 403.94L510.391 405.859ZM512.32 405.44C512.711 405.355 513.077 405.243 513.391 405.086C513.698 404.932 514.026 404.701 514.241 404.342L512.557 403.332C512.604 403.253 512.634 403.268 512.512 403.329C512.397 403.387 512.203 403.456 511.905 403.52L512.32 405.44ZM514.288 404.255C514.434 403.944 514.503 403.561 514.543 403.196C514.586 402.806 514.605 402.336 514.605 401.795H512.641C512.641 402.298 512.623 402.69 512.591 402.982C512.575 403.127 512.556 403.236 512.539 403.316C512.52 403.399 512.507 403.427 512.51 403.419L514.288 404.255ZM514.605 401.795V374.969H512.641V401.795H514.605ZM513.623 373.987H504.392V375.951H513.623V373.987ZM504.392 373.987C503.101 373.987 501.966 374.378 501.078 375.222C500.21 376.049 499.67 377.222 499.375 378.627L501.297 379.031C501.542 377.862 501.948 377.106 502.432 376.645C502.897 376.203 503.519 375.951 504.392 375.951V373.987ZM499.374 378.632C499.209 379.432 499.13 380.282 499.13 381.179H501.094C501.094 380.397 501.163 379.681 501.298 379.026L499.374 378.632ZM550.491 403.697L551.403 404.062L551.665 403.407L551.128 402.95L550.491 403.697ZM550.071 404.368L549.261 403.814L549.251 403.829L549.241 403.844L550.071 404.368ZM549.176 405.487L548.465 404.81L548.457 404.819L548.448 404.828L549.176 405.487ZM547.946 406.522L547.416 405.695L547.405 405.702L547.393 405.71L547.946 406.522ZM543.106 403.641L542.142 403.828L542.143 403.834L543.106 403.641ZM542.882 402.102L543.861 402.021L543.702 400.107L542.243 401.357L542.882 402.102ZM540.729 404.732L541.412 405.437L541.417 405.432L541.423 405.426L540.729 404.732ZM538.519 406.298L538.057 405.431L538.05 405.436L538.519 406.298ZM533.763 406.774L533.525 407.727L533.532 407.728L533.763 406.774ZM532.141 406.019L531.542 406.797L531.552 406.804L531.561 406.812L532.141 406.019ZM530.938 404.536L530.06 404.975L530.065 404.986L530.938 404.536ZM531.777 398.886L531.083 398.191L531.777 398.886ZM535.05 396.816L534.697 395.899L535.05 396.816ZM538.631 395.725L538.83 396.686L538.842 396.684L538.631 395.725ZM542.547 394.913L542.737 395.877L543.529 395.721V394.913H542.547ZM542.491 388.703L541.509 388.732L541.51 388.748L541.511 388.763L542.491 388.703ZM542.155 386.885L541.218 387.178L541.223 387.196L541.23 387.214L542.155 386.885ZM541.204 385.375L540.51 386.069L540.525 386.084L540.54 386.099L541.204 385.375ZM536.84 385.319L536.335 384.477L536.324 384.483L536.84 385.319ZM535.442 386.382L534.726 385.709L535.442 386.382ZM534.211 387.78L534.326 388.756L534.71 388.711L534.96 388.416L534.211 387.78ZM532.7 387.752L532.405 388.689L532.433 388.698L532.462 388.705L532.7 387.752ZM531.805 387.277L531.111 387.971L531.14 388L531.171 388.027L531.805 387.277ZM532.7 384.843L532.201 383.998L532.7 384.843ZM535.889 383.556L536.159 384.501L536.168 384.498L535.889 383.556ZM542.323 383.445L541.931 384.345L541.94 384.349L541.95 384.353L542.323 383.445ZM544.113 384.703L543.369 385.345L543.375 385.351L543.381 385.357L544.113 384.703ZM545.176 386.55L544.247 386.867L544.25 386.875L545.176 386.55ZM545.68 388.759L544.705 388.875L544.706 388.887L544.708 388.898L545.68 388.759ZM545.848 391.165H544.865V391.176L544.866 391.187L545.848 391.165ZM545.848 401.291L544.867 401.343L544.867 401.344L545.848 401.291ZM546.267 403.837L545.338 404.155L545.344 404.172L545.35 404.188L546.267 403.837ZM549.54 402.886L550.177 402.139L549.267 401.362L548.683 402.407L549.54 402.886ZM542.547 396.76H543.529V395.621L542.403 395.788L542.547 396.76ZM538.659 397.515L538.413 396.564L538.409 396.565L538.659 397.515ZM536.113 398.578L535.563 397.764L535.551 397.772L536.113 398.578ZM534.686 400.032L533.852 399.515L533.847 399.523L534.686 400.032ZM538.519 404.117L537.968 403.303L538.519 404.117ZM540.281 402.578L541.009 403.238L541.014 403.232L541.019 403.226L540.281 402.578ZM542.547 399.053L543.474 399.376L543.529 399.219V399.053H542.547ZM549.579 403.332C549.593 403.297 549.602 403.285 549.587 403.312C549.575 403.333 549.555 403.366 549.525 403.414C549.466 403.51 549.379 403.642 549.261 403.814L550.882 404.923C551.007 404.74 551.111 404.583 551.191 404.455C551.258 404.348 551.347 404.2 551.403 404.062L549.579 403.332ZM549.241 403.844C549.06 404.13 548.806 404.452 548.465 404.81L549.888 406.165C550.293 405.739 550.635 405.315 550.902 404.893L549.241 403.844ZM548.448 404.828C548.155 405.152 547.812 405.441 547.416 405.695L548.475 407.349C549.011 407.006 549.489 406.605 549.905 406.146L548.448 404.828ZM547.393 405.71C547.07 405.93 546.774 406.016 546.491 406.016V407.98C547.215 407.98 547.889 407.748 548.498 407.334L547.393 405.71ZM546.491 406.016C545.912 406.016 545.551 405.883 545.318 405.709L544.139 407.28C544.802 407.777 545.615 407.98 546.491 407.98V406.016ZM545.318 405.709C544.99 405.463 544.732 405.158 544.538 404.783L542.794 405.688C543.122 406.32 543.572 406.854 544.139 407.28L545.318 405.709ZM544.538 404.783C544.319 404.362 544.163 403.918 544.069 403.448L542.143 403.834C542.273 404.483 542.49 405.102 542.794 405.688L544.538 404.783ZM544.07 403.454C543.963 402.901 543.895 402.424 543.861 402.021L541.904 402.184C541.945 402.676 542.025 403.225 542.142 403.828L544.07 403.454ZM542.243 401.357C542.093 401.486 541.945 401.667 541.823 401.828C541.686 402.007 541.525 402.233 541.342 402.502L542.968 403.605C543.14 403.352 543.277 403.159 543.383 403.021C543.502 402.864 543.542 402.831 543.522 402.848L542.243 401.357ZM541.342 402.502C541.032 402.959 540.601 403.471 540.034 404.038L541.423 405.426C542.05 404.799 542.569 404.192 542.968 403.605L541.342 402.502ZM540.045 404.027C539.526 404.53 538.868 405 538.057 405.431L538.98 407.165C539.922 406.664 540.738 406.09 541.412 405.437L540.045 404.027ZM538.05 405.436C537.358 405.812 536.526 406.016 535.526 406.016V407.98C536.8 407.98 537.964 407.718 538.988 407.161L538.05 405.436ZM535.526 406.016C535.053 406.016 534.544 405.953 533.995 405.82L533.532 407.728C534.213 407.894 534.879 407.98 535.526 407.98V406.016ZM534.001 405.821C533.525 405.702 533.1 405.503 532.72 405.226L531.561 406.812C532.151 407.243 532.808 407.548 533.525 407.727L534.001 405.821ZM532.74 405.24C532.383 404.966 532.071 404.59 531.811 404.086L530.065 404.986C530.439 405.713 530.928 406.325 531.542 406.797L532.74 405.24ZM531.816 404.097C531.586 403.635 531.445 403.013 531.445 402.186H529.48C529.48 403.225 529.656 404.169 530.06 404.975L531.816 404.097ZM531.445 402.186C531.445 401.103 531.793 400.259 532.472 399.58L531.083 398.191C530.009 399.265 529.48 400.622 529.48 402.186H531.445ZM532.472 399.58C533.239 398.812 534.209 398.192 535.403 397.732L534.697 395.899C533.28 396.446 532.068 397.206 531.083 398.191L532.472 399.58ZM535.403 397.732C536.671 397.243 537.812 396.897 538.83 396.686L538.432 394.763C537.286 395 536.04 395.381 534.697 395.899L535.403 397.732ZM538.842 396.684C539.933 396.443 541.231 396.174 542.737 395.877L542.356 393.95C540.841 394.249 539.528 394.521 538.419 394.766L538.842 396.684ZM543.529 394.913V390.242H541.565V394.913H543.529ZM543.529 390.242C543.529 389.805 543.509 389.27 543.471 388.644L541.511 388.763C541.547 389.367 541.565 389.859 541.565 390.242H543.529ZM543.472 388.675C543.451 387.942 543.321 387.234 543.081 386.557L541.23 387.214C541.399 387.692 541.493 388.197 541.509 388.732L543.472 388.675ZM543.093 386.592C542.856 385.835 542.447 385.182 541.868 384.651L540.54 386.099C540.856 386.388 541.081 386.742 541.218 387.178L543.093 386.592ZM541.899 384.68C541.228 384.01 540.316 383.749 539.33 383.749V385.713C539.984 385.713 540.322 385.882 540.51 386.069L541.899 384.68ZM539.33 383.749C538.201 383.749 537.182 383.968 536.335 384.477L537.346 386.161C537.804 385.886 538.445 385.713 539.33 385.713V383.749ZM536.324 384.483C535.661 384.893 535.111 385.3 534.726 385.709L536.157 387.055C536.369 386.829 536.752 386.528 537.356 386.154L536.324 384.483ZM534.726 385.709C534.411 386.044 533.988 386.526 533.462 387.145L534.96 388.416C535.478 387.804 535.876 387.353 536.157 387.055L534.726 385.709ZM534.096 386.805C533.513 386.874 533.145 386.851 532.938 386.8L532.462 388.705C533.002 388.84 533.641 388.836 534.326 388.756L534.096 386.805ZM532.996 386.816C532.745 386.737 532.567 386.635 532.44 386.527L531.171 388.027C531.528 388.329 531.947 388.544 532.405 388.689L532.996 386.816ZM532.5 386.582C532.493 386.575 532.452 386.544 532.452 386.382H530.487C530.487 386.965 530.67 387.531 531.111 387.971L532.5 386.582ZM532.452 386.382C532.452 386.379 532.447 386.326 532.544 386.205C532.649 386.073 532.85 385.896 533.2 385.689L532.201 383.998C531.311 384.524 530.487 385.291 530.487 386.382H532.452ZM533.2 385.689C533.925 385.26 534.903 384.86 536.159 384.501L535.619 382.612C534.265 382.999 533.117 383.456 532.201 383.998L533.2 385.689ZM536.168 384.498C537.417 384.129 538.572 383.951 539.638 383.951V381.987C538.354 381.987 537.01 382.201 535.611 382.615L536.168 384.498ZM539.638 383.951C540.609 383.951 541.361 384.097 541.931 384.345L542.715 382.544C541.83 382.158 540.792 381.987 539.638 381.987V383.951ZM541.95 384.353C542.549 384.599 543.014 384.932 543.369 385.345L544.857 384.062C544.28 383.393 543.551 382.887 542.696 382.536L541.95 384.353ZM543.381 385.357C543.754 385.775 544.044 386.274 544.247 386.867L546.105 386.232C545.824 385.408 545.405 384.676 544.846 384.049L543.381 385.357ZM544.25 386.875C544.466 387.492 544.619 388.158 544.705 388.875L546.655 388.643C546.554 387.794 546.371 386.987 546.103 386.224L544.25 386.875ZM544.708 388.898C544.813 389.634 544.865 390.389 544.865 391.165H546.83C546.83 390.3 546.771 389.451 546.652 388.621L544.708 388.898ZM544.866 391.187C544.884 392.001 544.893 392.786 544.893 393.543H546.858C546.858 392.77 546.848 391.97 546.829 391.143L544.866 391.187ZM544.893 393.543C544.893 394.951 544.875 396.322 544.838 397.655L546.801 397.71C546.839 396.358 546.858 394.969 546.858 393.543H544.893ZM544.838 397.655C544.8 399.018 544.809 400.248 544.867 401.343L546.828 401.24C546.774 400.209 546.765 399.033 546.801 397.71L544.838 397.655ZM544.867 401.344C544.925 402.437 545.074 403.385 545.338 404.155L547.196 403.518C547.013 402.983 546.882 402.234 546.828 401.239L544.867 401.344ZM545.35 404.188C545.512 404.612 545.756 405.015 546.125 405.313C546.509 405.624 546.964 405.77 547.442 405.77V403.806C547.404 403.806 547.386 403.8 547.381 403.799C547.376 403.797 547.371 403.795 547.361 403.787C547.338 403.768 547.265 403.696 547.184 403.486L545.35 404.188ZM547.442 405.77C548.108 405.77 548.68 405.46 549.144 405.04C549.603 404.624 550.016 404.047 550.397 403.365L548.683 402.407C548.355 402.992 548.065 403.367 547.824 403.585C547.588 403.799 547.466 403.806 547.442 403.806V405.77ZM548.903 403.633L549.854 404.444L551.128 402.95L550.177 402.139L548.903 403.633ZM542.403 395.788C540.869 396.015 539.537 396.273 538.413 396.564L538.904 398.466C539.943 398.197 541.203 397.952 542.691 397.731L542.403 395.788ZM538.409 396.565C537.281 396.862 536.319 397.253 535.563 397.764L536.663 399.391C537.175 399.045 537.91 398.727 538.908 398.465L538.409 396.565ZM535.551 397.772C534.846 398.264 534.269 398.842 533.852 399.515L535.521 400.55C535.775 400.141 536.149 399.75 536.675 399.384L535.551 397.772ZM533.847 399.523C533.416 400.233 533.229 401.063 533.229 401.963H535.193C535.193 401.333 535.323 400.876 535.526 400.542L533.847 399.523ZM533.229 401.963C533.229 403.018 533.458 403.993 534.089 404.709C534.741 405.45 535.666 405.742 536.672 405.742V403.778C536.038 403.778 535.732 403.603 535.564 403.412C535.374 403.196 535.193 402.772 535.193 401.963H533.229ZM536.672 405.742C537.514 405.742 538.318 405.438 539.069 404.93L537.968 403.303C537.451 403.653 537.024 403.778 536.672 403.778V405.742ZM539.069 404.93C539.771 404.455 540.418 403.889 541.009 403.238L539.553 401.919C539.062 402.46 538.534 402.92 537.968 403.303L539.069 404.93ZM541.019 403.226C541.592 402.574 542.099 401.898 542.539 401.199L540.876 400.153C540.495 400.759 540.052 401.351 539.543 401.93L541.019 403.226ZM542.539 401.199C542.966 400.52 543.29 399.907 543.474 399.376L541.619 398.731C541.505 399.058 541.27 399.526 540.876 400.153L542.539 401.199ZM543.529 399.053V396.76H541.565V399.053H543.529ZM559.918 367.5H560.9V366.24L559.678 366.548L559.918 367.5ZM559.918 385.095H558.936V387.028L560.497 385.888L559.918 385.095ZM573.233 386.018L572.522 386.696L572.529 386.702L573.233 386.018ZM572.869 403.389L573.58 404.067L573.581 404.066L572.869 403.389ZM560.729 406.494L560.497 407.449L560.5 407.449L560.729 406.494ZM556.477 404.984H555.495V405.612L556.066 405.875L556.477 404.984ZM556.309 371.164L557.221 370.8L556.309 371.164ZM553.176 370.185L552.205 370.328L552.328 371.167H553.176V370.185ZM553.037 369.234L552.797 368.282L551.936 368.499L552.065 369.377L553.037 369.234ZM559.918 403.473H558.936V404.027L559.41 404.313L559.918 403.473ZM568.618 386.801L569.127 385.962L569.121 385.958L568.618 386.801ZM564.617 385.682L564.606 386.664H564.617V385.682ZM559.918 387.473L559.299 386.71L558.936 387.005V387.473H559.918ZM558.936 367.5V385.095H560.9V367.5H558.936ZM560.497 385.888C562.176 384.663 564.178 384.035 566.548 384.035V382.071C563.808 382.071 561.39 382.805 559.339 384.302L560.497 385.888ZM566.548 384.035C568.835 384.035 570.811 384.9 572.522 386.696L573.944 385.341C571.888 383.183 569.408 382.071 566.548 382.071V384.035ZM572.529 386.702C574.197 388.42 575.104 390.965 575.104 394.494H577.068C577.068 390.638 576.073 387.532 573.937 385.334L572.529 386.702ZM575.104 394.494C575.104 397.964 574.098 400.671 572.158 402.713L573.581 404.066C575.93 401.594 577.068 398.371 577.068 394.494H575.104ZM572.159 402.712C570.035 404.939 567.591 406.016 564.785 406.016V407.98C568.171 407.98 571.116 406.651 573.58 404.067L572.159 402.712ZM564.785 406.016C563.564 406.016 562.289 405.859 560.958 405.539L560.5 407.449C561.966 407.801 563.395 407.98 564.785 407.98V406.016ZM560.961 405.54C559.604 405.21 558.622 404.892 557.98 404.596L557.157 406.379C557.969 406.754 559.095 407.107 560.497 407.449L560.961 405.54ZM557.98 404.596L556.889 404.092L556.066 405.875L557.157 406.379L557.98 404.596ZM557.459 404.984V373.514H555.495V404.984H557.459ZM557.459 373.514C557.459 372.86 557.445 372.317 557.415 371.892C557.388 371.511 557.341 371.1 557.221 370.8L555.398 371.529C555.389 371.509 555.427 371.629 555.456 372.032C555.481 372.39 555.495 372.881 555.495 373.514H557.459ZM557.221 370.8C556.932 370.076 556.27 369.695 555.623 369.493C554.964 369.287 554.133 369.203 553.176 369.203V371.167C554.048 371.167 554.652 371.247 555.037 371.368C555.436 371.492 555.426 371.601 555.398 371.529L557.221 370.8ZM554.148 370.042L554.008 369.091L552.065 369.377L552.205 370.328L554.148 370.042ZM553.277 370.187L560.158 368.452L559.678 366.548L552.797 368.282L553.277 370.187ZM559.41 404.313C561.065 405.315 562.834 405.826 564.701 405.826V403.862C563.212 403.862 561.792 403.459 560.426 402.633L559.41 404.313ZM564.701 405.826C566.924 405.826 568.962 405.004 570.794 403.436L569.518 401.944C567.993 403.248 566.395 403.862 564.701 403.862V405.826ZM570.794 403.436C572.778 401.739 573.656 399.052 573.656 395.641H571.692C571.692 398.757 570.89 400.769 569.518 401.944L570.794 403.436ZM573.656 395.641C573.656 391.178 572.223 387.84 569.127 385.962L568.108 387.641C570.421 389.044 571.692 391.599 571.692 395.641H573.656ZM569.121 385.958C567.724 385.124 566.217 384.7 564.617 384.7V386.664C565.853 386.664 567.013 386.987 568.114 387.645L569.121 385.958ZM564.629 384.7C562.72 384.679 560.937 385.38 559.299 386.71L560.537 388.235C561.883 387.141 563.233 386.649 564.606 386.664L564.629 384.7ZM558.936 387.473V403.473H560.9V387.473H558.936ZM586.157 367.5H587.139V366.222L585.904 366.551L586.157 367.5ZM586.324 402.83L587.271 402.569L587.269 402.56L586.324 402.83ZM587.975 404.508L587.597 405.415L587.61 405.42L587.622 405.425L587.975 404.508ZM589.849 405.04H590.831V404.25L590.06 404.08L589.849 405.04ZM589.849 406.075V407.057H590.831V406.075H589.849ZM579.303 406.075H578.321V407.057H579.303V406.075ZM579.303 405.04L578.993 404.108L578.321 404.332V405.04H579.303ZM580.506 404.788L580.689 405.753L580.696 405.751L580.703 405.75L580.506 404.788ZM582.604 371.081L581.737 371.541L581.737 371.543L582.604 371.081ZM579.583 370.185L578.613 370.337L578.742 371.167H579.583V370.185ZM579.443 369.29L579.19 368.341L578.336 368.569L578.473 369.442L579.443 369.29ZM585.174 367.5V399.725H587.139V367.5H585.174ZM585.174 399.725C585.174 400.572 585.189 401.27 585.218 401.813C585.246 402.325 585.29 402.785 585.38 403.1L587.269 402.56C587.247 402.483 587.207 402.229 587.179 401.707C587.153 401.214 587.139 400.556 587.139 399.725H585.174ZM585.377 403.09C585.683 404.2 586.501 404.958 587.597 405.415L588.353 403.602C587.659 403.313 587.376 402.951 587.271 402.569L585.377 403.09ZM587.622 405.425C588.17 405.636 588.847 405.825 589.638 405.999L590.06 404.08C589.322 403.918 588.749 403.754 588.327 403.592L587.622 405.425ZM588.867 405.04V406.075H590.831V405.04H588.867ZM589.849 405.093H579.303V407.057H589.849V405.093ZM580.285 406.075V405.04H578.321V406.075H580.285ZM579.614 405.971C579.605 405.974 579.673 405.955 579.889 405.91C580.08 405.87 580.346 405.818 580.689 405.753L580.323 403.823C579.674 403.946 579.185 404.044 578.993 404.108L579.614 405.971ZM580.703 405.75C581.682 405.55 582.501 405.071 583.055 404.27C583.594 403.491 583.81 402.512 583.81 401.431H581.846C581.846 402.271 581.675 402.812 581.44 403.152C581.22 403.47 580.878 403.709 580.309 403.826L580.703 405.75ZM583.81 401.431V373.206H581.846V401.431H583.81ZM583.81 373.206C583.81 372.621 583.791 372.121 583.749 371.719C583.71 371.357 583.643 370.941 583.471 370.618L581.737 371.543C581.715 371.5 581.759 371.578 581.795 371.925C581.827 372.231 581.846 372.654 581.846 373.206H583.81ZM583.471 370.62C583.135 369.987 582.509 369.651 581.89 369.468C581.258 369.28 580.475 369.203 579.583 369.203V371.167C580.387 371.167 580.957 371.24 581.332 371.351C581.72 371.466 581.756 371.577 581.737 371.541L583.471 370.62ZM580.553 370.034L580.413 369.139L578.473 369.442L578.613 370.337L580.553 370.034ZM579.696 370.239L586.41 368.449L585.904 366.551L579.19 368.341L579.696 370.239ZM602.717 382.969V381.987H602.704L602.692 381.987L602.717 382.969ZM609.458 387.165L610.392 386.863L610.392 386.86L609.458 387.165ZM609.794 390.885V391.867H610.636L610.764 391.035L609.794 390.885ZM596.395 390.885V389.903H595.574L595.428 390.711L596.395 390.885ZM599.556 402.69L600.068 401.852L600.068 401.852L599.556 402.69ZM609.57 401.823L610.276 401.14L609.683 400.526L608.992 401.029L609.57 401.823ZM610.381 402.662L611.13 403.297L611.706 402.619L611.087 401.979L610.381 402.662ZM609.598 403.585L610.307 404.264L610.328 404.243L610.347 404.22L609.598 403.585ZM602.045 406.942V407.924L602.051 407.924L602.045 406.942ZM597.234 405.375L596.665 406.176L596.666 406.177L597.234 405.375ZM596.562 385.543L595.917 384.803L595.906 384.812L595.895 384.822L596.562 385.543ZM596.674 389.067L595.729 388.8L595.376 390.049H596.674V389.067ZM606.185 389.067V390.049H607.167V389.067H606.185ZM605.178 385.794L604.456 386.46L604.465 386.47L605.178 385.794ZM598.632 386.158L599.3 386.878L599.307 386.872L598.632 386.158ZM602.717 383.951C604.386 383.951 605.646 384.278 606.568 384.852C607.474 385.415 608.131 386.265 608.524 387.47L610.392 386.86C609.871 385.268 608.948 384.019 607.606 383.184C606.281 382.359 604.628 381.987 602.717 381.987V383.951ZM608.524 387.467C608.891 388.603 608.984 389.688 608.823 390.736L610.764 391.035C610.976 389.658 610.846 388.264 610.392 386.863L608.524 387.467ZM609.794 389.903H596.395V391.867H609.794V389.903ZM595.428 390.711C595.177 392.101 595.049 393.41 595.049 394.634H597.013C597.013 393.545 597.127 392.355 597.361 391.06L595.428 390.711ZM595.049 394.634C595.049 398.75 596.287 401.843 599.043 403.528L600.068 401.852C598.125 400.665 597.013 398.387 597.013 394.634H595.049ZM599.043 403.528C600.475 404.404 602.161 404.819 604.059 404.819V402.855C602.451 402.855 601.135 402.505 600.068 401.852L599.043 403.528ZM604.059 404.819C606.141 404.819 608.176 404.051 610.148 402.617L608.992 401.029C607.272 402.28 605.632 402.855 604.059 402.855V404.819ZM608.864 402.505L609.675 403.345L611.087 401.979L610.276 401.14L608.864 402.505ZM609.632 402.027L608.849 402.95L610.347 404.22L611.13 403.297L609.632 402.027ZM608.889 402.906C606.935 404.945 604.666 405.943 602.039 405.96L602.051 407.924C605.242 407.903 608.009 406.663 610.307 404.264L608.889 402.906ZM602.045 405.96C600.523 405.96 599.116 405.506 597.802 404.574L596.666 406.177C598.298 407.333 600.099 407.924 602.045 407.924V405.96ZM597.803 404.575C595.144 402.686 593.768 399.824 593.768 395.809H591.804C591.804 400.334 593.393 403.851 596.665 406.176L597.803 404.575ZM593.768 395.809C593.768 391.479 594.971 388.355 597.23 386.263L595.895 384.822C593.119 387.393 591.804 391.113 591.804 395.809H593.768ZM597.208 386.283C598.965 384.75 600.803 384 602.741 383.951L602.692 381.987C600.229 382.05 597.965 383.016 595.917 384.803L597.208 386.283ZM596.674 390.049H606.185V388.085H596.674V390.049ZM607.167 389.067C607.167 387.468 606.805 386.084 605.891 385.119L604.465 386.47C604.894 386.922 605.203 387.72 605.203 389.067H607.167ZM605.9 385.128C605.031 384.187 603.906 383.721 602.605 383.721V385.685C603.392 385.685 603.982 385.947 604.457 386.46L605.9 385.128ZM602.605 383.721C600.772 383.721 599.193 384.276 597.958 385.444L599.307 386.872C600.123 386.1 601.193 385.685 602.605 385.685V383.721ZM597.965 385.438C596.853 386.469 596.073 387.586 595.729 388.8L597.619 389.335C597.835 388.572 598.361 387.749 599.3 386.878L597.965 385.438Z" fill="#F5F5F5"/>
</svg>
