<svg width="414" height="896" viewBox="0 0 414 896" fill="none" xmlns="http://www.w3.org/2000/svg">
<g clip-path="url(#clip0_123_1768)">
<rect width="414" height="896" rx="10" fill="white"/>
<path d="M0 0H414V896H0V0Z" fill="#5C0826"/>
<path d="M0 0H414V896H0V0Z" fill="#5C0826"/>
<path d="M154.594 413.869L108.524 481.911C107.179 484.094 108.567 486.931 111.112 487.21L202.013 496.843L154.594 413.869ZM111.234 457.678L144.097 404.275L110.645 384.206C109.48 383.508 108 384.346 108 385.703V456.766C108 458.525 110.309 459.18 111.234 457.678ZM115.966 504.892L200.817 543.154C203.13 544.223 205.771 542.53 205.771 539.985V511.321L116.926 501.588C114.984 501.37 114.207 504.028 115.966 504.892ZM151.416 392.377L186.304 329.987C188.198 326.905 184.737 323.33 181.599 325.124L115.774 368.165C114.696 368.872 114.73 370.461 115.83 371.125L151.416 392.377ZM212.755 396.82H260.422L218.704 323.326C217.338 321.109 215.046 320 212.755 320C210.463 320 208.172 321.109 206.805 323.326L165.087 396.82H212.755ZM314.864 384.206L281.413 404.28L314.275 457.683C315.196 459.184 317.509 458.529 317.509 456.766V385.703C317.509 384.346 316.03 383.508 314.864 384.206ZM274.093 392.377L309.679 371.12C310.783 370.457 310.814 368.868 309.736 368.161L243.91 325.124C240.772 323.33 237.311 326.905 239.205 329.987L274.093 392.377ZM308.583 501.588L219.738 511.317V539.98C219.738 542.53 222.379 544.219 224.692 543.149L309.544 504.888C311.303 504.028 310.526 501.37 308.583 501.588ZM270.915 413.869L223.501 496.843L314.402 487.21C316.946 486.927 318.334 484.094 316.99 481.911L270.915 413.869ZM212.755 410.787H168.919L212.755 487.498L256.59 410.787H212.755Z" fill="#D98E04"/>
<path fill-rule="evenodd" clip-rule="evenodd" d="M323 20H324C324.552 20 325 20.4477 325 21V27C325 27.5523 324.552 28 324 28H323C322.448 28 322 27.5523 322 27V21C322 20.4477 322.448 20 323 20Z" fill="black"/>
<path fill-rule="evenodd" clip-rule="evenodd" d="M318.5 22H319.5C320.052 22 320.5 22.4477 320.5 23V27C320.5 27.5523 320.052 28 319.5 28H318.5C317.948 28 317.5 27.5523 317.5 27V23C317.5 22.4477 317.948 22 318.5 22Z" fill="black"/>
<path fill-rule="evenodd" clip-rule="evenodd" d="M314 23.5H315C315.552 23.5 316 23.9477 316 24.5V27C316 27.5523 315.552 28 315 28H314C313.448 28 313 27.5523 313 27V24.5C313 23.9477 313.448 23.5 314 23.5Z" fill="black"/>
<path fill-rule="evenodd" clip-rule="evenodd" d="M327.5 18H328.5C329.052 18 329.5 18.4477 329.5 19V27C329.5 27.5523 329.052 28 328.5 28H327.5C326.948 28 326.5 27.5523 326.5 27V19C326.5 18.4477 326.948 18 327.5 18Z" fill="#3C3C43" fill-opacity="0.18"/>
<path fill-rule="evenodd" clip-rule="evenodd" d="M323 20H324C324.552 20 325 20.4477 325 21V27C325 27.5523 324.552 28 324 28H323C322.448 28 322 27.5523 322 27V21C322 20.4477 322.448 20 323 20Z" fill="#F5F5F5"/>
<path fill-rule="evenodd" clip-rule="evenodd" d="M318.5 22H319.5C320.052 22 320.5 22.4477 320.5 23V27C320.5 27.5523 320.052 28 319.5 28H318.5C317.948 28 317.5 27.5523 317.5 27V23C317.5 22.4477 317.948 22 318.5 22Z" fill="#F5F5F5"/>
<path fill-rule="evenodd" clip-rule="evenodd" d="M314 23.5H315C315.552 23.5 316 23.9477 316 24.5V27C316 27.5523 315.552 28 315 28H314C313.448 28 313 27.5523 313 27V24.5C313 23.9477 313.448 23.5 314 23.5Z" fill="#F5F5F5"/>
<path d="M343.133 24.9396C343.772 24.9396 344.394 25.1076 344.941 25.428L345.163 25.5579C345.331 25.6563 345.361 25.8866 345.223 26.0242L343.329 27.913C343.212 28.029 343.024 28.029 342.907 27.913L341.026 26.0363C340.888 25.8994 340.917 25.6702 341.084 25.5711L341.303 25.4406C341.855 25.1121 342.485 24.9396 343.133 24.9396Z" fill="#F5F5F5"/>
<path d="M343.133 21.4698C344.724 21.4698 346.251 21.9976 347.495 22.9749L347.671 23.113C347.811 23.2232 347.824 23.4306 347.697 23.5565L346.567 24.6841C346.462 24.7884 346.297 24.8004 346.178 24.7123L346.04 24.6098C345.2 23.9852 344.186 23.6502 343.133 23.6502C342.073 23.6502 341.053 23.9894 340.21 24.6211L340.072 24.7245C339.953 24.8134 339.787 24.8017 339.682 24.6971L338.552 23.5699C338.426 23.4443 338.438 23.2373 338.578 23.127L338.753 22.9888C340 22.0027 341.534 21.4698 343.133 21.4698Z" fill="#F5F5F5"/>
<path d="M343.133 18C345.657 18 348.072 18.8906 349.983 20.5229L350.146 20.6623C350.278 20.7749 350.285 20.9756 350.163 21.098L349.036 22.2219C348.926 22.3308 348.752 22.3385 348.634 22.2395L348.494 22.1228C346.989 20.8647 345.104 20.1804 343.133 20.1804C341.155 20.1804 339.263 20.8694 337.756 22.1354L337.617 22.2527C337.498 22.3521 337.324 22.3447 337.214 22.2356L336.087 21.1118C335.965 20.9895 335.972 20.7892 336.104 20.6765L336.266 20.5371C338.18 18.8959 340.601 18 343.133 18Z" fill="#F5F5F5"/>
<path d="M379 21C379.552 21 380 21.4477 380 22V24C380 24.5523 379.552 25 379 25V21Z" fill="#3C3C43" fill-opacity="0.6"/>
<path fill-rule="evenodd" clip-rule="evenodd" d="M358 17H375C376.657 17 378 18.3431 378 20V26C378 27.6569 376.657 29 375 29H358C356.343 29 355 27.6569 355 26V20C355 18.3431 356.343 17 358 17ZM358 18C356.895 18 356 18.8954 356 20V26C356 27.1046 356.895 28 358 28H375C376.105 28 377 27.1046 377 26V20C377 18.8954 376.105 18 375 18H358Z" fill="#3C3C43" fill-opacity="0.6"/>
<rect x="357" y="19" width="19" height="8" rx="1" fill="#F5F5F5"/>
<path d="M56.8672 28.0889C59.5552 28.0889 61.1519 25.9868 61.1519 22.4272C61.1519 21.0869 60.8955 19.959 60.4048 19.0874C59.6943 17.7324 58.4712 17 56.9258 17C54.626 17 53 18.5454 53 20.7134C53 22.7495 54.4648 24.229 56.479 24.229C57.7168 24.229 58.7202 23.6504 59.2183 22.647H59.2402C59.2402 22.647 59.2695 22.647 59.2769 22.647C59.2915 22.647 59.3428 22.647 59.3428 22.647C59.3428 25.064 58.4272 26.5068 56.8818 26.5068C55.9736 26.5068 55.2705 26.0088 55.0288 25.2104H53.1465C53.4614 26.9463 54.9336 28.0889 56.8672 28.0889ZM56.9331 22.7275C55.7173 22.7275 54.853 21.8633 54.853 20.6548C54.853 19.4756 55.7612 18.5747 56.9404 18.5747C58.1196 18.5747 59.0278 19.4902 59.0278 20.6841C59.0278 21.8633 58.1416 22.7275 56.9331 22.7275Z" fill="#F5F5F5"/>
<path d="M64.243 27.9863C64.9388 27.9863 65.4148 27.4883 65.4148 26.8291C65.4148 26.1626 64.9388 25.6719 64.243 25.6719C63.5545 25.6719 63.0711 26.1626 63.0711 26.8291C63.0711 27.4883 63.5545 27.9863 64.243 27.9863ZM64.243 22.4932C64.9388 22.4932 65.4148 22.0024 65.4148 21.3433C65.4148 20.6768 64.9388 20.186 64.243 20.186C63.5545 20.186 63.0711 20.6768 63.0711 21.3433C63.0711 22.0024 63.5545 22.4932 64.243 22.4932Z" fill="#F5F5F5"/>
<path d="M72.2706 27.8325H74.0797V25.8623H75.5079V24.2656H74.0797V17.2637H71.4137C69.546 20.0762 68.0592 22.4272 67.107 24.1777V25.8623H72.2706V27.8325ZM68.8575 24.1997C70.088 22.0317 71.1866 20.2959 72.1974 18.8018H72.2999V24.3096H68.8575V24.1997Z" fill="#F5F5F5"/>
<path d="M79.5365 27.8325H81.4262V17.2637H79.5438L76.7826 19.1973V21.0137L79.412 19.168H79.5365V27.8325Z" fill="#F5F5F5"/>
<path d="M102.617 775.164C102.617 774.24 103.275 773.771 104.59 773.758H117.656C118.854 773.758 120.02 774.038 121.152 774.598C123.197 775.626 124.225 777.299 124.238 779.617C124.238 781.388 123.457 782.892 121.895 784.129C121.204 784.663 120.449 785.086 119.629 785.398C120.736 786.062 121.712 787.117 122.559 788.562C124.173 791.362 125.378 793.315 126.172 794.422C126.979 795.529 127.78 796.199 128.574 796.434V797.469C126.465 797.664 124.824 797.26 123.652 796.258C122.493 795.255 121.322 793.576 120.137 791.219C118.952 788.849 118.197 787.397 117.871 786.863C117.546 786.329 117.233 786.062 116.934 786.062C116.647 786.049 116.406 786.277 116.211 786.746C116.029 787.215 115.879 787.508 115.762 787.625C115.566 787.807 115.254 787.905 114.824 787.918C114.408 787.918 114.076 787.729 113.828 787.352C113.594 786.974 113.477 786.616 113.477 786.277C113.477 785.171 114.421 784.617 116.309 784.617C116.699 784.617 117.025 784.63 117.285 784.656C118.952 784.578 120.111 783.758 120.762 782.195C121.048 781.479 121.191 780.704 121.191 779.871C121.191 777.866 120.462 776.453 119.004 775.633C118.223 775.203 117.318 774.988 116.289 774.988H112.871V794.051C112.871 794.897 112.943 795.405 113.086 795.574C113.229 795.73 113.509 795.848 113.926 795.926L115.254 796.199V797H107.656V796.238L108.789 796.004C109.479 795.861 109.889 795.594 110.02 795.203C110.163 794.812 110.234 794.064 110.234 792.957V777.488C109.974 775.783 109.284 774.904 108.164 774.852C107.773 774.852 107.259 775.105 106.621 775.613C105.749 776.316 104.993 776.674 104.355 776.688C103.717 776.688 103.268 776.518 103.008 776.18C102.747 775.828 102.617 775.49 102.617 775.164ZM131.055 789.52C131.055 787.15 131.732 785.145 133.086 783.504C134.44 781.85 136.087 781.023 138.027 781.023C139.993 781.023 141.712 781.792 143.184 783.328C144.655 784.865 145.391 786.798 145.391 789.129C145.391 791.46 144.753 793.4 143.477 794.949C142.005 796.733 140.312 797.625 138.398 797.625C136.354 797.638 134.622 796.876 133.203 795.34C131.784 793.79 131.068 791.85 131.055 789.52ZM137.734 782.488C136.354 782.488 135.293 783.113 134.551 784.363C133.809 785.613 133.438 787.169 133.438 789.031C133.438 790.88 133.906 792.534 134.844 793.992C135.794 795.438 137.044 796.167 138.594 796.18C140.039 796.18 141.12 795.548 141.836 794.285C142.565 793.009 142.93 791.512 142.93 789.793C142.93 787.957 142.487 786.284 141.602 784.773C140.716 783.263 139.427 782.501 137.734 782.488ZM152.402 770.066V792.566C152.402 793.738 152.441 794.461 152.52 794.734C152.663 795.255 153.047 795.646 153.672 795.906C154.01 796.036 154.447 796.16 154.98 796.277V797H147.617V796.277C147.695 796.251 147.975 796.193 148.457 796.102C149.538 795.88 150.078 795.099 150.078 793.758V774.051C150.078 773.257 150.026 772.762 149.922 772.566C149.701 772.15 148.997 771.941 147.812 771.941L147.715 771.316L152.402 770.066ZM161.816 770.066V792.566C161.816 793.738 161.855 794.461 161.934 794.734C162.077 795.255 162.461 795.646 163.086 795.906C163.424 796.036 163.861 796.16 164.395 796.277V797H157.031V796.277C157.109 796.251 157.389 796.193 157.871 796.102C158.952 795.88 159.492 795.099 159.492 793.758V774.051C159.492 773.257 159.44 772.762 159.336 772.566C159.115 772.15 158.411 771.941 157.227 771.941L157.129 771.316L161.816 770.066ZM179.531 774.773C178.763 774.773 178.372 775.008 178.359 775.477C178.372 775.815 178.483 776.147 178.691 776.473L184.531 785.418L185.352 784.07C188.737 778.536 190.43 775.62 190.43 775.32C190.443 775.021 190.26 774.839 189.883 774.773C189.505 774.695 188.802 774.643 187.773 774.617V773.758H195.332V774.617C195.306 774.63 195.228 774.637 195.098 774.637C193.809 774.702 192.897 775.06 192.363 775.711C191.23 777.091 189.245 780.216 186.406 785.086C185.833 786.076 185.462 786.727 185.293 787.039V794.031C185.293 794.878 185.365 795.385 185.508 795.555C185.651 795.724 185.938 795.854 186.367 795.945L187.676 796.199V797H180.078V796.238L181.211 796.004C181.901 795.861 182.311 795.587 182.441 795.184C182.585 794.78 182.656 794.038 182.656 792.957V787.039C179.362 781.44 177.161 777.996 176.055 776.707C174.831 775.301 173.73 774.604 172.754 774.617V773.758H182.91C184.212 773.758 184.87 774.207 184.883 775.105C184.883 775.783 184.544 776.251 183.867 776.512C183.633 776.59 183.405 776.629 183.184 776.629C182.52 776.629 181.868 776.362 181.23 775.828C180.605 775.281 180.202 774.969 180.02 774.891C179.85 774.812 179.688 774.773 179.531 774.773ZM194.062 789.52C194.062 787.15 194.74 785.145 196.094 783.504C197.448 781.85 199.095 781.023 201.035 781.023C203.001 781.023 204.72 781.792 206.191 783.328C207.663 784.865 208.398 786.798 208.398 789.129C208.398 791.46 207.76 793.4 206.484 794.949C205.013 796.733 203.32 797.625 201.406 797.625C199.362 797.638 197.63 796.876 196.211 795.34C194.792 793.79 194.076 791.85 194.062 789.52ZM200.742 782.488C199.362 782.488 198.301 783.113 197.559 784.363C196.816 785.613 196.445 787.169 196.445 789.031C196.445 790.88 196.914 792.534 197.852 793.992C198.802 795.438 200.052 796.167 201.602 796.18C203.047 796.18 204.128 795.548 204.844 794.285C205.573 793.009 205.938 791.512 205.938 789.793C205.938 787.957 205.495 786.284 204.609 784.773C203.724 783.263 202.435 782.501 200.742 782.488ZM210.156 782.078V781.297H214.629V789.461C214.629 789.643 214.609 790.268 214.57 791.336C214.466 794.37 215.527 795.9 217.754 795.926C218.991 795.926 220.065 795.431 220.977 794.441C221.888 793.452 222.344 792.332 222.344 791.082V786.336C222.344 784.604 222.266 783.504 222.109 783.035C221.901 782.41 221.159 782.098 219.883 782.098V781.297H224.766V792.762C224.766 794.181 225.059 795.027 225.645 795.301C225.918 795.418 226.439 795.457 227.207 795.418L227.305 796.102L223.047 797.566L222.344 794.988L221.699 795.613C220.176 796.928 218.574 797.592 216.895 797.605C214.811 797.605 213.438 796.811 212.773 795.223C212.383 794.285 212.188 793.009 212.188 791.395V785.281C212.188 783.68 211.855 782.664 211.191 782.234C210.892 782.052 210.547 782 210.156 782.078ZM239.98 783.855L237.852 783.602C236.784 783.615 235.911 784.155 235.234 785.223C235 785.613 234.883 786.206 234.883 787V793.953C234.883 794.917 235.306 795.561 236.152 795.887C236.165 795.9 236.4 795.971 236.855 796.102C237.311 796.219 237.559 796.284 237.598 796.297V797H230.195V796.297C230.234 796.271 230.365 796.232 230.586 796.18C231.523 795.958 232.122 795.613 232.383 795.145C232.513 794.884 232.585 794.598 232.598 794.285V784.676C232.598 784.051 232.266 783.673 231.602 783.543C231.406 783.504 230.983 783.471 230.332 783.445L230.234 782.762L235.039 780.926L235.078 784.012L235.762 783.289C237.233 781.922 238.672 781.238 240.078 781.238C240.911 781.238 241.335 781.642 241.348 782.449C241.348 783.1 241.081 783.536 240.547 783.758C240.365 783.823 240.176 783.855 239.98 783.855ZM252.246 779.617C252.246 782.273 252.839 783.608 254.023 783.621C254.232 783.621 254.557 783.426 255 783.035C255.742 782.488 256.367 782.195 256.875 782.156C257.708 782.156 258.164 782.553 258.242 783.348C258.281 783.882 258.034 784.298 257.5 784.598C257.227 784.741 256.94 784.812 256.641 784.812C255.156 784.812 254.082 784.702 253.418 784.48C251.79 783.947 250.671 782.853 250.059 781.199C249.785 780.431 249.648 779.617 249.648 778.758C249.648 776.284 250.807 774.721 253.125 774.07C253.841 773.862 254.622 773.758 255.469 773.758H270.273C271.706 773.758 272.63 773.458 273.047 772.859C273.32 772.443 273.457 771.818 273.457 770.984H274.277C274.785 772.69 274.779 773.816 274.258 774.363C273.737 774.897 272.871 775.203 271.66 775.281H264.277V792.918C264.277 794.116 264.362 794.897 264.531 795.262C264.701 795.613 265.098 795.854 265.723 795.984L266.855 796.199V797H259.277V796.18L260.625 795.887C261.107 795.783 261.406 795.633 261.523 795.438C261.628 795.216 261.68 794.741 261.68 794.012V775.281H255.234C253.724 775.281 252.78 776.18 252.402 777.977C252.298 778.484 252.246 779.031 252.246 779.617ZM287.422 795.34C287.396 795.405 287.298 795.561 287.129 795.809C286.973 796.056 286.764 796.316 286.504 796.59C286.257 796.863 285.97 797.104 285.645 797.312C285.319 797.534 284.98 797.645 284.629 797.645C284.121 797.645 283.711 797.527 283.398 797.293C283.086 797.059 282.839 796.766 282.656 796.414C282.474 796.062 282.344 795.691 282.266 795.301C282.188 794.897 282.135 794.539 282.109 794.227C282.018 794.305 281.849 794.526 281.602 794.891C281.354 795.255 281.022 795.646 280.605 796.062C280.189 796.466 279.674 796.831 279.062 797.156C278.464 797.482 277.767 797.645 276.973 797.645C276.582 797.645 276.172 797.592 275.742 797.488C275.326 797.384 274.948 797.208 274.609 796.961C274.271 796.701 273.991 796.355 273.77 795.926C273.548 795.483 273.438 794.936 273.438 794.285C273.438 793.361 273.743 792.592 274.355 791.98C274.967 791.368 275.729 790.887 276.641 790.535C277.552 790.184 278.385 789.93 279.141 789.773C279.909 789.604 280.82 789.415 281.875 789.207V785.945C281.875 785.659 281.862 785.301 281.836 784.871C281.823 784.428 281.745 784.005 281.602 783.602C281.471 783.185 281.25 782.833 280.938 782.547C280.638 782.247 280.202 782.098 279.629 782.098C278.926 782.098 278.346 782.234 277.891 782.508C277.448 782.781 277.122 783.029 276.914 783.25C276.706 783.471 276.419 783.797 276.055 784.227C275.612 784.279 275.26 784.272 275 784.207C274.753 784.129 274.544 784.018 274.375 783.875C274.219 783.719 274.141 783.51 274.141 783.25C274.141 782.872 274.427 782.514 275 782.176C275.573 781.837 276.315 781.538 277.227 781.277C278.151 781.004 279.023 780.867 279.844 780.867C280.586 780.867 281.211 780.978 281.719 781.199C282.227 781.408 282.643 781.701 282.969 782.078C283.294 782.443 283.542 782.872 283.711 783.367C283.88 783.849 283.997 784.363 284.062 784.91C284.141 785.457 284.18 786.017 284.18 786.59C284.193 787.163 284.199 787.716 284.199 788.25C284.199 789.24 284.186 790.203 284.16 791.141C284.134 792.078 284.141 792.918 284.18 793.66C284.219 794.389 284.316 794.982 284.473 795.438C284.642 795.88 284.915 796.102 285.293 796.102C285.775 796.102 286.263 795.659 286.758 794.773L287.422 795.34ZM281.875 790.496C280.82 790.652 279.915 790.828 279.16 791.023C278.418 791.219 277.826 791.466 277.383 791.766C276.953 792.065 276.621 792.404 276.387 792.781C276.165 793.146 276.055 793.595 276.055 794.129C276.055 795.431 276.628 796.082 277.773 796.082C278.19 796.082 278.62 795.932 279.062 795.633C279.505 795.333 279.915 794.975 280.293 794.559C280.671 794.129 281.003 793.686 281.289 793.23C281.576 792.775 281.771 792.397 281.875 792.098V790.496ZM294.004 770.066V782.352C295.306 781.401 296.849 780.926 298.633 780.926C300.43 780.926 301.986 781.616 303.301 782.996C304.629 784.363 305.293 786.336 305.293 788.914C305.293 791.479 304.544 793.549 303.047 795.125C301.445 796.805 299.564 797.645 297.402 797.645C296.491 797.645 295.547 797.527 294.57 797.293C293.607 797.059 292.871 796.824 292.363 796.59L291.602 796.238V774.266C291.602 773.367 291.562 772.82 291.484 772.625C291.302 772.169 290.573 771.941 289.297 771.941L289.199 771.277L294.004 770.066ZM294.004 795.184C295.059 795.822 296.172 796.141 297.344 796.141C298.711 796.141 299.98 795.639 301.152 794.637C302.324 793.634 302.91 791.993 302.91 789.715C302.91 786.746 301.966 784.689 300.078 783.543C299.206 783.022 298.275 782.762 297.285 782.762C296.139 782.749 295.046 783.165 294.004 784.012V795.184ZM312.324 770.066V792.566C312.324 793.738 312.363 794.461 312.441 794.734C312.585 795.255 312.969 795.646 313.594 795.906C313.932 796.036 314.368 796.16 314.902 796.277V797H307.539V796.277C307.617 796.251 307.897 796.193 308.379 796.102C309.46 795.88 310 795.099 310 793.758V774.051C310 773.257 309.948 772.762 309.844 772.566C309.622 772.15 308.919 771.941 307.734 771.941L307.637 771.316L312.324 770.066ZM323.887 780.867C326.387 780.867 327.956 781.844 328.594 783.797C328.88 784.682 328.958 785.548 328.828 786.395H319.473C319.303 787.332 319.219 788.204 319.219 789.012C319.219 791.759 320.039 793.634 321.68 794.637C322.552 795.171 323.6 795.438 324.824 795.438C326.1 795.438 327.383 794.969 328.672 794.031L329.238 794.617L328.691 795.262C327.207 796.811 325.449 797.592 323.418 797.605C322.207 797.605 321.087 797.241 320.059 796.512C317.988 795.04 316.953 792.814 316.953 789.832C316.953 786.681 317.832 784.292 319.59 782.664C320.918 781.505 322.35 780.906 323.887 780.867ZM319.668 785.125H326.309C326.309 784.096 326.074 783.335 325.605 782.84C325.137 782.332 324.538 782.078 323.809 782.078C322.676 782.078 321.751 782.417 321.035 783.094C320.319 783.758 319.863 784.435 319.668 785.125Z" fill="#F5F5F5"/>
<path d="M104.59 773.758V772.758L104.58 772.758L104.59 773.758ZM121.152 774.598L121.602 773.704L121.595 773.701L121.152 774.598ZM124.238 779.617H125.238L125.238 779.612L124.238 779.617ZM121.895 784.129L122.506 784.92L122.515 784.913L121.895 784.129ZM119.629 785.398L119.273 784.464L117.349 785.197L119.114 786.256L119.629 785.398ZM122.559 788.562L123.425 788.063L123.422 788.057L122.559 788.562ZM126.172 794.422L125.359 795.005L125.364 795.011L126.172 794.422ZM128.574 796.434H129.574V795.686L128.857 795.474L128.574 796.434ZM128.574 797.469L128.666 798.464L129.574 798.38V797.469H128.574ZM123.652 796.258L122.998 797.014L123.002 797.018L123.652 796.258ZM120.137 791.219L119.242 791.666L119.243 791.668L120.137 791.219ZM117.871 786.863L117.017 787.384L117.871 786.863ZM116.934 786.062L116.888 787.061L116.911 787.062H116.934V786.062ZM116.211 786.746L115.288 786.361L115.283 786.373L115.279 786.384L116.211 786.746ZM115.762 787.625L116.444 788.356L116.457 788.344L116.469 788.332L115.762 787.625ZM114.824 787.918V788.918H114.839L114.855 788.918L114.824 787.918ZM113.828 787.352L112.978 787.879L112.985 787.889L112.992 787.9L113.828 787.352ZM117.285 784.656L117.186 785.651L117.259 785.659L117.332 785.655L117.285 784.656ZM120.762 782.195L121.685 782.58L121.688 782.573L121.69 782.567L120.762 782.195ZM119.004 775.633L119.494 774.761L119.486 774.757L119.004 775.633ZM112.871 774.988V773.988H111.871V774.988H112.871ZM113.086 795.574L112.323 796.22L112.335 796.235L112.349 796.25L113.086 795.574ZM113.926 795.926L114.127 794.946L114.119 794.945L114.11 794.943L113.926 795.926ZM115.254 796.199H116.254V795.384L115.456 795.22L115.254 796.199ZM115.254 797V798H116.254V797H115.254ZM107.656 797H106.656V798H107.656V797ZM107.656 796.238L107.454 795.259L106.656 795.424V796.238H107.656ZM108.789 796.004L108.992 796.983L108.992 796.983L108.789 796.004ZM110.02 795.203L109.081 794.859L109.076 794.873L109.071 794.887L110.02 795.203ZM110.234 777.488H111.234V777.412L111.223 777.337L110.234 777.488ZM108.164 774.852L108.211 773.853L108.187 773.852H108.164V774.852ZM106.621 775.613L105.998 774.831L105.994 774.835L106.621 775.613ZM104.355 776.688V777.688H104.366L104.376 777.687L104.355 776.688ZM103.008 776.18L102.204 776.775L102.21 776.782L102.215 776.789L103.008 776.18ZM103.617 775.164C103.617 775.051 103.637 775 103.645 774.983C103.65 774.971 103.659 774.956 103.691 774.933C103.778 774.871 104.03 774.763 104.6 774.758L104.58 772.758C103.835 772.765 103.101 772.898 102.53 773.305C101.897 773.756 101.617 774.432 101.617 775.164H103.617ZM104.59 774.758H117.656V772.758H104.59V774.758ZM117.656 774.758C118.692 774.758 119.706 774.999 120.709 775.494L121.595 773.701C120.333 773.077 119.016 772.758 117.656 772.758V774.758ZM120.703 775.491C121.587 775.936 122.203 776.494 122.605 777.148C123.008 777.802 123.233 778.614 123.238 779.623L125.238 779.612C125.231 778.303 124.935 777.119 124.309 776.1C123.682 775.081 122.762 774.288 121.602 773.704L120.703 775.491ZM123.238 779.617C123.238 781.041 122.631 782.271 121.274 783.345L122.515 784.913C124.283 783.513 125.238 781.735 125.238 779.617H123.238ZM121.283 783.338C120.671 783.811 120.002 784.186 119.273 784.464L119.985 786.333C120.897 785.986 121.738 785.514 122.506 784.92L121.283 783.338ZM119.114 786.256C120.041 786.812 120.91 787.725 121.696 789.068L123.422 788.057C122.515 786.509 121.431 785.313 120.143 784.541L119.114 786.256ZM121.692 789.062C123.307 791.862 124.533 793.854 125.359 795.005L126.984 793.839C126.222 792.776 125.039 790.862 123.425 788.063L121.692 789.062ZM125.364 795.011C126.223 796.189 127.187 797.067 128.291 797.393L128.857 795.474C128.372 795.331 127.735 794.868 126.98 793.833L125.364 795.011ZM127.574 796.434V797.469H129.574V796.434H127.574ZM128.482 796.473C126.539 796.653 125.202 796.267 124.302 795.498L123.002 797.018C124.447 798.254 126.391 798.675 128.666 798.464L128.482 796.473ZM124.307 795.502C123.294 794.625 122.193 793.082 121.03 790.77L119.243 791.668C120.451 794.07 121.693 795.885 122.998 797.014L124.307 795.502ZM121.031 790.772C119.854 788.417 119.077 786.921 118.725 786.343L117.017 787.384C117.316 787.873 118.05 789.281 119.242 791.666L121.031 790.772ZM118.725 786.343C118.533 786.027 118.309 785.73 118.042 785.502C117.772 785.272 117.397 785.062 116.934 785.062V787.062C116.77 787.062 116.701 786.987 116.743 787.023C116.789 787.062 116.884 787.165 117.017 787.384L118.725 786.343ZM116.979 785.064C116.005 785.019 115.509 785.832 115.288 786.361L117.134 787.131C117.166 787.053 117.194 787.002 117.214 786.97C117.233 786.939 117.239 786.937 117.225 786.95C117.21 786.965 117.171 786.997 117.105 787.024C117.036 787.052 116.96 787.065 116.888 787.061L116.979 785.064ZM115.279 786.384C115.194 786.601 115.125 786.757 115.071 786.862C115.045 786.914 115.027 786.945 115.018 786.959C115.006 786.976 115.017 786.955 115.055 786.918L116.469 788.332C116.643 788.158 116.767 787.939 116.852 787.772C116.948 787.585 117.045 787.36 117.143 787.109L115.279 786.384ZM115.079 786.894C115.113 786.862 115.127 786.866 115.083 786.88C115.035 786.895 114.944 786.914 114.794 786.918L114.855 788.918C115.388 788.901 115.991 788.779 116.444 788.356L115.079 786.894ZM114.824 786.918C114.796 786.918 114.78 786.915 114.772 786.913C114.765 786.911 114.761 786.909 114.757 786.907C114.752 786.904 114.717 786.884 114.665 786.804L112.992 787.9C113.406 788.531 114.038 788.918 114.824 788.918V786.918ZM114.678 786.824C114.512 786.556 114.477 786.38 114.477 786.277H112.477C112.477 786.852 112.676 787.391 112.978 787.879L114.678 786.824ZM114.477 786.277C114.477 786.074 114.529 785.99 114.69 785.895C114.934 785.752 115.43 785.617 116.309 785.617V783.617C115.3 783.617 114.379 783.759 113.679 784.17C112.896 784.628 112.477 785.374 112.477 786.277H114.477ZM116.309 785.617C116.68 785.617 116.97 785.63 117.186 785.651L117.385 783.661C117.079 783.631 116.718 783.617 116.309 783.617V785.617ZM117.332 785.655C118.322 785.609 119.221 785.337 119.982 784.799C120.742 784.261 121.301 783.501 121.685 782.58L119.839 781.811C119.571 782.452 119.225 782.884 118.827 783.166C118.429 783.448 117.915 783.626 117.238 783.657L117.332 785.655ZM121.69 782.567C122.028 781.723 122.191 780.821 122.191 779.871H120.191C120.191 780.588 120.069 781.235 119.833 781.824L121.69 782.567ZM122.191 779.871C122.191 777.59 121.335 775.797 119.494 774.761L118.514 776.504C119.589 777.109 120.191 778.142 120.191 779.871H122.191ZM119.486 774.757C118.536 774.234 117.46 773.988 116.289 773.988V775.988C117.175 775.988 117.91 776.172 118.522 776.509L119.486 774.757ZM116.289 773.988H112.871V775.988H116.289V773.988ZM111.871 774.988V794.051H113.871V774.988H111.871ZM111.871 794.051C111.871 794.495 111.889 794.886 111.935 795.206C111.957 795.366 111.989 795.531 112.039 795.686C112.084 795.83 112.166 796.035 112.323 796.22L113.849 794.928C113.935 795.029 113.953 795.107 113.945 795.081C113.941 795.067 113.928 795.021 113.915 794.927C113.889 794.739 113.871 794.453 113.871 794.051H111.871ZM112.349 796.25C112.726 796.661 113.29 796.824 113.741 796.909L114.11 794.943C113.946 794.912 113.845 794.88 113.789 794.857C113.73 794.832 113.764 794.834 113.823 794.898L112.349 796.25ZM113.724 796.905L115.052 797.179L115.456 795.22L114.127 794.946L113.724 796.905ZM114.254 796.199V797H116.254V796.199H114.254ZM115.254 796H107.656V798H115.254V796ZM108.656 797V796.238H106.656V797H108.656ZM107.859 797.218L108.992 796.983L108.586 795.025L107.454 795.259L107.859 797.218ZM108.992 796.983C109.777 796.82 110.662 796.437 110.968 795.519L109.071 794.887C109.09 794.829 109.121 794.824 109.069 794.858C109.003 794.901 108.858 794.968 108.586 795.025L108.992 796.983ZM110.958 795.547C111.171 794.968 111.234 794.048 111.234 792.957H109.234C109.234 794.08 109.155 794.657 109.081 794.859L110.958 795.547ZM111.234 792.957V777.488H109.234V792.957H111.234ZM111.223 777.337C111.08 776.399 110.802 775.562 110.308 774.932C109.783 774.263 109.06 773.892 108.211 773.853L108.118 775.85C108.388 775.863 108.57 775.957 108.735 776.167C108.931 776.417 109.129 776.872 109.246 777.639L111.223 777.337ZM108.164 773.852C107.405 773.852 106.655 774.308 105.998 774.831L107.244 776.396C107.528 776.169 107.755 776.024 107.928 775.939C108.107 775.85 108.177 775.852 108.164 775.852V773.852ZM105.994 774.835C105.177 775.493 104.638 775.682 104.335 775.688L104.376 777.687C105.349 777.667 106.32 777.14 107.249 776.392L105.994 774.835ZM104.355 775.688C104.12 775.688 103.974 775.656 103.893 775.625C103.82 775.597 103.804 775.574 103.8 775.57L102.215 776.789C102.744 777.477 103.565 777.688 104.355 777.688V775.688ZM103.811 775.584C103.635 775.347 103.617 775.212 103.617 775.164H101.617C101.617 775.767 101.86 776.31 102.204 776.775L103.811 775.584ZM131.055 789.52H130.055L130.055 789.525L131.055 789.52ZM133.086 783.504L133.857 784.14L133.86 784.137L133.086 783.504ZM143.477 794.949L144.248 795.586L144.248 795.585L143.477 794.949ZM138.398 797.625V796.625L138.392 796.625L138.398 797.625ZM133.203 795.34L132.466 796.015L132.469 796.018L133.203 795.34ZM137.734 782.488L137.742 781.488H137.734V782.488ZM134.844 793.992L134.003 794.533L134.008 794.542L134.844 793.992ZM138.594 796.18L138.585 797.18H138.594V796.18ZM141.836 794.285L140.968 793.789L140.966 793.792L141.836 794.285ZM132.055 789.52C132.055 787.354 132.668 785.581 133.857 784.14L132.315 782.867C130.796 784.708 130.055 786.946 130.055 789.52H132.055ZM133.86 784.137C135.046 782.689 136.42 782.023 138.027 782.023V780.023C135.754 780.023 133.834 781.012 132.312 782.87L133.86 784.137ZM138.027 782.023C139.697 782.023 141.161 782.662 142.461 784.02L143.906 782.636C142.263 780.921 140.29 780.023 138.027 780.023V782.023ZM142.461 784.02C143.737 785.352 144.391 787.029 144.391 789.129H146.391C146.391 786.567 145.573 784.378 143.906 782.636L142.461 784.02ZM144.391 789.129C144.391 791.267 143.81 792.971 142.705 794.314L144.248 795.585C145.695 793.828 146.391 791.652 146.391 789.129H144.391ZM142.705 794.313C141.38 795.919 139.952 796.625 138.398 796.625V798.625C140.673 798.625 142.63 797.547 144.248 795.586L142.705 794.313ZM138.392 796.625C136.636 796.636 135.171 795.997 133.938 794.661L132.469 796.018C134.074 797.756 136.072 798.64 138.405 798.625L138.392 796.625ZM133.941 794.664C132.708 793.318 132.066 791.626 132.055 789.514L130.055 789.525C130.069 792.075 130.86 794.262 132.466 796.015L133.941 794.664ZM137.734 781.488C135.979 781.488 134.602 782.319 133.691 783.853L135.411 784.874C135.984 783.908 136.729 783.488 137.734 783.488V781.488ZM133.691 783.853C132.835 785.295 132.438 787.039 132.438 789.031H134.438C134.438 787.299 134.783 785.932 135.411 784.874L133.691 783.853ZM132.438 789.031C132.438 791.059 132.954 792.902 134.003 794.533L135.685 793.451C134.858 792.165 134.438 790.702 134.438 789.031H132.438ZM134.008 794.542C135.117 796.228 136.659 797.163 138.585 797.18L138.602 795.18C137.429 795.17 136.472 794.647 135.679 793.443L134.008 794.542ZM138.594 797.18C140.401 797.18 141.813 796.353 142.706 794.778L140.966 793.792C140.426 794.744 139.677 795.18 138.594 795.18V797.18ZM142.704 794.781C143.533 793.33 143.93 791.656 143.93 789.793H141.93C141.93 791.367 141.597 792.688 140.968 793.789L142.704 794.781ZM143.93 789.793C143.93 787.788 143.444 785.939 142.464 784.268L140.739 785.279C141.53 786.629 141.93 788.126 141.93 789.793H143.93ZM142.464 784.268C141.408 782.466 139.801 781.504 137.742 781.488L137.727 783.488C139.053 783.498 140.024 784.06 140.739 785.279L142.464 784.268ZM152.402 770.066H153.402V768.765L152.145 769.1L152.402 770.066ZM152.52 794.734L153.484 794.469L153.481 794.46L152.52 794.734ZM153.672 795.906L153.287 796.829L153.3 796.835L153.313 796.84L153.672 795.906ZM154.98 796.277H155.98V795.473L155.195 795.301L154.98 796.277ZM154.98 797V798H155.98V797H154.98ZM147.617 797H146.617V798H147.617V797ZM147.617 796.277L147.301 795.329L146.617 795.557V796.277H147.617ZM148.457 796.102L148.643 797.084L148.65 797.083L148.658 797.081L148.457 796.102ZM149.922 772.566L149.039 773.036L149.04 773.037L149.922 772.566ZM147.812 771.941L146.824 772.096L146.957 772.941H147.812V771.941ZM147.715 771.316L147.457 770.35L146.588 770.582L146.727 771.471L147.715 771.316ZM151.402 770.066V792.566H153.402V770.066H151.402ZM151.402 792.566C151.402 793.161 151.412 793.654 151.433 794.041C151.452 794.397 151.484 794.751 151.558 795.009L153.481 794.46C153.483 794.468 153.474 794.433 153.461 794.328C153.45 794.232 153.439 794.101 153.43 793.933C153.412 793.597 153.402 793.144 153.402 792.566H151.402ZM151.555 795C151.801 795.891 152.457 796.484 153.287 796.829L154.056 794.983C153.636 794.808 153.525 794.619 153.484 794.469L151.555 795ZM153.313 796.84C153.716 796.994 154.205 797.131 154.766 797.254L155.195 795.301C154.688 795.189 154.305 795.078 154.031 794.973L153.313 796.84ZM153.98 796.277V797H155.98V796.277H153.98ZM154.98 796H147.617V798H154.98V796ZM148.617 797V796.277H146.617V797H148.617ZM147.933 797.226C147.907 797.235 147.902 797.235 147.944 797.225C147.977 797.217 148.025 797.206 148.091 797.193C148.221 797.165 148.405 797.129 148.643 797.084L148.271 795.119C147.831 795.202 147.461 795.275 147.301 795.329L147.933 797.226ZM148.658 797.081C149.407 796.928 150.055 796.555 150.495 795.918C150.92 795.305 151.078 794.551 151.078 793.758H149.078C149.078 794.306 148.966 794.613 148.85 794.781C148.75 794.925 148.588 795.054 148.256 795.122L148.658 797.081ZM151.078 793.758V774.051H149.078V793.758H151.078ZM151.078 774.051C151.078 773.637 151.065 773.276 151.034 772.979C151.007 772.724 150.955 772.379 150.804 772.096L149.04 773.037C149.006 772.975 149.005 772.945 149.015 772.99C149.023 773.026 149.034 773.09 149.045 773.189C149.065 773.387 149.078 773.671 149.078 774.051H151.078ZM150.805 772.097C150.514 771.549 149.982 771.278 149.513 771.139C149.03 770.996 148.45 770.941 147.812 770.941V772.941C148.36 772.941 148.724 772.991 148.944 773.056C149.178 773.126 149.109 773.167 149.039 773.036L150.805 772.097ZM148.801 771.787L148.703 771.162L146.727 771.471L146.824 772.096L148.801 771.787ZM147.973 772.283L152.66 771.033L152.145 769.1L147.457 770.35L147.973 772.283ZM161.816 770.066H162.816V768.765L161.559 769.1L161.816 770.066ZM161.934 794.734L162.898 794.469L162.895 794.46L161.934 794.734ZM163.086 795.906L162.701 796.829L162.714 796.835L162.727 796.84L163.086 795.906ZM164.395 796.277H165.395V795.473L164.609 795.301L164.395 796.277ZM164.395 797V798H165.395V797H164.395ZM157.031 797H156.031V798H157.031V797ZM157.031 796.277L156.715 795.329L156.031 795.557V796.277H157.031ZM157.871 796.102L158.057 797.084L158.064 797.083L158.072 797.081L157.871 796.102ZM159.336 772.566L158.453 773.036L158.454 773.037L159.336 772.566ZM157.227 771.941L156.239 772.096L156.371 772.941H157.227V771.941ZM157.129 771.316L156.871 770.35L156.002 770.582L156.141 771.471L157.129 771.316ZM160.816 770.066V792.566H162.816V770.066H160.816ZM160.816 792.566C160.816 793.161 160.826 793.654 160.847 794.041C160.866 794.397 160.898 794.751 160.972 795.009L162.895 794.46C162.897 794.468 162.888 794.433 162.875 794.328C162.864 794.232 162.853 794.101 162.844 793.933C162.826 793.597 162.816 793.144 162.816 792.566H160.816ZM160.969 795C161.215 795.891 161.871 796.484 162.701 796.829L163.471 794.983C163.05 794.808 162.939 794.619 162.898 794.469L160.969 795ZM162.727 796.84C163.13 796.994 163.619 797.131 164.18 797.254L164.609 795.301C164.102 795.189 163.719 795.078 163.445 794.973L162.727 796.84ZM163.395 796.277V797H165.395V796.277H163.395ZM164.395 796H157.031V798H164.395V796ZM158.031 797V796.277H156.031V797H158.031ZM157.347 797.226C157.321 797.235 157.316 797.235 157.358 797.225C157.391 797.217 157.439 797.206 157.505 797.193C157.635 797.165 157.819 797.129 158.057 797.084L157.685 795.119C157.245 795.202 156.875 795.275 156.715 795.329L157.347 797.226ZM158.072 797.081C158.821 796.928 159.469 796.555 159.909 795.918C160.334 795.305 160.492 794.551 160.492 793.758H158.492C158.492 794.306 158.38 794.613 158.264 794.781C158.164 794.925 158.002 795.054 157.67 795.122L158.072 797.081ZM160.492 793.758V774.051H158.492V793.758H160.492ZM160.492 774.051C160.492 773.637 160.479 773.276 160.448 772.979C160.421 772.724 160.37 772.379 160.218 772.096L158.454 773.037C158.42 772.975 158.419 772.945 158.429 772.99C158.437 773.026 158.448 773.09 158.459 773.189C158.48 773.387 158.492 773.671 158.492 774.051H160.492ZM160.219 772.097C159.928 771.549 159.396 771.278 158.927 771.139C158.444 770.996 157.864 770.941 157.227 770.941V772.941C157.774 772.941 158.138 772.991 158.358 773.056C158.592 773.126 158.523 773.167 158.453 773.036L160.219 772.097ZM158.215 771.787L158.117 771.162L156.141 771.471L156.239 772.096L158.215 771.787ZM157.387 772.283L162.074 771.033L161.559 769.1L156.871 770.35L157.387 772.283ZM178.359 775.477L177.36 775.449L177.359 775.482L177.36 775.515L178.359 775.477ZM178.691 776.473L177.849 777.012L177.854 777.019L178.691 776.473ZM184.531 785.418L183.694 785.965L184.561 787.293L185.385 785.938L184.531 785.418ZM185.352 784.07L184.499 783.548L184.497 783.55L185.352 784.07ZM190.43 775.32L189.431 775.277L189.43 775.299V775.32H190.43ZM189.883 774.773L189.68 775.753L189.697 775.756L189.713 775.759L189.883 774.773ZM187.773 774.617H186.773V775.592L187.748 775.617L187.773 774.617ZM187.773 773.758V772.758H186.773V773.758H187.773ZM195.332 773.758H196.332V772.758H195.332V773.758ZM195.332 774.617L195.779 775.512L196.332 775.235V774.617H195.332ZM195.098 774.637V773.637H195.072L195.047 773.638L195.098 774.637ZM192.363 775.711L193.136 776.345L193.137 776.345L192.363 775.711ZM186.406 785.086L185.542 784.582L185.541 784.585L186.406 785.086ZM185.293 787.039L184.414 786.563L184.293 786.786V787.039H185.293ZM186.367 795.945L186.16 796.924L186.168 796.925L186.177 796.927L186.367 795.945ZM187.676 796.199H188.676V795.375L187.866 795.218L187.676 796.199ZM187.676 797V798H188.676V797H187.676ZM180.078 797H179.078V798H180.078V797ZM180.078 796.238L179.876 795.259L179.078 795.424V796.238H180.078ZM181.211 796.004L181.414 796.983L181.414 796.983L181.211 796.004ZM182.441 795.184L181.499 794.849L181.494 794.863L181.49 794.877L182.441 795.184ZM182.656 787.039H183.656V786.767L183.518 786.532L182.656 787.039ZM176.055 776.707L176.813 776.056L176.809 776.051L176.055 776.707ZM172.754 774.617H171.754V775.631L172.767 775.617L172.754 774.617ZM172.754 773.758V772.758H171.754V773.758H172.754ZM184.883 775.105H185.883V775.098L185.883 775.091L184.883 775.105ZM183.867 776.512L184.183 777.46L184.205 777.453L184.226 777.445L183.867 776.512ZM181.23 775.828L180.572 776.581L180.58 776.588L180.589 776.595L181.23 775.828ZM180.02 774.891L179.6 775.799L179.613 775.804L179.626 775.81L180.02 774.891ZM179.531 773.773C179.076 773.773 178.571 773.837 178.148 774.092C177.649 774.391 177.375 774.885 177.36 775.449L179.359 775.504C179.358 775.526 179.351 775.59 179.307 775.667C179.263 775.745 179.207 775.789 179.177 775.807C179.152 775.821 179.159 775.811 179.224 775.798C179.288 775.785 179.387 775.773 179.531 775.773V773.773ZM177.36 775.515C177.381 776.055 177.559 776.558 177.849 777.012L179.534 775.934C179.408 775.737 179.364 775.575 179.359 775.438L177.36 775.515ZM177.854 777.019L183.694 785.965L185.369 784.871L179.529 775.926L177.854 777.019ZM185.385 785.938L186.206 784.59L184.497 783.55L183.677 784.898L185.385 785.938ZM186.205 784.592C187.898 781.823 189.173 779.703 190.025 778.234C190.45 777.501 190.776 776.922 190.997 776.501C191.107 776.293 191.198 776.11 191.264 775.961C191.297 775.887 191.33 775.807 191.357 775.727C191.374 775.679 191.43 775.516 191.43 775.32H189.43C189.43 775.224 189.445 775.155 189.45 775.133C189.456 775.105 189.462 775.088 189.462 775.087C189.463 775.086 189.456 775.104 189.436 775.15C189.397 775.239 189.329 775.376 189.227 775.57C189.025 775.953 188.716 776.505 188.295 777.23C187.455 778.679 186.19 780.783 184.499 783.548L186.205 784.592ZM191.429 775.364C191.445 774.984 191.332 774.574 191.01 774.252C190.717 773.959 190.351 773.839 190.053 773.788L189.713 775.759C189.792 775.773 189.706 775.776 189.596 775.666C189.536 775.607 189.488 775.532 189.459 775.449C189.432 775.37 189.429 775.308 189.431 775.277L191.429 775.364ZM190.085 773.794C189.608 773.695 188.82 773.643 187.799 773.618L187.748 775.617C188.784 775.643 189.402 775.695 189.68 775.753L190.085 773.794ZM188.773 774.617V773.758H186.773V774.617H188.773ZM187.773 774.758H195.332V772.758H187.773V774.758ZM194.332 773.758V774.617H196.332V773.758H194.332ZM194.885 773.723C194.952 773.689 195.008 773.671 195.04 773.662C195.074 773.652 195.102 773.646 195.118 773.643C195.136 773.64 195.149 773.638 195.157 773.637C195.165 773.636 195.169 773.635 195.171 773.635C195.171 773.635 195.151 773.637 195.098 773.637V775.637C195.175 775.637 195.258 775.635 195.337 775.628C195.376 775.625 195.429 775.62 195.487 775.609C195.53 775.601 195.648 775.577 195.779 775.512L194.885 773.723ZM195.047 773.638C193.626 773.71 192.379 774.114 191.59 775.077L193.137 776.345C193.415 776.006 193.991 775.694 195.148 775.635L195.047 773.638ZM191.59 775.077C190.398 776.53 188.372 779.727 185.542 784.582L187.27 785.59C190.117 780.705 192.063 777.653 193.136 776.345L191.59 775.077ZM185.541 784.585C184.969 785.572 184.591 786.236 184.414 786.563L186.172 787.515C186.334 787.218 186.697 786.579 187.272 785.587L185.541 784.585ZM184.293 787.039V794.031H186.293V787.039H184.293ZM184.293 794.031C184.293 794.475 184.311 794.866 184.356 795.187C184.379 795.347 184.411 795.511 184.461 795.667C184.506 795.81 184.587 796.015 184.744 796.201L186.271 794.909C186.357 795.01 186.375 795.087 186.367 795.062C186.363 795.048 186.35 795.001 186.337 794.907C186.31 794.72 186.293 794.434 186.293 794.031H184.293ZM184.744 796.201C185.116 796.64 185.693 796.824 186.16 796.924L186.575 794.967C186.405 794.931 186.301 794.895 186.244 794.869C186.183 794.841 186.216 794.843 186.271 794.909L184.744 796.201ZM186.177 796.927L187.485 797.181L187.866 795.218L186.558 794.964L186.177 796.927ZM186.676 796.199V797H188.676V796.199H186.676ZM187.676 796H180.078V798H187.676V796ZM181.078 797V796.238H179.078V797H181.078ZM180.281 797.218L181.414 796.983L181.008 795.025L179.876 795.259L180.281 797.218ZM181.414 796.983C182.213 796.817 183.093 796.421 183.393 795.491L181.49 794.877C181.505 794.83 181.531 794.827 181.481 794.859C181.418 794.901 181.277 794.969 181.008 795.025L181.414 796.983ZM183.384 795.518C183.591 794.933 183.656 794.03 183.656 792.957H181.656C181.656 794.046 181.578 794.627 181.499 794.849L183.384 795.518ZM183.656 792.957V787.039H181.656V792.957H183.656ZM183.518 786.532C180.239 780.96 177.991 777.427 176.813 776.056L175.296 777.358C176.332 778.565 178.484 781.921 181.794 787.546L183.518 786.532ZM176.809 776.051C175.552 774.606 174.189 773.598 172.741 773.617L172.767 775.617C173.272 775.61 174.11 775.995 175.3 777.364L176.809 776.051ZM173.754 774.617V773.758H171.754V774.617H173.754ZM172.754 774.758H182.91V772.758H172.754V774.758ZM182.91 774.758C183.476 774.758 183.728 774.861 183.816 774.92C183.848 774.942 183.854 774.955 183.857 774.961C183.862 774.972 183.881 775.016 183.883 775.12L185.883 775.091C185.872 774.365 185.579 773.703 184.944 773.269C184.374 772.879 183.646 772.758 182.91 772.758V774.758ZM183.883 775.105C183.883 775.271 183.844 775.343 183.818 775.379C183.788 775.421 183.712 775.5 183.508 775.578L184.226 777.445C184.7 777.263 185.131 776.978 185.44 776.55C185.752 776.118 185.883 775.617 185.883 775.105H183.883ZM183.551 775.563C183.407 775.611 183.286 775.629 183.184 775.629V777.629C183.524 777.629 183.859 777.569 184.183 777.46L183.551 775.563ZM183.184 775.629C182.809 775.629 182.377 775.484 181.872 775.061L180.589 776.595C181.36 777.24 182.23 777.629 183.184 777.629V775.629ZM181.889 775.076C181.569 774.796 181.295 774.567 181.071 774.393C180.875 774.241 180.637 774.067 180.413 773.971L179.626 775.81C179.588 775.794 179.588 775.789 179.643 775.825C179.69 775.857 179.757 775.905 179.847 775.974C180.026 776.113 180.266 776.313 180.572 776.581L181.889 775.076ZM180.439 773.983C180.163 773.855 179.857 773.773 179.531 773.773V775.773C179.518 775.773 179.538 775.77 179.6 775.799L180.439 773.983ZM194.062 789.52H193.062L193.063 789.525L194.062 789.52ZM196.094 783.504L196.865 784.14L196.867 784.137L196.094 783.504ZM206.484 794.949L207.256 795.586L207.256 795.585L206.484 794.949ZM201.406 797.625V796.625L201.4 796.625L201.406 797.625ZM196.211 795.34L195.474 796.015L195.476 796.018L196.211 795.34ZM200.742 782.488L200.75 781.488H200.742V782.488ZM197.852 793.992L197.01 794.533L197.016 794.542L197.852 793.992ZM201.602 796.18L201.593 797.18H201.602V796.18ZM204.844 794.285L203.976 793.789L203.974 793.792L204.844 794.285ZM195.062 789.52C195.062 787.354 195.676 785.581 196.865 784.14L195.323 782.867C193.803 784.708 193.062 786.946 193.062 789.52H195.062ZM196.867 784.137C198.054 782.689 199.428 782.023 201.035 782.023V780.023C198.762 780.023 196.842 781.012 195.32 782.87L196.867 784.137ZM201.035 782.023C202.705 782.023 204.169 782.662 205.469 784.02L206.914 782.636C205.271 780.921 203.298 780.023 201.035 780.023V782.023ZM205.469 784.02C206.744 785.352 207.398 787.029 207.398 789.129H209.398C209.398 786.567 208.581 784.378 206.914 782.636L205.469 784.02ZM207.398 789.129C207.398 791.267 206.818 792.971 205.712 794.314L207.256 795.585C208.703 793.828 209.398 791.652 209.398 789.129H207.398ZM205.713 794.313C204.388 795.919 202.959 796.625 201.406 796.625V798.625C203.681 798.625 205.638 797.547 207.256 795.586L205.713 794.313ZM201.4 796.625C199.644 796.636 198.179 795.997 196.945 794.661L195.476 796.018C197.081 797.756 199.08 798.64 201.413 798.625L201.4 796.625ZM196.948 794.664C195.715 793.318 195.074 791.626 195.062 789.514L193.063 789.525C193.077 792.075 193.868 794.262 195.474 796.015L196.948 794.664ZM200.742 781.488C198.987 781.488 197.609 782.319 196.699 783.853L198.418 784.874C198.992 783.908 199.737 783.488 200.742 783.488V781.488ZM196.699 783.853C195.842 785.295 195.445 787.039 195.445 789.031H197.445C197.445 787.299 197.79 785.932 198.418 784.874L196.699 783.853ZM195.445 789.031C195.445 791.059 195.962 792.902 197.01 794.533L198.693 793.451C197.866 792.165 197.445 790.702 197.445 789.031H195.445ZM197.016 794.542C198.125 796.228 199.667 797.163 201.593 797.18L201.61 795.18C200.437 795.17 199.479 794.647 198.687 793.443L197.016 794.542ZM201.602 797.18C203.409 797.18 204.821 796.353 205.714 794.778L203.974 793.792C203.434 794.744 202.685 795.18 201.602 795.18V797.18ZM205.712 794.781C206.541 793.33 206.938 791.656 206.938 789.793H204.938C204.938 791.367 204.605 792.688 203.976 793.789L205.712 794.781ZM206.938 789.793C206.938 787.788 206.452 785.939 205.472 784.268L203.747 785.279C204.538 786.629 204.938 788.126 204.938 789.793H206.938ZM205.472 784.268C204.416 782.466 202.809 781.504 200.75 781.488L200.734 783.488C202.061 783.498 203.032 784.06 203.747 785.279L205.472 784.268ZM210.156 782.078H209.156V783.298L210.352 783.059L210.156 782.078ZM210.156 781.297V780.297H209.156V781.297H210.156ZM214.629 781.297H215.629V780.297H214.629V781.297ZM214.57 791.336L213.571 791.299L213.571 791.302L214.57 791.336ZM217.754 795.926L217.742 796.926H217.754V795.926ZM222.109 783.035L221.161 783.351L222.109 783.035ZM219.883 782.098H218.883V783.098H219.883V782.098ZM219.883 781.297V780.297H218.883V781.297H219.883ZM224.766 781.297H225.766V780.297H224.766V781.297ZM225.645 795.301L225.222 796.207L225.236 796.214L225.251 796.22L225.645 795.301ZM227.207 795.418L228.197 795.277L228.068 794.373L227.156 794.419L227.207 795.418ZM227.305 796.102L227.63 797.047L228.412 796.778L228.295 795.96L227.305 796.102ZM223.047 797.566L222.082 797.83L222.363 798.859L223.372 798.512L223.047 797.566ZM222.344 794.988L223.309 794.725L222.863 793.092L221.648 794.27L222.344 794.988ZM221.699 795.613L222.353 796.37L222.375 796.351L222.395 796.331L221.699 795.613ZM216.895 797.605V798.605L216.902 798.605L216.895 797.605ZM212.773 795.223L211.85 795.607L211.851 795.608L212.773 795.223ZM211.191 782.234L211.735 781.395L211.723 781.387L211.711 781.38L211.191 782.234ZM211.156 782.078V781.297H209.156V782.078H211.156ZM210.156 782.297H214.629V780.297H210.156V782.297ZM213.629 781.297V789.461H215.629V781.297H213.629ZM213.629 789.461C213.629 789.62 213.61 790.22 213.571 791.299L215.57 791.372C215.608 790.316 215.629 789.667 215.629 789.461H213.629ZM213.571 791.302C213.516 792.909 213.757 794.306 214.466 795.329C215.219 796.414 216.377 796.91 217.742 796.926L217.766 794.926C216.904 794.916 216.418 794.634 216.11 794.189C215.758 793.681 215.521 792.796 215.57 791.37L213.571 791.302ZM217.754 796.926C219.297 796.926 220.63 796.294 221.712 795.119L220.241 793.764C219.5 794.568 218.685 794.926 217.754 794.926V796.926ZM221.712 795.119C222.779 793.96 223.344 792.603 223.344 791.082H221.344C221.344 792.061 220.997 792.944 220.241 793.764L221.712 795.119ZM223.344 791.082V786.336H221.344V791.082H223.344ZM223.344 786.336C223.344 785.458 223.324 784.724 223.283 784.141C223.243 783.584 223.179 783.082 223.058 782.719L221.161 783.351C221.196 783.457 221.249 783.739 221.288 784.283C221.324 784.8 221.344 785.482 221.344 786.336H223.344ZM223.058 782.719C222.843 782.074 222.357 781.651 221.785 781.41C221.24 781.181 220.585 781.098 219.883 781.098V783.098C220.457 783.098 220.811 783.17 221.008 783.254C221.1 783.292 221.139 783.325 221.151 783.337C221.159 783.345 221.159 783.347 221.161 783.351L223.058 782.719ZM220.883 782.098V781.297H218.883V782.098H220.883ZM219.883 782.297H224.766V780.297H219.883V782.297ZM223.766 781.297V792.762H225.766V781.297H223.766ZM223.766 792.762C223.766 793.525 223.843 794.217 224.04 794.788C224.24 795.366 224.601 795.917 225.222 796.207L226.067 794.395C226.102 794.411 226.023 794.402 225.93 794.134C225.835 793.859 225.766 793.417 225.766 792.762H223.766ZM225.251 796.22C225.538 796.343 225.865 796.393 226.165 796.415C226.482 796.439 226.849 796.437 227.258 796.417L227.156 794.419C226.796 794.438 226.519 794.436 226.315 794.421C226.095 794.404 226.025 794.376 226.038 794.382L225.251 796.22ZM226.217 795.559L226.315 796.243L228.295 795.96L228.197 795.277L226.217 795.559ZM226.979 795.156L222.722 796.621L223.372 798.512L227.63 797.047L226.979 795.156ZM224.012 797.303L223.309 794.725L221.379 795.251L222.082 797.83L224.012 797.303ZM221.648 794.27L221.003 794.895L222.395 796.331L223.04 795.706L221.648 794.27ZM221.046 794.856C219.665 796.049 218.284 796.595 216.887 796.605L216.902 798.605C218.864 798.59 220.687 797.808 222.353 796.37L221.046 794.856ZM216.895 796.605C215.975 796.605 215.297 796.43 214.802 796.144C214.321 795.866 213.951 795.448 213.696 794.837L211.851 795.608C212.26 796.586 212.909 797.359 213.801 797.875C214.681 798.384 215.731 798.605 216.895 798.605V796.605ZM213.697 794.838C213.378 794.073 213.188 792.946 213.188 791.395H211.188C211.188 793.072 211.388 794.497 211.85 795.607L213.697 794.838ZM213.188 791.395V785.281H211.188V791.395H213.188ZM213.188 785.281C213.188 784.422 213.1 783.652 212.889 783.008C212.677 782.358 212.317 781.772 211.735 781.395L210.648 783.074C210.73 783.127 210.868 783.263 210.988 783.629C211.109 784 211.188 784.539 211.188 785.281H213.188ZM211.711 781.38C211.168 781.049 210.561 780.977 209.96 781.098L210.352 783.059C210.533 783.023 210.616 783.055 210.671 783.089L211.711 781.38ZM239.98 783.855L239.862 784.848L239.921 784.855H239.98V783.855ZM237.852 783.602L237.97 782.609L237.905 782.601L237.839 782.602L237.852 783.602ZM235.234 785.223L234.39 784.687L234.383 784.698L234.377 784.708L235.234 785.223ZM236.152 795.887L236.859 795.18L236.709 795.03L236.511 794.953L236.152 795.887ZM236.855 796.102L236.581 797.063L236.594 797.067L236.606 797.07L236.855 796.102ZM237.598 796.297H238.598V795.576L237.914 795.348L237.598 796.297ZM237.598 797V798H238.598V797H237.598ZM230.195 797H229.195V798H230.195V797ZM230.195 796.297L229.641 795.465L229.195 795.762V796.297H230.195ZM230.586 796.18L230.815 797.153L230.816 797.153L230.586 796.18ZM232.383 795.145L233.257 795.63L233.268 795.611L233.277 795.592L232.383 795.145ZM232.598 794.285L233.597 794.327L233.598 794.306V794.285H232.598ZM231.602 783.543L231.405 784.524L231.409 784.524L231.602 783.543ZM230.332 783.445L229.342 783.587L229.46 784.411L230.292 784.445L230.332 783.445ZM230.234 782.762L229.877 781.828L229.132 782.113L229.244 782.903L230.234 782.762ZM235.039 780.926L236.039 780.913L236.021 779.48L234.682 779.992L235.039 780.926ZM235.078 784.012L234.078 784.024L234.109 786.491L235.805 784.699L235.078 784.012ZM235.762 783.289L235.081 782.556L235.057 782.578L235.035 782.602L235.762 783.289ZM241.348 782.449H242.348V782.441L242.348 782.433L241.348 782.449ZM240.547 783.758L240.883 784.7L240.907 784.691L240.93 784.682L240.547 783.758ZM240.099 782.863L237.97 782.609L237.733 784.595L239.862 784.848L240.099 782.863ZM237.839 782.602C236.367 782.62 235.209 783.395 234.39 784.687L236.079 785.758C236.614 784.915 237.2 784.61 237.864 784.601L237.839 782.602ZM234.377 784.708C234.003 785.331 233.883 786.142 233.883 787H235.883C235.883 786.269 235.997 785.896 236.092 785.737L234.377 784.708ZM233.883 787V793.953H235.883V787H233.883ZM233.883 793.953C233.883 794.581 234.022 795.186 234.364 795.708C234.71 796.234 235.21 796.596 235.793 796.82L236.511 794.953C236.248 794.852 236.114 794.728 236.036 794.61C235.955 794.488 235.883 794.289 235.883 793.953H233.883ZM235.445 796.594C235.525 796.673 235.6 796.721 235.627 796.738C235.662 796.76 235.692 796.775 235.71 796.784C235.746 796.802 235.777 796.815 235.792 796.821C235.826 796.835 235.858 796.846 235.88 796.854C235.927 796.87 235.984 796.888 236.046 796.907C236.172 796.945 236.351 796.998 236.581 797.063L237.13 795.14C236.904 795.075 236.738 795.027 236.63 794.994C236.575 794.977 236.542 794.966 236.527 794.961C236.518 794.958 236.526 794.961 236.543 794.967C236.55 794.97 236.574 794.98 236.605 794.995C236.62 795.003 236.648 795.018 236.682 795.039C236.699 795.049 236.723 795.065 236.75 795.085C236.777 795.105 236.816 795.136 236.859 795.18L235.445 796.594ZM236.606 797.07C236.834 797.129 237.007 797.174 237.128 797.205C237.189 797.221 237.235 797.233 237.266 797.242C237.31 797.254 237.303 797.253 237.281 797.246L237.914 795.348C237.831 795.321 237.529 795.242 237.105 795.133L236.606 797.07ZM236.598 796.297V797H238.598V796.297H236.598ZM237.598 796H230.195V798H237.598V796ZM231.195 797V796.297H229.195V797H231.195ZM230.75 797.129C230.724 797.146 230.701 797.159 230.685 797.169C230.668 797.178 230.653 797.185 230.642 797.19C230.621 797.2 230.606 797.206 230.601 797.208C230.594 797.211 230.592 797.212 230.594 797.211C230.596 797.21 230.601 797.208 230.61 797.206C230.627 797.201 230.652 797.194 230.688 797.184C230.723 797.175 230.765 797.165 230.815 797.153L230.357 795.206C230.238 795.234 230.128 795.262 230.035 795.29C229.991 795.303 229.804 795.356 229.641 795.465L230.75 797.129ZM230.816 797.153C231.825 796.915 232.784 796.481 233.257 795.63L231.509 794.659C231.461 794.745 231.222 795.002 230.356 795.206L230.816 797.153ZM233.277 795.592C233.475 795.196 233.578 794.77 233.597 794.327L231.599 794.244C231.591 794.426 231.551 794.572 231.488 794.697L233.277 795.592ZM233.598 794.285V784.676H231.598V794.285H233.598ZM233.598 784.676C233.598 784.182 233.462 783.676 233.1 783.263C232.745 782.86 232.268 782.655 231.794 782.562L231.409 784.524C231.599 784.562 231.62 784.61 231.598 784.584C231.588 784.573 231.585 784.563 231.586 784.568C231.589 784.575 231.598 784.607 231.598 784.676H233.598ZM231.798 782.562C231.511 782.505 231.005 782.471 230.372 782.446L230.292 784.445C230.962 784.471 231.302 784.503 231.405 784.524L231.798 782.562ZM231.322 783.304L231.224 782.62L229.244 782.903L229.342 783.587L231.322 783.304ZM230.591 783.696L235.396 781.86L234.682 779.992L229.877 781.828L230.591 783.696ZM234.039 780.938L234.078 784.024L236.078 783.999L236.039 780.913L234.039 780.938ZM235.805 784.699L236.488 783.976L235.035 782.602L234.352 783.325L235.805 784.699ZM236.442 784.022C237.808 782.753 239.015 782.238 240.078 782.238V780.238C238.329 780.238 236.658 781.091 235.081 782.556L236.442 784.022ZM240.078 782.238C240.347 782.238 240.371 782.304 240.33 782.265C240.284 782.22 240.344 782.225 240.348 782.465L242.348 782.433C242.338 781.866 242.18 781.265 241.711 780.817C241.247 780.375 240.642 780.238 240.078 780.238V782.238ZM240.348 782.449C240.348 782.64 240.309 782.719 240.294 782.743C240.285 782.758 240.262 782.793 240.164 782.834L240.93 784.682C241.365 784.501 241.743 784.208 242 783.787C242.253 783.374 242.348 782.909 242.348 782.449H240.348ZM240.211 782.816C240.137 782.842 240.062 782.855 239.98 782.855V784.855C240.289 784.855 240.592 784.804 240.883 784.7L240.211 782.816ZM254.023 783.621L254.012 784.621H254.023V783.621ZM255 783.035L254.407 782.23L254.371 782.256L254.338 782.285L255 783.035ZM256.875 782.156V781.156H256.837L256.798 781.159L256.875 782.156ZM258.242 783.348L259.24 783.275L259.239 783.262L259.237 783.25L258.242 783.348ZM257.5 784.598L257.964 785.483L257.977 785.477L257.989 785.47L257.5 784.598ZM253.418 784.48L253.734 783.532L253.73 783.53L253.418 784.48ZM250.059 781.199L249.116 781.535L249.121 781.546L250.059 781.199ZM253.125 774.07L253.395 775.033L253.404 775.031L253.125 774.07ZM273.047 772.859L273.868 773.43L273.876 773.419L273.883 773.408L273.047 772.859ZM273.457 770.984V769.984H272.457V770.984H273.457ZM274.277 770.984L275.236 770.699L275.023 769.984H274.277V770.984ZM274.258 774.363L274.974 775.062L274.982 775.053L274.258 774.363ZM271.66 775.281V776.281H271.692L271.725 776.279L271.66 775.281ZM264.277 775.281V774.281H263.277V775.281H264.277ZM264.531 795.262L263.624 795.683L263.63 795.696L264.531 795.262ZM265.723 795.984L265.519 796.963L265.527 796.965L265.536 796.967L265.723 795.984ZM266.855 796.199H267.855V795.371L267.042 795.217L266.855 796.199ZM266.855 797V798H267.855V797H266.855ZM259.277 797H258.277V798H259.277V797ZM259.277 796.18L259.065 795.203L258.277 795.374V796.18H259.277ZM260.625 795.887L260.414 794.909L260.413 794.91L260.625 795.887ZM261.523 795.438L262.381 795.952L262.407 795.909L262.428 795.863L261.523 795.438ZM261.68 775.281H262.68V774.281H261.68V775.281ZM252.402 777.977L251.424 777.771L251.423 777.776L252.402 777.977ZM251.246 779.617C251.246 780.989 251.394 782.156 251.776 783.016C251.973 783.458 252.25 783.863 252.642 784.16C253.046 784.467 253.516 784.616 254.012 784.621L254.034 782.621C253.938 782.62 253.89 782.597 253.85 782.567C253.798 782.527 253.705 782.43 253.604 782.205C253.394 781.731 253.246 780.901 253.246 779.617H251.246ZM254.023 784.621C254.404 784.621 254.729 784.457 254.938 784.332C255.174 784.191 255.417 784.001 255.662 783.785L254.338 782.285C254.141 782.46 254 782.563 253.909 782.617C253.865 782.643 253.849 782.649 253.858 782.645C253.864 782.643 253.924 782.621 254.023 782.621V784.621ZM255.593 783.84C256.29 783.327 256.728 783.171 256.952 783.153L256.798 781.159C256.006 781.22 255.195 781.65 254.407 782.23L255.593 783.84ZM256.875 783.156C257.006 783.156 257.088 783.172 257.135 783.186C257.157 783.193 257.171 783.2 257.177 783.203C257.18 783.205 257.182 783.206 257.183 783.207C257.184 783.207 257.184 783.208 257.185 783.208C257.185 783.208 257.185 783.208 257.185 783.208C257.185 783.208 257.185 783.208 257.185 783.208C257.185 783.208 257.185 783.208 257.185 783.208C257.185 783.208 257.185 783.209 257.186 783.21C257.188 783.213 257.193 783.22 257.2 783.235C257.214 783.267 257.236 783.331 257.247 783.446L259.237 783.25C259.182 782.682 258.974 782.114 258.499 781.7C258.03 781.292 257.442 781.156 256.875 781.156V783.156ZM257.245 783.421C257.251 783.506 257.234 783.536 257.226 783.55C257.213 783.573 257.164 783.639 257.011 783.726L257.989 785.47C258.37 785.256 258.712 784.965 258.946 784.571C259.185 784.169 259.272 783.723 259.24 783.275L257.245 783.421ZM257.036 783.712C256.901 783.782 256.773 783.812 256.641 783.812V785.812C257.107 785.812 257.552 785.699 257.964 785.483L257.036 783.712ZM256.641 783.812C255.171 783.812 254.235 783.699 253.734 783.532L253.102 785.429C253.929 785.705 255.141 785.812 256.641 785.812V783.812ZM253.73 783.53C252.402 783.095 251.506 782.23 250.996 780.852L249.121 781.546C249.835 783.476 251.179 784.799 253.106 785.431L253.73 783.53ZM251.001 780.864C250.768 780.209 250.648 779.509 250.648 778.758H248.648C248.648 779.725 248.803 780.653 249.116 781.535L251.001 780.864ZM250.648 778.758C250.648 777.677 250.9 776.893 251.321 776.326C251.739 775.762 252.398 775.313 253.395 775.033L252.855 773.108C251.534 773.478 250.455 774.137 249.714 775.135C248.976 776.13 248.648 777.365 248.648 778.758H250.648ZM253.404 775.031C254.018 774.852 254.704 774.758 255.469 774.758V772.758C254.54 772.758 253.664 772.872 252.846 773.11L253.404 775.031ZM255.469 774.758H270.273V772.758H255.469V774.758ZM270.273 774.758C271.741 774.758 273.144 774.472 273.868 773.43L272.226 772.288C272.117 772.445 271.671 772.758 270.273 772.758V774.758ZM273.883 773.408C274.313 772.752 274.457 771.895 274.457 770.984H272.457C272.457 771.74 272.327 772.133 272.211 772.311L273.883 773.408ZM273.457 771.984H274.277V769.984H273.457V771.984ZM273.319 771.27C273.559 772.076 273.656 772.678 273.653 773.103C273.651 773.534 273.549 773.658 273.534 773.674L274.982 775.053C275.488 774.522 275.649 773.809 275.653 773.114C275.657 772.413 275.504 771.598 275.236 770.699L273.319 771.27ZM273.542 773.665C273.274 773.94 272.706 774.212 271.596 774.283L271.725 776.279C273.037 776.195 274.2 775.855 274.974 775.062L273.542 773.665ZM271.66 774.281H264.277V776.281H271.66V774.281ZM263.277 775.281V792.918H265.277V775.281H263.277ZM263.277 792.918C263.277 793.536 263.299 794.07 263.347 794.51C263.392 794.926 263.468 795.347 263.624 795.683L265.438 794.841C265.439 794.841 265.434 794.831 265.425 794.804C265.417 794.778 265.407 794.742 265.396 794.694C265.375 794.596 265.353 794.465 265.335 794.295C265.298 793.953 265.277 793.497 265.277 792.918H263.277ZM263.63 795.696C264.002 796.467 264.782 796.81 265.519 796.963L265.927 795.005C265.687 794.955 265.547 794.895 265.475 794.851C265.41 794.812 265.418 794.798 265.432 794.828L263.63 795.696ZM265.536 796.967L266.669 797.182L267.042 795.217L265.909 795.002L265.536 796.967ZM265.855 796.199V797H267.855V796.199H265.855ZM266.855 796H259.277V798H266.855V796ZM260.277 797V796.18H258.277V797H260.277ZM259.49 797.157L260.837 796.864L260.413 794.91L259.065 795.203L259.49 797.157ZM260.836 796.864C261.124 796.802 261.407 796.716 261.658 796.591C261.903 796.468 262.189 796.272 262.381 795.952L260.666 794.923C260.705 794.859 260.744 794.821 260.764 794.805C260.782 794.79 260.786 794.791 260.764 794.802C260.715 794.826 260.607 794.867 260.414 794.909L260.836 796.864ZM262.428 795.863C262.553 795.597 262.606 795.287 262.635 795.024C262.666 794.737 262.68 794.396 262.68 794.012H260.68C260.68 794.357 260.667 794.618 260.647 794.806C260.623 795.018 260.598 795.056 260.619 795.012L262.428 795.863ZM262.68 794.012V775.281H260.68V794.012H262.68ZM261.68 774.281H255.234V776.281H261.68V774.281ZM255.234 774.281C254.266 774.281 253.392 774.576 252.704 775.231C252.037 775.866 251.638 776.752 251.424 777.771L253.381 778.182C253.545 777.404 253.806 776.943 254.083 776.679C254.34 776.435 254.692 776.281 255.234 776.281V774.281ZM251.423 777.776C251.303 778.357 251.246 778.972 251.246 779.617H253.246C253.246 779.09 253.293 778.611 253.382 778.178L251.423 777.776ZM287.422 795.34L288.35 795.711L288.617 795.045L288.071 794.579L287.422 795.34ZM287.129 795.809L286.304 795.244L286.293 795.259L286.283 795.275L287.129 795.809ZM286.504 796.59L285.78 795.9L285.771 795.909L285.762 795.919L286.504 796.59ZM285.645 797.312L285.105 796.47L285.094 796.478L285.082 796.486L285.645 797.312ZM282.266 795.301L281.284 795.491L281.285 795.497L282.266 795.301ZM282.109 794.227L283.106 794.144L282.943 792.195L281.459 793.467L282.109 794.227ZM280.605 796.062L281.301 796.781L281.307 796.775L281.313 796.77L280.605 796.062ZM279.062 797.156L278.593 796.273L278.585 796.278L279.062 797.156ZM275.742 797.488L275.5 798.458L275.507 798.46L275.742 797.488ZM274.609 796.961L274 797.754L274.009 797.761L274.019 797.768L274.609 796.961ZM273.77 795.926L272.875 796.373L272.881 796.384L273.77 795.926ZM274.355 791.98L273.648 791.273L274.355 791.98ZM276.641 790.535L276.281 789.602L276.641 790.535ZM279.141 789.773L279.343 790.753L279.356 790.75L279.141 789.773ZM281.875 789.207L282.069 790.188L282.875 790.029V789.207H281.875ZM281.836 784.871L280.836 784.9L280.837 784.916L280.838 784.932L281.836 784.871ZM281.602 783.602L280.647 783.9L280.653 783.918L280.659 783.936L281.602 783.602ZM280.938 782.547L280.23 783.254L280.246 783.269L280.262 783.284L280.938 782.547ZM277.891 782.508L277.376 781.65L277.365 781.657L277.891 782.508ZM276.914 783.25L276.186 782.565L276.914 783.25ZM276.055 784.227L276.172 785.22L276.562 785.174L276.817 784.874L276.055 784.227ZM275 784.207L274.699 785.161L274.728 785.17L274.757 785.177L275 784.207ZM274.375 783.875L273.668 784.582L273.697 784.612L273.729 784.638L274.375 783.875ZM277.227 781.277L277.501 782.239L277.51 782.236L277.227 781.277ZM281.719 781.199L281.319 782.116L281.329 782.12L281.339 782.124L281.719 781.199ZM282.969 782.078L282.211 782.731L282.217 782.738L282.223 782.744L282.969 782.078ZM283.711 783.367L282.765 783.691L282.767 783.699L283.711 783.367ZM284.062 784.91L283.07 785.028L283.071 785.04L283.073 785.052L284.062 784.91ZM284.18 786.59H283.18V786.601L283.18 786.613L284.18 786.59ZM284.18 793.66L283.181 793.713L283.181 793.714L284.18 793.66ZM284.473 795.438L283.527 795.762L283.532 795.778L283.539 795.795L284.473 795.438ZM286.758 794.773L287.407 794.013L286.479 793.222L285.885 794.286L286.758 794.773ZM281.875 790.496H282.875V789.337L281.728 789.507L281.875 790.496ZM279.16 791.023L278.91 790.055L278.906 790.056L279.16 791.023ZM277.383 791.766L276.822 790.937L276.811 790.945L277.383 791.766ZM276.387 792.781L275.537 792.254L275.532 792.262L276.387 792.781ZM279.062 795.633L278.502 794.805L279.062 795.633ZM280.293 794.559L281.034 795.23L281.039 795.224L281.044 795.219L280.293 794.559ZM281.875 792.098L282.82 792.426L282.875 792.267V792.098H281.875ZM286.493 794.968C286.511 794.925 286.524 794.903 286.516 794.918C286.511 794.927 286.5 794.945 286.481 794.976C286.443 795.037 286.385 795.126 286.304 795.244L287.954 796.373C288.042 796.244 288.118 796.131 288.177 796.036C288.223 795.963 288.3 795.838 288.35 795.711L286.493 794.968ZM286.283 795.275C286.171 795.453 286.007 795.662 285.78 795.9L287.228 797.279C287.522 796.971 287.775 796.659 287.974 796.343L286.283 795.275ZM285.762 795.919C285.577 796.123 285.36 796.307 285.105 796.47L286.184 798.155C286.58 797.901 286.936 797.603 287.245 797.261L285.762 795.919ZM285.082 796.486C284.902 796.608 284.756 796.645 284.629 796.645V798.645C285.205 798.645 285.736 798.46 286.207 798.139L285.082 796.486ZM284.629 796.645C284.272 796.645 284.092 796.563 283.998 796.493L282.798 798.093C283.33 798.491 283.97 798.645 284.629 798.645V796.645ZM283.998 796.493C283.808 796.35 283.658 796.174 283.544 795.954L281.768 796.874C282.019 797.357 282.364 797.767 282.798 798.093L283.998 796.493ZM283.544 795.954C283.405 795.686 283.306 795.404 283.246 795.105L281.285 795.497C281.381 795.979 281.543 796.439 281.768 796.874L283.544 795.954ZM283.247 795.111C283.174 794.732 283.128 794.411 283.106 794.144L281.113 794.31C281.143 794.667 281.201 795.062 281.284 795.491L283.247 795.111ZM281.459 793.467C281.326 793.581 281.206 793.731 281.12 793.844C281.019 793.975 280.903 794.139 280.774 794.329L282.429 795.452C282.547 795.278 282.64 795.148 282.708 795.059C282.743 795.014 282.766 794.985 282.781 794.968C282.799 794.947 282.791 794.96 282.76 794.986L281.459 793.467ZM280.774 794.329C280.572 794.627 280.284 794.969 279.898 795.355L281.313 796.77C281.76 796.322 282.137 795.883 282.429 795.452L280.774 794.329ZM279.91 795.344C279.572 795.671 279.138 795.984 278.593 796.273L279.532 798.039C280.211 797.678 280.806 797.261 281.301 796.781L279.91 795.344ZM278.585 796.278C278.155 796.511 277.628 796.645 276.973 796.645V798.645C277.906 798.645 278.772 798.452 279.54 798.035L278.585 796.278ZM276.973 796.645C276.671 796.645 276.34 796.604 275.978 796.516L275.507 798.46C276.003 798.581 276.493 798.645 276.973 798.645V796.645ZM275.985 796.518C275.69 796.445 275.431 796.323 275.199 796.154L274.019 797.768C274.465 798.094 274.961 798.324 275.5 798.458L275.985 796.518ZM275.219 796.168C275.012 796.009 274.821 795.784 274.659 795.468L272.881 796.384C273.16 796.927 273.53 797.392 274 797.754L275.219 796.168ZM274.664 795.479C274.53 795.211 274.438 794.828 274.438 794.285H272.438C272.438 795.044 272.566 795.755 272.875 796.373L274.664 795.479ZM274.438 794.285C274.438 793.606 274.652 793.098 275.063 792.688L273.648 791.273C272.835 792.087 272.438 793.115 272.438 794.285H274.438ZM275.063 792.688C275.564 792.186 276.202 791.776 277.001 791.468L276.281 789.602C275.256 789.997 274.371 790.551 273.648 791.273L275.063 792.688ZM277.001 791.468C277.874 791.131 278.654 790.895 279.343 790.753L278.938 788.794C278.117 788.964 277.23 789.236 276.281 789.602L277.001 791.468ZM279.356 790.75C280.115 790.583 281.019 790.395 282.069 790.188L281.681 788.226C280.622 788.435 279.703 788.626 278.925 788.797L279.356 790.75ZM282.875 789.207V785.945H280.875V789.207H282.875ZM282.875 785.945C282.875 785.631 282.861 785.252 282.834 784.811L280.838 784.932C280.863 785.35 280.875 785.686 280.875 785.945H282.875ZM282.836 784.842C282.82 784.299 282.723 783.772 282.544 783.267L280.659 783.936C280.766 784.238 280.826 784.558 280.836 784.9L282.836 784.842ZM282.556 783.303C282.375 782.724 282.06 782.219 281.613 781.81L280.262 783.284C280.44 783.448 280.568 783.646 280.647 783.9L282.556 783.303ZM281.645 781.84C281.099 781.294 280.371 781.098 279.629 781.098V783.098C280.033 783.098 280.177 783.201 280.23 783.254L281.645 781.84ZM279.629 781.098C278.801 781.098 278.03 781.258 277.376 781.65L278.405 783.365C278.663 783.211 279.05 783.098 279.629 783.098V781.098ZM277.365 781.657C276.893 781.949 276.482 782.25 276.186 782.565L277.642 783.935C277.763 783.807 278.003 783.614 278.416 783.359L277.365 781.657ZM276.186 782.565C275.96 782.805 275.66 783.146 275.292 783.58L276.817 784.874C277.178 784.448 277.452 784.138 277.642 783.935L276.186 782.565ZM275.938 783.233C275.547 783.279 275.333 783.26 275.243 783.237L274.757 785.177C275.188 785.285 275.677 785.278 276.172 785.22L275.938 783.233ZM275.301 783.253C275.159 783.209 275.073 783.156 275.021 783.112L273.729 784.638C274.015 784.881 274.346 785.049 274.699 785.161L275.301 783.253ZM275.082 783.168C275.093 783.178 275.104 783.192 275.114 783.207C275.124 783.223 275.131 783.238 275.136 783.25C275.145 783.276 275.141 783.28 275.141 783.25H273.141C273.141 783.725 273.291 784.205 273.668 784.582L275.082 783.168ZM275.141 783.25C275.141 783.334 275.104 783.364 275.136 783.323C275.178 783.271 275.284 783.17 275.509 783.037L274.491 781.315C273.848 781.695 273.141 782.313 273.141 783.25H275.141ZM275.509 783.037C275.985 782.756 276.64 782.485 277.501 782.239L276.952 780.316C275.99 780.591 275.161 780.919 274.491 781.315L275.509 783.037ZM277.51 782.236C278.358 781.985 279.135 781.867 279.844 781.867V779.867C278.912 779.867 277.944 780.022 276.943 780.318L277.51 782.236ZM279.844 781.867C280.493 781.867 280.972 781.965 281.319 782.116L282.118 780.283C281.449 779.991 280.679 779.867 279.844 779.867V781.867ZM281.339 782.124C281.716 782.279 281.999 782.484 282.211 782.731L283.726 781.425C283.288 780.917 282.737 780.536 282.098 780.274L281.339 782.124ZM282.223 782.744C282.453 783.002 282.636 783.313 282.765 783.691L284.657 783.043C284.448 782.431 284.135 781.883 283.715 781.412L282.223 782.744ZM282.767 783.699C282.911 784.106 283.012 784.549 283.07 785.028L285.055 784.792C284.982 784.178 284.85 783.592 284.654 783.036L282.767 783.699ZM283.073 785.052C283.144 785.55 283.18 786.062 283.18 786.59H285.18C285.18 785.971 285.138 785.364 285.052 784.769L283.073 785.052ZM283.18 786.613C283.193 787.178 283.199 787.724 283.199 788.25H285.199C285.199 787.708 285.193 787.147 285.179 786.567L283.18 786.613ZM283.199 788.25C283.199 789.231 283.186 790.185 283.161 791.113L285.16 791.168C285.186 790.221 285.199 789.248 285.199 788.25H283.199ZM283.161 791.113C283.134 792.071 283.14 792.938 283.181 793.713L285.178 793.608C285.141 792.898 285.134 792.086 285.16 791.168L283.161 791.113ZM283.181 793.714C283.223 794.493 283.329 795.186 283.527 795.762L285.419 795.113C285.304 794.777 285.215 794.286 285.178 793.607L283.181 793.714ZM283.539 795.795C283.665 796.125 283.862 796.459 284.175 796.713C284.504 796.979 284.893 797.102 285.293 797.102V795.102C285.297 795.102 285.319 795.102 285.351 795.113C285.384 795.124 285.413 795.141 285.434 795.158C285.473 795.19 285.45 795.192 285.407 795.08L283.539 795.795ZM285.293 797.102C285.861 797.102 286.332 796.837 286.692 796.51C287.048 796.188 287.356 795.753 287.631 795.261L285.885 794.286C285.665 794.679 285.482 794.908 285.349 795.029C285.22 795.145 285.207 795.102 285.293 795.102V797.102ZM286.109 795.534L286.773 796.101L288.071 794.579L287.407 794.013L286.109 795.534ZM281.728 789.507C280.65 789.667 279.709 789.849 278.91 790.055L279.411 791.992C280.122 791.808 280.99 791.638 282.022 791.485L281.728 789.507ZM278.906 790.056C278.098 790.269 277.39 790.554 276.823 790.937L277.943 792.594C278.261 792.379 278.738 792.169 279.415 791.991L278.906 790.056ZM276.811 790.945C276.289 791.309 275.855 791.742 275.537 792.254L277.236 793.309C277.387 793.065 277.617 792.821 277.955 792.586L276.811 790.945ZM275.532 792.262C275.194 792.818 275.055 793.458 275.055 794.129H277.055C277.055 793.732 277.136 793.473 277.242 793.3L275.532 792.262ZM275.055 794.129C275.055 794.905 275.223 795.674 275.734 796.254C276.266 796.859 277.011 797.082 277.773 797.082V795.082C277.39 795.082 277.276 794.979 277.235 794.933C277.173 794.863 277.055 794.655 277.055 794.129H275.055ZM277.773 797.082C278.439 797.082 279.061 796.841 279.623 796.461L278.502 794.805C278.178 795.024 277.941 795.082 277.773 795.082V797.082ZM279.623 796.461C280.135 796.115 280.605 795.703 281.034 795.23L279.552 793.887C279.225 794.248 278.875 794.552 278.502 794.805L279.623 796.461ZM281.044 795.219C281.455 794.751 281.819 794.266 282.136 793.763L280.442 792.698C280.186 793.106 279.886 793.506 279.542 793.898L281.044 795.219ZM282.136 793.763C282.439 793.281 282.679 792.829 282.82 792.426L280.93 791.769C280.862 791.965 280.712 792.269 280.442 792.698L282.136 793.763ZM282.875 792.098V790.496H280.875V792.098H282.875ZM294.004 770.066H295.004V768.783L293.76 769.097L294.004 770.066ZM294.004 782.352H293.004V784.32L294.594 783.159L294.004 782.352ZM303.301 782.996L302.577 783.686L302.583 783.693L303.301 782.996ZM303.047 795.125L303.771 795.815L303.772 795.814L303.047 795.125ZM294.57 797.293L294.334 798.265L294.337 798.265L294.57 797.293ZM291.602 796.238H290.602V796.878L291.183 797.146L291.602 796.238ZM291.484 772.625L292.413 772.254L291.484 772.625ZM289.297 771.941L288.308 772.087L288.433 772.941H289.297V771.941ZM289.199 771.277L288.955 770.308L288.078 770.529L288.21 771.423L289.199 771.277ZM294.004 795.184H293.004V795.747L293.486 796.039L294.004 795.184ZM300.078 783.543L300.597 782.688L300.591 782.684L300.078 783.543ZM297.285 782.762L297.274 783.762H297.285V782.762ZM294.004 784.012L293.373 783.236L293.004 783.536V784.012H294.004ZM293.004 770.066V782.352H295.004V770.066H293.004ZM294.594 783.159C295.706 782.347 297.037 781.926 298.633 781.926V779.926C296.661 779.926 294.906 780.455 293.414 781.544L294.594 783.159ZM298.633 781.926C300.138 781.926 301.438 782.49 302.577 783.686L304.025 782.306C302.534 780.741 300.721 779.926 298.633 779.926V781.926ZM302.583 783.693C303.674 784.815 304.293 786.502 304.293 788.914H306.293C306.293 786.17 305.584 783.911 304.018 782.299L302.583 783.693ZM304.293 788.914C304.293 791.272 303.611 793.079 302.322 794.436L303.772 795.814C305.477 794.02 306.293 791.686 306.293 788.914H304.293ZM302.323 794.435C300.895 795.933 299.269 796.645 297.402 796.645V798.645C299.859 798.645 301.996 797.676 303.771 795.815L302.323 794.435ZM297.402 796.645C296.577 796.645 295.711 796.538 294.804 796.321L294.337 798.265C295.382 798.516 296.405 798.645 297.402 798.645V796.645ZM294.807 796.321C293.866 796.092 293.203 795.876 292.782 795.682L291.944 797.498C292.539 797.772 293.348 798.025 294.334 798.265L294.807 796.321ZM292.782 795.682L292.021 795.33L291.183 797.146L291.944 797.498L292.782 795.682ZM292.602 796.238V774.266H290.602V796.238H292.602ZM292.602 774.266C292.602 773.806 292.592 773.418 292.57 773.11C292.551 772.848 292.517 772.515 292.413 772.254L290.556 772.996C290.534 772.942 290.537 772.926 290.548 772.993C290.557 773.049 290.566 773.133 290.575 773.253C290.592 773.493 290.602 773.827 290.602 774.266H292.602ZM292.413 772.254C292.16 771.621 291.59 771.311 291.099 771.158C290.595 771 289.978 770.941 289.297 770.941V772.941C289.892 772.941 290.278 772.996 290.503 773.067C290.741 773.141 290.627 773.174 290.556 772.996L292.413 772.254ZM290.286 771.796L290.189 771.132L288.21 771.423L288.308 772.087L290.286 771.796ZM289.444 772.247L294.248 771.036L293.76 769.097L288.955 770.308L289.444 772.247ZM293.486 796.039C294.689 796.767 295.98 797.141 297.344 797.141V795.141C296.364 795.141 295.429 794.877 294.521 794.328L293.486 796.039ZM297.344 797.141C298.98 797.141 300.474 796.533 301.802 795.397L300.502 793.877C299.487 794.746 298.442 795.141 297.344 795.141V797.141ZM301.802 795.397C303.285 794.128 303.91 792.143 303.91 789.715H301.91C301.91 791.843 301.363 793.14 300.502 793.877L301.802 795.397ZM303.91 789.715C303.91 786.532 302.884 784.076 300.597 782.688L299.559 784.398C301.049 785.302 301.91 786.96 301.91 789.715H303.91ZM300.591 782.684C299.568 782.074 298.46 781.762 297.285 781.762V783.762C298.089 783.762 298.844 783.971 299.566 784.402L300.591 782.684ZM297.297 781.762C295.878 781.746 294.564 782.268 293.373 783.236L294.635 784.788C295.527 784.062 296.4 783.752 297.274 783.762L297.297 781.762ZM293.004 784.012V795.184H295.004V784.012H293.004ZM312.324 770.066H313.324V768.765L312.067 769.1L312.324 770.066ZM312.441 794.734L313.406 794.469L313.403 794.46L312.441 794.734ZM313.594 795.906L313.209 796.829L313.222 796.835L313.235 796.84L313.594 795.906ZM314.902 796.277H315.902V795.473L315.117 795.301L314.902 796.277ZM314.902 797V798H315.902V797H314.902ZM307.539 797H306.539V798H307.539V797ZM307.539 796.277L307.223 795.329L306.539 795.557V796.277H307.539ZM308.379 796.102L308.565 797.084L308.572 797.083L308.58 797.081L308.379 796.102ZM309.844 772.566L308.961 773.036L308.961 773.037L309.844 772.566ZM307.734 771.941L306.746 772.096L306.878 772.941H307.734V771.941ZM307.637 771.316L307.379 770.35L306.51 770.582L306.649 771.471L307.637 771.316ZM311.324 770.066V792.566H313.324V770.066H311.324ZM311.324 792.566C311.324 793.161 311.334 793.654 311.355 794.041C311.374 794.397 311.406 794.751 311.48 795.009L313.403 794.46C313.405 794.468 313.396 794.433 313.383 794.328C313.372 794.232 313.361 794.101 313.352 793.933C313.334 793.597 313.324 793.144 313.324 792.566H311.324ZM311.477 795C311.722 795.891 312.379 796.484 313.209 796.829L313.978 794.983C313.558 794.808 313.447 794.619 313.406 794.469L311.477 795ZM313.235 796.84C313.638 796.994 314.127 797.131 314.688 797.254L315.117 795.301C314.61 795.189 314.227 795.078 313.953 794.973L313.235 796.84ZM313.902 796.277V797H315.902V796.277H313.902ZM314.902 796H307.539V798H314.902V796ZM308.539 797V796.277H306.539V797H308.539ZM307.855 797.226C307.829 797.235 307.823 797.235 307.866 797.225C307.899 797.217 307.947 797.206 308.012 797.193C308.143 797.165 308.326 797.129 308.565 797.084L308.193 795.119C307.753 795.202 307.383 795.275 307.223 795.329L307.855 797.226ZM308.58 797.081C309.329 796.928 309.977 796.555 310.417 795.918C310.842 795.305 311 794.551 311 793.758H309C309 794.306 308.888 794.613 308.772 794.781C308.672 794.925 308.51 795.054 308.178 795.122L308.58 797.081ZM311 793.758V774.051H309V793.758H311ZM311 774.051C311 773.637 310.987 773.276 310.955 772.979C310.929 772.724 310.877 772.379 310.726 772.096L308.961 773.037C308.928 772.975 308.927 772.945 308.937 772.99C308.945 773.026 308.956 773.09 308.966 773.189C308.987 773.387 309 773.671 309 774.051H311ZM310.727 772.097C310.435 771.549 309.904 771.278 309.434 771.139C308.952 770.996 308.372 770.941 307.734 770.941V772.941C308.282 772.941 308.646 772.991 308.866 773.056C309.1 773.126 309.031 773.167 308.961 773.036L310.727 772.097ZM308.722 771.787L308.625 771.162L306.649 771.471L306.746 772.096L308.722 771.787ZM307.894 772.283L312.582 771.033L312.067 769.1L307.379 770.35L307.894 772.283ZM323.887 780.867V779.867H323.874L323.861 779.868L323.887 780.867ZM328.594 783.797L329.545 783.489L329.544 783.486L328.594 783.797ZM328.828 786.395V787.395H329.686L329.816 786.547L328.828 786.395ZM319.473 786.395V785.395H318.637L318.489 786.217L319.473 786.395ZM321.68 794.637L322.202 793.784L322.201 793.783L321.68 794.637ZM328.672 794.031L329.391 793.336L328.787 792.711L328.084 793.223L328.672 794.031ZM329.238 794.617L330.001 795.264L330.587 794.573L329.957 793.922L329.238 794.617ZM328.691 795.262L329.414 795.953L329.434 795.932L329.454 795.909L328.691 795.262ZM323.418 797.605V798.605L323.424 798.605L323.418 797.605ZM320.059 796.512L319.479 797.327L319.48 797.328L320.059 796.512ZM319.59 782.664L318.932 781.911L318.921 781.92L318.91 781.93L319.59 782.664ZM319.668 785.125L318.706 784.853L318.346 786.125H319.668V785.125ZM326.309 785.125V786.125H327.309V785.125H326.309ZM325.605 782.84L324.871 783.518L324.88 783.528L325.605 782.84ZM321.035 783.094L321.715 783.827L321.722 783.82L321.035 783.094ZM323.887 781.867C325.014 781.867 325.831 782.088 326.41 782.449C326.972 782.799 327.388 783.328 327.643 784.107L329.544 783.486C329.161 782.313 328.474 781.377 327.467 780.751C326.477 780.135 325.26 779.867 323.887 779.867V781.867ZM327.642 784.105C327.885 784.855 327.944 785.563 327.84 786.242L329.816 786.547C329.972 785.533 329.875 784.51 329.545 783.489L327.642 784.105ZM328.828 785.395H319.473V787.395H328.828V785.395ZM318.489 786.217C318.311 787.203 318.219 788.135 318.219 789.012H320.219C320.219 788.274 320.296 787.461 320.457 786.572L318.489 786.217ZM318.219 789.012C318.219 791.944 319.103 794.234 321.158 795.49L322.201 793.783C320.975 793.034 320.219 791.575 320.219 789.012H318.219ZM321.158 795.49C322.216 796.137 323.453 796.438 324.824 796.438V794.438C323.748 794.438 322.888 794.204 322.202 793.784L321.158 795.49ZM324.824 796.438C326.359 796.438 327.843 795.87 329.26 794.84L328.084 793.223C326.922 794.067 325.841 794.438 324.824 794.438V796.438ZM327.953 794.726L328.519 795.312L329.957 793.922L329.391 793.336L327.953 794.726ZM328.476 793.97L327.929 794.615L329.454 795.909L330.001 795.264L328.476 793.97ZM327.969 794.57C326.66 795.936 325.156 796.594 323.412 796.605L323.424 798.605C325.743 798.591 327.754 797.686 329.414 795.953L327.969 794.57ZM323.418 796.605C322.423 796.605 321.504 796.311 320.637 795.696L319.48 797.328C320.671 798.171 321.991 798.605 323.418 798.605V796.605ZM320.638 795.697C318.88 794.447 317.953 792.554 317.953 789.832H315.953C315.953 793.073 317.097 795.633 319.479 797.327L320.638 795.697ZM317.953 789.832C317.953 786.867 318.775 784.781 320.269 783.398L318.91 781.93C316.889 783.802 315.953 786.495 315.953 789.832H317.953ZM320.247 783.418C321.427 782.388 322.642 781.899 323.912 781.867L323.861 779.868C322.058 779.913 320.409 780.622 318.932 781.911L320.247 783.418ZM319.668 786.125H326.309V784.125H319.668V786.125ZM327.309 785.125C327.309 783.968 327.048 782.908 326.331 782.152L324.88 783.528C325.101 783.761 325.309 784.225 325.309 785.125H327.309ZM326.34 782.162C325.671 781.436 324.8 781.078 323.809 781.078V783.078C324.276 783.078 324.603 783.228 324.871 783.518L326.34 782.162ZM323.809 781.078C322.461 781.078 321.278 781.488 320.348 782.367L321.722 783.82C322.225 783.345 322.89 783.078 323.809 783.078V781.078ZM320.355 782.36C319.551 783.106 318.966 783.933 318.706 784.853L320.63 785.397C320.761 784.937 321.087 784.41 321.715 783.827L320.355 782.36Z" fill="#F5F5F5"/>
<g style="mix-blend-mode:multiply">
<rect width="375" height="34" transform="translate(25 845)" fill="white"/>
<rect x="146" y="866" width="134" height="5" rx="2.5" fill="#262F5F"/>
<g filter="url(#filter0_f_123_1768)">
<ellipse cx="277.5" cy="1129.5" rx="252.5" ry="240.5" fill="#5C0826"/>
</g>
</g>
</g>
<defs>
<filter id="filter0_f_123_1768" x="-175" y="689" width="905" height="881" filterUnits="userSpaceOnUse" color-interpolation-filters="sRGB">
<feFlood flood-opacity="0" result="BackgroundImageFix"/>
<feBlend mode="normal" in="SourceGraphic" in2="BackgroundImageFix" result="shape"/>
<feGaussianBlur stdDeviation="100" result="effect1_foregroundBlur_123_1768"/>
</filter>
<clipPath id="clip0_123_1768">
<rect width="414" height="896" rx="10" fill="white"/>
</clipPath>
</defs>
</svg>
